<?xml version="1.0" encoding="utf-8"?>
<!-- Generator: Adobe Illustrator 16.0.0, SVG Export Plug-In . SVG Version: 6.00 Build 0)  -->
<!DOCTYPE svg PUBLIC "-//W3C//DTD SVG 1.1//EN" "http://www.w3.org/Graphics/SVG/1.1/DTD/svg11.dtd">
<svg version="1.1" id="Capa_1" xmlns="http://www.w3.org/2000/svg" xmlns:xlink="http://www.w3.org/1999/xlink" x="0px" y="0px"
	 width="300px" height="300px" viewBox="0 0 300 300" enable-background="new 0 0 300 300" xml:space="preserve">
<path fill-rule="evenodd" clip-rule="evenodd" fill="#AFAEAE" d="M5.641,149.999c0,79.725,64.636,144.36,144.357,144.36
	c79.731,0,144.361-64.636,144.361-144.36c0-79.729-64.63-144.358-144.361-144.358C70.277,5.641,5.641,70.271,5.641,149.999z
	 M90.889,145.323c27.081-26.752,53.978-53.32,80.683-79.7c6.441,6.437,13.495,13.486,21.186,21.182
	c-19.602,18.973-39.464,38.199-60.146,58.21c20.814,20.196,40.6,39.403,60.163,58.394c-7.647,7.671-14.701,14.738-21.426,21.48
	C144.788,198.626,117.901,172.035,90.889,145.323z"/>
</svg>
