<?xml version="1.0" encoding="utf-8"?>
<!-- Generator: Adobe Illustrator 16.0.0, SVG Export Plug-In . SVG Version: 6.00 Build 0)  -->
<!DOCTYPE svg PUBLIC "-//W3C//DTD SVG 1.1//EN" "http://www.w3.org/Graphics/SVG/1.1/DTD/svg11.dtd">
<svg version="1.1" id="Capa_1" xmlns="http://www.w3.org/2000/svg" xmlns:xlink="http://www.w3.org/1999/xlink" x="0px" y="0px"
	 width="300px" height="300px" viewBox="0 0 300 300" enable-background="new 0 0 300 300" xml:space="preserve">
<path fill-rule="evenodd" clip-rule="evenodd" fill="#AFAEAE" d="M150.002,5.641c-79.731,0-144.361,64.63-144.361,144.358
	c0,79.725,64.63,144.36,144.361,144.36c79.722,0,144.357-64.636,144.357-144.36C294.36,70.271,229.724,5.641,150.002,5.641z
	 M128.651,224.89c-6.724-6.742-13.778-13.81-21.426-21.48c19.564-18.991,39.349-38.198,60.164-58.394
	c-20.682-20.012-40.544-39.237-60.146-58.21c7.69-7.696,14.744-14.745,21.185-21.182c26.706,26.38,53.602,52.948,80.683,79.7
	C182.1,172.035,155.212,198.626,128.651,224.89z"/>
</svg>
