<?xml version="1.0" encoding="utf-8"?>
<!-- Generator: Adobe Illustrator 16.0.4, SVG Export Plug-In . SVG Version: 6.00 Build 0)  -->
<!DOCTYPE svg PUBLIC "-//W3C//DTD SVG 1.1//EN" "http://www.w3.org/Graphics/SVG/1.1/DTD/svg11.dtd">
<svg version="1.1" id="Capa_1" xmlns="http://www.w3.org/2000/svg" xmlns:xlink="http://www.w3.org/1999/xlink" x="0px" y="0px"
	 width="720px" height="328.286px" viewBox="0 0 720 328.286" enable-background="new 0 0 720 328.286" xml:space="preserve">
<g>
	<g>
		<title>Layer 1</title>
		<g id="layer1">
			<path id="path4050" fill="#FCFCFC" d="M78.986,114.857l-2.053,11.696l0.008,0.008c-2.51,0.41-4.938,1.067-7.258,1.943v-0.008
				l-7.621-9.105l-7.162,4.138l4.067,11.151l0.016,0.007c-1.942,1.594-3.722,3.38-5.315,5.323l-0.008-0.023l-11.151-4.067
				l-4.138,7.162l9.105,7.629c-0.874,2.317-1.525,4.742-1.935,7.25l-0.008-0.008l-11.696,2.053v8.276l11.696,2.054l0.008-0.008
				c0.41,2.508,1.061,4.932,1.935,7.25l-9.105,7.628l4.138,7.163l11.151-4.067l0.008-0.023c1.593,1.942,3.373,3.729,5.315,5.323
				l-0.016,0.007l-4.067,11.151l7.162,4.138l7.621-9.105v-0.008c2.319,0.876,4.748,1.533,7.258,1.942l-0.008,0.009l2.053,11.695
				h8.269l2.053-11.695l-0.007-0.009c2.509-0.408,4.938-1.061,7.257-1.935l7.629,9.105l7.162-4.138l-4.075-11.151
				c1.938-1.59,3.717-3.369,5.307-5.307l11.158,4.067l4.13-7.163l-9.098-7.628c0.875-2.318,1.533-4.742,1.943-7.25l11.696-2.046
				v-8.276l-11.696-2.053c-0.41-2.505-1.069-4.926-1.943-7.242l9.098-7.629l-4.13-7.162l-11.158,4.067
				c-1.59-1.938-3.37-3.717-5.307-5.307l4.075-11.151l-7.162-4.139l-7.629,9.105c-2.319-0.874-4.748-1.525-7.257-1.935l0.007-0.008
				l-2.053-11.696H78.986L78.986,114.857z M83.125,134.995c16.101,0,29.156,13.048,29.156,29.148
				c0,16.1-13.056,29.148-29.156,29.148c-16.1,0-29.148-13.049-29.148-29.148C53.977,148.043,67.025,134.995,83.125,134.995z"/>
		</g>
	</g>
	<circle fill="#FCFCFC" cx="83.125" cy="164.143" r="13.662"/>
</g>
<circle fill="none" stroke="#FCFCFC" stroke-width="3" stroke-miterlimit="10" cx="83.125" cy="164.143" r="62"/>
<text transform="matrix(1 0 0 1 154.125 188.854)" fill="#FCFCFC" font-family="'AmericanTypewriter'" font-size="80.8612">Configuración</text>
</svg>
