<?xml version="1.0" encoding="utf-8"?>
<!-- Generator: Adobe Illustrator 16.0.0, SVG Export Plug-In . SVG Version: 6.00 Build 0)  -->
<!DOCTYPE svg PUBLIC "-//W3C//DTD SVG 1.1//EN" "http://www.w3.org/Graphics/SVG/1.1/DTD/svg11.dtd">
<svg version="1.1" id="Capa_1" xmlns="http://www.w3.org/2000/svg" xmlns:xlink="http://www.w3.org/1999/xlink" x="0px" y="0px"
	 width="300px" height="100px" viewBox="0 0 300 100" enable-background="new 0 0 300 100" xml:space="preserve">
<g>
	<path fill="#FFFFFF" d="M24.563,69.287c3.036,0,5.947-0.612,8.729-1.835v1.835c-2.802,1.138-5.713,1.708-8.729,1.708
		c-6.388,0-11.835-2.267-16.348-6.8c-4.533-4.512-6.8-9.96-6.8-16.349s2.267-11.838,6.8-16.349c4.513-4.534,9.96-6.8,16.348-6.8
		c3.016,0,5.927,0.568,8.729,1.708v1.865c-2.781-1.243-5.692-1.865-8.729-1.865c-5.922,0-10.974,2.098-15.146,6.293
		c-4.196,4.195-6.293,9.244-6.293,15.147c0,5.924,2.097,10.973,6.293,15.147C13.59,67.188,18.642,69.287,24.563,69.287z"/>
	<path fill="#FFFFFF" d="M37.057,64.164c-4.533-4.512-6.801-9.962-6.801-16.349c0-6.388,2.268-11.837,6.801-16.349
		c4.511-4.534,9.96-6.8,16.349-6.8c6.388,0,11.838,2.267,16.35,6.8c4.533,4.511,6.8,9.96,6.8,16.349
		c0,6.387-2.267,11.837-6.8,16.349c-4.512,4.533-9.962,6.8-16.35,6.8C47.017,70.964,41.567,68.697,37.057,64.164z M38.259,32.667
		c-4.195,4.175-6.293,9.224-6.293,15.148c0,5.903,2.098,10.952,6.293,15.148c4.174,4.194,9.222,6.293,15.146,6.293
		s10.976-2.099,15.148-6.293c4.193-4.196,6.293-9.245,6.293-15.148c0-5.924-2.1-10.973-6.293-15.148
		c-4.173-4.194-9.224-6.293-15.148-6.293S42.433,28.473,38.259,32.667z"/>
	<path fill="#FFFFFF" d="M85.379,64.164c-4.533-4.512-6.804-9.962-6.804-16.349c0-6.388,2.271-11.837,6.804-16.349
		c4.51-4.534,9.96-6.8,16.347-6.8s11.84,2.267,16.35,6.8c4.533,4.511,6.801,9.96,6.801,16.349c0,6.387-2.268,11.837-6.801,16.349
		c-4.51,4.533-9.963,6.8-16.35,6.8S89.889,68.697,85.379,64.164z M86.579,32.667c-4.194,4.175-6.294,9.224-6.294,15.148
		c0,5.903,2.1,10.952,6.294,15.148c4.174,4.194,9.224,6.293,15.146,6.293c5.926,0,10.974-2.099,15.148-6.293
		c4.195-4.196,6.292-9.245,6.292-15.148c0-5.924-2.097-10.973-6.292-15.148c-4.175-4.194-9.223-6.293-15.148-6.293
		C95.803,26.374,90.753,28.473,86.579,32.667z"/>
	<path fill="#FFFFFF" d="M130.473,25.109v43.703h21.504v1.708h-23.212V25.109H130.473z"/>
	<path fill="#FFFFFF" d="M186.637,25.109v45.411h-1.678V48.573h-27.132v21.947h-1.708V25.109h1.708v21.789h27.132V25.109H186.637z"
		/>
	<path fill="#FFFFFF" d="M197.006,64.164c-4.532-4.512-6.797-9.962-6.797-16.349c0-6.388,2.265-11.837,6.797-16.349
		c4.514-4.534,9.964-6.8,16.354-6.8c6.387,0,11.837,2.267,16.348,6.8c4.531,4.511,6.797,9.96,6.797,16.349
		c0,6.387-2.266,11.837-6.797,16.349c-4.511,4.533-9.961,6.8-16.348,6.8C206.97,70.964,201.52,68.697,197.006,64.164z
		 M198.21,32.667c-4.196,4.175-6.292,9.224-6.292,15.148c0,5.903,2.096,10.952,6.292,15.148c4.174,4.194,9.224,6.293,15.149,6.293
		c5.92,0,10.97-2.099,15.146-6.293c4.195-4.196,6.293-9.245,6.293-15.148c0-5.924-2.098-10.973-6.293-15.148
		c-4.176-4.194-9.226-6.293-15.146-6.293C207.434,26.374,202.384,28.473,198.21,32.667z"/>
	<path fill="#FFFFFF" d="M251.874,70.932c-2.846-0.126-5.461-0.865-7.84-2.213c-2.698-1.539-4.525-3.584-5.472-6.136l1.58-0.601
		c0.824,2.235,2.434,4.016,4.839,5.344c2.109,1.159,4.427,1.804,6.956,1.93c3.775,0.147,6.945-0.811,9.519-2.878
		c2.383-1.896,3.627-4.175,3.731-6.831c0.213-4.911-3.964-8.569-12.522-10.974c-4.616-1.286-8.097-2.993-10.437-5.123
		c-2.337-2.15-3.443-4.627-3.318-7.431c0.188-4.112,1.918-7.159,5.186-9.14c2.676-1.644,5.956-2.371,9.837-2.182
		c4.616,0.189,8.306,1.76,11.066,4.712l-1.265,1.17c-2.426-2.615-5.711-4.016-9.866-4.207c-3.543-0.149-6.504,0.496-8.887,1.93
		c-2.762,1.686-4.217,4.28-4.363,7.779c-0.212,4.848,3.962,8.475,12.522,10.877c4.614,1.287,8.096,3.005,10.436,5.156
		c2.338,2.151,3.445,4.648,3.32,7.494c-0.147,3.162-1.612,5.861-4.396,8.096c-2.7,2.171-5.965,3.258-9.803,3.258
		C252.422,70.964,252.146,70.952,251.874,70.932z"/>
	<path fill="#FFFFFF" d="M298.584,25.109v1.708h-13.979v43.703h-1.706V26.817h-13.979v-1.708H298.584z"/>
</g>
</svg>
