<?xml version="1.0" encoding="utf-8"?>
<!-- Generator: Adobe Illustrator 16.0.4, SVG Export Plug-In . SVG Version: 6.00 Build 0)  -->
<!DOCTYPE svg PUBLIC "-//W3C//DTD SVG 1.1//EN" "http://www.w3.org/Graphics/SVG/1.1/DTD/svg11.dtd">
<svg version="1.1" id="Capa_1" xmlns="http://www.w3.org/2000/svg" xmlns:xlink="http://www.w3.org/1999/xlink" x="0px" y="0px"
	 width="720px" height="328.286px" viewBox="0 0 720 328.286" enable-background="new 0 0 720 328.286" xml:space="preserve">
<g>
	<path fill="#FFFFFF" d="M72.645,165.863c0-11.288,4.591-21.522,12.004-28.937l9.646,9.646c-4.942,4.942-8.004,11.766-8.004,19.291
		s3.062,14.346,8.004,19.29l-9.646,9.645C77.236,187.383,72.645,177.15,72.645,165.863L72.645,165.863z M65.335,214.11
		c-12.887-12.889-19.984-30.022-19.984-48.247c0-18.228,7.098-35.362,19.984-48.248l9.651,9.65
		c-10.312,10.308-15.989,24.017-15.989,38.598c0,14.579,5.678,28.288,15.989,38.598L65.335,214.11z M25.568,128.677
		c4.812-11.377,11.698-21.592,20.469-30.362l9.65,9.649c-15.464,15.464-23.982,36.027-23.982,57.898
		c0,21.87,8.518,42.432,23.982,57.896l-9.65,9.649c-8.771-8.771-15.657-18.986-20.469-30.362
		c-4.983-11.779-7.509-24.291-7.509-37.184C18.059,152.968,20.585,140.458,25.568,128.677L25.568,128.677z M106.76,172.684"/>
	<path fill="#FFFFFF" d="M174.192,97.446v55.478h-53.493V96.596H98.133v135.131h22.565v-52.928h53.493v53.78h22.566V97.446H174.192z
		 M185.475,172.909c-3.379,0-6.214-2.293-7.057-5.405h-23.849c-0.733,3.268-3.646,5.711-7.135,5.711
		c-3.489,0-6.402-2.443-7.136-5.711h-24.002c-0.795,3.181-3.663,5.54-7.091,5.54c-4.042,0-7.317-3.276-7.317-7.317
		c0-4.042,3.276-7.318,7.317-7.318c3.55,0,6.508,2.528,7.176,5.882h23.917c0.733-3.268,3.647-5.711,7.136-5.711
		c3.489,0,6.401,2.443,7.135,5.711h23.71c0.614-3.421,3.598-6.019,7.196-6.019c4.042,0,7.318,3.276,7.318,7.319
		C192.793,169.63,189.516,172.909,185.475,172.909z"/>
</g>
<g>
	<path fill="#FFFFFF" d="M271.94,198.258c4.764,0,9.33-0.959,13.697-2.878v2.878c-4.4,1.786-8.966,2.68-13.697,2.68
		c-10.024,0-18.577-3.557-25.656-10.669c-7.114-7.08-10.669-15.632-10.669-25.656s3.556-18.576,10.669-25.656
		c7.079-7.112,15.632-10.669,25.656-10.669c4.731,0,9.296,0.894,13.697,2.68v2.928c-4.367-1.952-8.933-2.928-13.697-2.928
		c-9.297,0-17.22,3.292-23.77,9.875c-6.584,6.584-9.875,14.507-9.875,23.771c0,9.296,3.292,17.22,9.875,23.771
		C254.721,194.966,262.644,198.258,271.94,198.258z"/>
	<path fill="#FFFFFF" d="M291.542,190.219c-7.114-7.08-10.669-15.632-10.669-25.656s3.556-18.576,10.669-25.656
		c7.079-7.112,15.632-10.669,25.655-10.669c10.024,0,18.578,3.557,25.657,10.669c7.113,7.08,10.668,15.632,10.668,25.656
		s-3.555,18.576-10.668,25.656c-7.08,7.112-15.633,10.669-25.657,10.669C307.174,200.888,298.622,197.332,291.542,190.219z
		 M293.428,140.792c-6.583,6.551-9.875,14.475-9.875,23.771c0,9.264,3.292,17.187,9.875,23.771c6.55,6.583,14.473,9.875,23.77,9.875
		s17.221-3.292,23.771-9.875c6.582-6.584,9.875-14.507,9.875-23.771c0-9.296-3.293-17.22-9.875-23.771
		c-6.55-6.583-14.475-9.875-23.771-9.875S299.979,134.209,293.428,140.792z"/>
	<path fill="#FFFFFF" d="M367.369,190.219c-7.114-7.08-10.67-15.632-10.67-25.656s3.557-18.576,10.67-25.656
		c7.078-7.112,15.631-10.669,25.656-10.669c10.023,0,18.576,3.557,25.656,10.669c7.113,7.08,10.668,15.632,10.668,25.656
		s-3.555,18.576-10.668,25.656c-7.08,7.112-15.633,10.669-25.656,10.669C383,200.888,374.447,197.332,367.369,190.219z
		 M369.256,140.792c-6.584,6.551-9.877,14.475-9.877,23.771c0,9.264,3.293,17.187,9.877,23.771
		c6.551,6.583,14.473,9.875,23.77,9.875c9.295,0,17.221-3.292,23.771-9.875c6.58-6.584,9.873-14.507,9.873-23.771
		c0-9.296-3.293-17.22-9.873-23.771c-6.551-6.583-14.477-9.875-23.771-9.875C383.729,130.917,375.807,134.209,369.256,140.792z"/>
	<path fill="#FFFFFF" d="M438.135,128.932v68.582h33.744v2.68h-36.424v-71.262H438.135z"/>
	<path fill="#FFFFFF" d="M526.27,128.932v71.262h-2.633v-34.439h-42.578v34.439h-2.68v-71.262h2.68v34.192h42.578v-34.192H526.27z"
		/>
	<path fill="#FFFFFF" d="M542.545,190.219c-7.115-7.08-10.67-15.632-10.67-25.656s3.555-18.576,10.67-25.656
		c7.078-7.112,15.631-10.669,25.656-10.669c10.023,0,18.576,3.557,25.656,10.669c7.113,7.08,10.668,15.632,10.668,25.656
		s-3.555,18.576-10.668,25.656c-7.08,7.112-15.633,10.669-25.656,10.669C558.176,200.888,549.623,197.332,542.545,190.219z
		 M544.432,140.792c-6.584,6.551-9.877,14.475-9.877,23.771c0,9.264,3.293,17.187,9.877,23.771
		c6.551,6.583,14.473,9.875,23.77,9.875c9.295,0,17.221-3.292,23.771-9.875c6.58-6.584,9.873-14.507,9.873-23.771
		c0-9.296-3.293-17.22-9.873-23.771c-6.551-6.583-14.477-9.875-23.771-9.875C558.904,130.917,550.982,134.209,544.432,140.792z"/>
	<path fill="#FFFFFF" d="M628.645,200.838c-4.467-0.198-8.568-1.356-12.309-3.474c-4.234-2.415-7.094-5.624-8.584-9.627l2.482-0.942
		c1.289,3.507,3.82,6.302,7.592,8.386c3.309,1.82,6.947,2.829,10.916,3.027c5.922,0.231,10.9-1.273,14.939-4.516
		c3.738-2.978,5.688-6.551,5.855-10.719c0.328-7.709-6.223-13.448-19.652-17.22c-7.244-2.019-12.703-4.698-16.375-8.039
		c-3.672-3.375-5.41-7.262-5.213-11.662c0.299-6.451,3.012-11.231,8.139-14.342c4.201-2.58,9.348-3.722,15.436-3.424
		c7.244,0.298,13.031,2.763,17.367,7.394l-1.984,1.837c-3.805-4.103-8.965-6.303-15.482-6.601
		c-5.559-0.231-10.207,0.777-13.945,3.027c-4.334,2.646-6.617,6.716-6.85,12.208c-0.33,7.608,6.221,13.299,19.652,17.07
		c7.246,2.018,12.703,4.715,16.377,8.089c3.672,3.374,5.41,7.295,5.211,11.761c-0.232,4.963-2.531,9.197-6.898,12.704
		c-4.234,3.408-9.363,5.111-15.385,5.111C629.504,200.888,629.074,200.872,628.645,200.838z"/>
	<path fill="#FFFFFF" d="M701.941,128.932v2.68h-21.936v68.582h-2.68v-68.582h-21.934v-2.68H701.941z"/>
</g>
</svg>
