<?xml version="1.0" encoding="utf-8"?>
<!-- Generator: Adobe Illustrator 16.0.4, SVG Export Plug-In . SVG Version: 6.00 Build 0)  -->
<!DOCTYPE svg PUBLIC "-//W3C//DTD SVG 1.1//EN" "http://www.w3.org/Graphics/SVG/1.1/DTD/svg11.dtd">
<svg version="1.1" id="Capa_1" xmlns="http://www.w3.org/2000/svg" xmlns:xlink="http://www.w3.org/1999/xlink" x="0px" y="0px"
	 width="720px" height="328.286px" viewBox="0 0 720 328.286" enable-background="new 0 0 720 328.286" xml:space="preserve">
<g>
	<g>
		<path fill-rule="evenodd" clip-rule="evenodd" fill="none" stroke="#FFFFFF" stroke-width="3" stroke-miterlimit="10" d="
			M276.213,164.141c0,73.615-59.675,133.289-133.288,133.289c-73.612,0-133.289-59.674-133.289-133.289
			c0-73.609,59.676-133.286,133.289-133.286C216.538,30.855,276.213,90.532,276.213,164.141z"/>
		<g>
			<path fill-rule="evenodd" clip-rule="evenodd" fill="#FFFFFF" d="M202.988,230.432c-37.033,0-73.675,0-110.688,0
				c0-44.156,0-88.188,0-132.44c36.83,0,73.583,0,110.688,0C202.988,141.982,202.988,186.009,202.988,230.432z"/>
			<path fill-rule="evenodd" clip-rule="evenodd" fill="#FFFFFF" d="M83.943,97.843c0,44.372,0,88.288,0,132.16
				c-14.457,2.883-26.892-2.079-32.506-13.447c-1.743-3.522-2.778-7.768-2.813-11.692c-0.237-27.145-0.173-54.295-0.102-81.445
				c0.034-13.42,10.287-24.465,23.658-25.529C75.943,97.586,79.758,97.843,83.943,97.843z"/>
			<path fill-rule="evenodd" clip-rule="evenodd" fill="#FFFFFF" d="M211.643,97.959c12.954-1.23,23.552,2.195,29.579,14.208
				c1.806,3.6,2.655,8.046,2.689,12.116c0.236,26.46,0.13,52.922,0.119,79.384c-0.008,15.884-10.973,26.864-26.825,26.893
				c-1.748,0-3.494,0-5.562,0C211.643,186.286,211.643,142.273,211.643,97.959z"/>
			<path fill-rule="evenodd" clip-rule="evenodd" fill="#FFFFFF" d="M185.567,89.727c-5.166,0-9.709,0-14.508,0
				c-0.21-3.886-0.406-7.501-0.614-11.373c-15.646,0-31.062,0-46.97,0c0,3.818,0,7.666,0,11.741c-5.182,0-9.869,0-14.928,0
				c0-5.604-0.852-11.271,0.222-16.553c1.29-6.35,6.304-10.118,12.785-10.917c4.692-0.577,9.485-0.397,14.234-0.419
				c10.596-0.051,21.19-0.09,31.787,0.004c11.938,0.109,17.96,6.283,17.992,18.215C185.574,83.398,185.567,86.374,185.567,89.727z"
				/>
		</g>
	</g>
	<g>
		<g>
			<path fill="#FFFFFF" d="M348.455,132.791l8.135,26.729l8.93-28.474c0.455-1.478,1.247-2.217,2.374-2.217h0.267
				c0.349,0,0.81,0.051,1.371,0.158c0.705,0.177,1.163,0.266,1.376,0.266c0.56,0.068,1.338,0.104,2.321,0.104
				c1.059,0,1.885-0.054,2.486-0.157l1.846-0.32c0.106-0.033,0.32-0.051,0.635-0.051c1.618,0,2.43,0.618,2.43,1.849
				c0,1.129-0.564,1.691-1.688,1.691c-0.283,0-0.697-0.044-1.243-0.134c-0.545-0.087-0.959-0.133-1.242-0.133
				c-1.793,0-2.694,1.323-2.694,3.964v3.697v4.649v4.489v8.347c0,2.644,0.882,3.961,2.644,3.961c0.351,0,0.738-0.053,1.16-0.157
				c0.775-0.07,1.233-0.104,1.376-0.104c1.124,0,1.688,0.562,1.688,1.689c0,1.267-0.758,1.901-2.27,1.901
				c0.067,0-0.194-0.034-0.795-0.106c-2.428-0.281-4.487-0.422-6.178-0.422c-1.657,0-3.242,0.124-4.757,0.368
				c-0.632,0.107-1.196,0.16-1.688,0.16c-1.376,0-2.062-0.589-2.062-1.769c0-1.216,0.71-1.822,2.13-1.822
				c0.354,0,0.62,0.024,0.799,0.068c0.78,0.095,1.241,0.141,1.384,0.141c1.276,0,2.076-1.318,2.396-3.954
				c0.07-0.562,0.106-2.355,0.106-5.379c0-1.158,0.034-2.845,0.106-5.062v-4.746v-9.333c0-0.208-0.09-0.314-0.267-0.314
				c-0.104,0-0.211,0.106-0.314,0.314l-9.721,30.116c-0.423,1.337-1.41,2.004-2.958,2.004c-0.917,0-1.595-0.134-2.034-0.396
				c-0.441-0.264-0.785-0.8-1.031-1.608l-9.562-30.116c-0.105-0.208-0.229-0.314-0.369-0.314s-0.211,0.106-0.211,0.314l0.316,24.427
				c0.035,2.559,0.74,3.838,2.114,3.838c0.386,0,0.915,0,1.584,0h0.634c1.374,0,2.061,0.597,2.061,1.793
				c0,1.199-0.705,1.798-2.113,1.798c-0.247,0-0.617-0.034-1.11-0.106c-0.775-0.104-1.603-0.228-2.483-0.368
				c-0.705-0.106-1.603-0.16-2.694-0.16c-1.937,0-3.188,0.054-3.75,0.16l-2.218,0.422c-0.072,0-0.178,0.019-0.317,0.053
				c-0.141,0-0.247,0-0.317,0c-1.62,0-2.429-0.615-2.429-1.849c0-0.492,0.158-0.906,0.475-1.243
				c0.317-0.334,0.704-0.499,1.162-0.499c0.388,0,0.846,0.051,1.374,0.158c0.528,0.104,0.916,0.157,1.162,0.157
				c1.796,0,2.694-1.32,2.694-3.962v-21.235c0-2.641-0.898-3.964-2.694-3.964c-0.282,0-0.704,0.046-1.267,0.133
				c-0.563,0.09-0.986,0.134-1.269,0.134c-1.091,0-1.637-0.562-1.637-1.691c0-1.23,0.792-1.849,2.377-1.849
				c0.141,0,0.37,0.018,0.687,0.051l1.847,0.214c0.917,0.106,1.778,0.159,2.59,0.159c0.668,0,1.575-0.072,2.721-0.213
				c1.144-0.141,1.98-0.211,2.509-0.211c1.374,0,2.289,0.862,2.746,2.588L348.455,132.791z"/>
			<path fill="#FFFFFF" d="M406.404,164.96c-2.888,0-4.666-1.25-5.335-3.751c-1.798,2.642-4.615,3.964-8.453,3.964
				c-2.852,0-5.134-0.707-6.84-2.112c-1.711-1.41-2.563-3.295-2.563-5.655c0-2.922,1.25-5.068,3.751-6.444
				c0.952-0.528,1.771-0.87,2.456-1.027c0.686-0.16,2.069-0.363,4.148-0.61c2.958-0.315,4.884-0.756,5.783-1.318
				c0.898-0.564,1.347-1.604,1.347-3.118c0-1.441-0.501-2.58-1.504-3.406c-1.006-0.826-2.404-1.243-4.201-1.243
				c-1.585,0-3.062,0.441-4.437,1.323c-0.528,0.351-0.792,0.722-0.792,1.109c0,0.141,0.157,0.314,0.475,0.528
				c0.492,0.352,0.739,0.949,0.739,1.793c0,0.707-0.255,1.289-0.766,1.744c-0.512,0.46-1.153,0.688-1.929,0.688
				c-0.916,0-1.682-0.317-2.297-0.952c-0.618-0.633-0.926-1.408-0.926-2.324c0-1.972,0.979-3.663,2.932-5.073
				c1.955-1.405,4.322-2.112,7.106-2.112c6.408,0,9.613,3.077,9.613,9.226v10.648c0,1.688,0.034,2.688,0.106,3.005
				c0.211,1.23,0.81,1.844,1.796,1.844c1.233,0,1.849-1.12,1.849-3.358v-2.568c0-1.119,0.538-1.679,1.613-1.679
				c1.144,0,1.716,0.846,1.716,2.536v0.262v3.015C411.723,163.269,409.925,164.96,406.404,164.96z M400.541,154.45v-3.75
				c-0.772,0.702-1.587,1.197-2.447,1.478c-0.86,0.281-2.394,0.528-4.604,0.739c-4,0.39-5.998,1.868-5.998,4.437
				c0,1.342,0.484,2.398,1.453,3.171c0.967,0.775,2.28,1.161,3.935,1.161c2.36,0,4.218-0.64,5.572-1.927
				C399.81,158.472,400.505,156.704,400.541,154.45z"/>
			<path fill="#FFFFFF" d="M428.854,146.842c0-1.41,0.88-2.219,2.642-2.43c-0.177-1.233-0.766-2.202-1.769-2.905
				c-1.004-0.705-2.3-1.057-3.884-1.057c-2.431,0-4.383,0.97-5.863,2.905c-1.479,1.936-2.22,4.509-2.22,7.712
				c0,3.31,0.695,5.907,2.089,7.792c1.391,1.885,3.319,2.825,5.783,2.825c1.551,0,2.897-0.438,4.041-1.318
				c1.144-0.882,1.929-2.096,2.351-3.646c0.354-1.233,0.564-1.936,0.635-2.112c0.388-0.705,0.949-1.057,1.69-1.057
				c0.599,0,1.091,0.193,1.479,0.579c0.388,0.39,0.581,0.882,0.581,1.48c0,0.879-0.281,1.938-0.846,3.171
				c-0.562,1.231-1.232,2.254-2.006,3.062c-2.079,2.22-4.772,3.329-8.082,3.329c-3.594,0-6.491-1.27-8.691-3.804
				c-2.202-2.537-3.302-5.863-3.302-9.984c0-4.368,1.136-7.862,3.409-10.486c2.27-2.623,5.288-3.937,9.059-3.937
				c2.817,0,5.158,0.766,7.026,2.299c1.865,1.534,2.798,3.477,2.798,5.837c0,1.304-0.361,2.379-1.083,3.223
				c-0.722,0.845-1.645,1.27-2.771,1.27c-0.882,0-1.611-0.267-2.192-0.795C429.145,148.267,428.854,147.618,428.854,146.842z"/>
			<path fill="#FFFFFF" d="M448.401,139.368v1.451c1.829-2.567,4.278-3.856,7.341-3.856c2.467,0,4.466,0.697,5.997,2.088
				c1.531,1.392,2.299,3.179,2.299,5.362c0,1.548-0.39,2.808-1.163,3.777c-0.775,0.969-1.795,1.453-3.064,1.453
				c-0.81,0-1.498-0.247-2.06-0.741c-0.564-0.492-0.846-1.09-0.846-1.795c0-0.564,0.211-1.063,0.635-1.505
				c0.422-0.441,0.913-0.661,1.478-0.661c0.107,0,0.335,0.051,0.688,0.157c0.211-0.422,0.315-0.81,0.315-1.163
				c0-1.02-0.448-1.883-1.348-2.588c-0.896-0.702-2.016-1.056-3.354-1.056c-2.747,0-4.578,1.232-5.494,3.697
				c-0.562,1.517-0.844,3.804-0.844,6.868v3.486c0,2.36,0.018,3.681,0.051,3.962c0.178,2.008,0.723,3.011,1.639,3.011
				c0.457,0,0.933-0.061,1.427-0.179c0.388-0.092,0.722-0.139,1.003-0.139c1.127,0,1.691,0.556,1.691,1.665
				c0,1.216-0.72,1.822-2.159,1.822h-0.211c-0.525,0-1.325-0.063-2.396-0.185c-1.071-0.123-1.868-0.185-2.396-0.185
				c-1.402,0-2.508,0.034-3.314,0.104l-2.948,0.265c-1.439,0-2.159-0.616-2.159-1.849c0-1.093,0.676-1.639,2.025-1.639
				c0.354,0,0.62,0.018,0.8,0.054l0.8,0.157c0.355,0.073,0.605,0.106,0.746,0.106c0.889,0,1.369-0.809,1.439-2.43v-2.694
				l-0.158-11.99c-0.106-2.079-0.635-3.118-1.584-3.118c-0.284,0-0.672,0.054-1.163,0.157c-0.494,0.106-0.88,0.16-1.163,0.16
				c-1.16,0-1.742-0.562-1.742-1.691c0-1.23,0.756-1.849,2.271-1.849c0.354,0,0.882,0.046,1.587,0.134
				c0.702,0.087,1.23,0.131,1.584,0.131c0.281,0,0.739-0.044,1.374-0.131c0.281-0.088,0.615-0.134,1.003-0.134
				C447.943,137.861,448.401,138.363,448.401,139.368z"/>
			<path fill="#FFFFFF" d="M478.51,165.173c-3.697,0-6.655-1.276-8.875-3.83c-2.219-2.554-3.326-5.978-3.326-10.275
				c0-4.296,1.116-7.719,3.353-10.272s5.238-3.833,9.009-3.833c3.837,0,6.866,1.25,9.085,3.75c2.22,2.503,3.327,5.902,3.327,10.195
				c0,4.298-1.145,7.748-3.434,10.355C485.359,163.87,482.313,165.173,478.51,165.173z M478.773,140.451
				c-2.464,0-4.402,0.863-5.81,2.588c-1.41,1.726-2.186,4.172-2.326,7.341v0.688c0,3.31,0.695,5.907,2.089,7.792
				c1.391,1.885,3.336,2.825,5.836,2.825c2.571,0,4.587-0.94,6.048-2.825s2.192-4.497,2.192-7.846
				C486.803,143.974,484.126,140.451,478.773,140.451z"/>
			<path fill="#FFFFFF" d="M519.187,148.745c0,1.34-0.088,2.158-0.265,2.454c-0.177,0.301-0.686,0.45-1.531,0.45h-16.8
				c-0.458,0-0.756,0.063-0.896,0.185c-0.143,0.126-0.213,0.327-0.213,0.608c0,2.641,0.792,4.843,2.379,6.602
				c1.585,1.764,3.557,2.642,5.917,2.642c1.548,0,2.965-0.422,4.252-1.265c1.284-0.849,2.12-1.919,2.508-3.223l0.477-1.534
				c0.245-0.845,0.826-1.267,1.742-1.267c1.304,0,1.955,0.669,1.955,2.006c0,2.292-1.162,4.325-3.486,6.101
				c-2.323,1.778-4.967,2.67-7.925,2.67c-3.697,0-6.639-1.24-8.821-3.727c-2.183-2.48-3.275-5.819-3.275-10.011
				c0-4.293,1.162-7.782,3.486-10.457c2.326-2.677,5.354-4.017,9.088-4.017c3.31,0,6.037,1.109,8.187,3.329
				C518.113,142.51,519.187,145.329,519.187,148.745z M500.01,147.371c0,0.494,0.388,0.739,1.163,0.739h12.625
				c0.739,0,1.109-0.245,1.109-0.739c0-1.865-0.705-3.486-2.112-4.86c-1.41-1.373-3.064-2.06-4.967-2.06
				c-1.973,0-3.768,0.713-5.389,2.138C500.821,144.017,500.01,145.609,500.01,147.371z"/>
			<path fill="#FFFFFF" d="M531.02,139.448v1.531c1.267-1.514,2.464-2.563,3.593-3.145c1.127-0.581,2.534-0.872,4.226-0.872
				c3.45,0,5.986,1.34,7.605,4.017c1.196-1.48,2.413-2.52,3.646-3.118c1.233-0.599,2.818-0.898,4.754-0.898
				c2.009,0,3.804,0.427,5.389,1.271c1.761,0.952,2.975,2.295,3.646,4.024c0.456,1.163,0.687,3,0.687,5.505v5.137v3.968
				c0,1.449,0.017,2.331,0.053,2.648c0.172,1.272,0.625,1.907,1.359,1.907c0.245,0,0.61-0.063,1.098-0.185
				c0.489-0.126,0.855-0.187,1.1-0.187c1.222,0,1.832,0.528,1.832,1.585c0,1.232-0.705,1.849-2.112,1.849
				c-0.528,0-1.33-0.063-2.404-0.185c-1.075-0.123-1.895-0.185-2.456-0.185c-0.602,0-1.471,0.062-2.614,0.185
				c-1.146,0.121-2.019,0.185-2.617,0.185c-1.478,0-2.217-0.616-2.217-1.849c0-1.057,0.562-1.585,1.688-1.585
				c0.141,0,0.495,0.036,1.057,0.104c0.214,0.072,0.494,0.106,0.846,0.106c0.599,0,0.979-0.298,1.136-0.896
				c0.158-0.601,0.255-2.096,0.291-4.492v-3.222v-3.487c0-2.43-0.184-4.198-0.552-5.308c-0.368-1.11-1.062-1.982-2.079-2.617
				c-1.018-0.632-2.174-0.949-3.472-0.949c-2.491,0-4.226,0.862-5.207,2.587c-0.772,1.376-1.158,3.771-1.158,7.187v3.75
				c0,3.31,0.08,5.379,0.237,6.208c0.16,0.828,0.572,1.24,1.243,1.24c0.211,0,0.519-0.034,0.923-0.106
				c0.405-0.068,0.715-0.104,0.926-0.104c0.492,0,0.906,0.165,1.24,0.494c0.335,0.332,0.502,0.739,0.502,1.224
				c0,1.144-0.826,1.716-2.481,1.716c-0.528,0-1.312-0.07-2.353-0.211c-1.039-0.141-1.821-0.211-2.35-0.211
				c-0.739,0-1.551,0.07-2.431,0.211c-0.879,0.141-1.654,0.211-2.323,0.211c-1.443,0-2.166-0.599-2.166-1.796
				c0-1.093,0.528-1.638,1.585-1.638c0.388,0,0.686,0.051,0.898,0.147c0.492,0.15,0.862,0.224,1.107,0.224
				c0.846,0,1.286-0.904,1.323-2.709l0.157-2.495c0-0.78,0-1.541,0-2.283c0-0.637,0-0.974,0-1.008v-4.406
				c0-3.08-0.414-5.222-1.24-6.424c-0.829-1.206-2.3-1.807-4.412-1.807c-2.323,0-4.104,0.85-5.335,2.549
				c-1.022,1.381-1.531,3.789-1.531,7.22v7.06c0,1.42,0.017,2.249,0.051,2.496c0.141,1.206,0.528,1.808,1.163,1.808
				c0.177,0,0.545-0.1,1.109-0.296c0.07,0,0.175-0.024,0.317-0.075c0.141,0,0.264,0,0.368,0c1.374,0,2.062,0.581,2.062,1.742
				c0,1.129-0.792,1.691-2.379,1.691c-0.599,0-1.337-0.054-2.217-0.158c-1.199-0.141-2.219-0.211-3.064-0.211
				c-0.422,0-1.197,0.054-2.324,0.158c-1.514,0.141-2.43,0.211-2.747,0.211c-1.41,0-2.112-0.599-2.112-1.796
				c0-1.093,0.681-1.638,2.045-1.638c0.069,0,0.179,0,0.321,0c0.144,0.036,0.25,0.054,0.322,0.054l1.345,0.264
				c0.037,0.034,0.109,0.054,0.216,0.054c0.97,0,1.49-0.863,1.561-2.591v-3.011v-8.083c0-2.992-0.077-4.86-0.237-5.597
				c-0.158-0.741-0.589-1.109-1.294-1.109c-0.141,0-0.635,0.087-1.48,0.262c-0.352,0.072-0.632,0.106-0.843,0.106
				c-1.304,0-1.955-0.562-1.955-1.691c0-1.196,0.722-1.795,2.166-1.795c0.387,0,0.915,0.036,1.584,0.104
				c0.669,0.073,1.25,0.107,1.742,0.107c0.177,0,0.371,0,0.581,0c0.211,0,0.335,0,0.371,0l1.267-0.211h0.16
				C530.596,137.915,531.02,138.425,531.02,139.448z"/>
			<path fill="#FFFFFF" d="M578.826,139.395v1.688c1.973-2.745,4.666-4.121,8.083-4.121c3.522,0,6.32,1.216,8.399,3.646
				c2.076,2.43,3.116,5.725,3.116,9.878c0,4.472-1.101,8.038-3.3,10.699c-2.203,2.657-5.151,3.987-8.849,3.987
				c-3.064,0-5.548-1.075-7.45-3.222v4.385c0,1.338,0.036,2.2,0.106,2.588c0.211,1.09,0.723,1.638,1.531,1.638
				c0.247,0,0.615-0.054,1.11-0.16c0.491-0.106,0.862-0.157,1.109-0.157c1.126,0,1.691,0.579,1.691,1.742
				c0,1.162-0.739,1.744-2.213,1.744c-0.525,0-1.315-0.072-2.369-0.213c-0.773-0.104-1.931-0.158-3.475-0.158
				c-0.843,0-1.543,0.037-2.105,0.107c-1.402,0.177-2.333,0.264-2.788,0.264c-0.599,0-1.107-0.185-1.529-0.548
				c-0.419-0.363-0.63-0.79-0.63-1.274c0-1.109,0.592-1.664,1.778-1.664c0.211,0,0.54,0.046,0.996,0.136
				c0.591,0.121,1.027,0.182,1.309,0.182c0.661,0,1.07-0.345,1.228-1.032c0.158-0.686,0.255-2.598,0.289-5.73v-20.393
				c-0.034-1.618-0.49-2.428-1.359-2.428c-0.245,0-0.62,0.061-1.127,0.185c-0.506,0.123-0.898,0.184-1.178,0.184
				c-1.291,0-1.936-0.581-1.936-1.741c0-1.127,0.773-1.691,2.324-1.691c0.387,0,0.809,0.017,1.267,0.053
				c0.882,0.07,1.533,0.104,1.955,0.104c0.317,0,0.775-0.024,1.374-0.077c0.599-0.054,1.039-0.08,1.32-0.08
				C578.385,137.915,578.826,138.409,578.826,139.395z M579.618,145.839c-0.314,1.371-0.491,3.046-0.528,5.018
				c0,0.141-0.017,0.404-0.053,0.792c0,0.317,0,0.562,0,0.739c0,2.36,0.193,4.078,0.581,5.151s1.153,2.032,2.3,2.881
				c1.144,0.843,2.561,1.265,4.252,1.265c2.537,0,4.499-0.924,5.89-2.772s2.086-4.481,2.086-7.898c0-7.04-2.5-10.563-7.501-10.563
				c-1.691,0-3.195,0.509-4.516,1.531S579.97,144.289,579.618,145.839z"/>
			<path fill="#FFFFFF" d="M610.417,139.368v1.451c1.829-2.567,4.279-3.856,7.342-3.856c2.466,0,4.465,0.697,5.996,2.088
				c1.531,1.392,2.3,3.179,2.3,5.362c0,1.548-0.391,2.808-1.163,3.777c-0.775,0.969-1.796,1.453-3.065,1.453
				c-0.809,0-1.497-0.247-2.06-0.741c-0.564-0.492-0.845-1.09-0.845-1.795c0-0.564,0.21-1.063,0.635-1.505
				c0.421-0.441,0.913-0.661,1.478-0.661c0.106,0,0.334,0.051,0.688,0.157c0.21-0.422,0.314-0.81,0.314-1.163
				c0-1.02-0.448-1.883-1.347-2.588c-0.896-0.702-2.017-1.056-3.354-1.056c-2.747,0-4.579,1.232-5.495,3.697
				c-0.562,1.517-0.843,3.804-0.843,6.868v3.486c0,2.36,0.017,3.681,0.051,3.962c0.177,2.008,0.722,3.011,1.638,3.011
				c0.458,0,0.933-0.061,1.427-0.179c0.388-0.092,0.723-0.139,1.003-0.139c1.127,0,1.691,0.556,1.691,1.665
				c0,1.216-0.72,1.822-2.158,1.822h-0.211c-0.526,0-1.325-0.063-2.396-0.185c-1.07-0.123-1.868-0.185-2.396-0.185
				c-1.402,0-2.507,0.034-3.314,0.104l-2.948,0.265c-1.439,0-2.158-0.616-2.158-1.849c0-1.093,0.676-1.639,2.025-1.639
				c0.354,0,0.62,0.018,0.799,0.054l0.8,0.157c0.356,0.073,0.605,0.106,0.746,0.106c0.89,0,1.369-0.809,1.439-2.43v-2.694
				l-0.157-11.99c-0.106-2.079-0.635-3.118-1.585-3.118c-0.283,0-0.671,0.054-1.163,0.157c-0.494,0.106-0.879,0.16-1.163,0.16
				c-1.16,0-1.741-0.562-1.741-1.691c0-1.23,0.756-1.849,2.27-1.849c0.354,0,0.882,0.046,1.587,0.134
				c0.703,0.087,1.231,0.131,1.585,0.131c0.281,0,0.739-0.044,1.374-0.131c0.28-0.088,0.615-0.134,1.003-0.134
				C609.959,137.861,610.417,138.363,610.417,139.368z"/>
			<path fill="#FFFFFF" d="M652.361,148.745c0,1.34-0.088,2.158-0.265,2.454c-0.177,0.301-0.686,0.45-1.531,0.45h-16.8
				c-0.457,0-0.756,0.063-0.896,0.185c-0.143,0.126-0.213,0.327-0.213,0.608c0,2.641,0.792,4.843,2.379,6.602
				c1.585,1.764,3.557,2.642,5.917,2.642c1.548,0,2.966-0.422,4.252-1.265c1.284-0.849,2.12-1.919,2.508-3.223l0.478-1.534
				c0.244-0.845,0.826-1.267,1.741-1.267c1.304,0,1.956,0.669,1.956,2.006c0,2.292-1.163,4.325-3.487,6.101
				c-2.323,1.778-4.967,2.67-7.925,2.67c-3.697,0-6.639-1.24-8.821-3.727c-2.183-2.48-3.275-5.819-3.275-10.011
				c0-4.293,1.163-7.782,3.486-10.457c2.325-2.677,5.354-4.017,9.088-4.017c3.31,0,6.038,1.109,8.187,3.329
				C651.288,142.51,652.361,145.329,652.361,148.745z M633.185,147.371c0,0.494,0.388,0.739,1.163,0.739h12.625
				c0.739,0,1.109-0.245,1.109-0.739c0-1.865-0.705-3.486-2.112-4.86c-1.41-1.373-3.064-2.06-4.967-2.06
				c-1.972,0-3.768,0.713-5.389,2.138C633.996,144.017,633.185,145.609,633.185,147.371z"/>
			<path fill="#FFFFFF" d="M667.383,136.962c2.353,0,4.317,0.617,5.896,1.851V138.6c0-1.301,0.562-1.953,1.691-1.953
				c1.16,0,1.742,0.562,1.742,1.691c0,0.208-0.029,0.736-0.087,1.585c-0.119,0.702-0.177,1.407-0.177,2.112
				c0,0.422,0.043,1.037,0.133,1.849c0.087,0.812,0.131,1.427,0.131,1.849c0,1.337-0.572,2.006-1.716,2.006
				c-1.111,0-1.684-0.562-1.718-1.688v-1.742c-0.036-1.059-0.642-1.965-1.821-2.724c-1.181-0.756-2.563-1.134-4.148-1.134
				c-1.618,0-2.975,0.412-4.067,1.241c-1.091,0.828-1.638,1.858-1.638,3.091c0,2.254,1.55,3.591,4.649,4.013l3.064,0.424
				c5.986,0.812,8.979,3.293,8.979,7.45c0,2.534-0.964,4.586-2.895,6.154c-1.934,1.564-4.461,2.35-7.586,2.35
				c-2.915,0-5.441-0.828-7.584-2.483c0,0.352,0,0.686,0,1.003c0,1.268-0.601,1.902-1.797,1.902c-1.304,0-1.953-0.722-1.953-2.166
				c0,0.247,0.104-0.669,0.314-2.748c0.07-0.491,0.107-0.983,0.107-1.478c0-0.846-0.07-1.638-0.211-2.379
				c-0.141-0.736-0.211-1.318-0.211-1.742c0-1.233,0.562-1.849,1.688-1.849c0.741,0,1.207,0.177,1.4,0.528
				c0.194,0.354,0.308,1.286,0.344,2.801c0.034,1.514,0.826,2.747,2.377,3.697c1.549,0.949,3.521,1.425,5.917,1.425
				c1.725,0,3.152-0.438,4.278-1.318c1.127-0.882,1.691-1.991,1.691-3.329c0-2.394-1.902-3.784-5.706-4.172
				c-3.627-0.388-6.392-1.1-8.293-2.142c-1.902-1.037-2.854-2.859-2.854-5.466c0-2.467,0.931-4.463,2.791-5.997
				C661.978,137.728,664.4,136.962,667.383,136.962z"/>
			<path fill="#FFFFFF" d="M704.975,164.96c-2.888,0-4.666-1.25-5.335-3.751c-1.798,2.642-4.615,3.964-8.453,3.964
				c-2.852,0-5.134-0.707-6.84-2.112c-1.71-1.41-2.562-3.295-2.562-5.655c0-2.922,1.25-5.068,3.75-6.444
				c0.952-0.528,1.771-0.87,2.457-1.027c0.686-0.16,2.069-0.363,4.147-0.61c2.959-0.315,4.885-0.756,5.783-1.318
				c0.899-0.564,1.348-1.604,1.348-3.118c0-1.441-0.502-2.58-1.505-3.406c-1.006-0.826-2.403-1.243-4.201-1.243
				c-1.585,0-3.062,0.441-4.437,1.323c-0.527,0.351-0.792,0.722-0.792,1.109c0,0.141,0.157,0.314,0.475,0.528
				c0.492,0.352,0.739,0.949,0.739,1.793c0,0.707-0.254,1.289-0.766,1.744c-0.511,0.46-1.153,0.688-1.929,0.688
				c-0.916,0-1.681-0.317-2.297-0.952c-0.617-0.633-0.925-1.408-0.925-2.324c0-1.972,0.979-3.663,2.932-5.073
				c1.955-1.405,4.322-2.112,7.105-2.112c6.408,0,9.614,3.077,9.614,9.226v10.648c0,1.688,0.033,2.688,0.106,3.005
				c0.211,1.23,0.809,1.844,1.795,1.844c1.233,0,1.849-1.12,1.849-3.358v-2.568c0-1.119,0.538-1.679,1.614-1.679
				c1.143,0,1.715,0.846,1.715,2.536v0.262v3.015C710.293,163.269,708.495,164.96,704.975,164.96z M699.111,154.45v-3.75
				c-0.772,0.702-1.587,1.197-2.446,1.478c-0.86,0.281-2.394,0.528-4.604,0.739c-4,0.39-5.999,1.868-5.999,4.437
				c0,1.342,0.484,2.398,1.453,3.171c0.967,0.775,2.28,1.161,3.936,1.161c2.359,0,4.218-0.64,5.572-1.927
				C698.38,158.472,699.075,156.704,699.111,154.45z"/>
		</g>
	</g>
</g>
</svg>
