<?xml version="1.0" encoding="utf-8"?>
<!-- Generator: Adobe Illustrator 16.0.4, SVG Export Plug-In . SVG Version: 6.00 Build 0)  -->
<!DOCTYPE svg PUBLIC "-//W3C//DTD SVG 1.1//EN" "http://www.w3.org/Graphics/SVG/1.1/DTD/svg11.dtd">
<svg version="1.1" id="Capa_1" xmlns="http://www.w3.org/2000/svg" xmlns:xlink="http://www.w3.org/1999/xlink" x="0px" y="0px"
	 width="720px" height="328.286px" viewBox="0 0 720 328.286" enable-background="new 0 0 720 328.286" xml:space="preserve">
<g>
	<g>
		<path fill="#FFFFFF" d="M348.984,121.383l8.496,27.917l9.323-29.738c0.479-1.544,1.307-2.316,2.484-2.316h0.274
			c0.368,0,0.847,0.055,1.436,0.166c0.735,0.185,1.214,0.276,1.435,0.276c0.588,0.073,1.396,0.108,2.427,0.108
			c1.104,0,1.969-0.055,2.595-0.165l1.93-0.331c0.111-0.036,0.332-0.055,0.662-0.055c1.691,0,2.538,0.645,2.538,1.931
			c0,1.178-0.589,1.765-1.766,1.765c-0.294,0-0.727-0.044-1.296-0.137c-0.571-0.092-1.002-0.138-1.297-0.138
			c-1.877,0-2.813,1.38-2.813,4.137v3.862v4.855v4.691v8.717c0,2.758,0.919,4.137,2.759,4.137c0.366,0,0.772-0.055,1.213-0.165
			c0.809-0.074,1.287-0.11,1.435-0.11c1.177,0,1.766,0.589,1.766,1.766c0,1.323-0.792,1.985-2.371,1.985
			c0.072,0-0.204-0.036-0.829-0.11c-2.538-0.293-4.689-0.44-6.454-0.44c-1.729,0-3.385,0.13-4.967,0.387
			c-0.662,0.109-1.249,0.164-1.765,0.164c-1.435,0-2.151-0.615-2.151-1.848c0-1.269,0.741-1.903,2.224-1.903
			c0.372,0,0.648,0.025,0.835,0.073c0.814,0.097,1.296,0.147,1.445,0.147c1.334,0,2.167-1.377,2.501-4.129
			c0.075-0.588,0.111-2.46,0.111-5.618c0-1.212,0.037-2.974,0.111-5.286v-4.958v-9.748c0-0.219-0.093-0.331-0.276-0.331
			c-0.111,0-0.221,0.112-0.331,0.331l-10.152,31.454c-0.441,1.395-1.472,2.093-3.089,2.093c-0.958,0-1.665-0.139-2.125-0.413
			c-0.459-0.275-0.818-0.836-1.075-1.68l-9.987-31.454c-0.111-0.219-0.24-0.331-0.387-0.331c-0.146,0-0.221,0.112-0.221,0.331
			l0.332,25.513c0.036,2.671,0.772,4.006,2.207,4.006c0.405,0,0.957,0,1.655,0h0.662c1.435,0,2.151,0.626,2.151,1.876
			c0,1.251-0.737,1.875-2.207,1.875c-0.258,0-0.644-0.036-1.159-0.11c-0.808-0.108-1.673-0.237-2.592-0.386
			c-0.738-0.11-1.676-0.166-2.814-0.166c-2.022,0-3.33,0.056-3.917,0.166l-2.317,0.441c-0.074,0-0.184,0.019-0.331,0.055
			c-0.148,0-0.257,0-0.331,0c-1.692,0-2.539-0.643-2.539-1.931c0-0.515,0.167-0.947,0.497-1.297
			c0.332-0.349,0.737-0.523,1.215-0.523c0.404,0,0.882,0.056,1.434,0.166c0.551,0.109,0.956,0.165,1.213,0.165
			c1.876,0,2.814-1.38,2.814-4.138v-22.181c0-2.757-0.938-4.137-2.814-4.137c-0.294,0-0.735,0.046-1.323,0.138
			c-0.589,0.093-1.031,0.137-1.324,0.137c-1.14,0-1.712-0.587-1.712-1.765c0-1.286,0.829-1.931,2.483-1.931
			c0.147,0,0.386,0.019,0.717,0.055l1.931,0.221c0.956,0.11,1.856,0.167,2.704,0.167c0.697,0,1.646-0.074,2.841-0.221
			c1.194-0.147,2.069-0.222,2.621-0.222c1.435,0,2.391,0.902,2.869,2.703L348.984,121.383z"/>
		<path fill="#FFFFFF" d="M394.721,138.266v7.173c0,1.839,0.019,2.925,0.054,3.255c0.185,1.655,0.681,2.483,1.491,2.483
			c0.183,0,0.645-0.093,1.379-0.276c0.183-0.074,0.458-0.11,0.828-0.11c1.396,0,2.098,0.606,2.098,1.82
			c0,0.515-0.23,0.958-0.692,1.324c-0.463,0.367-1.044,0.552-1.746,0.552c-0.592,0-1.483-0.082-2.683-0.247
			c-1.202-0.166-2.095-0.249-2.687-0.249c-0.962,0-2.032,0.074-3.21,0.22c-1.439,0.185-2.401,0.276-2.88,0.276
			c-1.477,0-2.214-0.624-2.214-1.876c0-1.214,0.631-1.82,1.894-1.82c0.296,0,0.729,0.056,1.307,0.166
			c0.574,0.109,1.011,0.165,1.309,0.165c0.89,0,1.428-1.178,1.615-3.531c0-0.146,0-1.747,0-4.8v-4.524c0-3.053,0-4.651,0-4.801
			c-0.188-2.316-0.744-3.475-1.671-3.475c-0.297,0-0.716,0.064-1.253,0.192c-0.537,0.13-0.938,0.193-1.198,0.193
			c-1.336,0-2.002-0.588-2.002-1.765c0-1.25,0.809-1.876,2.426-1.876c0.7,0,1.196,0.019,1.489,0.056
			c1.179,0.146,1.933,0.221,2.263,0.221c0.296,0,0.745-0.046,1.353-0.139c0.605-0.091,1.057-0.138,1.351-0.138
			c1.067,0,1.602,0.718,1.602,2.15c0,0.148-0.015,0.368-0.043,0.663c-0.03,0.295-0.045,0.517-0.045,0.662
			c-0.03,0.295-0.06,1.434-0.09,3.42C394.735,135.14,394.721,136.685,394.721,138.266z M391.851,123.811
			c-0.847,0-1.573-0.303-2.18-0.911c-0.606-0.605-0.909-1.332-0.909-2.178c0-0.847,0.303-1.563,0.909-2.152
			c0.606-0.588,1.333-0.882,2.18-0.882c0.849,0,1.572,0.294,2.179,0.882c0.607,0.589,0.912,1.306,0.912,2.152
			c0,0.846-0.305,1.572-0.912,2.178C393.423,123.508,392.699,123.811,391.851,123.811z"/>
		<path fill="#FFFFFF" d="M418.939,136.06c0-1.471,0.92-2.317,2.76-2.539c-0.186-1.286-0.801-2.297-1.85-3.034
			c-1.048-0.735-2.397-1.104-4.056-1.104c-2.536,0-4.578,1.013-6.123,3.035c-1.544,2.022-2.318,4.709-2.318,8.056
			c0,3.457,0.728,6.169,2.18,8.137c1.454,1.969,3.466,2.952,6.043,2.952c1.617,0,3.024-0.459,4.221-1.379s2.014-2.188,2.455-3.807
			c0.367-1.288,0.587-2.022,0.661-2.208c0.404-0.734,0.993-1.104,1.765-1.104c0.626,0,1.142,0.203,1.546,0.607
			c0.404,0.405,0.606,0.92,0.606,1.545c0,0.92-0.293,2.023-0.883,3.31c-0.589,1.288-1.286,2.354-2.095,3.2
			c-2.172,2.317-4.985,3.476-8.441,3.476c-3.753,0-6.778-1.324-9.078-3.973c-2.297-2.648-3.446-6.123-3.446-10.427
			c0-4.561,1.186-8.212,3.558-10.951c2.371-2.74,5.526-4.111,9.463-4.111c2.942,0,5.388,0.801,7.338,2.399
			c1.948,1.601,2.925,3.634,2.925,6.098c0,1.361-0.381,2.481-1.132,3.365c-0.754,0.883-1.721,1.324-2.897,1.324
			c-0.92,0-1.684-0.274-2.29-0.828C419.243,137.548,418.939,136.87,418.939,136.06z"/>
		<path fill="#FFFFFF" d="M439.356,128.252v1.518c1.912-2.685,4.47-4.028,7.67-4.028c2.574,0,4.661,0.729,6.261,2.181
			c1.602,1.452,2.399,3.318,2.399,5.599c0,1.619-0.404,2.934-1.213,3.944c-0.812,1.013-1.876,1.519-3.2,1.519
			c-0.849,0-1.562-0.257-2.152-0.771c-0.59-0.517-0.882-1.141-0.882-1.877c0-0.588,0.219-1.111,0.663-1.573
			c0.44-0.46,0.953-0.688,1.543-0.688c0.111,0,0.35,0.053,0.718,0.164c0.222-0.441,0.33-0.846,0.33-1.214
			c0-1.066-0.469-1.967-1.405-2.704c-0.938-0.734-2.107-1.103-3.504-1.103c-2.87,0-4.782,1.288-5.738,3.862
			c-0.589,1.581-0.883,3.973-0.883,7.172v3.643c0,2.463,0.017,3.843,0.057,4.137c0.182,2.097,0.752,3.146,1.708,3.146
			c0.479,0,0.974-0.063,1.489-0.189c0.403-0.095,0.755-0.142,1.051-0.142c1.175,0,1.765,0.58,1.765,1.739
			c0,1.269-0.751,1.901-2.257,1.901h-0.219c-0.55,0-1.383-0.064-2.502-0.194c-1.117-0.128-1.95-0.191-2.502-0.191
			c-1.465,0-2.621,0.037-3.465,0.109l-3.079,0.276c-1.501,0-2.253-0.644-2.253-1.931c0-1.14,0.706-1.71,2.115-1.71
			c0.372,0,0.649,0.018,0.836,0.055l0.835,0.165c0.37,0.074,0.632,0.111,0.779,0.111c0.928,0,1.431-0.847,1.505-2.539v-2.813
			L435.66,133.3c-0.11-2.169-0.663-3.255-1.656-3.255c-0.294,0-0.698,0.056-1.214,0.166c-0.515,0.109-0.919,0.165-1.213,0.165
			c-1.215,0-1.821-0.588-1.821-1.765c0-1.287,0.791-1.931,2.371-1.931c0.367,0,0.92,0.046,1.658,0.137
			c0.734,0.093,1.285,0.138,1.653,0.138c0.294,0,0.771-0.045,1.436-0.138c0.292-0.091,0.643-0.137,1.047-0.137
			C438.877,126.681,439.356,127.205,439.356,128.252z"/>
		<path fill="#FFFFFF" d="M470.802,155.204c-3.863,0-6.953-1.332-9.27-4c-2.317-2.665-3.476-6.243-3.476-10.729
			c0-4.488,1.168-8.064,3.502-10.732c2.337-2.666,5.471-4,9.408-4c4.009,0,7.172,1.308,9.49,3.917
			c2.315,2.612,3.477,6.161,3.477,10.649c0,4.487-1.197,8.092-3.588,10.813C477.953,153.843,474.773,155.204,470.802,155.204z
			 M471.078,129.383c-2.577,0-4.598,0.901-6.07,2.703c-1.472,1.803-2.28,4.359-2.428,7.67v0.718c0,3.457,0.727,6.169,2.179,8.137
			c1.455,1.969,3.486,2.952,6.097,2.952c2.686,0,4.791-0.983,6.318-2.952c1.526-1.968,2.289-4.697,2.289-8.192
			C479.463,133.061,476.667,129.383,471.078,129.383z"/>
		<path fill="#FFFFFF" d="M513.284,138.044c0,1.4-0.094,2.255-0.274,2.565c-0.186,0.313-0.718,0.471-1.601,0.471h-17.547
			c-0.477,0-0.792,0.063-0.937,0.193c-0.147,0.128-0.222,0.34-0.222,0.633c0,2.759,0.828,5.059,2.484,6.897
			c1.654,1.84,3.713,2.759,6.179,2.759c1.617,0,3.1-0.441,4.44-1.324c1.344-0.883,2.216-2.004,2.621-3.365l0.498-1.602
			c0.255-0.882,0.862-1.323,1.82-1.323c1.36,0,2.039,0.699,2.039,2.097c0,2.392-1.211,4.516-3.641,6.374
			c-2.427,1.856-5.184,2.784-8.272,2.784c-3.864,0-6.937-1.296-9.216-3.89c-2.28-2.593-3.419-6.078-3.419-10.455
			c0-4.486,1.211-8.128,3.64-10.923c2.425-2.796,5.589-4.194,9.489-4.194c3.457,0,6.308,1.158,8.554,3.477
			C512.16,131.536,513.284,134.478,513.284,138.044z M493.256,136.612c0,0.516,0.404,0.771,1.216,0.771h13.184
			c0.773,0,1.16-0.255,1.16-0.771c0-1.95-0.736-3.642-2.207-5.076c-1.472-1.435-3.2-2.152-5.187-2.152
			c-2.059,0-3.934,0.746-5.626,2.234C494.103,133.108,493.256,134.773,493.256,136.612z"/>
		<path fill="#FFFFFF" d="M525.645,128.334v1.602c1.322-1.582,2.574-2.676,3.749-3.283c1.18-0.607,2.65-0.911,4.416-0.911
			c3.604,0,6.252,1.398,7.942,4.194c1.25-1.546,2.521-2.63,3.807-3.255c1.288-0.626,2.944-0.939,4.967-0.939
			c2.097,0,3.973,0.443,5.627,1.327c1.839,0.996,3.11,2.396,3.807,4.203c0.479,1.217,0.717,3.133,0.717,5.749v5.364v4.147
			c0,1.512,0.021,2.434,0.056,2.764c0.183,1.327,0.655,1.99,1.42,1.99c0.255,0,0.639-0.063,1.149-0.193
			c0.509-0.128,0.893-0.192,1.147-0.192c1.273,0,1.912,0.552,1.912,1.655c0,1.287-0.734,1.931-2.208,1.931
			c-0.551,0-1.388-0.064-2.51-0.194c-1.122-0.128-1.976-0.191-2.565-0.191c-0.626,0-1.537,0.063-2.731,0.191
			c-1.196,0.13-2.105,0.194-2.729,0.194c-1.545,0-2.318-0.644-2.318-1.931c0-1.104,0.588-1.655,1.765-1.655
			c0.147,0,0.516,0.036,1.104,0.11c0.221,0.073,0.515,0.11,0.886,0.11c0.623,0,1.02-0.312,1.186-0.938
			c0.164-0.626,0.266-2.188,0.302-4.69v-3.365v-3.642c0-2.539-0.191-4.387-0.576-5.545c-0.384-1.158-1.109-2.068-2.172-2.73
			c-1.061-0.662-2.271-0.993-3.623-0.993c-2.602,0-4.416,0.902-5.439,2.704c-0.807,1.435-1.212,3.935-1.212,7.502v3.917
			c0,3.459,0.086,5.619,0.249,6.483c0.166,0.863,0.599,1.297,1.299,1.297c0.22,0,0.541-0.037,0.965-0.11
			c0.424-0.074,0.745-0.11,0.964-0.11c0.516,0,0.948,0.173,1.297,0.517c0.352,0.344,0.525,0.77,0.525,1.276
			c0,1.195-0.864,1.793-2.593,1.793c-0.554,0-1.371-0.074-2.457-0.221c-1.083-0.146-1.902-0.221-2.454-0.221
			c-0.771,0-1.618,0.075-2.538,0.221c-0.919,0.146-1.73,0.221-2.427,0.221c-1.509,0-2.261-0.624-2.261-1.876
			c0-1.139,0.549-1.71,1.654-1.71c0.404,0,0.717,0.052,0.937,0.153c0.516,0.155,0.902,0.232,1.158,0.232
			c0.884,0,1.344-0.941,1.382-2.827l0.164-2.608c0-0.811,0-1.606,0-2.382c0-0.666,0-1.018,0-1.054v-4.603
			c0-3.215-0.435-5.452-1.297-6.711c-0.864-1.256-2.399-1.884-4.607-1.884c-2.427,0-4.285,0.888-5.57,2.661
			c-1.069,1.442-1.602,3.956-1.602,7.542v7.375c0,1.479,0.018,2.347,0.058,2.606c0.145,1.256,0.549,1.884,1.211,1.884
			c0.184,0,0.571-0.103,1.161-0.309c0.072,0,0.181-0.025,0.329-0.077c0.147,0,0.275,0,0.388,0c1.436,0,2.152,0.607,2.152,1.82
			c0,1.178-0.83,1.766-2.486,1.766c-0.624,0-1.396-0.056-2.314-0.164c-1.252-0.147-2.318-0.222-3.199-0.222
			c-0.443,0-1.254,0.055-2.43,0.165c-1.581,0.146-2.539,0.221-2.869,0.221c-1.472,0-2.206-0.624-2.206-1.876
			c0-1.139,0.711-1.71,2.134-1.71c0.074,0,0.189,0,0.338,0c0.151,0.036,0.262,0.056,0.339,0.056l1.405,0.274
			c0.036,0.037,0.11,0.056,0.223,0.056c1.012,0,1.555-0.9,1.631-2.704v-3.144v-8.441c0-3.125-0.085-5.075-0.249-5.849
			c-0.166-0.772-0.617-1.158-1.352-1.158c-0.146,0-0.662,0.092-1.546,0.275c-0.366,0.074-0.66,0.11-0.883,0.11
			c-1.36,0-2.04-0.588-2.04-1.765c0-1.25,0.754-1.876,2.263-1.876c0.405,0,0.954,0.036,1.654,0.108
			c0.696,0.076,1.303,0.111,1.818,0.111c0.186,0,0.388,0,0.609,0c0.221,0,0.349,0,0.385,0l1.324-0.22h0.168
			C525.202,126.736,525.645,127.269,525.645,128.334z"/>
		<path fill="#FFFFFF" d="M575.576,128.28v1.766c2.057-2.869,4.871-4.304,8.441-4.304c3.674,0,6.6,1.271,8.771,3.808
			c2.17,2.537,3.255,5.977,3.255,10.316c0,4.672-1.149,8.396-3.446,11.174c-2.302,2.776-5.38,4.164-9.243,4.164
			c-3.2,0-5.793-1.122-7.777-3.364v4.579c0,1.397,0.034,2.298,0.106,2.703c0.224,1.14,0.756,1.71,1.601,1.71
			c0.26,0,0.644-0.056,1.158-0.165c0.516-0.11,0.903-0.166,1.16-0.166c1.178,0,1.768,0.606,1.768,1.821
			c0,1.213-0.773,1.821-2.311,1.821c-0.549,0-1.375-0.075-2.476-0.222c-0.807-0.11-2.016-0.166-3.628-0.166
			c-0.881,0-1.613,0.036-2.199,0.111c-1.464,0.183-2.438,0.276-2.912,0.276c-0.623,0-1.156-0.191-1.594-0.57
			c-0.443-0.381-0.662-0.826-0.662-1.333c0-1.159,0.619-1.739,1.858-1.739c0.219,0,0.565,0.047,1.038,0.143
			c0.62,0.126,1.075,0.188,1.367,0.188c0.691,0,1.12-0.358,1.283-1.076c0.164-0.717,0.267-2.712,0.301-5.986v-21.296
			c-0.034-1.69-0.511-2.537-1.42-2.537c-0.254,0-0.647,0.063-1.176,0.193c-0.527,0.128-0.937,0.191-1.23,0.191
			c-1.345,0-2.021-0.606-2.021-1.82c0-1.176,0.809-1.765,2.429-1.765c0.404,0,0.845,0.019,1.324,0.056
			c0.919,0.073,1.599,0.108,2.041,0.108c0.33,0,0.81-0.026,1.436-0.082c0.624-0.056,1.083-0.082,1.377-0.082
			C575.114,126.736,575.576,127.251,575.576,128.28z M576.4,135.011c-0.33,1.435-0.516,3.183-0.55,5.241
			c0,0.146-0.019,0.424-0.056,0.828c0,0.33,0,0.589,0,0.772c0,2.464,0.203,4.258,0.605,5.378c0.404,1.123,1.207,2.125,2.401,3.008
			c1.196,0.883,2.676,1.324,4.44,1.324c2.65,0,4.699-0.965,6.155-2.897c1.451-1.931,2.178-4.68,2.178-8.247
			c0-7.357-2.612-11.035-7.835-11.035c-1.765,0-3.338,0.533-4.72,1.6C577.644,132.051,576.769,133.393,576.4,135.011z"/>
		<path fill="#FFFFFF" d="M608.565,128.252v1.518c1.914-2.685,4.471-4.028,7.671-4.028c2.574,0,4.662,0.729,6.263,2.181
			c1.599,1.452,2.397,3.318,2.397,5.599c0,1.619-0.404,2.934-1.211,3.944c-0.812,1.013-1.878,1.519-3.202,1.519
			c-0.848,0-1.562-0.257-2.15-0.771c-0.59-0.517-0.884-1.141-0.884-1.877c0-0.588,0.22-1.111,0.662-1.573
			c0.443-0.46,0.956-0.688,1.544-0.688c0.112,0,0.352,0.053,0.718,0.164c0.223-0.441,0.332-0.846,0.332-1.214
			c0-1.066-0.469-1.967-1.407-2.704c-0.939-0.734-2.108-1.103-3.502-1.103c-2.87,0-4.784,1.288-5.74,3.862
			c-0.59,1.581-0.883,3.973-0.883,7.172v3.643c0,2.463,0.017,3.843,0.058,4.137c0.183,2.097,0.751,3.146,1.709,3.146
			c0.477,0,0.973-0.063,1.488-0.189c0.404-0.095,0.754-0.142,1.049-0.142c1.178,0,1.766,0.58,1.766,1.739
			c0,1.269-0.752,1.901-2.255,1.901h-0.219c-0.55,0-1.384-0.064-2.504-0.194c-1.115-0.128-1.95-0.191-2.502-0.191
			c-1.464,0-2.62,0.037-3.463,0.109l-3.079,0.276c-1.503,0-2.254-0.644-2.254-1.931c0-1.14,0.704-1.71,2.116-1.71
			c0.372,0,0.646,0.018,0.834,0.055l0.837,0.165c0.37,0.074,0.63,0.111,0.779,0.111c0.926,0,1.428-0.847,1.503-2.539v-2.813
			l-0.164-12.524c-0.112-2.169-0.664-3.255-1.658-3.255c-0.292,0-0.696,0.056-1.212,0.166c-0.515,0.109-0.919,0.165-1.213,0.165
			c-1.216,0-1.822-0.588-1.822-1.765c0-1.287,0.792-1.931,2.371-1.931c0.368,0,0.92,0.046,1.656,0.137
			c0.734,0.093,1.288,0.138,1.654,0.138c0.294,0,0.772-0.045,1.435-0.138c0.294-0.091,0.646-0.137,1.05-0.137
			C608.089,126.681,608.565,127.205,608.565,128.252z"/>
		<path fill="#FFFFFF" d="M652.374,138.044c0,1.4-0.094,2.255-0.276,2.565c-0.186,0.313-0.718,0.471-1.599,0.471h-17.547
			c-0.479,0-0.792,0.063-0.937,0.193c-0.149,0.128-0.224,0.34-0.224,0.633c0,2.759,0.83,5.059,2.486,6.897
			c1.654,1.84,3.713,2.759,6.179,2.759c1.617,0,3.1-0.441,4.438-1.324c1.346-0.883,2.218-2.004,2.62-3.365l0.499-1.602
			c0.257-0.882,0.864-1.323,1.82-1.323c1.36,0,2.041,0.699,2.041,2.097c0,2.392-1.213,4.516-3.643,6.374
			c-2.425,1.856-5.184,2.784-8.272,2.784c-3.864,0-6.937-1.296-9.217-3.89c-2.279-2.593-3.418-6.078-3.418-10.455
			c0-4.486,1.213-8.128,3.642-10.923c2.425-2.796,5.589-4.194,9.489-4.194c3.455,0,6.306,1.158,8.552,3.477
			C651.25,131.536,652.374,134.478,652.374,138.044z M632.346,136.612c0,0.516,0.404,0.771,1.216,0.771h13.184
			c0.771,0,1.158-0.255,1.158-0.771c0-1.95-0.736-3.642-2.205-5.076c-1.474-1.435-3.2-2.152-5.188-2.152
			c-2.059,0-3.934,0.746-5.624,2.234C633.19,133.108,632.346,134.773,632.346,136.612z"/>
		<path fill="#FFFFFF" d="M668.064,125.742c2.455,0,4.507,0.646,6.156,1.931v-0.219c0-1.361,0.588-2.042,1.768-2.042
			c1.211,0,1.818,0.588,1.818,1.765c0,0.222-0.03,0.773-0.092,1.655c-0.121,0.736-0.184,1.472-0.184,2.207
			c0,0.44,0.047,1.085,0.137,1.932c0.094,0.846,0.139,1.489,0.139,1.931c0,1.398-0.597,2.097-1.793,2.097
			c-1.158,0-1.756-0.588-1.793-1.765v-1.82c-0.036-1.105-0.672-2.051-1.902-2.843c-1.233-0.792-2.677-1.187-4.331-1.187
			c-1.692,0-3.11,0.434-4.249,1.297c-1.141,0.865-1.709,1.94-1.709,3.228c0,2.354,1.615,3.752,4.854,4.192l3.199,0.441
			c6.253,0.847,9.381,3.439,9.381,7.78c0,2.647-1.008,4.791-3.027,6.428c-2.017,1.637-4.656,2.454-7.92,2.454
			c-3.042,0-5.684-0.864-7.922-2.593c0,0.368,0,0.718,0,1.05c0,1.323-0.626,1.985-1.877,1.985c-1.361,0-2.04-0.755-2.04-2.263
			c0,0.258,0.11-0.698,0.332-2.869c0.072-0.515,0.108-1.029,0.108-1.545c0-0.883-0.074-1.709-0.219-2.482
			c-0.149-0.771-0.222-1.379-0.222-1.821c0-1.286,0.588-1.93,1.765-1.93c0.773,0,1.261,0.185,1.463,0.551
			c0.2,0.368,0.321,1.344,0.359,2.925c0.037,1.582,0.862,2.869,2.482,3.861c1.616,0.993,3.679,1.49,6.179,1.49
			c1.801,0,3.291-0.459,4.468-1.379c1.178-0.92,1.768-2.078,1.768-3.477c0-2.502-1.986-3.953-5.959-4.359
			c-3.789-0.403-6.676-1.148-8.662-2.233c-1.986-1.084-2.98-2.987-2.98-5.71c0-2.574,0.971-4.663,2.916-6.264
			C662.418,126.542,664.947,125.742,668.064,125.742z"/>
		<path fill="#FFFFFF" d="M707.326,154.984c-3.02,0-4.876-1.306-5.576-3.918c-1.873,2.759-4.817,4.138-8.826,4.138
			c-2.98,0-5.361-0.735-7.145-2.205c-1.784-1.472-2.677-3.44-2.677-5.903c0-3.055,1.308-5.297,3.918-6.732
			c0.994-0.552,1.848-0.91,2.565-1.077c0.717-0.164,2.16-0.374,4.332-0.632c3.089-0.332,5.103-0.792,6.039-1.38
			c0.941-0.589,1.41-1.674,1.41-3.256c0-1.508-0.526-2.693-1.573-3.559c-1.048-0.864-2.511-1.297-4.386-1.297
			c-1.658,0-3.202,0.46-4.637,1.38c-0.552,0.368-0.828,0.754-0.828,1.158c0,0.147,0.166,0.332,0.498,0.553
			c0.516,0.367,0.772,0.992,0.772,1.874c0,0.736-0.266,1.344-0.798,1.82c-0.537,0.48-1.207,0.718-2.017,0.718
			c-0.956,0-1.756-0.33-2.401-0.992c-0.643-0.662-0.962-1.47-0.962-2.428c0-2.059,1.02-3.825,3.062-5.296
			c2.041-1.472,4.513-2.208,7.421-2.208c6.693,0,10.04,3.213,10.04,9.636v11.12c0,1.763,0.036,2.81,0.108,3.14
			c0.224,1.283,0.848,1.926,1.878,1.926c1.286,0,1.929-1.168,1.929-3.507v-2.685c0-1.169,0.562-1.753,1.685-1.753
			c1.196,0,1.792,0.882,1.792,2.648v0.275v3.145C712.876,153.218,711,154.984,707.326,154.984z M701.201,144.003v-3.917
			c-0.808,0.736-1.659,1.252-2.558,1.546c-0.896,0.295-2.499,0.551-4.807,0.772c-4.177,0.404-6.266,1.95-6.266,4.635
			c0,1.397,0.507,2.501,1.516,3.31c1.014,0.81,2.383,1.214,4.113,1.214c2.463,0,4.402-0.67,5.82-2.014
			C700.437,148.207,701.164,146.358,701.201,144.003z"/>
	</g>
	<path fill-rule="evenodd" clip-rule="evenodd" fill="none" stroke="#FFFFFF" stroke-width="3" stroke-miterlimit="10" d="
		M279.986,164.141c0,75.367-61.098,136.469-136.468,136.469C68.15,300.61,7.05,239.508,7.05,164.141
		c0-75.366,61.101-136.465,136.468-136.465C218.889,27.676,279.986,88.775,279.986,164.141z"/>
	<g>
		<path fill-rule="evenodd" clip-rule="evenodd" fill="#FFFFFF" d="M71.735,241.45c0-5.924,0-11.59,0-17.25
			c0-17.889,0.047-35.772-0.052-53.659c-0.017-2.476,0.707-4.008,2.681-5.614c22.342-18.2,44.583-36.527,66.855-54.819
			c0.757-0.617,1.542-1.197,2.49-1.927c5.954,4.876,11.92,9.746,17.87,14.626c17.071,14,34.11,28.041,51.241,41.965
			c2.019,1.642,2.807,3.321,2.795,5.916c-0.097,22.091-0.056,44.177-0.056,66.269c0,1.443,0,2.887,0,4.537
			c-17.718,0-35.064,0-52.696,0c0-17.524,0-35.071,0-52.865c-12.821,0-25.359,0-38.216,0c0,17.493,0,35.033,0,52.822
			C106.92,241.45,89.504,241.45,71.735,241.45z"/>
		<path fill-rule="evenodd" clip-rule="evenodd" fill="#FFFFFF" d="M235.145,146.473c-4.596,4.577-9.079,9.035-13.826,13.765
			c-4.197-3.418-8.715-7.081-13.216-10.768c-19.88-16.271-39.746-32.559-59.633-48.821c-4.418-3.619-5.133-3.633-9.542-0.026
			c-23.37,19.097-46.719,38.224-70.083,57.334c-1.049,0.857-2.125,1.682-2.865,2.268c-4.698-4.681-9.247-9.211-13.916-13.86
			c7.678-6.296,15.516-12.734,23.361-19.156c20.253-16.587,40.51-33.167,60.772-49.741c5.375-4.404,9.348-4.48,14.681-0.177
			c7.221,5.825,14.384,11.72,21.581,17.583c0.937,0.764,1.916,1.478,3.552,2.735c0-3.931-0.037-7.01,0.007-10.095
			c0.055-3.95,1.321-5.18,5.337-5.195c6.84-0.027,13.678-0.017,20.521-0.008c4.353,0.008,5.62,1.174,5.641,5.533
			c0.051,10.748,0.09,21.497-0.035,32.244c-0.031,2.575,0.701,4.281,2.772,5.913c7.817,6.169,15.475,12.553,23.181,18.866
			C234.094,145.407,234.683,146.035,235.145,146.473z"/>
	</g>
</g>
</svg>
