<?xml version="1.0" encoding="utf-8"?>
<!-- Generator: Adobe Illustrator 16.0.0, SVG Export Plug-In . SVG Version: 6.00 Build 0)  -->
<!DOCTYPE svg PUBLIC "-//W3C//DTD SVG 1.1//EN" "http://www.w3.org/Graphics/SVG/1.1/DTD/svg11.dtd">
<svg version="1.1" id="Capa_1" xmlns="http://www.w3.org/2000/svg" xmlns:xlink="http://www.w3.org/1999/xlink" x="0px" y="0px"
	 width="800px" height="450px" viewBox="0 0 800 450" enable-background="new 0 0 800 450" xml:space="preserve">
<g>
	<path fill="#FFFFFF" d="M792.485,122.027c0,22.079-18.994,39.978-42.42,39.978H52.578c-23.424,0-42.419-17.899-42.419-39.978l0,0
		c0-22.079,18.995-39.977,42.419-39.977h697.488C773.491,82.05,792.485,99.948,792.485,122.027L792.485,122.027z"/>
	<path fill="#FFFFFF" d="M789.841,327.972c0,22.08-18.994,39.979-42.418,39.979H49.934c-23.425,0-42.419-17.898-42.419-39.979l0,0
		c0-22.078,18.995-39.978,42.419-39.978h697.489C770.847,287.994,789.841,305.894,789.841,327.972L789.841,327.972z"/>
	<path fill="#FFFFFF" d="M792.485,224.998c0,22.082-18.994,39.978-42.422,39.978H52.581c-23.427,0-42.422-17.896-42.422-39.978l0,0
		c0-22.076,18.995-39.978,42.422-39.978h697.483C773.491,185.021,792.485,202.922,792.485,224.998L792.485,224.998z"/>
	<g>
		<path fill="#5799D9" d="M203.778,100.118v43.814h-4.029v-39.786h-2.165v-4.028H203.778z"/>
		<path fill="#5799D9" d="M251.438,137.799c-4.372-4.351-6.559-9.611-6.559-15.772c0-6.144,2.187-11.403,6.559-15.776
			c4.352-4.351,9.611-6.53,15.776-6.53c3.027,0,5.927,0.583,8.695,1.739l-1.586,3.723c-2.261-0.955-4.628-1.434-7.109-1.434
			c-5.046,0-9.359,1.782-12.936,5.341c-3.581,3.577-5.37,7.89-5.37,12.937c0,5.043,1.789,9.356,5.37,12.936
			c3.577,3.579,7.89,5.37,12.936,5.37c2.034,0,4.003-0.326,5.917-0.979v-15.435h-9.122v-4.028h13.149v22.183l-1.22,0.518
			c-2.786,1.177-5.697,1.767-8.724,1.767C261.05,144.358,255.79,142.172,251.438,137.799z"/>
		<path fill="#5799D9" d="M280.818,143.932v-43.814H294c3.276,0,6.073,1.161,8.391,3.478c2.339,2.338,3.51,5.146,3.51,8.423
			c0,3.641-1.395,6.662-4.182,9.06c2.076,0.976,3.733,2.421,4.974,4.334c1.262,1.973,1.892,4.127,1.892,6.466
			c0,3.335-1.168,6.175-3.508,8.514c-2.361,2.361-5.188,3.539-8.482,3.539H280.818z M284.847,119.918H294
			c2.158,0,4.007-0.77,5.554-2.317c1.544-1.544,2.317-3.407,2.317-5.582c0-2.176-0.772-4.029-2.317-5.555
			c-1.547-1.543-3.396-2.318-5.554-2.318h-9.153V119.918z M284.847,139.904h11.747c2.198,0,4.079-0.782,5.644-2.35
			c1.548-1.565,2.322-3.458,2.322-5.675c0-2.176-0.774-4.047-2.322-5.612c-1.564-1.547-3.446-2.32-5.644-2.32h-11.747V139.904z"/>
		<path fill="#5799D9" d="M326.158,143.932v-43.814h10.771c6.042,0,11.206,2.147,15.498,6.438c4.271,4.273,6.406,9.426,6.406,15.47
			c0,6.041-2.135,11.198-6.406,15.468c-4.292,4.291-9.456,6.438-15.498,6.438H326.158z M330.153,139.936h6.776
			c4.94,0,9.16-1.75,12.66-5.25c3.5-3.496,5.249-7.719,5.249-12.66c0-4.944-1.749-9.163-5.249-12.663c-3.5-3.5-7.72-5.25-12.66-5.25
			h-6.776V139.936z"/>
		<path fill="#5799D9" d="M384.86,100.118v4.028h-18.339v15.805h14.496v4.028h-14.496v15.925h18.339v4.028h-22.363v-43.814H384.86z"
			/>
		<path fill="#5799D9" d="M424.8,100.118v4.028h-18.338v15.805h14.493v4.028h-14.493v15.925H424.8v4.028h-22.363v-43.814H424.8z"/>
		<path fill="#5799D9" d="M439.446,144.329c-2.828-0.124-5.419-0.865-7.778-2.228c-2.688-1.544-4.509-3.609-5.464-6.193l3.784-1.374
			c0.649,1.75,1.973,3.162,3.965,4.242c1.75,0.936,3.642,1.455,5.674,1.557c3.113,0.122,5.719-0.664,7.813-2.349
			c1.869-1.504,2.858-3.275,2.961-5.31c0.162-3.825-3.338-6.743-10.496-8.755c-5.168-1.444-8.858-3.46-11.077-6.043
			c-1.689-1.971-2.479-4.189-2.377-6.652c0.181-4.167,1.951-7.28,5.309-9.334c2.662-1.629,5.887-2.35,9.673-2.169
			c4.554,0.206,8.194,1.771,10.92,4.7l-2.961,2.747c-1.974-2.137-4.688-3.282-8.144-3.446c-2.972-0.125-5.432,0.404-7.383,1.585
			c-2.137,1.32-3.267,3.355-3.389,6.101c-0.161,3.745,3.335,6.62,10.498,8.636c5.164,1.444,8.858,3.467,11.073,6.072
			c1.689,1.991,2.479,4.231,2.381,6.711c-0.163,3.276-1.646,6.041-4.455,8.298c-2.686,2.158-5.929,3.233-9.734,3.233
			C439.976,144.358,439.71,144.347,439.446,144.329z"/>
		<path fill="#5799D9" d="M462.236,143.932h-4.029v-43.814h15.777c3.292,0,6.121,1.183,8.482,3.539
			c2.339,2.342,3.506,5.178,3.506,8.515c0,3.293-1.167,6.122-3.506,8.482c-2.361,2.339-5.19,3.507-8.482,3.507h-11.748V143.932z
			 M462.236,120.135h11.748c2.196,0,4.076-0.784,5.642-2.349c1.549-1.548,2.321-3.418,2.321-5.615c0-2.218-0.772-4.11-2.321-5.675
			c-1.565-1.565-3.445-2.35-5.642-2.35h-11.748V120.135z"/>
		<path fill="#5799D9" d="M507.575,100.118v43.814h-3.995v-10.953h-17.39l-6.927,10.953h-4.759l27.7-43.814H507.575z
			 M488.722,128.951h14.858v-23.463L488.722,128.951z"/>
		<path fill="#5799D9" d="M533.388,140.333c3.6,0,6.915-0.986,9.946-2.959v4.635c-3.13,1.569-6.446,2.349-9.946,2.349
			c-6.164,0-11.42-2.186-15.775-6.559c-4.372-4.351-6.559-9.611-6.559-15.772c0-6.164,2.187-11.421,6.559-15.776
			c4.355-4.372,9.611-6.558,15.775-6.558c3.5,0,6.816,0.784,9.946,2.35v4.634c-3.031-1.969-6.347-2.956-9.946-2.956
			c-5.045,0-9.354,1.789-12.935,5.369c-3.582,3.577-5.372,7.89-5.372,12.937c0,5.043,1.79,9.356,5.372,12.936
			C524.034,138.542,528.343,140.333,533.388,140.333z"/>
		<path fill="#5799D9" d="M545.318,99.905h4.055v44.027h-4.055V99.905z"/>
		<path fill="#5799D9" d="M558.041,137.831c-4.373-4.354-6.559-9.611-6.559-15.776c0-6.16,2.186-11.431,6.559-15.804
			c4.351-4.351,9.611-6.53,15.771-6.53c6.164,0,11.432,2.179,15.81,6.53c4.352,4.373,6.526,9.644,6.526,15.804
			c0,6.166-2.175,11.422-6.526,15.776c-4.378,4.373-9.646,6.559-15.81,6.559C567.652,144.39,562.392,142.204,558.041,137.831z
			 M560.88,109.119c-3.581,3.581-5.374,7.894-5.374,12.936c0,5.047,1.793,9.359,5.374,12.937c3.577,3.582,7.89,5.37,12.933,5.37
			c5.047,0,9.359-1.789,12.938-5.37c3.581-3.578,5.373-7.89,5.373-12.937c0-5.042-1.792-9.354-5.373-12.936
			c-3.578-3.578-7.891-5.37-12.938-5.37C568.77,103.749,564.457,105.542,560.88,109.119z"/>
		<path fill="#5799D9" d="M602.16,138.53c0.795,0,1.474,0.288,2.045,0.856c0.568,0.57,0.855,1.253,0.855,2.044
			c0,0.813-0.287,1.505-0.855,2.076c-0.571,0.568-1.25,0.852-2.045,0.852c-0.812,0-1.505-0.283-2.075-0.852
			c-0.569-0.571-0.853-1.264-0.853-2.076c0-0.791,0.283-1.474,0.853-2.044C600.655,138.818,601.349,138.53,602.16,138.53z"/>
	</g>
	<g>
		<g>
			<path fill="#5799D9" d="M65.61,203.015v43.813h-4.025v-17.88H43.612l3.968-25.934h4.089l-3.357,21.908h13.273v-21.908H65.61z"/>
			<path fill="#5799D9" d="M114.069,243.229c3.599,0,6.914-0.986,9.945-2.959v4.635c-3.131,1.568-6.446,2.349-9.945,2.349
				c-6.168,0-11.421-2.186-15.779-6.559c-4.372-4.351-6.559-9.61-6.559-15.772c0-6.164,2.187-11.42,6.559-15.775
				c4.358-4.373,9.611-6.559,15.779-6.559c3.5,0,6.814,0.784,9.945,2.349v4.635c-3.031-1.969-6.346-2.957-9.945-2.957
				c-5.046,0-9.355,1.789-12.94,5.37c-3.577,3.578-5.366,7.89-5.366,12.936c0,5.044,1.789,9.355,5.366,12.937
				C104.714,241.437,109.023,243.229,114.069,243.229z"/>
			<path fill="#5799D9" d="M132.036,240.727c-4.373-4.354-6.559-9.609-6.559-15.775c0-6.162,2.187-11.432,6.559-15.804
				c4.351-4.351,9.611-6.53,15.772-6.53c6.168,0,11.436,2.179,15.808,6.53c4.352,4.373,6.531,9.643,6.531,15.804
				c0,6.166-2.179,11.421-6.531,15.775c-4.372,4.373-9.639,6.56-15.808,6.56C141.646,247.286,136.387,245.1,132.036,240.727z
				 M134.875,212.015c-3.577,3.582-5.374,7.895-5.374,12.937c0,5.046,1.796,9.359,5.374,12.937c3.578,3.581,7.893,5.37,12.933,5.37
				c5.047,0,9.363-1.789,12.94-5.37c3.577-3.578,5.374-7.891,5.374-12.937c0-5.042-1.796-9.355-5.374-12.937
				c-3.578-3.577-7.894-5.369-12.94-5.369C142.768,206.646,138.452,208.438,134.875,212.015z"/>
			<path fill="#5799D9" d="M203.096,246.828h-4.515l-10.278-19.8h-10.499v19.769h-4.032v-43.782h15.744
				c3.315,0,6.147,1.182,8.482,3.539c2.342,2.343,3.514,5.167,3.514,8.482c0,2.748-0.845,5.207-2.534,7.386
				c-1.647,2.116-3.762,3.517-6.346,4.209L203.096,246.828z M189.517,223c2.2,0,4.082-0.775,5.65-2.319
				c1.54-1.568,2.314-3.45,2.314-5.646c0-2.196-0.774-4.077-2.314-5.643c-1.569-1.565-3.45-2.35-5.65-2.35h-11.712V223H189.517z"/>
			<path fill="#5799D9" d="M235.259,246.828h-4.515l-10.285-19.8H209.96v19.769h-4.024v-43.782h15.744
				c3.315,0,6.14,1.182,8.482,3.539c2.335,2.343,3.506,5.167,3.506,8.482c0,2.748-0.845,5.207-2.535,7.386
				c-1.646,2.116-3.761,3.517-6.345,4.209L235.259,246.828z M221.68,223c2.193,0,4.074-0.775,5.643-2.319
				c1.547-1.568,2.322-3.45,2.322-5.646c0-2.196-0.774-4.077-2.322-5.643c-1.568-1.565-3.45-2.35-5.643-2.35h-11.72V223H221.68z"/>
			<path fill="#5799D9" d="M260.365,203.015v4.028h-18.341v15.804h14.494v4.028h-14.494V242.8h18.341v4.028h-22.367v-43.813H260.365
				z"/>
			<path fill="#5799D9" d="M268.421,240.727c-4.372-4.354-6.559-9.609-6.559-15.775c0-6.162,2.187-11.432,6.559-15.804
				c4.351-4.351,9.611-6.53,15.772-6.53c6.161,0,11.427,2.179,15.808,6.53c4.352,4.373,6.523,9.643,6.523,15.804
				c0,6.166-2.171,11.421-6.523,15.775c-4.38,4.373-9.646,6.56-15.808,6.56C278.032,247.286,272.772,245.1,268.421,240.727z
				 M271.261,212.015c-3.585,3.582-5.374,7.895-5.374,12.937c0,5.046,1.789,9.359,5.374,12.937c3.578,3.581,7.886,5.37,12.933,5.37
				c5.047,0,9.355-1.789,12.932-5.37c3.585-3.578,5.374-7.891,5.374-12.937c0-5.042-1.789-9.355-5.374-12.937
				c-3.576-3.577-7.885-5.369-12.932-5.369C279.146,206.646,274.838,208.438,271.261,212.015z"/>
			<path fill="#5799D9" d="M321.177,247.226c-2.835-0.123-5.424-0.865-7.781-2.229c-2.689-1.544-4.506-3.609-5.465-6.192
				l3.781-1.374c0.653,1.749,1.975,3.161,3.97,4.241c1.745,0.937,3.641,1.455,5.671,1.558c3.116,0.121,5.721-0.663,7.816-2.349
				c1.866-1.506,2.853-3.276,2.96-5.311c0.162-3.825-3.336-6.742-10.499-8.756c-5.168-1.444-8.86-3.459-11.072-6.043
				c-1.69-1.97-2.486-4.188-2.379-6.651c0.178-4.167,1.952-7.279,5.311-9.334c2.66-1.629,5.883-2.35,9.666-2.168
				c4.558,0.206,8.199,1.771,10.927,4.698l-2.962,2.748c-1.973-2.136-4.692-3.283-8.149-3.447c-2.967-0.124-5.429,0.405-7.382,1.587
				c-2.136,1.32-3.265,3.354-3.386,6.1c-0.162,3.746,3.336,6.62,10.499,8.635c5.16,1.444,8.858,3.468,11.072,6.073
				c1.689,1.99,2.479,4.23,2.377,6.712c-0.162,3.276-1.646,6.04-4.448,8.298c-2.69,2.157-5.935,3.232-9.74,3.232
				C321.699,247.254,321.438,247.244,321.177,247.226z"/>
			<path fill="#5799D9" d="M374.293,243.229c3.599,0,6.913-0.986,9.943-2.959v4.635c-3.13,1.568-6.445,2.349-9.943,2.349
				c-6.163,0-11.422-2.186-15.773-6.559c-4.372-4.351-6.559-9.61-6.559-15.772c0-6.164,2.187-11.42,6.559-15.775
				c4.352-4.373,9.61-6.559,15.773-6.559c3.498,0,6.813,0.784,9.943,2.349v4.635c-3.03-1.969-6.345-2.957-9.943-2.957
				c-5.048,0-9.355,1.789-12.936,5.37c-3.583,3.578-5.372,7.89-5.372,12.936c0,5.044,1.789,9.355,5.372,12.937
				C364.938,241.437,369.245,243.229,374.293,243.229z"/>
			<path fill="#5799D9" d="M392.265,240.727c-4.371-4.354-6.559-9.609-6.559-15.775c0-6.162,2.188-11.432,6.559-15.804
				c4.353-4.351,9.611-6.53,15.771-6.53c6.162,0,11.43,2.179,15.81,6.53c4.35,4.373,6.522,9.643,6.522,15.804
				c0,6.166-2.173,11.421-6.522,15.775c-4.38,4.373-9.647,6.56-15.81,6.56C401.876,247.286,396.617,245.1,392.265,240.727z
				 M395.104,212.015c-3.583,3.582-5.372,7.895-5.372,12.937c0,5.046,1.789,9.359,5.372,12.937c3.577,3.581,7.886,5.37,12.933,5.37
				s9.355-1.789,12.933-5.37c3.586-3.578,5.374-7.891,5.374-12.937c0-5.042-1.788-9.355-5.374-12.937
				c-3.577-3.577-7.886-5.369-12.933-5.369S398.681,208.438,395.104,212.015z"/>
			<path fill="#5799D9" d="M463.325,246.828h-4.514l-10.285-19.8h-10.5v19.769h-4.023v-43.782h15.744
				c3.313,0,6.139,1.182,8.481,3.539c2.336,2.343,3.506,5.167,3.506,8.482c0,2.748-0.844,5.207-2.533,7.386
				c-1.647,2.116-3.762,3.517-6.345,4.209L463.325,246.828z M449.747,223c2.192,0,4.074-0.775,5.642-2.319
				c1.549-1.568,2.321-3.45,2.321-5.646c0-2.196-0.772-4.077-2.321-5.643c-1.567-1.565-3.449-2.35-5.642-2.35h-11.721V223H449.747z"
				/>
			<path fill="#5799D9" d="M470.189,246.828h-4.031v-43.813h15.779c3.292,0,6.119,1.182,8.481,3.539
				c2.336,2.343,3.507,5.178,3.507,8.514c0,3.294-1.171,6.123-3.507,8.482c-2.362,2.339-5.189,3.507-8.481,3.507h-11.748V246.828z
				 M470.189,223.031h11.748c2.192,0,4.074-0.784,5.644-2.35c1.547-1.547,2.321-3.417,2.321-5.615c0-2.217-0.774-4.109-2.321-5.675
				c-1.569-1.565-3.451-2.35-5.644-2.35h-11.748V223.031z"/>
			<path fill="#5799D9" d="M502.066,240.727c-4.371-4.354-6.559-9.609-6.559-15.775c0-6.162,2.188-11.432,6.559-15.804
				c4.353-4.351,9.613-6.53,15.773-6.53c6.169,0,11.436,2.179,15.808,6.53c4.352,4.373,6.53,9.643,6.53,15.804
				c0,6.166-2.179,11.421-6.53,15.775c-4.372,4.373-9.639,6.56-15.808,6.56C511.68,247.286,506.419,245.1,502.066,240.727z
				 M504.907,212.015c-3.579,3.582-5.374,7.895-5.374,12.937c0,5.046,1.795,9.359,5.374,12.937c3.577,3.581,7.894,5.37,12.933,5.37
				c5.048,0,9.363-1.789,12.941-5.37c3.575-3.578,5.372-7.891,5.372-12.937c0-5.042-1.797-9.355-5.372-12.937
				c-3.578-3.577-7.894-5.369-12.941-5.369C512.801,206.646,508.484,208.438,504.907,212.015z"/>
			<path fill="#5799D9" d="M573.129,246.828h-4.516l-10.279-19.8h-10.496v19.769h-4.033v-43.782h15.744
				c3.315,0,6.146,1.182,8.481,3.539c2.344,2.343,3.515,5.167,3.515,8.482c0,2.748-0.844,5.207-2.534,7.386
				c-1.646,2.116-3.761,3.517-6.347,4.209L573.129,246.828z M559.549,223c2.2,0,4.082-0.775,5.651-2.319
				c1.539-1.568,2.313-3.45,2.313-5.646c0-2.196-0.774-4.077-2.313-5.643c-1.569-1.565-3.451-2.35-5.651-2.35h-11.711V223H559.549z"
				/>
			<path fill="#5799D9" d="M606.384,203.015v43.813h-3.995v-10.952h-17.393l-6.921,10.952h-4.762l27.704-43.813H606.384z
				 M587.53,231.847h14.858v-23.462L587.53,231.847z"/>
			<path fill="#5799D9" d="M636.65,203.015v4.028H625.18v39.786h-4.025v-39.786h-11.506v-4.028H636.65z"/>
			<path fill="#5799D9" d="M638.73,202.802h4.053v44.026h-4.053V202.802z"/>
			<path fill="#5799D9" d="M679.978,203.015l-27.704,43.813h-5.366v-43.813h4.025v38.444l24.289-38.444H679.978z"/>
			<path fill="#5799D9" d="M682.236,240.727c-4.374-4.354-6.559-9.609-6.559-15.775c0-6.162,2.185-11.432,6.559-15.804
				c4.352-4.351,9.61-6.53,15.771-6.53c6.169,0,11.438,2.179,15.81,6.53c4.35,4.373,6.531,9.643,6.531,15.804
				c0,6.166-2.182,11.421-6.531,15.775c-4.372,4.373-9.641,6.56-15.81,6.56C691.847,247.286,686.588,245.1,682.236,240.727z
				 M685.074,212.015c-3.577,3.582-5.374,7.895-5.374,12.937c0,5.046,1.797,9.359,5.374,12.937c3.577,3.581,7.894,5.37,12.933,5.37
				c5.048,0,9.364-1.789,12.941-5.37c3.577-3.578,5.374-7.891,5.374-12.937c0-5.042-1.797-9.355-5.374-12.937
				c-3.577-3.577-7.894-5.369-12.941-5.369C692.968,206.646,688.651,208.438,685.074,212.015z"/>
			<path fill="#5799D9" d="M734.989,247.226c-2.83-0.123-5.421-0.865-7.778-2.229c-2.69-1.544-4.509-3.609-5.465-6.192l3.781-1.374
				c0.653,1.749,1.973,3.161,3.968,4.241c1.747,0.937,3.643,1.455,5.673,1.558c3.115,0.121,5.721-0.663,7.814-2.349
				c1.865-1.506,2.854-3.276,2.959-5.311c0.165-3.825-3.336-6.742-10.496-8.756c-5.168-1.444-8.86-3.459-11.075-6.043
				c-1.688-1.97-2.483-4.188-2.377-6.651c0.179-4.167,1.951-7.279,5.309-9.334c2.662-1.629,5.885-2.35,9.669-2.168
				c4.558,0.206,8.198,1.771,10.924,4.698l-2.959,2.748c-1.973-2.136-4.692-3.283-8.149-3.447c-2.968-0.124-5.432,0.405-7.383,1.587
				c-2.135,1.32-3.265,3.354-3.385,6.1c-0.165,3.746,3.336,6.62,10.498,8.635c5.16,1.444,8.858,3.468,11.073,6.073
				c1.689,1.99,2.476,4.23,2.377,6.712c-0.162,3.276-1.646,6.04-4.449,8.298c-2.691,2.157-5.935,3.232-9.739,3.232
				C735.515,247.254,735.253,247.244,734.989,247.226z"/>
			<path fill="#5799D9" d="M756.137,241.426c0.795,0,1.468,0.288,2.043,0.856c0.568,0.571,0.852,1.253,0.852,2.044
				c0,0.813-0.283,1.505-0.852,2.077c-0.575,0.567-1.248,0.851-2.043,0.851c-0.817,0-1.505-0.283-2.082-0.851
				c-0.566-0.572-0.852-1.265-0.852-2.077c0-0.791,0.285-1.473,0.852-2.044C754.632,241.714,755.319,241.426,756.137,241.426z"/>
		</g>
	</g>
	<g>
		<g>
			<path fill="#5799D9" d="M265.688,349.97h-21.209l1.774-3.052c10.043-17.268,15.07-27.325,15.07-30.176
				c0-2.114-0.61-3.833-1.832-5.156c-1.242-1.342-2.825-2.013-4.756-2.013c-1.306,0-2.512,0.407-3.634,1.222
				c-1.122,0.813-1.959,1.901-2.535,3.265l-3.72-1.558c0.873-2.116,2.208-3.813,3.997-5.094c1.81-1.263,3.776-1.892,5.892-1.892
				c3.087,0,5.629,1.058,7.624,3.173c2.016,2.116,3.024,4.8,3.024,8.053c0,2.278-1.107,5.687-3.329,10.223
				c-1.746,3.56-5.259,9.876-10.527,18.948h14.161V349.97z"/>
			<path fill="#5799D9" d="M298.334,349.97v-43.813h10.768c6.041,0,11.207,2.146,15.502,6.438c4.267,4.272,6.404,9.426,6.404,15.472
				c0,6.039-2.138,11.196-6.404,15.467c-4.295,4.29-9.461,6.438-15.502,6.438H298.334z M302.329,345.973h6.772
				c4.94,0,9.163-1.749,12.663-5.249c3.498-3.495,5.245-7.719,5.245-12.658c0-4.944-1.747-9.165-5.245-12.665
				c-3.5-3.498-7.723-5.248-12.663-5.248h-6.772V345.973z"/>
			<path fill="#5799D9" d="M339.185,343.868c-4.374-4.354-6.559-9.61-6.559-15.775c0-6.161,2.185-11.432,6.559-15.804
				c4.35-4.352,9.61-6.53,15.771-6.53c6.168,0,11.435,2.179,15.809,6.53c4.351,4.372,6.529,9.643,6.529,15.804
				c0,6.165-2.179,11.422-6.529,15.775c-4.374,4.373-9.641,6.56-15.809,6.56C348.795,350.428,343.534,348.241,339.185,343.868z
				 M342.022,315.156c-3.577,3.581-5.374,7.894-5.374,12.937c0,5.047,1.797,9.358,5.374,12.937c3.578,3.581,7.894,5.37,12.934,5.37
				c5.047,0,9.363-1.789,12.94-5.37c3.577-3.578,5.374-7.89,5.374-12.937c0-5.043-1.797-9.355-5.374-12.937
				c-3.577-3.578-7.894-5.37-12.94-5.37C349.916,309.786,345.601,311.578,342.022,315.156z"/>
			<path fill="#5799D9" d="M422.694,306.156v43.782h-3.995v-34.047l-14.735,34.078h-4.396l-14.708-34.078v34.047h-4.025v-43.782
				h4.21l16.716,38.749l16.752-38.749H422.694z"/>
			<path fill="#5799D9" d="M426.357,305.943h4.055v44.026h-4.055V305.943z"/>
			<path fill="#5799D9" d="M464.766,306.156v43.813h-4.33l-21.847-36.521v36.521h-4.025v-43.813h4.364l21.813,36.521v-36.521
				H464.766z"/>
			<path fill="#5799D9" d="M468.642,305.943h4.062v44.026h-4.062V305.943z"/>
			<path fill="#5799D9" d="M481.369,343.868c-4.372-4.354-6.559-9.61-6.559-15.775c0-6.161,2.187-11.432,6.559-15.804
				c4.352-4.352,9.61-6.53,15.773-6.53c6.16,0,11.427,2.179,15.807,6.53c4.35,4.372,6.523,9.643,6.523,15.804
				c0,6.165-2.174,11.422-6.523,15.775c-4.38,4.373-9.646,6.56-15.807,6.56C490.979,350.428,485.721,348.241,481.369,343.868z
				 M484.209,315.156c-3.585,3.581-5.374,7.894-5.374,12.937c0,5.047,1.789,9.358,5.374,12.937c3.576,3.581,7.886,5.37,12.934,5.37
				c5.047,0,9.355-1.789,12.931-5.37c3.585-3.578,5.374-7.89,5.374-12.937c0-5.043-1.789-9.355-5.374-12.937
				c-3.575-3.578-7.884-5.37-12.931-5.37C492.095,309.786,487.785,311.578,484.209,315.156z"/>
			<path fill="#5799D9" d="M534.125,350.367c-2.835-0.124-5.426-0.866-7.781-2.229c-2.689-1.544-4.506-3.609-5.465-6.192
				l3.781-1.373c0.653,1.749,1.975,3.162,3.97,4.24c1.745,0.938,3.641,1.455,5.671,1.559c3.116,0.121,5.721-0.664,7.816-2.35
				c1.866-1.504,2.853-3.276,2.959-5.31c0.163-3.826-3.337-6.743-10.498-8.756c-5.168-1.444-8.858-3.461-11.073-6.044
				c-1.689-1.97-2.485-4.188-2.379-6.651c0.177-4.166,1.953-7.28,5.311-9.334c2.661-1.629,5.884-2.35,9.667-2.168
				c4.558,0.205,8.198,1.771,10.924,4.698l-2.959,2.747c-1.973-2.137-4.692-3.282-8.149-3.446c-2.967-0.123-5.429,0.405-7.382,1.586
				c-2.138,1.32-3.265,3.354-3.386,6.102c-0.164,3.745,3.336,6.619,10.498,8.636c5.16,1.444,8.858,3.467,11.073,6.071
				c1.689,1.992,2.479,4.231,2.377,6.711c-0.162,3.276-1.646,6.042-4.451,8.299c-2.688,2.158-5.933,3.232-9.737,3.232
				C534.647,350.395,534.386,350.384,534.125,350.367z"/>
			<path fill="#5799D9" d="M555.262,344.567c0.795,0,1.477,0.288,2.045,0.855c0.566,0.571,0.857,1.254,0.857,2.046
				c0,0.812-0.291,1.503-0.857,2.075c-0.568,0.567-1.25,0.851-2.045,0.851c-0.81,0-1.505-0.283-2.071-0.851
				c-0.568-0.572-0.854-1.264-0.854-2.075c0-0.792,0.286-1.475,0.854-2.046C553.757,344.855,554.452,344.567,555.262,344.567z"/>
		</g>
	</g>
</g>
</svg>
