<?xml version="1.0" encoding="utf-8"?>
<!-- Generator: Adobe Illustrator 16.0.0, SVG Export Plug-In . SVG Version: 6.00 Build 0)  -->
<!DOCTYPE svg PUBLIC "-//W3C//DTD SVG 1.1//EN" "http://www.w3.org/Graphics/SVG/1.1/DTD/svg11.dtd">
<svg version="1.1" id="Capa_1" xmlns="http://www.w3.org/2000/svg" xmlns:xlink="http://www.w3.org/1999/xlink" x="0px" y="0px"
	 width="800px" height="450px" viewBox="0 0 800 450" enable-background="new 0 0 800 450" xml:space="preserve">
<path fill="#FFFFFF" d="M703.439,39.901c0,17.161-14.763,31.071-32.969,31.071H128.372c-18.206,0-32.969-13.91-32.969-31.071l0,0
	c0-17.16,14.763-31.071,32.969-31.071H670.47C688.677,8.83,703.439,22.741,703.439,39.901L703.439,39.901z"/>
<path fill="#FFFFFF" d="M702.133,114.475c0,17.16-14.764,31.071-32.969,31.071H127.066c-18.206,0-32.969-13.911-32.969-31.071l0,0
	c0-17.16,14.763-31.071,32.969-31.071h542.098C687.369,83.405,702.133,97.315,702.133,114.475L702.133,114.475z"/>
<path fill="#FFFFFF" d="M702.133,189.05c0,17.158-14.764,31.071-32.969,31.071H127.066c-18.206,0-32.969-13.914-32.969-31.071l0,0
	c0-17.163,14.763-31.071,32.969-31.071h542.098C687.369,157.978,702.133,171.887,702.133,189.05L702.133,189.05z"/>
<path fill="#FFFFFF" d="M702.133,263.624c0,17.16-14.764,31.07-32.969,31.07H127.066c-18.206,0-32.969-13.91-32.969-31.07l0,0
	c0-17.16,14.763-31.072,32.969-31.072h542.098C687.369,232.552,702.133,246.464,702.133,263.624L702.133,263.624z"/>
<path fill="#FFFFFF" d="M702.133,338.198c0,17.16-14.764,31.07-32.969,31.07H127.066c-18.206,0-32.969-13.91-32.969-31.07l0,0
	c0-17.161,14.763-31.071,32.969-31.071h542.098C687.369,307.127,702.133,321.037,702.133,338.198L702.133,338.198z"/>
<path fill="#FFFFFF" d="M703.439,412.773c0,17.16-14.763,31.07-32.969,31.07H128.374c-18.206,0-32.969-13.91-32.969-31.07l0,0
	c0-17.161,14.763-31.071,32.969-31.071H670.47C688.677,381.701,703.439,395.612,703.439,412.773L703.439,412.773z"/>
<g>
	<g>
		<path fill="#5799D9" d="M103.574,128.347l2.37-2.039c1.407,1.611,3.169,2.419,5.288,2.419c1.945,0,3.606-0.69,4.982-2.063
			c1.374-1.376,2.063-3.037,2.063-4.979c0-1.931-0.69-3.575-2.063-4.935c-1.376-1.374-3.037-2.061-4.982-2.061h-5.975l1.661-17.218
			h12.923v3.13h-10.079l-1.065,10.957h2.535c2.8,0,5.194,0.988,7.186,2.963c1.992,1.978,2.988,4.364,2.988,7.164
			c0,2.797-0.996,5.191-2.988,7.183c-1.975,1.992-4.37,2.99-7.186,2.99C108.15,131.859,105.596,130.687,103.574,128.347z"/>
		<path fill="#5799D9" d="M125.556,127.47c-2.039-3.004-3.06-7.335-3.06-12.995c0-5.754,1.194-10.187,3.581-13.304
			c2.055-2.704,4.56-4.055,7.517-4.055s5.462,1.352,7.517,4.055c2.373,3.117,3.559,7.55,3.559,13.304
			c0,6.799-1.431,11.643-4.292,14.537c-1.851,1.865-4.109,2.797-6.783,2.797C130.212,131.809,127.531,130.364,125.556,127.47z
			 M128.497,103.166c-1.915,2.53-2.869,6.297-2.869,11.31c0,4.521,0.695,8.024,2.086,10.507c1.39,2.48,3.351,3.721,5.88,3.721
			c2.53,0,4.491-1.241,5.881-3.721c1.39-2.483,2.088-5.986,2.088-10.507c0-5.012-0.965-8.78-2.894-11.31
			c-1.454-1.945-3.147-2.918-5.076-2.918C131.649,100.247,129.95,101.221,128.497,103.166z"/>
		<path fill="#5799D9" d="M193.996,128.681c2.797,0,5.373-0.767,7.729-2.301v3.603c-2.433,1.219-5.009,1.826-7.729,1.826
			c-4.792,0-8.877-1.699-12.262-5.098c-3.398-3.382-5.098-7.47-5.098-12.258c0-4.792,1.699-8.877,5.098-12.261
			c3.385-3.398,7.47-5.098,12.262-5.098c2.72,0,5.296,0.61,7.729,1.826v3.602c-2.356-1.531-4.932-2.297-7.729-2.297
			c-3.922,0-7.271,1.39-10.055,4.173c-2.783,2.78-4.174,6.132-4.174,10.055c0,3.919,1.391,7.271,4.174,10.054
			C186.724,127.288,190.073,128.681,193.996,128.681z"/>
		<path fill="#5799D9" d="M207.962,126.737c-3.398-3.384-5.098-7.47-5.098-12.261c0-4.789,1.699-8.885,5.098-12.283
			c3.382-3.382,7.47-5.076,12.258-5.076c4.792,0,8.885,1.694,12.286,5.076c3.382,3.398,5.073,7.495,5.073,12.283
			c0,4.792-1.691,8.877-5.073,12.261c-3.401,3.398-7.495,5.098-12.286,5.098C215.431,131.834,211.344,130.135,207.962,126.737z
			 M210.168,104.421c-2.783,2.783-4.176,6.135-4.176,10.054c0,3.922,1.393,7.274,4.176,10.055c2.78,2.783,6.132,4.173,10.052,4.173
			c3.922,0,7.274-1.391,10.055-4.173c2.783-2.781,4.176-6.132,4.176-10.055c0-3.919-1.394-7.271-4.176-10.054
			c-2.781-2.781-6.132-4.174-10.055-4.174C216.3,100.247,212.948,101.64,210.168,104.421z"/>
		<path fill="#5799D9" d="M263.191,131.478h-3.508l-7.991-15.389h-8.16v15.364h-3.131V97.425h12.237c2.576,0,4.774,0.919,6.593,2.75
			c1.817,1.821,2.728,4.017,2.728,6.593c0,2.135-0.656,4.046-1.97,5.74c-1.279,1.644-2.923,2.733-4.932,3.271L263.191,131.478z
			 M252.637,112.958c1.708,0,3.169-0.601,4.389-1.801c1.2-1.219,1.801-2.681,1.801-4.389s-0.601-3.169-1.801-4.386
			c-1.219-1.216-2.681-1.826-4.389-1.826h-9.106v12.401H252.637z"/>
		<path fill="#5799D9" d="M288.185,131.478h-3.508l-7.991-15.389h-8.16v15.364h-3.131V97.425h12.237c2.576,0,4.774,0.919,6.592,2.75
			c1.818,1.821,2.728,4.017,2.728,6.593c0,2.135-0.656,4.046-1.97,5.74c-1.279,1.644-2.924,2.733-4.932,3.271L288.185,131.478z
			 M277.632,112.958c1.708,0,3.169-0.601,4.389-1.801c1.2-1.219,1.801-2.681,1.801-4.389s-0.601-3.169-1.801-4.386
			c-1.219-1.216-2.681-1.826-4.389-1.826h-9.106v12.401H277.632z"/>
		<path fill="#5799D9" d="M307.701,97.425v3.131h-14.253v12.283h11.266v3.131h-11.266v12.377h14.253v3.131H290.32V97.425H307.701z"
			/>
		<path fill="#5799D9" d="M313.96,126.737c-3.398-3.384-5.098-7.47-5.098-12.261c0-4.789,1.699-8.885,5.098-12.283
			c3.382-3.382,7.47-5.076,12.259-5.076c4.791,0,8.884,1.694,12.286,5.076c3.382,3.398,5.072,7.495,5.072,12.283
			c0,4.792-1.69,8.877-5.072,12.261c-3.402,3.398-7.495,5.098-12.286,5.098C321.429,131.834,317.342,130.135,313.96,126.737z
			 M316.167,104.421c-2.784,2.783-4.176,6.135-4.176,10.054c0,3.922,1.393,7.274,4.176,10.055c2.78,2.783,6.132,4.173,10.052,4.173
			c3.922,0,7.273-1.391,10.055-4.173c2.783-2.781,4.176-6.132,4.176-10.055c0-3.919-1.394-7.271-4.176-10.054
			c-2.781-2.781-6.132-4.174-10.055-4.174C322.299,100.247,318.947,101.64,316.167,104.421z"/>
		<path fill="#5799D9" d="M354.961,131.787c-2.198-0.097-4.212-0.673-6.046-1.732c-2.088-1.2-3.503-2.805-4.246-4.813l2.941-1.067
			c0.505,1.36,1.534,2.458,3.081,3.296c1.36,0.728,2.831,1.131,4.411,1.211c2.419,0.093,4.444-0.516,6.071-1.826
			c1.454-1.17,2.221-2.546,2.301-4.127c0.126-2.974-2.593-5.241-8.157-6.805c-4.016-1.122-6.884-2.689-8.608-4.697
			c-1.313-1.531-1.928-3.255-1.849-5.169c0.141-3.238,1.517-5.658,4.127-7.255c2.069-1.266,4.576-1.826,7.516-1.686
			c3.54,0.16,6.37,1.376,8.488,3.652l-2.3,2.135c-1.534-1.66-3.644-2.551-6.331-2.678c-2.309-0.097-4.221,0.314-5.737,1.233
			c-1.661,1.026-2.538,2.606-2.635,4.742c-0.124,2.911,2.593,5.145,8.16,6.711c4.014,1.123,6.885,2.695,8.606,4.719
			c1.313,1.548,1.928,3.289,1.851,5.217c-0.127,2.545-1.28,4.694-3.462,6.449c-2.088,1.677-4.609,2.513-7.566,2.513
			C355.372,131.809,355.165,131.801,354.961,131.787z"/>
		<path fill="#5799D9" d="M396.247,128.681c2.796,0,5.373-0.767,7.729-2.301v3.603c-2.433,1.219-5.009,1.826-7.729,1.826
			c-4.792,0-8.877-1.699-12.261-5.098c-3.398-3.382-5.098-7.47-5.098-12.258c0-4.792,1.699-8.877,5.098-12.261
			c3.384-3.398,7.47-5.098,12.261-5.098c2.72,0,5.296,0.61,7.729,1.826v3.602c-2.355-1.531-4.932-2.297-7.729-2.297
			c-3.923,0-7.271,1.39-10.055,4.173c-2.783,2.78-4.174,6.132-4.174,10.055c0,3.919,1.391,7.271,4.174,10.054
			C388.975,127.288,392.324,128.681,396.247,128.681z"/>
		<path fill="#5799D9" d="M410.213,126.737c-3.398-3.384-5.098-7.47-5.098-12.261c0-4.789,1.699-8.885,5.098-12.283
			c3.382-3.382,7.47-5.076,12.259-5.076c4.791,0,8.885,1.694,12.285,5.076c3.382,3.398,5.073,7.495,5.073,12.283
			c0,4.792-1.691,8.877-5.073,12.261c-3.4,3.398-7.494,5.098-12.285,5.098C417.682,131.834,413.594,130.135,410.213,126.737z
			 M412.419,104.421c-2.782,2.783-4.176,6.135-4.176,10.054c0,3.922,1.394,7.274,4.176,10.055c2.781,2.783,6.133,4.173,10.053,4.173
			c3.923,0,7.273-1.391,10.054-4.173c2.783-2.781,4.177-6.132,4.177-10.055c0-3.919-1.394-7.271-4.177-10.054
			c-2.78-2.781-6.131-4.174-10.054-4.174C418.552,100.247,415.2,101.64,412.419,104.421z"/>
		<path fill="#5799D9" d="M465.442,131.478h-3.51l-7.99-15.389h-8.159v15.364h-3.132V97.425h12.236c2.577,0,4.775,0.919,6.594,2.75
			c1.817,1.821,2.728,4.017,2.728,6.593c0,2.135-0.656,4.046-1.969,5.74c-1.281,1.644-2.924,2.733-4.933,3.271L465.442,131.478z
			 M454.887,112.958c1.708,0,3.171-0.601,4.389-1.801c1.2-1.219,1.802-2.681,1.802-4.389s-0.602-3.169-1.802-4.386
			c-1.218-1.216-2.681-1.826-4.389-1.826h-9.104v12.401H454.887z"/>
		<path fill="#5799D9" d="M470.777,131.478h-3.132V97.425h12.262c2.561,0,4.759,0.919,6.593,2.75
			c1.817,1.821,2.725,4.025,2.725,6.618c0,2.56-0.907,4.758-2.725,6.593c-1.834,1.817-4.032,2.725-6.593,2.725h-9.13V131.478z
			 M470.777,112.983h9.13c1.707,0,3.17-0.61,4.387-1.826c1.202-1.203,1.804-2.656,1.804-4.364c0-1.724-0.602-3.194-1.804-4.411
			c-1.217-1.216-2.68-1.826-4.387-1.826h-9.13V112.983z"/>
		<path fill="#5799D9" d="M495.555,126.737c-3.398-3.384-5.098-7.47-5.098-12.261c0-4.789,1.699-8.885,5.098-12.283
			c3.382-3.382,7.47-5.076,12.26-5.076s8.884,1.694,12.282,5.076c3.383,3.398,5.075,7.495,5.075,12.283
			c0,4.792-1.692,8.877-5.075,12.261c-3.398,3.398-7.492,5.098-12.282,5.098S498.937,130.135,495.555,126.737z M497.762,104.421
			c-2.783,2.783-4.176,6.135-4.176,10.054c0,3.922,1.393,7.274,4.176,10.055c2.781,2.783,6.132,4.173,10.053,4.173
			c3.919,0,7.272-1.391,10.054-4.173c2.78-2.781,4.176-6.132,4.176-10.055c0-3.919-1.396-7.271-4.176-10.054
			c-2.781-2.781-6.135-4.174-10.054-4.174C503.894,100.247,500.544,101.64,497.762,104.421z"/>
		<path fill="#5799D9" d="M550.782,131.478h-3.508l-7.989-15.389h-8.158v15.364h-3.135V97.425h12.237
			c2.575,0,4.777,0.919,6.592,2.75c1.82,1.821,2.731,4.017,2.731,6.593c0,2.135-0.657,4.046-1.97,5.74
			c-1.28,1.644-2.924,2.733-4.932,3.271L550.782,131.478z M540.229,112.958c1.709,0,3.172-0.601,4.391-1.801
			c1.198-1.219,1.798-2.681,1.798-4.389s-0.6-3.169-1.798-4.386c-1.219-1.216-2.682-1.826-4.391-1.826h-9.103v12.401H540.229z"/>
		<path fill="#5799D9" d="M576.629,97.425v34.053h-3.105v-8.513h-13.517l-5.379,8.513h-3.702l21.533-34.053H576.629z
			 M561.975,119.835h11.548v-18.236L561.975,119.835z"/>
		<path fill="#5799D9" d="M600.153,97.425v3.131h-8.915v30.922h-3.128v-30.922h-8.943v-3.131H600.153z"/>
		<path fill="#5799D9" d="M601.769,97.26h3.15v34.218h-3.15V97.26z"/>
		<path fill="#5799D9" d="M633.828,97.425l-21.532,34.053h-4.171V97.425h3.128v29.879l18.879-29.879H633.828z"/>
		<path fill="#5799D9" d="M635.583,126.737c-3.398-3.384-5.098-7.47-5.098-12.261c0-4.789,1.699-8.885,5.098-12.283
			c3.382-3.382,7.47-5.076,12.258-5.076c4.794,0,8.888,1.694,12.285,5.076c3.382,3.398,5.076,7.495,5.076,12.283
			c0,4.792-1.694,8.877-5.076,12.261c-3.397,3.398-7.491,5.098-12.285,5.098C643.052,131.834,638.965,130.135,635.583,126.737z
			 M637.789,104.421c-2.781,2.783-4.176,6.135-4.176,10.054c0,3.922,1.395,7.274,4.176,10.055c2.781,2.783,6.135,4.173,10.052,4.173
			c3.923,0,7.276-1.391,10.058-4.173c2.78-2.781,4.176-6.132,4.176-10.055c0-3.919-1.396-7.271-4.176-10.054
			c-2.781-2.781-6.135-4.174-10.058-4.174C643.924,100.247,640.57,101.64,637.789,104.421z"/>
		<path fill="#5799D9" d="M676.584,131.787c-2.196-0.097-4.21-0.673-6.046-1.732c-2.086-1.2-3.504-2.805-4.243-4.813l2.94-1.067
			c0.502,1.36,1.534,2.458,3.078,3.296c1.363,0.728,2.83,1.131,4.413,1.211c2.417,0.093,4.441-0.516,6.069-1.826
			c1.456-1.17,2.224-2.546,2.3-4.127c0.127-2.974-2.592-5.241-8.153-6.805c-4.017-1.122-6.886-2.689-8.611-4.697
			c-1.313-1.531-1.926-3.255-1.85-5.169c0.145-3.238,1.518-5.658,4.128-7.255c2.068-1.266,4.578-1.826,7.519-1.686
			c3.536,0.16,6.367,1.376,8.485,3.652l-2.301,2.135c-1.533-1.66-3.641-2.551-6.328-2.678c-2.311-0.097-4.22,0.314-5.737,1.233
			c-1.66,1.026-2.537,2.606-2.637,4.742c-0.122,2.911,2.593,5.145,8.159,6.711c4.017,1.123,6.885,2.695,8.606,4.719
			c1.313,1.548,1.931,3.289,1.854,5.217c-0.127,2.545-1.279,4.694-3.465,6.449c-2.084,1.677-4.606,2.513-7.563,2.513
			C676.998,131.809,676.788,131.801,676.584,131.787z"/>
		<path fill="#5799D9" d="M693.018,127.28c0.618,0,1.142,0.224,1.588,0.665c0.442,0.444,0.663,0.974,0.663,1.588
			c0,0.632-0.221,1.169-0.663,1.614c-0.446,0.441-0.97,0.662-1.588,0.662c-0.635,0-1.169-0.221-1.617-0.662
			c-0.441-0.445-0.661-0.982-0.661-1.614c0-0.615,0.22-1.145,0.661-1.588C691.849,127.504,692.384,127.28,693.018,127.28z"/>
	</g>
</g>
<g>
	<g>
		<path fill="#5799D9" d="M277.779,187.519c1.503,0.902,2.695,2.113,3.583,3.63c0.916,1.564,1.374,3.255,1.374,5.073
			c0,2.8-0.988,5.194-2.963,7.186c-1.995,1.992-4.38,2.988-7.164,2.988c-2.797,0-5.191-0.996-7.183-2.988
			c-1.978-1.991-2.965-4.385-2.965-7.186c0-1.818,0.458-3.509,1.376-5.073c0.883-1.517,2.077-2.728,3.581-3.63
			c-2.372-1.738-3.558-4.077-3.558-7.018c0-2.402,0.854-4.458,2.562-6.166s3.768-2.562,6.188-2.562c2.403,0,4.46,0.854,6.165,2.562
			c1.708,1.708,2.563,3.763,2.563,6.166C281.338,183.442,280.151,185.781,277.779,187.519z M272.61,202.933
			c1.928,0,3.581-0.687,4.957-2.063c1.377-1.374,2.064-3.034,2.064-4.979c0-1.928-0.687-3.581-2.064-4.957
			c-1.376-1.36-3.029-2.039-4.957-2.039c-1.945,0-3.603,0.679-4.979,2.039c-1.36,1.376-2.039,3.028-2.039,4.957
			c0,1.945,0.679,3.605,2.039,4.979C269.007,202.246,270.665,202.933,272.61,202.933z M266.99,180.167
			c0,1.551,0.546,2.872,1.636,3.961c1.106,1.092,2.436,1.636,3.983,1.636c1.55,0,2.872-0.543,3.961-1.636
			c1.09-1.089,1.636-2.411,1.636-3.961c0-1.547-0.546-2.869-1.636-3.958c-1.089-1.106-2.411-1.661-3.961-1.661
			c-1.547,0-2.877,0.555-3.983,1.661C267.537,177.299,266.99,178.62,266.99,180.167z"/>
		<path fill="#5799D9" d="M334.44,206.063v-34.052h8.371c4.695,0,8.708,1.668,12.047,5.003c3.318,3.321,4.979,7.327,4.979,12.024
			c0,4.694-1.66,8.703-4.979,12.021c-3.338,3.335-7.352,5.003-12.047,5.003H334.44z M337.546,202.957h5.266
			c3.84,0,7.12-1.359,9.84-4.08c2.72-2.717,4.08-5.999,4.08-9.839c0-3.842-1.36-7.123-4.08-9.842c-2.72-2.72-6-4.08-9.84-4.08
			h-5.266V202.957z"/>
		<path fill="#5799D9" d="M366.192,201.322c-3.398-3.385-5.098-7.47-5.098-12.262c0-4.789,1.699-8.885,5.098-12.283
			c3.382-3.382,7.47-5.075,12.258-5.075c4.792,0,8.885,1.693,12.287,5.075c3.382,3.398,5.073,7.495,5.073,12.283
			c0,4.792-1.691,8.877-5.073,12.262c-3.401,3.398-7.495,5.098-12.287,5.098C373.662,206.42,369.574,204.72,366.192,201.322z
			 M368.399,179.006c-2.784,2.784-4.176,6.135-4.176,10.054c0,3.923,1.393,7.274,4.176,10.055c2.78,2.784,6.131,4.174,10.051,4.174
			c3.922,0,7.274-1.39,10.055-4.174c2.783-2.78,4.176-6.132,4.176-10.055c0-3.919-1.393-7.271-4.176-10.054
			c-2.781-2.78-6.132-4.173-10.055-4.173C374.531,174.833,371.179,176.226,368.399,179.006z"/>
		<path fill="#5799D9" d="M431.094,172.011v34.027h-3.105v-26.461l-11.453,26.486h-3.415l-11.431-26.486v26.461h-3.129v-34.027
			h3.272l12.992,30.117l13.02-30.117H431.094z"/>
		<path fill="#5799D9" d="M433.94,171.845h3.15v34.218h-3.15V171.845z"/>
		<path fill="#5799D9" d="M463.793,172.011v34.052h-3.366l-16.98-28.384v28.384h-3.128v-34.052h3.393l16.954,28.384v-28.384H463.793
			z"/>
		<path fill="#5799D9" d="M466.804,171.845h3.156v34.218h-3.156V171.845z"/>
		<path fill="#5799D9" d="M476.697,201.322c-3.398-3.385-5.098-7.47-5.098-12.262c0-4.789,1.699-8.885,5.098-12.283
			c3.382-3.382,7.47-5.075,12.258-5.075c4.789,0,8.882,1.693,12.286,5.075c3.382,3.398,5.07,7.495,5.07,12.283
			c0,4.792-1.688,8.877-5.07,12.262c-3.404,3.398-7.497,5.098-12.286,5.098C484.167,206.42,480.079,204.72,476.697,201.322z
			 M478.903,179.006c-2.786,2.784-4.177,6.135-4.177,10.054c0,3.923,1.391,7.274,4.177,10.055c2.78,2.784,6.13,4.174,10.052,4.174
			c3.923,0,7.271-1.39,10.052-4.174c2.786-2.78,4.177-6.132,4.177-10.055c0-3.919-1.391-7.271-4.177-10.054
			c-2.78-2.78-6.129-4.173-10.052-4.173C485.033,174.833,481.683,176.226,478.903,179.006z"/>
		<path fill="#5799D9" d="M517.698,206.372c-2.201-0.097-4.215-0.673-6.047-1.732c-2.091-1.2-3.504-2.805-4.248-4.813l2.94-1.068
			c0.508,1.36,1.534,2.458,3.084,3.297c1.357,0.728,2.831,1.13,4.408,1.21c2.422,0.094,4.446-0.516,6.074-1.826
			c1.451-1.17,2.218-2.546,2.301-4.126c0.126-2.974-2.594-5.242-8.16-6.805c-4.016-1.123-6.885-2.689-8.605-4.698
			c-1.314-1.531-1.931-3.255-1.849-5.169c0.138-3.238,1.517-5.657,4.126-7.255c2.069-1.266,4.574-1.826,7.515-1.685
			c3.542,0.16,6.372,1.376,8.491,3.652l-2.301,2.135c-1.534-1.661-3.646-2.552-6.334-2.679c-2.307-0.096-4.221,0.315-5.737,1.233
			c-1.661,1.026-2.538,2.607-2.632,4.742c-0.127,2.91,2.593,5.144,8.159,6.711c4.011,1.123,6.886,2.695,8.606,4.72
			c1.313,1.547,1.926,3.288,1.849,5.216c-0.128,2.546-1.28,4.695-3.46,6.449c-2.091,1.677-4.611,2.513-7.568,2.513
			C518.106,206.395,517.901,206.386,517.698,206.372z"/>
		<path fill="#5799D9" d="M534.127,201.865c0.618,0,1.147,0.223,1.589,0.665c0.441,0.444,0.668,0.974,0.668,1.589
			c0,0.632-0.227,1.17-0.668,1.614c-0.441,0.441-0.971,0.662-1.589,0.662c-0.628,0-1.169-0.221-1.61-0.662
			c-0.441-0.444-0.662-0.982-0.662-1.614c0-0.615,0.221-1.145,0.662-1.589C532.958,202.089,533.499,201.865,534.127,201.865z"/>
	</g>
</g>
<g>
	<g>
		<path fill="#5799D9" d="M202.658,280.71l2.369-2.039c1.407,1.611,3.169,2.419,5.289,2.419c1.945,0,3.605-0.689,4.981-2.063
			c1.374-1.376,2.063-3.037,2.063-4.979c0-1.932-0.69-3.576-2.063-4.935c-1.376-1.374-3.037-2.061-4.981-2.061h-5.975l1.661-17.22
			h12.923v3.132h-10.079l-1.065,10.956h2.536c2.799,0,5.194,0.988,7.186,2.963c1.992,1.978,2.987,4.363,2.987,7.164
			c0,2.797-0.996,5.191-2.987,7.183c-1.976,1.992-4.37,2.99-7.186,2.99C207.235,284.221,204.68,283.049,202.658,280.71z"/>
		<path fill="#5799D9" d="M309.015,249.788v34.027h-3.106v-26.462l-11.453,26.487h-3.415l-11.431-26.487v26.462h-3.127v-34.027
			h3.271l12.995,30.115l13.02-30.115H309.015z"/>
		<path fill="#5799D9" d="M330.429,249.788v3.13h-14.252v12.283h11.265v3.132h-11.265v12.377h14.252v3.131h-17.38v-34.053H330.429z"
			/>
		<path fill="#5799D9" d="M341.813,284.15c-2.199-0.097-4.212-0.674-6.047-1.732c-2.087-1.2-3.503-2.806-4.245-4.813l2.94-1.068
			c0.505,1.36,1.534,2.458,3.081,3.297c1.36,0.728,2.831,1.131,4.411,1.211c2.419,0.094,4.444-0.517,6.071-1.827
			c1.454-1.169,2.22-2.544,2.301-4.126c0.126-2.974-2.593-5.24-8.157-6.805c-4.017-1.123-6.885-2.689-8.609-4.696
			c-1.313-1.532-1.928-3.256-1.848-5.171c0.141-3.237,1.517-5.657,4.127-7.254c2.068-1.267,4.576-1.827,7.517-1.687
			c3.539,0.16,6.369,1.377,8.488,3.653l-2.301,2.135c-1.534-1.66-3.644-2.552-6.331-2.679c-2.309-0.097-4.22,0.314-5.738,1.233
			c-1.66,1.026-2.538,2.606-2.634,4.742c-0.124,2.909,2.593,5.144,8.159,6.711c4.013,1.122,6.885,2.695,8.606,4.719
			c1.313,1.549,1.928,3.289,1.851,5.217c-0.126,2.546-1.28,4.694-3.462,6.449c-2.088,1.677-4.609,2.513-7.566,2.513
			C342.224,284.171,342.017,284.163,341.813,284.15z"/>
		<path fill="#5799D9" d="M373.706,249.788v3.13h-14.252v12.283h11.266v3.132h-11.266v12.377h14.252v3.131h-17.381v-34.053H373.706z
			"/>
		<path fill="#5799D9" d="M385.087,284.15c-2.198-0.097-4.212-0.674-6.046-1.732c-2.088-1.2-3.503-2.806-4.245-4.813l2.941-1.068
			c0.504,1.36,1.533,2.458,3.081,3.297c1.359,0.728,2.83,1.131,4.411,1.211c2.419,0.094,4.443-0.517,6.071-1.827
			c1.453-1.169,2.22-2.544,2.3-4.126c0.127-2.974-2.593-5.24-8.157-6.805c-4.016-1.123-6.885-2.689-8.609-4.696
			c-1.313-1.532-1.928-3.256-1.848-5.171c0.141-3.237,1.517-5.657,4.126-7.254c2.069-1.267,4.576-1.827,7.517-1.687
			c3.539,0.16,6.37,1.377,8.488,3.653l-2.301,2.135c-1.533-1.66-3.644-2.552-6.33-2.679c-2.309-0.097-4.221,0.314-5.738,1.233
			c-1.661,1.026-2.538,2.606-2.634,4.742c-0.124,2.909,2.593,5.144,8.159,6.711c4.014,1.122,6.885,2.695,8.607,4.719
			c1.313,1.549,1.928,3.289,1.851,5.217c-0.127,2.546-1.28,4.694-3.461,6.449c-2.088,1.677-4.609,2.513-7.566,2.513
			C385.499,284.171,385.291,284.163,385.087,284.15z"/>
		<path fill="#5799D9" d="M413.898,279.073c-3.398-3.382-5.098-7.47-5.098-12.258c0-4.775,1.699-8.863,5.098-12.262
			c3.382-3.382,7.47-5.076,12.264-5.076c2.35,0,4.606,0.453,6.758,1.353l-1.235,2.894c-1.755-0.742-3.598-1.114-5.522-1.114
			c-3.923,0-7.277,1.384-10.058,4.151c-2.78,2.78-4.17,6.132-4.17,10.055c0,3.919,1.39,7.271,4.17,10.055
			c2.78,2.78,6.135,4.173,10.058,4.173c1.578,0,3.111-0.254,4.596-0.761v-11.997h-7.089v-3.131h10.222v17.24l-0.948,0.403
			c-2.168,0.915-4.431,1.373-6.78,1.373C421.368,284.171,417.28,282.472,413.898,279.073z"/>
		<path fill="#5799D9" d="M460.378,249.788v34.053h-3.106v-8.513h-13.516l-5.386,8.513h-3.696l21.528-34.053H460.378z
			 M445.725,272.197h11.546v-18.235L445.725,272.197z"/>
		<path fill="#5799D9" d="M487.437,283.841h-3.509l-7.993-15.391h-8.159v15.365h-3.129v-34.027h12.236
			c2.577,0,4.772,0.918,6.594,2.749c1.814,1.821,2.725,4.017,2.725,6.593c0,2.135-0.657,4.047-1.97,5.74
			c-1.279,1.645-2.924,2.733-4.932,3.272L487.437,283.841z M476.884,265.321c1.705,0,3.167-0.602,4.387-1.802
			c1.202-1.219,1.804-2.682,1.804-4.389c0-1.708-0.602-3.169-1.804-4.386c-1.22-1.217-2.682-1.826-4.387-1.826h-9.107v12.402
			H476.884z"/>
		<path fill="#5799D9" d="M513.285,249.788v34.053h-3.106v-8.513h-13.516l-5.386,8.513h-3.696l21.527-34.053H513.285z
			 M498.632,272.197h11.547v-18.235L498.632,272.197z"/>
		<path fill="#5799D9" d="M540.957,249.788v34.053h-3.365l-16.98-28.385v28.385h-3.128v-34.053h3.387l16.959,28.383v-28.383H540.957
			z"/>
		<path fill="#5799D9" d="M564.481,249.788v3.13h-8.916v30.923h-3.134v-30.923h-8.938v-3.13H564.481z"/>
		<path fill="#5799D9" d="M569.959,243.03l-2.537,5.359h-1.33v-5.359H569.959z M566.092,249.621h3.155v34.22h-3.155V249.621z"/>
		<path fill="#5799D9" d="M596.186,249.788v34.053h-3.105v-8.513h-13.517l-5.385,8.513h-3.696l21.526-34.053H596.186z
			 M581.533,272.197h11.548v-18.235L581.533,272.197z"/>
	</g>
</g>
<g>
	<g>
		<path fill="#5799D9" d="M264.36,352.415c2.797,0,5.374-0.768,7.729-2.301v3.603c-2.433,1.219-5.009,1.825-7.729,1.825
			c-4.791,0-8.876-1.699-12.261-5.098c-3.398-3.382-5.098-7.47-5.098-12.258c0-4.791,1.699-8.877,5.098-12.262
			c3.384-3.397,7.47-5.097,12.261-5.097c2.72,0,5.297,0.609,7.729,1.825v3.604c-2.356-1.53-4.932-2.298-7.729-2.298
			c-3.922,0-7.271,1.391-10.054,4.174c-2.783,2.78-4.173,6.131-4.173,10.054c0,3.92,1.39,7.271,4.173,10.055
			C257.09,351.022,260.438,352.415,264.36,352.415z"/>
		<path fill="#5799D9" d="M278.326,350.47c-3.398-3.384-5.098-7.47-5.098-12.261c0-4.788,1.699-8.886,5.098-12.284
			c3.382-3.381,7.47-5.074,12.258-5.074c4.792,0,8.885,1.693,12.287,5.074c3.382,3.398,5.072,7.496,5.072,12.284
			c0,4.791-1.69,8.877-5.072,12.261c-3.402,3.398-7.495,5.098-12.287,5.098C285.796,355.568,281.708,353.868,278.326,350.47z
			 M280.533,328.155c-2.784,2.783-4.176,6.135-4.176,10.055c0,3.923,1.393,7.273,4.176,10.054c2.78,2.783,6.131,4.174,10.051,4.174
			c3.923,0,7.274-1.391,10.055-4.174c2.783-2.78,4.176-6.131,4.176-10.054c0-3.92-1.393-7.271-4.176-10.055
			c-2.781-2.78-6.132-4.174-10.055-4.174C286.665,323.981,283.314,325.374,280.533,328.155z"/>
		<path fill="#5799D9" d="M334.171,321.159v34.053h-3.365l-16.981-28.385v28.385h-3.128v-34.053h3.39l16.956,28.385v-28.385H334.171
			z"/>
		<path fill="#5799D9" d="M347,355.521c-2.199-0.096-4.212-0.673-6.046-1.732c-2.088-1.199-3.503-2.805-4.245-4.813l2.94-1.067
			c0.505,1.36,1.534,2.458,3.081,3.296c1.36,0.729,2.83,1.132,4.411,1.212c2.419,0.094,4.444-0.516,6.071-1.826
			c1.454-1.169,2.221-2.546,2.3-4.126c0.127-2.974-2.593-5.242-8.157-6.806c-4.016-1.122-6.885-2.689-8.609-4.697
			c-1.313-1.531-1.928-3.255-1.848-5.17c0.141-3.238,1.518-5.657,4.127-7.254c2.068-1.267,4.576-1.826,7.517-1.686
			c3.539,0.16,6.37,1.376,8.488,3.651l-2.301,2.135c-1.533-1.66-3.644-2.552-6.33-2.678c-2.309-0.097-4.221,0.314-5.738,1.233
			c-1.66,1.025-2.537,2.606-2.634,4.741c-0.124,2.91,2.593,5.145,8.16,6.711c4.013,1.123,6.885,2.695,8.606,4.721
			c1.313,1.547,1.928,3.287,1.851,5.215c-0.126,2.547-1.279,4.695-3.461,6.45c-2.088,1.677-4.609,2.512-7.566,2.512
			C347.411,355.542,347.204,355.534,347,355.521z"/>
		<path fill="#5799D9" d="M363.435,351.014c0.618,0,1.145,0.223,1.588,0.664c0.441,0.444,0.665,0.974,0.665,1.59
			c0,0.632-0.224,1.169-0.665,1.613c-0.444,0.441-0.97,0.661-1.588,0.661c-0.632,0-1.169-0.22-1.614-0.661
			c-0.441-0.444-0.662-0.981-0.662-1.613c0-0.616,0.22-1.146,0.662-1.59C362.266,351.237,362.803,351.014,363.435,351.014z"/>
		<path fill="#5799D9" d="M380.744,355.212v-34.053h8.372c4.695,0,8.708,1.668,12.046,5.004c3.319,3.32,4.979,7.326,4.979,12.023
			c0,4.695-1.659,8.703-4.979,12.021c-3.337,3.334-7.351,5.004-12.046,5.004H380.744z M383.85,352.106h5.266
			c3.84,0,7.12-1.36,9.839-4.079c2.719-2.718,4.08-6,4.08-9.84c0-3.842-1.36-7.122-4.08-9.842c-2.72-2.72-6-4.08-9.839-4.08h-5.266
			V352.106z"/>
		<path fill="#5799D9" d="M426.369,321.159v3.131h-14.253v12.283h11.265v3.131h-11.265v12.377h14.253v3.131h-17.382v-34.053H426.369
			z"/>
		<path fill="#5799D9" d="M448.66,355.521c-2.199-0.096-4.212-0.673-6.047-1.732c-2.088-1.199-3.503-2.805-4.245-4.813l2.94-1.067
			c0.505,1.36,1.534,2.458,3.081,3.296c1.36,0.729,2.83,1.132,4.411,1.212c2.419,0.094,4.444-0.516,6.071-1.826
			c1.454-1.169,2.221-2.546,2.301-4.126c0.127-2.974-2.594-5.242-8.157-6.806c-4.016-1.122-6.885-2.689-8.609-4.697
			c-1.313-1.531-1.928-3.255-1.848-5.17c0.141-3.238,1.518-5.657,4.126-7.254c2.069-1.267,4.577-1.826,7.518-1.686
			c3.539,0.16,6.369,1.376,8.487,3.651l-2.301,2.135c-1.533-1.66-3.644-2.552-6.33-2.678c-2.31-0.097-4.221,0.314-5.738,1.233
			c-1.66,1.025-2.537,2.606-2.634,4.741c-0.124,2.91,2.593,5.145,8.16,6.711c4.013,1.123,6.885,2.695,8.605,4.721
			c1.313,1.547,1.929,3.287,1.851,5.215c-0.127,2.547-1.279,4.695-3.461,6.45c-2.089,1.677-4.61,2.512-7.567,2.512
			C449.071,355.542,448.864,355.534,448.66,355.521z"/>
		<path fill="#5799D9" d="M461.989,320.994h3.152v34.218h-3.152V320.994z"/>
		<path fill="#5799D9" d="M487.692,321.159v3.131h-8.916v30.922h-3.131V324.29h-8.94v-3.131H487.692z"/>
		<path fill="#5799D9" d="M489.305,320.994h3.152v34.218h-3.152V320.994z"/>
		<path fill="#5799D9" d="M499.195,350.47c-3.398-3.384-5.098-7.47-5.098-12.261c0-4.788,1.699-8.886,5.098-12.284
			c3.381-3.381,7.47-5.074,12.258-5.074c4.791,0,8.885,1.693,12.285,5.074c3.382,3.398,5.073,7.496,5.073,12.284
			c0,4.791-1.691,8.877-5.073,12.261c-3.4,3.398-7.494,5.098-12.285,5.098C506.665,355.568,502.576,353.868,499.195,350.47z
			 M501.401,328.155c-2.783,2.783-4.177,6.135-4.177,10.055c0,3.923,1.394,7.273,4.177,10.054c2.78,2.783,6.132,4.174,10.052,4.174
			c3.923,0,7.273-1.391,10.054-4.174c2.783-2.78,4.177-6.131,4.177-10.054c0-3.92-1.394-7.271-4.177-10.055
			c-2.78-2.78-6.131-4.174-10.054-4.174C507.533,323.981,504.181,325.374,501.401,328.155z"/>
		<path fill="#5799D9" d="M540.193,355.521c-2.198-0.096-4.212-0.673-6.047-1.732c-2.088-1.199-3.504-2.805-4.245-4.813l2.94-1.067
			c0.505,1.36,1.533,2.458,3.082,3.296c1.358,0.729,2.829,1.132,4.41,1.212c2.418,0.094,4.443-0.516,6.071-1.826
			c1.453-1.169,2.22-2.546,2.301-4.126c0.126-2.974-2.594-5.242-8.157-6.806c-4.017-1.122-6.885-2.689-8.609-4.697
			c-1.313-1.531-1.928-3.255-1.848-5.17c0.141-3.238,1.518-5.657,4.126-7.254c2.069-1.267,4.577-1.826,7.518-1.686
			c3.539,0.16,6.369,1.376,8.487,3.651l-2.301,2.135c-1.533-1.66-3.644-2.552-6.33-2.678c-2.31-0.097-4.221,0.314-5.737,1.233
			c-1.661,1.025-2.539,2.606-2.635,4.741c-0.124,2.91,2.593,5.145,8.159,6.711c4.014,1.123,6.886,2.695,8.606,4.721
			c1.313,1.547,1.929,3.287,1.852,5.215c-0.128,2.547-1.281,4.695-3.462,6.45c-2.089,1.677-4.609,2.512-7.566,2.512
			C540.604,355.542,540.396,355.534,540.193,355.521z"/>
	</g>
</g>
<g>
	<g>
		<path fill="#5799D9" d="M242.939,430.084c-2.199-0.097-4.212-0.673-6.046-1.732c-2.088-1.2-3.503-2.806-4.246-4.813l2.94-1.067
			c0.505,1.359,1.534,2.457,3.081,3.297c1.36,0.728,2.83,1.131,4.411,1.21c2.419,0.095,4.444-0.516,6.071-1.826
			c1.454-1.169,2.221-2.546,2.301-4.126c0.126-2.974-2.593-5.241-8.157-6.806c-4.016-1.122-6.885-2.688-8.609-4.697
			c-1.313-1.53-1.928-3.255-1.849-5.169c0.141-3.238,1.518-5.658,4.127-7.255c2.069-1.266,4.577-1.826,7.517-1.686
			c3.54,0.16,6.37,1.377,8.488,3.652l-2.3,2.135c-1.534-1.66-3.644-2.551-6.331-2.678c-2.309-0.098-4.221,0.313-5.737,1.232
			c-1.661,1.026-2.538,2.607-2.635,4.742c-0.124,2.91,2.593,5.145,8.16,6.711c4.013,1.123,6.885,2.695,8.606,4.72
			c1.313,1.547,1.928,3.288,1.851,5.217c-0.127,2.545-1.28,4.694-3.462,6.448c-2.088,1.678-4.609,2.514-7.566,2.514
			C243.349,430.107,243.143,430.099,242.939,430.084z"/>
		<path fill="#5799D9" d="M274.831,395.722v3.131h-14.252v12.283h11.265v3.131h-11.265v12.377h14.252v3.131h-17.38v-34.053H274.831z
			"/>
		<path fill="#5799D9" d="M280.974,425.009c-3.398-3.382-5.098-7.47-5.098-12.259c0-4.774,1.699-8.862,5.098-12.261
			c3.382-3.382,7.47-5.076,12.261-5.076c2.353,0,4.606,0.453,6.758,1.352l-1.232,2.894c-1.757-0.741-3.597-1.114-5.525-1.114
			c-3.922,0-7.274,1.385-10.054,4.151c-2.784,2.78-4.174,6.133-4.174,10.055c0,3.92,1.39,7.271,4.174,10.054
			c2.78,2.781,6.132,4.174,10.054,4.174c1.581,0,3.111-0.253,4.598-0.761V414.22h-7.089v-3.13h10.22v17.24l-0.949,0.402
			c-2.166,0.916-4.427,1.374-6.78,1.374C288.444,430.107,284.357,428.407,280.974,425.009z"/>
		<path fill="#5799D9" d="M307.13,426.716c-2.292-2.292-3.438-5.059-3.438-8.301v-22.622h3.128v22.622
			c0,2.373,0.839,4.403,2.516,6.097c1.691,1.69,3.721,2.535,6.094,2.535c2.372,0,4.402-0.845,6.093-2.535
			c1.678-1.693,2.513-3.724,2.513-6.097v-22.622h3.131v22.622c0,3.242-1.145,6.009-3.438,8.301c-2.292,2.292-5.059,3.44-8.299,3.44
			C312.189,430.156,309.422,429.008,307.13,426.716z"/>
		<path fill="#5799D9" d="M353.775,429.775h-3.509l-7.991-15.389h-8.159v15.364h-3.131v-34.028h12.237
			c2.576,0,4.774,0.919,6.593,2.751c1.817,1.82,2.728,4.017,2.728,6.592c0,2.136-0.657,4.047-1.97,5.741
			c-1.28,1.644-2.924,2.733-4.932,3.271L353.775,429.775z M343.221,411.255c1.708,0,3.169-0.602,4.389-1.802
			c1.2-1.219,1.801-2.681,1.801-4.389c0-1.707-0.602-3.169-1.801-4.386c-1.219-1.216-2.681-1.826-4.389-1.826h-9.105v12.402H343.221
			z"/>
		<path fill="#5799D9" d="M354.724,395.557h3.153v34.218h-3.153V395.557z"/>
		<path fill="#5799D9" d="M361.03,429.775v-34.053h8.372c4.695,0,8.708,1.67,12.046,5.004c3.319,3.322,4.979,7.327,4.979,12.024
			c0,4.695-1.66,8.703-4.979,12.021c-3.337,3.335-7.351,5.003-12.046,5.003H361.03z M364.136,426.669h5.266
			c3.84,0,7.119-1.359,9.839-4.08c2.72-2.717,4.08-5.999,4.08-9.839c0-3.843-1.36-7.122-4.08-9.843c-2.72-2.719-6-4.079-9.839-4.079
			h-5.266V426.669z"/>
		<path fill="#5799D9" d="M409.095,395.722v34.053h-3.106v-8.513h-13.516l-5.382,8.513h-3.699l21.53-34.053H409.095z
			 M394.443,418.131h11.546v-18.235L394.443,418.131z"/>
		<path fill="#5799D9" d="M413.225,429.775v-34.053h8.372c4.694,0,8.708,1.67,12.045,5.004c3.319,3.322,4.979,7.327,4.979,12.024
			c0,4.695-1.659,8.703-4.979,12.021c-3.337,3.335-7.351,5.003-12.045,5.003H413.225z M416.331,426.669h5.267
			c3.839,0,7.119-1.359,9.839-4.08c2.72-2.717,4.079-5.999,4.079-9.839c0-3.843-1.359-7.122-4.079-9.843
			c-2.72-2.719-6-4.079-9.839-4.079h-5.267V426.669z"/>
		<path fill="#5799D9" d="M455.765,426.716c-2.292-2.292-3.437-5.059-3.437-8.301v-22.622h3.128v22.622
			c0,2.373,0.838,4.403,2.516,6.097c1.69,1.69,3.721,2.535,6.093,2.535c2.373,0,4.403-0.845,6.094-2.535
			c1.677-1.693,2.513-3.724,2.513-6.097v-22.622h3.131v22.622c0,3.242-1.145,6.009-3.437,8.301c-2.293,2.292-5.06,3.44-8.301,3.44
			C460.825,430.156,458.058,429.008,455.765,426.716z"/>
		<path fill="#5799D9" d="M482.679,395.722v30.922h15.816v3.131h-18.944v-34.053H482.679z"/>
		<path fill="#5799D9" d="M514.693,395.722v3.131h-8.914v30.922h-3.131v-30.922h-8.94v-3.131H514.693z"/>
		<path fill="#5799D9" d="M540.35,429.775h-3.51l-7.99-15.389h-8.16v15.364h-3.131v-34.028h12.236c2.577,0,4.775,0.919,6.594,2.751
			c1.817,1.82,2.728,4.017,2.728,6.592c0,2.136-0.656,4.047-1.969,5.741c-1.281,1.644-2.924,2.733-4.933,3.271L540.35,429.775z
			 M529.796,411.255c1.708,0,3.171-0.602,4.389-1.802c1.2-1.219,1.802-2.681,1.802-4.389c0-1.707-0.602-3.169-1.802-4.386
			c-1.218-1.216-2.681-1.826-4.389-1.826h-9.105v12.402H529.796z"/>
		<path fill="#5799D9" d="M566.197,395.722v34.053h-3.106v-8.513h-13.517l-5.381,8.513h-3.699l21.529-34.053H566.197z
			 M551.544,418.131h11.547v-18.235L551.544,418.131z"/>
	</g>
</g>
<g>
	<path fill="#5799D9" d="M240.292,56.998H223.81l1.377-2.373c7.809-13.419,11.715-21.237,11.715-23.452
		c0-1.644-0.475-2.979-1.423-4.007c-0.965-1.043-2.199-1.564-3.699-1.564c-1.012,0-1.953,0.317-2.822,0.949
		c-0.872,0.632-1.525,1.479-1.969,2.538l-2.894-1.211c0.681-1.645,1.715-2.963,3.108-3.958c1.407-0.982,2.932-1.47,4.576-1.47
		c2.402,0,4.378,0.822,5.928,2.466c1.563,1.644,2.347,3.73,2.347,6.259c0,1.771-0.86,4.419-2.584,7.944
		c-1.36,2.767-4.088,7.677-8.181,14.728h11.003V56.998z"/>
	<path fill="#5799D9" d="M245.199,52.99c-2.039-3.004-3.059-7.335-3.059-12.995c0-5.754,1.195-10.187,3.581-13.304
		c2.055-2.703,4.56-4.055,7.517-4.055c2.958,0,5.462,1.352,7.517,4.055c2.373,3.117,3.559,7.55,3.559,13.304
		c0,6.8-1.432,11.644-4.292,14.537c-1.851,1.864-4.11,2.797-6.783,2.797C249.855,57.329,247.174,55.883,245.199,52.99z
		 M248.139,28.685c-1.915,2.529-2.869,6.297-2.869,11.31c0,4.521,0.695,8.024,2.085,10.507c1.39,2.48,3.352,3.721,5.881,3.721
		s4.491-1.241,5.881-3.721c1.391-2.482,2.088-5.986,2.088-10.507c0-5.012-0.965-8.78-2.894-11.31
		c-1.454-1.944-3.147-2.918-5.076-2.918C251.293,25.767,249.594,26.741,248.139,28.685z"/>
	<path fill="#5799D9" d="M300.194,52.231c-3.398-3.382-5.098-7.47-5.098-12.258c0-4.775,1.699-8.863,5.098-12.262
		c3.381-3.381,7.47-5.075,12.261-5.075c2.353,0,4.607,0.453,6.758,1.352l-1.233,2.894c-1.757-0.742-3.597-1.115-5.525-1.115
		c-3.922,0-7.273,1.385-10.054,4.152c-2.783,2.78-4.173,6.132-4.173,10.054c0,3.92,1.39,7.271,4.173,10.055
		c2.781,2.78,6.132,4.173,10.054,4.173c1.581,0,3.112-0.253,4.599-0.761V41.443h-7.089v-3.131h10.22v17.24l-0.949,0.403
		c-2.166,0.916-4.428,1.374-6.781,1.374C307.664,57.329,303.575,55.63,300.194,52.231z"/>
	<path fill="#5799D9" d="M323.028,56.998V22.945h10.245c2.545,0,4.72,0.902,6.521,2.703c1.818,1.818,2.729,4,2.729,6.546
		c0,2.83-1.084,5.178-3.25,7.042c1.614,0.758,2.901,1.881,3.864,3.368c0.982,1.534,1.47,3.208,1.47,5.026
		c0,2.593-0.907,4.8-2.725,6.618c-1.834,1.834-4.033,2.75-6.592,2.75H323.028z M326.159,38.335h7.114
		c1.677,0,3.114-0.599,4.316-1.802c1.2-1.2,1.802-2.648,1.802-4.339s-0.602-3.131-1.802-4.317c-1.202-1.2-2.64-1.802-4.316-1.802
		h-7.114V38.335z M326.159,53.867h9.131c1.707,0,3.169-0.607,4.385-1.827c1.203-1.216,1.804-2.687,1.804-4.411
		c0-1.691-0.601-3.145-1.804-4.361c-1.216-1.203-2.678-1.804-4.385-1.804h-9.131V53.867z"/>
	<path fill="#5799D9" d="M358.267,56.998V22.945h8.372c4.694,0,8.708,1.668,12.046,5.003c3.318,3.321,4.979,7.327,4.979,12.024
		c0,4.695-1.66,8.703-4.979,12.021c-3.338,3.335-7.352,5.004-12.046,5.004H358.267z M361.373,53.892h5.266
		c3.839,0,7.119-1.36,9.839-4.08c2.72-2.717,4.08-5.999,4.08-9.839c0-3.842-1.359-7.123-4.08-9.842c-2.72-2.72-6-4.08-9.839-4.08
		h-5.266V53.892z"/>
	<path fill="#5799D9" d="M403.89,22.945v3.13h-14.252v12.284h11.268v3.131h-11.268v12.377h14.252v3.13h-17.379V22.945H403.89z"/>
	<path fill="#5799D9" d="M434.933,22.945v3.13h-14.255v12.284h11.265v3.131h-11.265v12.377h14.255v3.13H417.55V22.945H434.933z"/>
	<path fill="#5799D9" d="M446.315,57.306c-2.196-0.096-4.21-0.673-6.046-1.732c-2.086-1.2-3.504-2.805-4.243-4.813l2.94-1.067
		c0.502,1.36,1.534,2.458,3.078,3.296c1.363,0.728,2.831,1.131,4.413,1.21c2.417,0.094,4.441-0.516,6.069-1.826
		c1.456-1.169,2.224-2.546,2.301-4.126c0.126-2.974-2.593-5.241-8.154-6.805c-4.016-1.123-6.886-2.689-8.611-4.698
		c-1.313-1.531-1.926-3.255-1.848-5.169c0.143-3.238,1.516-5.657,4.126-7.254c2.069-1.266,4.578-1.826,7.519-1.686
		c3.537,0.16,6.367,1.376,8.485,3.652l-2.3,2.135c-1.534-1.661-3.642-2.552-6.329-2.679c-2.311-0.097-4.22,0.314-5.737,1.233
		c-1.66,1.026-2.537,2.607-2.637,4.742c-0.122,2.91,2.594,5.145,8.159,6.711c4.017,1.123,6.886,2.695,8.606,4.72
		c1.313,1.547,1.931,3.288,1.854,5.216c-0.126,2.546-1.279,4.695-3.465,6.45c-2.084,1.677-4.606,2.513-7.563,2.513
		C446.729,57.329,446.519,57.321,446.315,57.306z"/>
	<path fill="#5799D9" d="M464.03,56.998h-3.134V22.945h12.264c2.56,0,4.755,0.919,6.593,2.75c1.815,1.82,2.726,4.024,2.726,6.617
		c0,2.56-0.91,4.758-2.726,6.592c-1.838,1.818-4.033,2.726-6.593,2.726h-9.13V56.998z M464.03,38.503h9.13
		c1.705,0,3.167-0.61,4.387-1.826c1.201-1.203,1.803-2.656,1.803-4.364c0-1.724-0.602-3.194-1.803-4.411
		c-1.22-1.217-2.682-1.827-4.387-1.827h-9.13V38.503z"/>
	<path fill="#5799D9" d="M499.266,22.945v34.053h-3.106v-8.512h-13.516l-5.379,8.512h-3.703l21.533-34.053H499.266z M484.613,45.355
		h11.547V27.118L484.613,45.355z"/>
	<path fill="#5799D9" d="M519.331,54.2c2.797,0,5.374-0.766,7.729-2.3v3.603c-2.434,1.219-5.01,1.826-7.729,1.826
		c-4.795,0-8.876-1.699-12.265-5.098c-3.398-3.382-5.098-7.47-5.098-12.258c0-4.792,1.699-8.876,5.098-12.262
		c3.389-3.398,7.47-5.097,12.265-5.097c2.72,0,5.296,0.609,7.729,1.826v3.603c-2.355-1.531-4.933-2.298-7.729-2.298
		c-3.922,0-7.271,1.39-10.058,4.174c-2.78,2.78-4.171,6.132-4.171,10.054c0,3.92,1.391,7.271,4.171,10.055
		C512.059,52.808,515.409,54.2,519.331,54.2z"/>
	<path fill="#5799D9" d="M528.599,22.78h3.155v34.218h-3.155V22.78z"/>
	<path fill="#5799D9" d="M538.491,52.256c-3.398-3.385-5.098-7.47-5.098-12.261c0-4.789,1.699-8.885,5.098-12.284
		c3.382-3.381,7.47-5.075,12.258-5.075c4.789,0,8.883,1.694,12.286,5.075c3.382,3.398,5.07,7.495,5.07,12.284
		c0,4.792-1.688,8.876-5.07,12.261c-3.403,3.398-7.497,5.098-12.286,5.098C545.961,57.354,541.873,55.655,538.491,52.256z
		 M540.697,29.94c-2.785,2.784-4.176,6.135-4.176,10.055c0,3.922,1.391,7.274,4.176,10.054c2.78,2.784,6.13,4.174,10.052,4.174
		c3.923,0,7.271-1.39,10.052-4.174c2.786-2.78,4.177-6.132,4.177-10.054c0-3.92-1.391-7.271-4.177-10.055
		c-2.78-2.78-6.129-4.173-10.052-4.173C546.827,25.767,543.477,27.16,540.697,29.94z"/>
	<path fill="#5799D9" d="M572.778,52.8c0.618,0,1.147,0.223,1.589,0.665c0.441,0.444,0.667,0.974,0.667,1.589
		c0,0.631-0.226,1.169-0.667,1.613c-0.441,0.441-0.971,0.662-1.589,0.662c-0.629,0-1.169-0.221-1.61-0.662
		c-0.441-0.444-0.663-0.982-0.663-1.613c0-0.616,0.222-1.145,0.663-1.589C571.609,53.023,572.149,52.8,572.778,52.8z"/>
</g>
</svg>
