<?xml version="1.0" encoding="utf-8"?>
<!-- Generator: Adobe Illustrator 16.0.0, SVG Export Plug-In . SVG Version: 6.00 Build 0)  -->
<!DOCTYPE svg PUBLIC "-//W3C//DTD SVG 1.1//EN" "http://www.w3.org/Graphics/SVG/1.1/DTD/svg11.dtd">
<svg version="1.1" id="Capa_1" xmlns="http://www.w3.org/2000/svg" xmlns:xlink="http://www.w3.org/1999/xlink" x="0px" y="0px"
	 width="800px" height="450px" viewBox="0 0 800 450" enable-background="new 0 0 800 450" xml:space="preserve">
<g>
	<path fill="#FFFFFF" d="M24.637,259.543h-8.81V163.7h34.506c7.208,0,13.393,2.582,18.554,7.742
		c5.117,5.118,7.675,11.323,7.675,18.622c0,7.208-2.559,13.394-7.675,18.554c-5.162,5.117-11.346,7.676-18.554,7.676H24.637V259.543
		z M24.637,207.482h25.696c4.806,0,8.921-1.71,12.347-5.138c3.381-3.382,5.072-7.475,5.072-12.28c0-4.851-1.691-8.989-5.072-12.414
		c-3.426-3.428-7.542-5.14-12.347-5.14H24.637V207.482z"/>
	<path fill="#FFFFFF" d="M93.315,163.7v87.033h44.518v8.811H84.505V163.7H93.315z"/>
	<path fill="#FFFFFF" d="M212.587,163.7v95.843h-8.745v-23.962H165.8l-15.151,23.962h-10.412l60.602-95.843H212.587z
		 M171.339,226.771h32.503v-51.325L171.339,226.771z"/>
	<path fill="#FFFFFF" d="M290.475,163.7v95.843h-9.479l-47.788-79.891v79.891h-8.81V163.7h9.544l47.721,79.891V163.7H290.475z"/>
	<path fill="#FFFFFF" d="M351.211,163.7v8.81h-40.113v34.572h31.703v8.813h-31.703v34.838h40.113v8.811h-48.923V163.7H351.211z"/>
	<path fill="#FFFFFF" d="M383.248,260.412c-6.186-0.268-11.858-1.892-17.021-4.874c-5.873-3.38-9.856-7.897-11.947-13.55
		l8.276-3.002c1.424,3.826,4.315,6.919,8.676,9.276c3.827,2.047,7.965,3.183,12.415,3.404c6.809,0.268,12.503-1.445,17.087-5.14
		c4.093-3.292,6.249-7.163,6.473-11.613c0.354-8.364-7.299-14.749-22.959-19.154c-11.303-3.161-19.379-7.565-24.229-13.217
		c-3.693-4.314-5.429-9.165-5.206-14.549c0.4-9.12,4.271-15.927,11.613-20.423c5.829-3.559,12.882-5.14,21.158-4.74
		c9.966,0.446,17.93,3.871,23.894,10.28l-6.473,6.007c-4.317-4.672-10.258-7.185-17.821-7.543
		c-6.498-0.267-11.881,0.892-16.152,3.471c-4.672,2.894-7.142,7.341-7.408,13.348c-0.356,8.188,7.297,14.484,22.96,18.889
		c11.302,3.161,19.376,7.586,24.228,13.283c3.691,4.359,5.428,9.253,5.205,14.683c-0.355,7.163-3.604,13.215-9.744,18.153
		c-5.873,4.718-12.97,7.075-21.29,7.075C384.404,260.478,383.825,260.454,383.248,260.412z"/>
	<path fill="#FFFFFF" d="M499.447,251.667c7.875,0,15.129-2.158,21.758-6.475v10.145c-6.854,3.428-14.104,5.141-21.758,5.141
		c-13.482,0-24.984-4.783-34.507-14.351c-9.567-9.521-14.348-21.022-14.348-34.507c0-13.482,4.78-24.981,14.348-34.504
		c9.522-9.568,21.024-14.351,34.507-14.351c7.653,0,14.904,1.712,21.758,5.14v10.145c-6.629-4.317-13.883-6.475-21.758-6.475
		c-11.036,0-20.469,3.917-28.299,11.747c-7.832,7.833-11.746,17.265-11.746,28.298c0,11.036,3.914,20.471,11.746,28.301
		C478.979,247.751,488.411,251.667,499.447,251.667z"/>
	<path fill="#FFFFFF" d="M538.759,246.194c-9.567-9.522-14.348-21.024-14.348-34.506s4.78-25.006,14.348-34.572
		c9.522-9.523,21.025-14.285,34.507-14.285s25.007,4.762,34.571,14.285c9.523,9.565,14.285,21.09,14.285,34.572
		s-4.762,24.984-14.285,34.506c-9.564,9.568-21.09,14.351-34.571,14.351S548.281,255.763,538.759,246.194z M544.967,183.39
		c-7.832,7.83-11.746,17.265-11.746,28.298c0,11.036,3.914,20.468,11.746,28.298c7.83,7.833,17.263,11.746,28.299,11.746
		c11.033,0,20.468-3.913,28.298-11.746c7.833-7.83,11.747-17.262,11.747-28.298c0-11.034-3.914-20.468-11.747-28.298
		c-7.83-7.833-17.265-11.747-28.298-11.747C562.229,171.643,552.797,175.557,544.967,183.39z"/>
	<path fill="#FFFFFF" d="M639.742,246.194c-9.567-9.522-14.348-21.024-14.348-34.506s4.78-25.006,14.348-34.572
		c9.522-9.523,21.024-14.285,34.507-14.285c13.481,0,25.006,4.762,34.571,14.285c9.523,9.565,14.285,21.09,14.285,34.572
		s-4.762,24.984-14.285,34.506c-9.565,9.568-21.09,14.351-34.571,14.351C660.767,260.545,649.265,255.763,639.742,246.194z
		 M645.95,183.39c-7.832,7.83-11.746,17.265-11.746,28.298c0,11.036,3.914,20.468,11.746,28.298
		c7.83,7.833,17.263,11.746,28.299,11.746c11.033,0,20.468-3.913,28.298-11.746c7.833-7.83,11.747-17.262,11.747-28.298
		c0-11.034-3.914-20.468-11.747-28.298c-7.83-7.833-17.265-11.747-28.298-11.747C663.213,171.643,653.78,175.557,645.95,183.39z"/>
	<path fill="#FFFFFF" d="M739.655,163.7v87.033h44.518v8.811h-53.327V163.7H739.655z"/>
</g>
</svg>
