<?xml version="1.0" encoding="utf-8"?>
<!-- Generator: Adobe Illustrator 16.0.0, SVG Export Plug-In . SVG Version: 6.00 Build 0)  -->
<!DOCTYPE svg PUBLIC "-//W3C//DTD SVG 1.1//EN" "http://www.w3.org/Graphics/SVG/1.1/DTD/svg11.dtd">
<svg version="1.1" id="Capa_1" xmlns="http://www.w3.org/2000/svg" xmlns:xlink="http://www.w3.org/1999/xlink" x="0px" y="0px"
	 width="800px" height="450px" viewBox="0 0 800 450" enable-background="new 0 0 800 450" xml:space="preserve">
<g>
	<path fill="#FFFFFF" d="M757.399,44.027c0,20.173-17.355,36.526-38.758,36.526H81.358c-21.402,0-38.758-16.354-38.758-36.526l0,0
		C42.6,23.853,59.956,7.5,81.358,7.5h637.283C740.044,7.5,757.399,23.853,757.399,44.027L757.399,44.027z"/>
	<path fill="#FFFFFF" d="M757.399,224.999c0,20.178-17.355,36.528-38.758,36.528H81.358c-21.402,0-38.758-16.351-38.758-36.528l0,0
		c0-20.17,17.355-36.527,38.758-36.527h637.283C740.044,188.472,757.399,204.829,757.399,224.999L757.399,224.999z"/>
	<path fill="#FFFFFF" d="M757.399,315.488c0,20.176-17.355,36.526-38.758,36.526H81.358c-21.402,0-38.758-16.351-38.758-36.526l0,0
		c0-20.17,17.355-36.527,38.758-36.527h637.283C740.044,278.96,757.399,295.318,757.399,315.488L757.399,315.488z"/>
	<path fill="#FFFFFF" d="M757.399,405.974c0,20.177-17.355,36.526-38.758,36.526H81.358c-21.402,0-38.758-16.35-38.758-36.526l0,0
		c0-20.17,17.355-36.527,38.758-36.527h637.283C740.044,369.447,757.399,385.804,757.399,405.974L757.399,405.974z"/>
	<path fill="#FFFFFF" d="M757.399,134.513c0,20.173-17.355,36.526-38.758,36.526H81.358c-21.402,0-38.758-16.353-38.758-36.526l0,0
		c0-20.173,17.355-36.527,38.758-36.527h637.283C740.044,97.986,757.399,114.34,757.399,134.513L757.399,134.513z"/>
	<g>
		<path fill="#5799D9" d="M206.769,60.331l2.786-2.396c1.654,1.894,3.726,2.844,6.216,2.844c2.286,0,4.238-0.811,5.856-2.426
			c1.615-1.618,2.426-3.57,2.426-5.853c0-2.27-0.811-4.203-2.426-5.801c-1.618-1.615-3.57-2.422-5.856-2.422h-7.024l1.952-20.241
			h15.192v3.68h-11.849l-1.251,12.88h2.98c3.292,0,6.106,1.161,8.447,3.483c2.341,2.325,3.512,5.13,3.512,8.421
			c0,3.288-1.171,6.103-3.512,8.444c-2.322,2.341-5.136,3.515-8.447,3.515C212.149,64.459,209.146,63.081,206.769,60.331z"/>
		<path fill="#5799D9" d="M270.133,58.408c-3.995-3.976-5.993-8.781-5.993-14.411c0-5.613,1.998-10.419,5.993-14.414
			c3.976-3.976,8.782-5.967,14.414-5.967c2.766,0,5.416,0.532,7.945,1.589l-1.449,3.402c-2.066-0.873-4.229-1.31-6.496-1.31
			c-4.611,0-8.551,1.628-11.82,4.88c-3.272,3.269-4.906,7.208-4.906,11.82c0,4.608,1.634,8.548,4.906,11.82
			c3.269,3.269,7.209,4.906,11.82,4.906c1.858,0,3.658-0.298,5.406-0.895V45.726h-8.334v-3.681h12.015v20.267l-1.116,0.474
			c-2.545,1.077-5.205,1.615-7.971,1.615C278.915,64.401,274.109,62.403,270.133,58.408z"/>
		<path fill="#5799D9" d="M296.977,64.011V23.98h12.043c2.993,0,5.549,1.06,7.666,3.178c2.137,2.137,3.207,4.702,3.207,7.695
			c0,3.327-1.274,6.086-3.82,8.279c1.897,0.892,3.412,2.211,4.543,3.959c1.155,1.803,1.729,3.771,1.729,5.908
			c0,3.048-1.067,5.643-3.204,7.779c-2.157,2.156-4.741,3.233-7.75,3.233H296.977z M300.657,42.071h8.363
			c1.972,0,3.661-0.704,5.075-2.118c1.411-1.411,2.118-3.113,2.118-5.101s-0.707-3.681-2.118-5.075
			c-1.414-1.411-3.104-2.118-5.075-2.118h-8.363V42.071z M300.657,60.331h10.733c2.007,0,3.726-0.714,5.156-2.147
			c1.414-1.43,2.121-3.158,2.121-5.185c0-1.988-0.707-3.697-2.121-5.127c-1.43-1.414-3.149-2.121-5.156-2.121h-10.733V60.331z"/>
		<path fill="#5799D9" d="M338.403,64.011V23.98h9.842c5.52,0,10.238,1.962,14.162,5.882c3.901,3.904,5.853,8.613,5.853,14.135
			c0,5.519-1.952,10.231-5.853,14.132c-3.924,3.92-8.642,5.882-14.162,5.882H338.403z M342.054,60.36h6.19
			c4.514,0,8.37-1.599,11.567-4.796c3.197-3.194,4.796-7.053,4.796-11.567c0-4.517-1.599-8.373-4.796-11.57
			c-3.198-3.197-7.053-4.796-11.567-4.796h-6.19V60.36z"/>
		<path fill="#5799D9" d="M392.039,23.98v3.68h-16.755V42.1h13.244v3.68h-13.244v14.551h16.755v3.68h-20.433V23.98H392.039z"/>
		<path fill="#5799D9" d="M428.53,23.98v3.68h-16.756V42.1h13.243v3.68h-13.243v14.551h16.756v3.68h-20.433V23.98H428.53z"/>
		<path fill="#5799D9" d="M441.913,64.375c-2.585-0.113-4.952-0.791-7.108-2.037c-2.455-1.41-4.118-3.298-4.99-5.658l3.456-1.255
			c0.594,1.599,1.804,2.89,3.623,3.875c1.599,0.856,3.326,1.33,5.185,1.423c2.844,0.11,5.225-0.606,7.138-2.146
			c1.709-1.375,2.61-2.993,2.704-4.852c0.149-3.496-3.048-6.161-9.589-8c-4.722-1.32-8.094-3.162-10.12-5.522
			c-1.544-1.8-2.268-3.827-2.173-6.077c0.165-3.807,1.783-6.651,4.851-8.528c2.433-1.489,5.38-2.147,8.837-1.981
			c4.16,0.188,7.487,1.618,9.979,4.293l-2.705,2.51c-1.803-1.952-4.283-3-7.442-3.149c-2.714-0.113-4.961,0.37-6.744,1.45
			c-1.953,1.207-2.983,3.064-3.098,5.574c-0.146,3.421,3.049,6.048,9.593,7.89c4.718,1.32,8.094,3.168,10.117,5.548
			c1.544,1.819,2.267,3.866,2.176,6.132c-0.149,2.993-1.505,5.519-4.069,7.582c-2.455,1.972-5.419,2.954-8.896,2.954
			C442.396,64.401,442.153,64.391,441.913,64.375z"/>
		<path fill="#5799D9" d="M462.734,64.011h-3.68V23.98h14.414c3.009,0,5.594,1.08,7.75,3.233c2.137,2.14,3.204,4.731,3.204,7.779
			c0,3.009-1.067,5.594-3.204,7.75c-2.156,2.137-4.741,3.204-7.75,3.204h-10.734V64.011z M462.734,42.269h10.734
			c2.007,0,3.726-0.717,5.155-2.146c1.414-1.414,2.121-3.123,2.121-5.13c0-2.027-0.707-3.755-2.121-5.185
			c-1.43-1.43-3.148-2.147-5.155-2.147h-10.734V42.269z"/>
		<path fill="#5799D9" d="M504.161,23.98v40.032h-3.651V54.005h-15.89l-6.326,10.007h-4.349l25.31-40.032H504.161z M486.935,50.324
			h13.574V28.886L486.935,50.324z"/>
		<path fill="#5799D9" d="M527.746,60.723c3.288,0,6.316-0.901,9.086-2.705v4.235c-2.86,1.433-5.889,2.146-9.086,2.146
			c-5.633,0-10.436-1.998-14.414-5.993c-3.995-3.976-5.993-8.781-5.993-14.411c0-5.633,1.998-10.436,5.993-14.414
			c3.979-3.995,8.781-5.993,14.414-5.993c3.197,0,6.226,0.716,9.086,2.146v4.235c-2.77-1.8-5.798-2.702-9.086-2.702
			c-4.611,0-8.548,1.635-11.82,4.907c-3.271,3.269-4.906,7.208-4.906,11.82c0,4.608,1.635,8.548,4.906,11.82
			C519.198,59.086,523.135,60.723,527.746,60.723z"/>
		<path fill="#5799D9" d="M538.644,23.785h3.707v40.227h-3.707V23.785z"/>
		<path fill="#5799D9" d="M550.27,58.437c-3.995-3.979-5.993-8.781-5.993-14.414c0-5.629,1.998-10.445,5.993-14.44
			c3.976-3.976,8.781-5.967,14.411-5.967c5.632,0,10.444,1.991,14.442,5.967c3.976,3.995,5.964,8.811,5.964,14.44
			c0,5.633-1.988,10.435-5.964,14.414c-3.998,3.995-8.811,5.993-14.442,5.993C559.052,64.43,554.246,62.432,550.27,58.437z
			 M552.864,32.203c-3.271,3.272-4.909,7.212-4.909,11.82c0,4.611,1.638,8.551,4.909,11.82c3.269,3.272,7.209,4.906,11.817,4.906
			c4.61,0,8.551-1.634,11.819-4.906c3.272-3.269,4.909-7.208,4.909-11.82c0-4.608-1.637-8.548-4.909-11.82
			c-3.269-3.269-7.209-4.906-11.819-4.906C560.073,27.297,556.133,28.934,552.864,32.203z"/>
		<path fill="#5799D9" d="M590.581,59.076c0.727,0,1.346,0.263,1.868,0.782c0.519,0.522,0.781,1.145,0.781,1.868
			c0,0.743-0.263,1.375-0.781,1.897c-0.522,0.519-1.142,0.778-1.868,0.778c-0.742,0-1.375-0.259-1.896-0.778
			c-0.52-0.522-0.778-1.154-0.778-1.897c0-0.723,0.259-1.346,0.778-1.868C589.206,59.339,589.839,59.076,590.581,59.076z"/>
	</g>
	<g>
		<g>
			<path fill="#5799D9" d="M72.539,114.745v40.032h-3.68v-36.352h-1.979v-3.681H72.539z"/>
			<path fill="#5799D9" d="M75.189,151.096l2.786-2.396c1.654,1.894,3.726,2.844,6.216,2.844c2.286,0,4.238-0.811,5.856-2.425
				c1.615-1.618,2.426-3.57,2.426-5.854c0-2.27-0.811-4.203-2.426-5.801c-1.618-1.615-3.57-2.422-5.856-2.422h-7.024l1.952-20.241
				h15.192v3.681H82.462l-1.251,12.88h2.98c3.292,0,6.106,1.161,8.448,3.483c2.341,2.325,3.512,5.13,3.512,8.421
				c0,3.288-1.171,6.103-3.512,8.444c-2.322,2.341-5.137,3.515-8.448,3.515C80.569,155.224,77.566,153.846,75.189,151.096z"/>
			<path fill="#5799D9" d="M143.819,151.489c3.288,0,6.317-0.901,9.086-2.704v4.235c-2.86,1.433-5.889,2.147-9.086,2.147
				c-5.633,0-10.436-1.998-14.414-5.993c-3.995-3.976-5.993-8.782-5.993-14.411c0-5.633,1.998-10.435,5.993-14.414
				c3.979-3.995,8.781-5.993,14.414-5.993c3.197,0,6.226,0.717,9.086,2.146v4.235c-2.769-1.8-5.798-2.701-9.086-2.701
				c-4.611,0-8.548,1.634-11.82,4.906c-3.272,3.269-4.906,7.208-4.906,11.82c0,4.608,1.634,8.548,4.906,11.82
				C135.271,149.851,139.208,151.489,143.819,151.489z"/>
			<path fill="#5799D9" d="M160.237,149.202c-3.995-3.979-5.993-8.781-5.993-14.414c0-5.629,1.998-10.445,5.993-14.44
				c3.976-3.976,8.781-5.967,14.411-5.967c5.632,0,10.445,1.991,14.443,5.967c3.976,3.995,5.964,8.811,5.964,14.44
				c0,5.633-1.988,10.436-5.964,14.414c-3.998,3.995-8.811,5.993-14.443,5.993C169.018,155.195,164.213,153.198,160.237,149.202z
				 M162.831,122.969c-3.272,3.272-4.91,7.212-4.91,11.82c0,4.611,1.638,8.551,4.91,11.82c3.269,3.272,7.208,4.907,11.817,4.907
				c4.611,0,8.551-1.635,11.82-4.907c3.272-3.269,4.91-7.208,4.91-11.82c0-4.608-1.638-8.548-4.91-11.82
				c-3.269-3.269-7.209-4.906-11.82-4.906C170.04,118.062,166.1,119.7,162.831,122.969z"/>
			<path fill="#5799D9" d="M225.164,154.777h-4.125l-9.395-18.092h-9.592v18.063h-3.68v-40.003h14.385
				c3.029,0,5.613,1.08,7.75,3.233c2.137,2.14,3.208,4.722,3.208,7.75c0,2.51-0.772,4.757-2.315,6.748
				c-1.505,1.933-3.438,3.213-5.798,3.846L225.164,154.777z M212.757,133.005c2.007,0,3.726-0.707,5.159-2.118
				c1.411-1.434,2.118-3.152,2.118-5.159s-0.707-3.726-2.118-5.156c-1.433-1.43-3.152-2.146-5.159-2.146h-10.705v14.58H212.757z"/>
			<path fill="#5799D9" d="M254.547,154.777h-4.125l-9.395-18.092h-9.592v18.063h-3.68v-40.003h14.385
				c3.029,0,5.613,1.08,7.75,3.233c2.137,2.14,3.208,4.722,3.208,7.75c0,2.51-0.772,4.757-2.315,6.748
				c-1.505,1.933-3.438,3.213-5.798,3.846L254.547,154.777z M242.14,133.005c2.007,0,3.726-0.707,5.159-2.118
				c1.411-1.434,2.118-3.152,2.118-5.159s-0.707-3.726-2.118-5.156c-1.433-1.43-3.152-2.146-5.159-2.146h-10.705v14.58H242.14z"/>
			<path fill="#5799D9" d="M277.49,114.745v3.681h-16.755v14.44h13.243v3.681h-13.243v14.55h16.755v3.681h-20.433v-40.032H277.49z"
				/>
			<path fill="#5799D9" d="M284.85,149.202c-3.995-3.979-5.993-8.781-5.993-14.414c0-5.629,1.998-10.445,5.993-14.44
				c3.976-3.976,8.782-5.967,14.411-5.967c5.633,0,10.445,1.991,14.443,5.967c3.976,3.995,5.963,8.811,5.963,14.44
				c0,5.633-1.988,10.436-5.963,14.414c-3.999,3.995-8.811,5.993-14.443,5.993C293.632,155.195,288.826,153.198,284.85,149.202z
				 M287.445,122.969c-3.272,3.272-4.91,7.212-4.91,11.82c0,4.611,1.638,8.551,4.91,11.82c3.269,3.272,7.209,4.907,11.817,4.907
				c4.611,0,8.551-1.635,11.82-4.907c3.272-3.269,4.91-7.208,4.91-11.82c0-4.608-1.638-8.548-4.91-11.82
				c-3.269-3.269-7.208-4.906-11.82-4.906C294.654,118.062,290.714,119.7,287.445,122.969z"/>
			<path fill="#5799D9" d="M333.051,155.14c-2.584-0.113-4.952-0.791-7.108-2.036c-2.455-1.411-4.119-3.298-4.991-5.659l3.457-1.255
				c0.594,1.599,1.803,2.889,3.622,3.875c1.599,0.856,3.327,1.33,5.186,1.423c2.844,0.11,5.224-0.606,7.137-2.146
				c1.709-1.375,2.61-2.993,2.705-4.851c0.149-3.496-3.048-6.162-9.589-8c-4.722-1.32-8.094-3.162-10.121-5.522
				c-1.544-1.8-2.267-3.827-2.173-6.077c0.166-3.807,1.784-6.651,4.851-8.528c2.432-1.488,5.38-2.147,8.837-1.981
				c4.16,0.188,7.487,1.618,9.978,4.293l-2.704,2.51c-1.803-1.952-4.284-3-7.442-3.148c-2.714-0.114-4.961,0.37-6.745,1.449
				c-1.952,1.207-2.983,3.064-3.097,5.575c-0.146,3.421,3.048,6.047,9.592,7.89c4.718,1.32,8.094,3.168,10.117,5.548
				c1.544,1.819,2.267,3.865,2.176,6.132c-0.149,2.993-1.505,5.52-4.07,7.582c-2.455,1.972-5.419,2.955-8.895,2.955
				C333.534,155.166,333.291,155.156,333.051,155.14z"/>
			<path fill="#5799D9" d="M381.582,151.489c3.289,0,6.317-0.901,9.086-2.704v4.235c-2.86,1.433-5.889,2.147-9.086,2.147
				c-5.632,0-10.435-1.998-14.414-5.993c-3.995-3.976-5.993-8.782-5.993-14.411c0-5.633,1.998-10.435,5.993-14.414
				c3.979-3.995,8.782-5.993,14.414-5.993c3.198,0,6.226,0.717,9.086,2.146v4.235c-2.77-1.8-5.798-2.701-9.086-2.701
				c-4.611,0-8.548,1.634-11.82,4.906c-3.272,3.269-4.906,7.208-4.906,11.82c0,4.608,1.634,8.548,4.906,11.82
				C373.034,149.851,376.971,151.489,381.582,151.489z"/>
			<path fill="#5799D9" d="M398.001,149.202c-3.995-3.979-5.993-8.781-5.993-14.414c0-5.629,1.998-10.445,5.993-14.44
				c3.978-3.976,8.783-5.967,14.412-5.967c5.63,0,10.442,1.991,14.443,5.967c3.976,3.995,5.961,8.811,5.961,14.44
				c0,5.633-1.985,10.436-5.961,14.414c-4.001,3.995-8.813,5.993-14.443,5.993C406.784,155.195,401.978,153.198,398.001,149.202z
				 M400.594,122.969c-3.271,3.272-4.909,7.212-4.909,11.82c0,4.611,1.638,8.551,4.909,11.82c3.271,3.272,7.207,4.907,11.818,4.907
				s8.548-1.635,11.817-4.907c3.274-3.269,4.909-7.208,4.909-11.82c0-4.608-1.635-8.548-4.909-11.82
				c-3.27-3.269-7.206-4.906-11.817-4.906S403.865,119.7,400.594,122.969z"/>
			<path fill="#5799D9" d="M462.929,154.777h-4.125l-9.397-18.092h-9.593v18.063h-3.677v-40.003h14.385
				c3.028,0,5.61,1.08,7.75,3.233c2.134,2.14,3.204,4.722,3.204,7.75c0,2.51-0.771,4.757-2.315,6.748
				c-1.505,1.933-3.438,3.213-5.798,3.846L462.929,154.777z M450.522,133.005c2.004,0,3.723-0.707,5.156-2.118
				c1.414-1.434,2.12-3.152,2.12-5.159s-0.706-3.726-2.12-5.156c-1.434-1.43-3.152-2.146-5.156-2.146h-10.708v14.58H450.522z"/>
			<path fill="#5799D9" d="M469.201,154.777h-3.685v-40.032h14.418c3.009,0,5.591,1.08,7.75,3.233
				c2.134,2.14,3.204,4.731,3.204,7.779c0,3.01-1.07,5.594-3.204,7.75c-2.159,2.137-4.741,3.204-7.75,3.204h-10.733V154.777z
				 M469.201,133.034h10.733c2.004,0,3.723-0.716,5.156-2.146c1.413-1.414,2.12-3.123,2.12-5.13c0-2.026-0.707-3.755-2.12-5.185
				c-1.434-1.43-3.152-2.146-5.156-2.146h-10.733V133.034z"/>
			<path fill="#5799D9" d="M498.334,149.202c-3.995-3.979-5.992-8.781-5.992-14.414c0-5.629,1.997-10.445,5.992-14.44
				c3.976-3.976,8.781-5.967,14.411-5.967c5.629,0,10.441,1.991,14.443,5.967c3.976,3.995,5.96,8.811,5.96,14.44
				c0,5.633-1.984,10.436-5.96,14.414c-4.002,3.995-8.814,5.993-14.443,5.993C507.115,155.195,502.309,153.198,498.334,149.202z
				 M500.927,122.969c-3.274,3.272-4.909,7.212-4.909,11.82c0,4.611,1.635,8.551,4.909,11.82c3.27,3.272,7.206,4.907,11.817,4.907
				s8.548-1.635,11.816-4.907c3.275-3.269,4.909-7.208,4.909-11.82c0-4.608-1.634-8.548-4.909-11.82
				c-3.269-3.269-7.205-4.906-11.816-4.906S504.197,119.7,500.927,122.969z"/>
			<path fill="#5799D9" d="M563.26,154.777h-4.125l-9.397-18.092h-9.592v18.063h-3.678v-40.003h14.385
				c3.029,0,5.61,1.08,7.751,3.233c2.134,2.14,3.203,4.722,3.203,7.75c0,2.51-0.771,4.757-2.315,6.748
				c-1.504,1.933-3.437,3.213-5.798,3.846L563.26,154.777z M550.853,133.005c2.005,0,3.723-0.707,5.156-2.118
				c1.414-1.434,2.121-3.152,2.121-5.159s-0.707-3.726-2.121-5.156c-1.434-1.43-3.151-2.146-5.156-2.146h-10.707v14.58H550.853z"/>
			<path fill="#5799D9" d="M593.645,114.745v40.032h-3.651V144.77h-15.89l-6.33,10.007h-4.345l25.307-40.032H593.645z
				 M576.42,141.089h13.574v-21.438L576.42,141.089z"/>
			<path fill="#5799D9" d="M621.3,114.745v3.681h-10.48v36.352h-3.684v-36.352h-10.507v-3.681H621.3z"/>
			<path fill="#5799D9" d="M623.193,114.55h3.71v40.227h-3.71V114.55z"/>
			<path fill="#5799D9" d="M660.887,114.745l-25.313,40.032h-4.909v-40.032h3.684v35.125l22.188-35.125H660.887z"/>
			<path fill="#5799D9" d="M662.95,149.202c-3.995-3.979-5.993-8.781-5.993-14.414c0-5.629,1.998-10.445,5.993-14.44
				c3.976-3.976,8.781-5.967,14.411-5.967c5.636,0,10.448,1.991,14.443,5.967c3.976,3.995,5.967,8.811,5.967,14.44
				c0,5.633-1.991,10.436-5.967,14.414c-3.995,3.995-8.808,5.993-14.443,5.993C671.731,155.195,666.926,153.198,662.95,149.202z
				 M665.545,122.969c-3.27,3.272-4.91,7.212-4.91,11.82c0,4.611,1.641,8.551,4.91,11.82c3.269,3.272,7.211,4.907,11.816,4.907
				c4.611,0,8.555-1.635,11.823-4.907c3.269-3.269,4.909-7.208,4.909-11.82c0-4.608-1.641-8.548-4.909-11.82
				c-3.269-3.269-7.212-4.906-11.823-4.906C672.756,118.062,668.813,119.7,665.545,122.969z"/>
			<path fill="#5799D9" d="M711.15,155.14c-2.581-0.113-4.948-0.791-7.107-2.036c-2.452-1.411-4.119-3.298-4.987-5.659l3.456-1.255
				c0.591,1.599,1.804,2.889,3.619,3.875c1.602,0.856,3.327,1.33,5.188,1.423c2.841,0.11,5.221-0.606,7.134-2.146
				c1.713-1.375,2.614-2.993,2.705-4.851c0.149-3.496-3.049-6.162-9.586-8c-4.722-1.32-8.094-3.162-10.124-5.522
				c-1.543-1.8-2.264-3.827-2.173-6.077c0.169-3.807,1.784-6.651,4.852-8.528c2.432-1.488,5.383-2.147,8.84-1.981
				c4.157,0.188,7.484,1.618,9.975,4.293l-2.704,2.51c-1.804-1.952-4.28-3-7.439-3.148c-2.717-0.114-4.961,0.37-6.745,1.449
				c-1.952,1.207-2.982,3.064-3.1,5.575c-0.143,3.421,3.048,6.047,9.592,7.89c4.722,1.32,8.094,3.168,10.118,5.548
				c1.543,1.819,2.27,3.865,2.179,6.132c-0.149,2.993-1.505,5.52-4.073,7.582c-2.451,1.972-5.415,2.955-8.892,2.955
				C711.636,155.166,711.39,155.156,711.15,155.14z"/>
			<path fill="#5799D9" d="M730.471,149.842c0.726,0,1.342,0.263,1.867,0.781c0.52,0.522,0.778,1.145,0.778,1.868
				c0,0.742-0.259,1.375-0.778,1.897c-0.525,0.519-1.142,0.778-1.867,0.778c-0.746,0-1.375-0.26-1.9-0.778
				c-0.52-0.522-0.778-1.155-0.778-1.897c0-0.723,0.259-1.346,0.778-1.868C729.096,150.104,729.725,149.842,730.471,149.842z"/>
		</g>
	</g>
	<g>
		<g>
			<path fill="#5799D9" d="M272.742,203.308v40.034h-3.681v-16.337H252.64l3.625-23.697h3.736l-3.068,20.018h12.128v-20.018H272.742
				z"/>
			<path fill="#5799D9" d="M309.956,243.342v-40.034h9.842c5.52,0,10.238,1.962,14.162,5.882c3.901,3.904,5.853,8.613,5.853,14.135
				c0,5.521-1.952,10.229-5.853,14.133c-3.924,3.918-8.642,5.883-14.162,5.883H309.956z M313.607,239.691h6.19
				c4.514,0,8.37-1.602,11.567-4.8c3.197-3.19,4.796-7.05,4.796-11.565c0-4.517-1.599-8.373-4.796-11.57
				c-3.198-3.197-7.053-4.796-11.567-4.796h-6.19V239.691z"/>
			<path fill="#5799D9" d="M347.283,237.764c-3.995-3.976-5.993-8.781-5.993-14.412c0-5.629,1.998-10.445,5.993-14.44
				c3.976-3.976,8.782-5.967,14.411-5.967c5.633,0,10.445,1.991,14.443,5.967c3.976,3.995,5.963,8.811,5.963,14.44
				c0,5.631-1.988,10.437-5.963,14.412c-3.999,3.995-8.811,5.993-14.443,5.993C356.065,243.757,351.259,241.759,347.283,237.764z
				 M349.878,211.532c-3.272,3.272-4.909,7.212-4.909,11.82c0,4.613,1.637,8.55,4.909,11.818c3.269,3.275,7.209,4.909,11.817,4.909
				c4.611,0,8.551-1.634,11.82-4.909c3.272-3.269,4.91-7.205,4.91-11.818c0-4.608-1.638-8.548-4.91-11.82
				c-3.269-3.269-7.208-4.906-11.82-4.906C357.087,206.626,353.147,208.263,349.878,211.532z"/>
			<path fill="#5799D9" d="M423.581,203.308v40.001h-3.651v-31.106l-13.464,31.139h-4.015l-13.436-31.139v31.106h-3.677v-40.001
				h3.846l15.278,35.403l15.306-35.403H423.581z"/>
			<path fill="#5799D9" d="M426.927,203.114h3.71v40.229h-3.71V203.114z"/>
			<path fill="#5799D9" d="M462.027,203.308v40.034h-3.956l-19.962-33.37v33.37h-3.678v-40.034h3.982l19.937,33.367v-33.367H462.027
				z"/>
			<path fill="#5799D9" d="M465.569,203.114h3.703v40.229h-3.703V203.114z"/>
			<path fill="#5799D9" d="M477.191,237.764c-3.995-3.976-5.993-8.781-5.993-14.412c0-5.629,1.998-10.445,5.993-14.44
				c3.976-3.976,8.781-5.967,14.41-5.967c5.637,0,10.448,1.991,14.443,5.967c3.976,3.995,5.967,8.811,5.967,14.44
				c0,5.631-1.991,10.437-5.967,14.412c-3.995,3.995-8.807,5.993-14.443,5.993C485.972,243.757,481.167,241.759,477.191,237.764z
				 M479.785,211.532c-3.269,3.272-4.909,7.212-4.909,11.82c0,4.613,1.641,8.55,4.909,11.818c3.269,3.275,7.212,4.909,11.816,4.909
				c4.611,0,8.555-1.634,11.823-4.909c3.269-3.269,4.91-7.205,4.91-11.818c0-4.608-1.642-8.548-4.91-11.82
				c-3.269-3.269-7.212-4.906-11.823-4.906C486.997,206.626,483.053,208.263,479.785,211.532z"/>
			<path fill="#5799D9" d="M525.391,243.705c-2.581-0.117-4.948-0.791-7.108-2.037c-2.451-1.413-4.118-3.301-4.987-5.661
				l3.457-1.252c0.59,1.596,1.803,2.886,3.619,3.872c1.602,0.855,3.327,1.329,5.188,1.427c2.841,0.11,5.221-0.609,7.134-2.146
				c1.712-1.375,2.613-2.997,2.704-4.852c0.149-3.496-3.048-6.161-9.585-8.001c-4.722-1.32-8.095-3.162-10.124-5.522
				c-1.544-1.8-2.264-3.827-2.173-6.077c0.169-3.807,1.783-6.651,4.852-8.528c2.432-1.488,5.383-2.147,8.84-1.981
				c4.157,0.188,7.484,1.618,9.975,4.293l-2.705,2.51c-1.803-1.952-4.28-3-7.438-3.148c-2.718-0.114-4.962,0.37-6.745,1.449
				c-1.952,1.207-2.983,3.064-3.1,5.575c-0.144,3.421,3.048,6.047,9.592,7.89c4.722,1.32,8.094,3.168,10.117,5.549
				c1.544,1.816,2.271,3.866,2.18,6.129c-0.149,2.997-1.505,5.52-4.073,7.582c-2.451,1.972-5.415,2.957-8.892,2.957
				C525.878,243.731,525.632,243.718,525.391,243.705z"/>
			<path fill="#5799D9" d="M544.712,238.406c0.727,0,1.343,0.26,1.868,0.778c0.519,0.525,0.778,1.147,0.778,1.868
				c0,0.745-0.26,1.375-0.778,1.899c-0.525,0.52-1.142,0.778-1.868,0.778c-0.745,0-1.375-0.259-1.9-0.778
				c-0.519-0.524-0.778-1.154-0.778-1.899c0-0.721,0.26-1.343,0.778-1.868C543.337,238.666,543.967,238.406,544.712,238.406z"/>
		</g>
	</g>
	<g>
		<g>
			<path fill="#5799D9" d="M203.26,339.004h-19.375l1.618-2.789c9.18-15.772,13.772-24.963,13.772-27.57
				c0-1.933-0.558-3.502-1.673-4.708c-1.135-1.226-2.584-1.842-4.349-1.842c-1.19,0-2.295,0.376-3.317,1.115
				c-1.025,0.746-1.793,1.738-2.315,2.983l-3.402-1.421c0.801-1.933,2.017-3.482,3.655-4.656c1.654-1.154,3.447-1.726,5.379-1.726
				c2.825,0,5.146,0.967,6.969,2.899c1.839,1.933,2.76,4.385,2.76,7.354c0,2.082-1.012,5.195-3.039,9.34
				c-1.599,3.255-4.806,9.027-9.618,17.316h12.936V339.004z"/>
			<path fill="#5799D9" d="M278.526,298.975v40.003h-3.651v-31.111l-13.464,31.138h-4.015l-13.438-31.138v31.111h-3.677v-40.003
				h3.846l15.276,35.405l15.306-35.405H278.526z"/>
			<path fill="#5799D9" d="M303.699,298.975v3.678h-16.755v14.443h13.244v3.677h-13.244v14.554h16.755v3.678h-20.433v-40.029
				H303.699z"/>
			<path fill="#5799D9" d="M317.082,339.367c-2.584-0.11-4.952-0.792-7.108-2.037c-2.455-1.407-4.118-3.294-4.991-5.655l3.457-1.258
				c0.593,1.602,1.803,2.893,3.622,3.878c1.599,0.856,3.327,1.33,5.185,1.421c2.844,0.109,5.224-0.604,7.137-2.147
				c1.709-1.375,2.611-2.989,2.705-4.851c0.149-3.496-3.048-6.161-9.589-7.997c-4.721-1.323-8.094-3.165-10.121-5.525
				c-1.543-1.797-2.267-3.826-2.173-6.077c0.166-3.807,1.784-6.647,4.852-8.528c2.432-1.485,5.379-2.146,8.836-1.979
				c4.161,0.188,7.487,1.615,9.978,4.294l-2.705,2.51c-1.803-1.952-4.284-3.003-7.442-3.152c-2.714-0.11-4.962,0.37-6.745,1.453
				c-1.952,1.206-2.983,3.062-3.097,5.571c-0.146,3.424,3.048,6.051,9.592,7.893c4.718,1.316,8.094,3.165,10.118,5.545
				c1.543,1.822,2.267,3.865,2.176,6.136c-0.149,2.989-1.504,5.52-4.07,7.581c-2.455,1.972-5.418,2.951-8.895,2.951
				C317.565,339.393,317.322,339.387,317.082,339.367z"/>
			<path fill="#5799D9" d="M354.575,298.975v3.678H337.82v14.443h13.244v3.677H337.82v14.554h16.755v3.678h-20.433v-40.029H354.575z
				"/>
			<path fill="#5799D9" d="M367.958,339.367c-2.584-0.11-4.952-0.792-7.108-2.037c-2.455-1.407-4.119-3.294-4.991-5.655l3.457-1.258
				c0.593,1.602,1.803,2.893,3.622,3.878c1.599,0.856,3.327,1.33,5.185,1.421c2.844,0.109,5.224-0.604,7.137-2.147
				c1.709-1.375,2.61-2.989,2.705-4.851c0.149-3.496-3.048-6.161-9.589-7.997c-4.722-1.323-8.094-3.165-10.121-5.525
				c-1.543-1.797-2.267-3.826-2.173-6.077c0.166-3.807,1.784-6.647,4.852-8.528c2.432-1.485,5.379-2.146,8.836-1.979
				c4.16,0.188,7.487,1.615,9.978,4.294l-2.705,2.51c-1.803-1.952-4.284-3.003-7.442-3.152c-2.714-0.11-4.961,0.37-6.745,1.453
				c-1.952,1.206-2.983,3.062-3.097,5.571c-0.146,3.424,3.048,6.051,9.592,7.893c4.718,1.316,8.094,3.165,10.118,5.545
				c1.543,1.822,2.267,3.865,2.176,6.136c-0.149,2.989-1.505,5.52-4.07,7.581c-2.455,1.972-5.418,2.951-8.895,2.951
				C368.441,339.393,368.198,339.387,367.958,339.367z"/>
			<path fill="#5799D9" d="M401.826,333.401c-3.996-3.976-5.993-8.782-5.993-14.411c0-5.61,1.998-10.416,5.993-14.411
				c3.976-3.976,8.781-5.967,14.414-5.967c2.766,0,5.415,0.532,7.944,1.589l-1.449,3.398c-2.065-0.869-4.229-1.31-6.495-1.31
				c-4.611,0-8.552,1.628-11.82,4.884c-3.271,3.269-4.906,7.205-4.906,11.816s1.635,8.548,4.906,11.823
				c3.269,3.269,7.209,4.903,11.82,4.903c1.857,0,3.657-0.299,5.405-0.896v-14.1h-8.334v-3.684h12.015v20.268l-1.115,0.473
				c-2.546,1.077-5.205,1.615-7.971,1.615C410.607,339.393,405.802,337.396,401.826,333.401z"/>
			<path fill="#5799D9" d="M456.463,298.975v40.029h-3.651v-10.008h-15.89l-6.326,10.008h-4.349l25.31-40.029H456.463z
				 M439.237,325.32h13.574v-21.441L439.237,325.32z"/>
			<path fill="#5799D9" d="M488.271,339.004h-4.125l-9.394-18.089h-9.593v18.063h-3.681v-40.003h14.386
				c3.028,0,5.612,1.077,7.75,3.23c2.137,2.14,3.207,4.721,3.207,7.75c0,2.51-0.771,4.76-2.315,6.751
				c-1.505,1.933-3.438,3.211-5.798,3.846L488.271,339.004z M475.865,317.232c2.007,0,3.726-0.707,5.159-2.114
				c1.41-1.434,2.117-3.152,2.117-5.162c0-2.004-0.707-3.723-2.117-5.156c-1.434-1.427-3.152-2.146-5.159-2.146H465.16v14.579
				H475.865z"/>
			<path fill="#5799D9" d="M518.656,298.975v40.029h-3.651v-10.008h-15.89l-6.326,10.008h-4.349l25.31-40.029H518.656z
				 M501.43,325.32h13.574v-21.441L501.43,325.32z"/>
			<path fill="#5799D9" d="M551.187,298.975v40.029h-3.956l-19.962-33.368v33.368h-3.678v-40.029h3.985l19.934,33.368v-33.368
				H551.187z"/>
			<path fill="#5799D9" d="M578.843,298.975v3.678h-10.481v36.352h-3.68v-36.352h-10.511v-3.678H578.843z"/>
			<path fill="#5799D9" d="M585.282,291.031l-2.983,6.297h-1.56v-6.297H585.282z M580.739,298.781h3.707v40.224h-3.707V298.781z"/>
			<path fill="#5799D9" d="M616.115,298.975v40.029h-3.651v-10.008h-15.89l-6.327,10.008h-4.349l25.311-40.029H616.115z
				 M598.888,325.32h13.575v-21.441L598.888,325.32z"/>
		</g>
	</g>
	<g>
		<g>
			<path fill="#5799D9" d="M241.224,422.687c3.288,0,6.317-0.901,9.086-2.704v4.234c-2.86,1.434-5.889,2.147-9.086,2.147
				c-5.633,0-10.436-1.998-14.414-5.993c-3.995-3.976-5.993-8.781-5.993-14.411c0-5.629,1.998-10.435,5.993-14.41
				c3.979-3.995,8.781-5.993,14.414-5.993c3.197,0,6.226,0.714,9.086,2.146v4.235c-2.769-1.803-5.798-2.704-9.086-2.704
				c-4.611,0-8.548,1.634-11.82,4.909c-3.272,3.269-4.907,7.206-4.907,11.816c0,4.611,1.635,8.549,4.907,11.823
				C232.676,421.053,236.613,422.687,241.224,422.687z"/>
			<path fill="#5799D9" d="M257.642,420.404c-3.995-3.981-5.993-8.781-5.993-14.417c0-5.63,1.998-10.441,5.993-14.437
				c3.976-3.976,8.782-5.967,14.411-5.967c5.632,0,10.445,1.991,14.443,5.967c3.976,3.995,5.963,8.807,5.963,14.437
				c0,5.636-1.988,10.436-5.963,14.417c-3.999,3.995-8.811,5.993-14.443,5.993C266.424,426.397,261.617,424.399,257.642,420.404z
				 M260.236,394.17c-3.272,3.269-4.91,7.212-4.91,11.816c0,4.611,1.638,8.555,4.91,11.823c3.269,3.269,7.209,4.903,11.817,4.903
				c4.611,0,8.551-1.635,11.82-4.903c3.272-3.269,4.91-7.212,4.91-11.823c0-4.604-1.638-8.548-4.91-11.816
				c-3.269-3.269-7.209-4.91-11.82-4.91C267.445,389.26,263.505,390.902,260.236,394.17z"/>
			<path fill="#5799D9" d="M323.292,385.947v40.028h-3.956l-19.962-33.368v33.368h-3.677v-40.028h3.985l19.933,33.368v-33.368
				H323.292z"/>
			<path fill="#5799D9" d="M338.374,426.338c-2.584-0.11-4.952-0.791-7.108-2.036c-2.455-1.407-4.118-3.295-4.991-5.655l3.457-1.259
				c0.593,1.603,1.803,2.893,3.622,3.879c1.599,0.855,3.327,1.329,5.185,1.42c2.844,0.11,5.224-0.603,7.138-2.146
				c1.708-1.375,2.61-2.99,2.704-4.852c0.149-3.495-3.048-6.161-9.589-7.996c-4.721-1.323-8.094-3.165-10.121-5.526
				c-1.543-1.796-2.267-3.826-2.172-6.076c0.165-3.808,1.783-6.648,4.851-8.529c2.432-1.484,5.38-2.146,8.836-1.978
				c4.161,0.188,7.488,1.614,9.978,4.293l-2.705,2.51c-1.803-1.952-4.284-3.002-7.442-3.151c-2.714-0.11-4.961,0.369-6.745,1.452
				c-1.952,1.207-2.983,3.062-3.097,5.571c-0.146,3.425,3.048,6.051,9.592,7.894c4.718,1.316,8.094,3.164,10.118,5.545
				c1.543,1.822,2.267,3.865,2.176,6.135c-0.149,2.99-1.504,5.52-4.07,7.582c-2.455,1.972-5.418,2.951-8.895,2.951
				C338.857,426.365,338.614,426.358,338.374,426.338z"/>
			<path fill="#5799D9" d="M357.691,421.039c0.727,0,1.346,0.267,1.868,0.785c0.519,0.519,0.781,1.142,0.781,1.868
				c0,0.739-0.263,1.374-0.781,1.894c-0.522,0.519-1.142,0.778-1.868,0.778c-0.743,0-1.375-0.26-1.897-0.778
				c-0.519-0.52-0.778-1.154-0.778-1.894c0-0.727,0.26-1.35,0.778-1.868C356.316,421.306,356.948,421.039,357.691,421.039z"/>
			<path fill="#5799D9" d="M378.04,425.975v-40.028h9.842c5.519,0,10.237,1.958,14.161,5.882c3.901,3.904,5.854,8.613,5.854,14.132
				c0,5.52-1.952,10.234-5.854,14.133c-3.924,3.924-8.642,5.882-14.161,5.882H378.04z M381.691,422.323h6.19
				c4.514,0,8.37-1.596,11.567-4.793c3.198-3.197,4.796-7.056,4.796-11.57c0-4.514-1.599-8.372-4.796-11.569
				c-3.197-3.198-7.053-4.793-11.567-4.793h-6.19V422.323z"/>
			<path fill="#5799D9" d="M431.676,385.947v3.677H414.92v14.443h13.243v3.678H414.92v14.554h16.756v3.677h-20.433v-40.028H431.676z
				"/>
			<path fill="#5799D9" d="M457.88,426.338c-2.584-0.11-4.951-0.791-7.107-2.036c-2.455-1.407-4.118-3.295-4.991-5.655l3.457-1.259
				c0.594,1.603,1.803,2.893,3.622,3.879c1.599,0.855,3.327,1.329,5.186,1.42c2.844,0.11,5.224-0.603,7.137-2.146
				c1.709-1.375,2.611-2.99,2.705-4.852c0.149-3.495-3.049-6.161-9.589-7.996c-4.722-1.323-8.094-3.165-10.121-5.526
				c-1.543-1.796-2.267-3.826-2.173-6.076c0.166-3.808,1.784-6.648,4.852-8.529c2.432-1.484,5.38-2.146,8.837-1.978
				c4.16,0.188,7.487,1.614,9.978,4.293l-2.704,2.51c-1.803-1.952-4.284-3.002-7.442-3.151c-2.714-0.11-4.962,0.369-6.745,1.452
				c-1.952,1.207-2.983,3.062-3.097,5.571c-0.146,3.425,3.048,6.051,9.592,7.894c4.719,1.316,8.095,3.164,10.118,5.545
				c1.543,1.822,2.267,3.865,2.176,6.135c-0.149,2.99-1.505,5.52-4.07,7.582c-2.454,1.972-5.418,2.951-8.895,2.951
				C458.363,426.365,458.12,426.358,457.88,426.338z"/>
			<path fill="#5799D9" d="M473.546,385.751h3.707v40.224h-3.707V385.751z"/>
			<path fill="#5799D9" d="M503.765,385.947v3.677h-10.48v36.352h-3.681v-36.352h-10.51v-3.677H503.765z"/>
			<path fill="#5799D9" d="M505.663,385.751h3.706v40.224h-3.706V385.751z"/>
			<path fill="#5799D9" d="M517.288,420.404c-3.995-3.981-5.993-8.781-5.993-14.417c0-5.63,1.998-10.441,5.993-14.437
				c3.976-3.976,8.781-5.967,14.411-5.967c5.633,0,10.444,1.991,14.443,5.967c3.976,3.995,5.963,8.807,5.963,14.437
				c0,5.636-1.987,10.436-5.963,14.417c-3.999,3.995-8.811,5.993-14.443,5.993C526.069,426.397,521.263,424.399,517.288,420.404z
				 M519.882,394.17c-3.271,3.269-4.909,7.212-4.909,11.816c0,4.611,1.638,8.555,4.909,11.823c3.27,3.269,7.209,4.903,11.817,4.903
				c4.611,0,8.551-1.635,11.819-4.903c3.272-3.269,4.91-7.212,4.91-11.823c0-4.604-1.638-8.548-4.91-11.816
				c-3.269-3.269-7.208-4.91-11.819-4.91C527.091,389.26,523.151,390.902,519.882,394.17z"/>
			<path fill="#5799D9" d="M565.488,426.338c-2.584-0.11-4.951-0.791-7.107-2.036c-2.455-1.407-4.119-3.295-4.991-5.655l3.457-1.259
				c0.594,1.603,1.803,2.893,3.622,3.879c1.599,0.855,3.327,1.329,5.186,1.42c2.844,0.11,5.224-0.603,7.137-2.146
				c1.709-1.375,2.61-2.99,2.705-4.852c0.148-3.495-3.049-6.161-9.589-7.996c-4.722-1.323-8.095-3.165-10.121-5.526
				c-1.544-1.796-2.267-3.826-2.173-6.076c0.166-3.808,1.784-6.648,4.852-8.529c2.432-1.484,5.38-2.146,8.836-1.978
				c4.161,0.188,7.488,1.614,9.979,4.293l-2.704,2.51c-1.804-1.952-4.284-3.002-7.442-3.151c-2.715-0.11-4.962,0.369-6.745,1.452
				c-1.952,1.207-2.983,3.062-3.097,5.571c-0.146,3.425,3.048,6.051,9.592,7.894c4.719,1.316,8.094,3.164,10.117,5.545
				c1.544,1.822,2.268,3.865,2.177,6.135c-0.149,2.99-1.505,5.52-4.07,7.582c-2.454,1.972-5.419,2.951-8.895,2.951
				C565.971,426.365,565.728,426.358,565.488,426.338z"/>
		</g>
	</g>
</g>
</svg>
