<?xml version="1.0" encoding="utf-8"?>
<!-- Generator: Adobe Illustrator 16.0.0, SVG Export Plug-In . SVG Version: 6.00 Build 0)  -->
<!DOCTYPE svg PUBLIC "-//W3C//DTD SVG 1.1//EN" "http://www.w3.org/Graphics/SVG/1.1/DTD/svg11.dtd">
<svg version="1.1" id="Capa_1" xmlns="http://www.w3.org/2000/svg" xmlns:xlink="http://www.w3.org/1999/xlink" x="0px" y="0px"
	 width="800px" height="450px" viewBox="0 0 800 450" enable-background="new 0 0 800 450" xml:space="preserve">
<g>
	<path fill="#5799D9" d="M53.35,244.4c2.574,0,5.116-0.49,7.629-1.474c2.514-0.979,4.566-2.54,6.161-4.687
		c1.224-1.594,2.037-3.232,2.436-4.918c0.398-1.687,0.598-3.449,0.598-5.288c0-1.227,0.244-2.253,0.735-3.081
		c0.489-0.827,1.439-1.241,2.85-1.241c1.409,0,2.404,0.384,2.988,1.149c0.583,0.767,0.873,1.794,0.873,3.081
		c0,3.492-0.659,6.665-1.976,9.513c-1.319,2.851-3.096,5.261-5.333,7.22c-2.238,1.961-4.873,3.479-7.907,4.548
		c-3.034,1.073-6.268,1.612-9.7,1.612c-4.78,0-8.934-0.891-12.457-2.667c-3.525-1.778-6.451-4.167-8.78-7.172
		c-2.331-3-4.061-6.465-5.194-10.389c-1.136-3.92-1.702-7.998-1.702-12.227c0-3.859,0.49-7.843,1.472-11.952
		c0.979-4.105,2.634-7.816,4.965-11.125c2.573-3.616,5.746-6.373,9.515-8.276c3.77-1.897,7.861-2.848,12.273-2.848
		c3.554,0,6.772,0.597,9.654,1.792c2.88,1.197,5.362,3.172,7.447,5.933l0.184-0.185c-0.062-0.675-0.138-1.38-0.23-2.116
		c-0.093-0.736-0.139-1.44-0.139-2.116c0-0.857,0.26-1.592,0.782-2.206c0.521-0.611,1.241-0.919,2.161-0.919
		c1.103,0,1.915,0.4,2.435,1.195c0.521,0.796,0.783,1.718,0.783,2.757c0,1.84-0.108,3.71-0.322,5.61
		c-0.216,1.9-0.323,3.768-0.323,5.605c0,1.962,0.107,3.711,0.323,5.243c0.213,1.53,0.322,3.003,0.322,4.411
		c0,1.227-0.322,2.129-0.966,2.713c-0.644,0.584-1.486,0.874-2.528,0.874c-1.595,0-2.589-0.397-2.988-1.195
		c-0.398-0.796-0.597-2.299-0.597-4.504c0-1.654-0.123-3.292-0.368-4.919c-0.246-1.622-0.889-3.265-1.931-4.919
		c-1.411-2.264-3.341-3.935-5.792-5.011c-2.452-1.07-4.965-1.607-7.538-1.607c-3.862,0-7.08,0.796-9.654,2.392
		c-2.575,1.594-4.644,3.662-6.206,6.205c-1.564,2.543-2.667,5.411-3.31,8.595c-0.645,3.189-0.966,6.375-0.966,9.563
		c0,3.124,0.336,6.298,1.012,9.514c0.673,3.219,1.792,6.13,3.355,8.735c1.563,2.605,3.646,4.72,6.251,6.346
		C46.253,243.586,49.488,244.4,53.35,244.4z"/>
	<path fill="#5799D9" d="M85.342,225.738c0-3.373,0.444-6.589,1.333-9.654c0.888-3.065,2.237-5.747,4.045-8.045
		c1.807-2.298,4.092-4.139,6.85-5.517s5.976-2.067,9.653-2.067c3.31,0,6.404,0.505,9.285,1.516c2.881,1.011,5.394,2.838,7.54,5.471
		c2.023,2.514,3.493,5.365,4.414,8.551c0.919,3.186,1.378,6.343,1.378,9.47c0,3.492-0.49,6.789-1.471,9.882
		c-0.98,3.097-2.422,5.79-4.321,8.091c-1.9,2.298-4.261,4.105-7.079,5.423c-2.82,1.317-6.1,1.979-9.838,1.979
		c-3.677,0-6.882-0.676-9.607-2.022c-2.729-1.35-4.998-3.174-6.804-5.47c-1.808-2.301-3.157-4.969-4.045-8
		C85.787,232.311,85.342,229.108,85.342,225.738z M92.974,225.462c0,2.266,0.245,4.535,0.735,6.801
		c0.49,2.27,1.288,4.323,2.391,6.161c1.104,1.839,2.558,3.324,4.367,4.459c1.808,1.137,4.06,1.7,6.757,1.7
		c2.819,0,5.195-0.554,7.125-1.656c1.93-1.103,3.477-2.573,4.642-4.411c1.164-1.837,1.992-3.924,2.482-6.253
		c0.491-2.328,0.737-4.72,0.737-7.168c0-2.146-0.246-4.4-0.737-6.76c-0.49-2.36-1.349-4.457-2.574-6.297
		c-1.226-1.959-2.835-3.341-4.826-4.138c-1.993-0.795-4.091-1.195-6.298-1.195c-2.574,0-4.826,0.476-6.757,1.425
		c-1.931,0.951-3.571,2.559-4.919,4.827c-1.043,1.778-1.825,3.803-2.345,6.068C93.233,221.294,92.974,223.438,92.974,225.462z"/>
	<path fill="#5799D9" d="M203.666,224.54c-0.061-3.246-0.152-5.775-0.275-7.583c-0.123-1.809-0.399-3.232-0.827-4.276
		c-0.86-2.023-2.177-3.521-3.953-4.504c-1.78-0.979-3.741-1.471-5.885-1.471c-1.962,0-3.831,0.493-5.608,1.471
		c-1.778,0.984-3.095,2.389-3.953,4.229c-0.246,0.551-0.476,1.182-0.689,1.884c-0.216,0.708-0.383,1.536-0.505,2.483
		c-0.125,0.949-0.231,2.114-0.323,3.495c-0.092,1.378-0.138,3.049-0.138,5.011v10.571c0,2.819,0.184,4.826,0.552,6.024
		c0.368,1.195,1.072,1.788,2.114,1.788c0.796,0,1.531-0.09,2.207-0.275c0.674-0.183,1.347-0.275,2.023-0.275
		c0.919,0,1.668,0.292,2.252,0.875c0.581,0.585,0.873,1.303,0.873,2.159c0,2.269-1.319,3.403-3.953,3.403
		c-1.534,0-2.958-0.171-4.276-0.508c-1.319-0.334-3.019-0.503-5.103-0.503c-2.207,0-3.985,0.169-5.332,0.503
		c-1.349,0.337-2.85,0.508-4.504,0.508c-2.637,0-3.955-1.135-3.955-3.403c0-0.856,0.291-1.574,0.875-2.159
		c0.581-0.583,1.332-0.875,2.251-0.875c0.674,0,1.347,0.093,2.023,0.275c0.674,0.186,1.409,0.275,2.207,0.275
		c1.163,0,1.898-0.563,2.207-1.696c0.306-1.136,0.459-3.173,0.459-6.116v-13.884c0-2.206-0.032-4.06-0.091-5.562
		c-0.062-1.498-0.247-2.77-0.551-3.813c-0.247-0.735-0.645-1.456-1.196-2.159c-0.551-0.706-1.227-1.335-2.023-1.887
		c-0.797-0.551-1.687-0.994-2.666-1.332c-0.981-0.338-2.022-0.506-3.126-0.506c-2.084,0-4.044,0.444-5.884,1.333
		c-1.838,0.889-3.28,2.25-4.321,4.091c-0.429,0.798-0.797,1.549-1.104,2.252c-0.307,0.708-0.551,1.52-0.735,2.438
		c-0.185,0.918-0.309,2.021-0.368,3.308c-0.062,1.286-0.092,2.914-0.092,4.875v10.847c0,2.819,0.184,4.826,0.551,6.024
		c0.368,1.195,1.072,1.788,2.115,1.788c0.796,0,1.531-0.09,2.207-0.275c0.673-0.183,1.347-0.275,2.021-0.275
		c0.92,0,1.67,0.292,2.253,0.875c0.583,0.585,0.873,1.303,0.873,2.159c0,2.269-1.317,3.403-3.953,3.403
		c-1.533,0-2.958-0.171-4.276-0.508c-1.317-0.334-3.019-0.503-5.102-0.503c-2.207,0-3.985,0.169-5.333,0.503
		c-1.349,0.337-2.85,0.508-4.505,0.508c-2.637,0-3.953-1.135-3.953-3.403c0-0.856,0.289-1.574,0.873-2.159
		c0.581-0.583,1.332-0.875,2.253-0.875c0.673,0,1.347,0.093,2.023,0.275c0.673,0.186,1.408,0.275,2.205,0.275
		c1.164,0,1.9-0.563,2.207-1.696c0.307-1.136,0.459-3.173,0.459-6.116V215.44c0-3.189-0.184-5.287-0.551-6.298
		c-0.367-1.013-1.073-1.518-2.115-1.518c-0.797,0-1.532,0.091-2.205,0.275c-0.676,0.183-1.35,0.276-2.023,0.276
		c-0.921,0-1.672-0.29-2.253-0.874c-0.584-0.581-0.873-1.3-0.873-2.159c0-0.859,0.367-1.64,1.103-2.346
		c0.735-0.703,1.501-1.057,2.299-1.057c0.489,0,0.904,0.045,1.241,0.138c0.336,0.092,0.69,0.216,1.058,0.368
		c0.367,0.154,0.75,0.275,1.148,0.367c0.399,0.092,0.904,0.141,1.518,0.141c0.673,0,1.24-0.048,1.7-0.141
		c0.459-0.092,0.904-0.213,1.333-0.367c0.428-0.152,0.856-0.276,1.287-0.368c0.428-0.092,0.92-0.138,1.471-0.138
		c0.98,0,1.563,0.476,1.747,1.424c0.184,0.952,0.275,2.314,0.275,4.092h0.186c1.777-2.33,3.752-4.043,5.93-5.149
		c2.174-1.103,4.733-1.654,7.675-1.654c2.759,0,5.348,0.538,7.77,1.607c2.42,1.073,4.335,2.807,5.746,5.195
		c1.777-2.449,3.908-4.198,6.39-5.24c2.483-1.041,5.225-1.563,8.229-1.563c2.512,0,5.041,0.354,7.584,1.056
		c2.543,0.706,4.613,2.071,6.208,4.092c1.837,2.33,2.909,4.704,3.217,7.125c0.306,2.421,0.46,5.043,0.46,7.859v15.263
		c0,2.819,0.184,4.826,0.551,6.024c0.367,1.195,1.071,1.788,2.115,1.788c0.796,0,1.531-0.09,2.207-0.275
		c0.673-0.183,1.347-0.275,2.021-0.275c0.92,0,1.67,0.292,2.252,0.875c0.583,0.585,0.874,1.303,0.874,2.159
		c0,2.269-1.318,3.403-3.953,3.403c-1.533,0-2.958-0.171-4.275-0.508c-1.319-0.334-3.021-0.503-5.103-0.503
		c-2.207,0-3.985,0.169-5.333,0.503c-1.349,0.337-2.85,0.508-4.505,0.508c-2.635,0-3.953-1.135-3.953-3.403
		c0-0.856,0.29-1.574,0.873-2.159c0.583-0.583,1.333-0.875,2.253-0.875c0.673,0,1.347,0.093,2.023,0.275
		c0.673,0.186,1.408,0.275,2.206,0.275c1.164,0,1.9-0.563,2.207-1.696c0.307-1.136,0.459-3.173,0.459-6.116V224.54z"/>
	<path fill="#5799D9" d="M233.454,215.349c0-2.76-0.169-4.736-0.506-5.93c-0.337-1.197-1.056-1.794-2.161-1.794
		c-0.797,0-1.533,0.091-2.206,0.275c-0.675,0.183-1.35,0.276-2.023,0.276c-0.92,0-1.671-0.29-2.253-0.874
		c-0.583-0.581-0.873-1.3-0.873-2.159c0-1.043,0.414-1.871,1.241-2.484c0.827-0.61,1.761-0.918,2.804-0.918
		c0.735,0,1.531,0.17,2.391,0.505c0.858,0.337,1.747,0.508,2.666,0.508c0.858,0,1.731-0.17,2.621-0.508
		c0.888-0.335,1.761-0.505,2.62-0.505c0.673,0,1.241,0.216,1.7,0.643c0.461,0.43,0.69,1.165,0.69,2.208v3.033h0.184
		c1.471-2.45,3.494-4.26,6.068-5.425c2.574-1.165,5.241-1.746,7.999-1.746c3.615,0,6.742,0.63,9.377,1.883
		c2.636,1.26,4.827,2.974,6.575,5.149c1.746,2.175,3.034,4.735,3.86,7.678c0.827,2.941,1.241,6.098,1.241,9.468
		c0,2.883-0.367,5.916-1.103,9.103s-1.931,5.976-3.585,8.364c-1.962,2.881-4.476,5.06-7.54,6.53
		c-3.065,1.469-6.313,2.206-9.746,2.206c-2.513,0-4.934-0.461-7.262-1.379c-2.33-0.92-4.169-2.359-5.516-4.322h-0.184v7.263
		c0,3.127,0.229,5.162,0.689,6.113c0.459,0.951,1.118,1.427,1.977,1.427c0.796,0,1.532-0.093,2.207-0.275
		c0.673-0.184,1.348-0.276,2.022-0.276c0.92,0,1.67,0.291,2.252,0.872c0.583,0.582,0.874,1.302,0.874,2.161
		c0,1.044-0.414,1.87-1.241,2.48c-0.827,0.615-1.763,0.92-2.804,0.92c-1.716,0-3.372-0.168-4.965-0.503
		c-1.594-0.341-3.188-0.509-4.781-0.509c-1.654,0-3.263,0.168-4.826,0.509c-1.563,0.335-3.05,0.503-4.459,0.503
		c-1.043,0-1.978-0.305-2.804-0.92c-0.827-0.61-1.241-1.437-1.241-2.48c0-0.859,0.29-1.579,0.873-2.161
		c0.582-0.581,1.333-0.872,2.253-0.872c0.673,0,1.348,0.093,2.023,0.276c0.673,0.183,1.409,0.275,2.206,0.275
		c1.042,0,1.747-0.552,2.115-1.654c0.368-1.104,0.551-3.129,0.551-6.069V215.349z M254.325,206.705c-1.288,0-2.574,0.155-3.862,0.46
		c-1.287,0.308-2.483,0.781-3.585,1.427c-1.103,0.643-2.069,1.438-2.896,2.39c-0.827,0.951-1.457,2.068-1.885,3.357
		c-0.552,1.654-0.95,3.475-1.195,5.47c-0.246,1.989-0.367,4.703-0.367,8.135c0,2.146,0.105,4.184,0.321,6.113
		c0.213,1.93,0.934,3.784,2.161,5.563c1.225,1.778,2.696,3.049,4.413,3.815c1.716,0.768,3.616,1.148,5.7,1.148
		c2.819,0,5.18-0.536,7.079-1.607c1.899-1.073,3.417-2.513,4.552-4.325c1.133-1.805,1.93-3.858,2.39-6.155
		c0.461-2.3,0.69-4.676,0.69-7.125c0-2.209-0.2-4.43-0.599-6.668c-0.398-2.235-1.103-4.244-2.113-6.022
		c-1.012-1.775-2.391-3.219-4.138-4.321C259.243,207.256,257.021,206.705,254.325,206.705z"/>
	<path fill="#5799D9" d="M291.65,215.349c0-3.127-0.2-5.195-0.598-6.206c-0.398-1.013-1.119-1.518-2.16-1.518
		c-0.797,0-1.58,0.091-2.345,0.275c-0.767,0.183-1.762,0.276-2.988,0.276c-0.92,0-1.671-0.29-2.252-0.874
		c-0.584-0.581-0.874-1.3-0.874-2.159c0-1.043,0.427-1.871,1.287-2.484c0.858-0.61,1.807-0.918,2.85-0.918
		c0.858,0,1.685,0.17,2.482,0.505c0.796,0.337,1.748,0.508,2.85,0.508c1.164,0,2.115-0.17,2.85-0.508
		c0.735-0.335,1.531-0.505,2.391-0.505c1.226,0,1.977,0.476,2.253,1.424c0.275,0.952,0.382,2.346,0.321,4.185h0.184
		c1.41-2.331,3.232-4.06,5.47-5.195c2.236-1.132,4.735-1.7,7.494-1.7c1.898,0,3.752,0.275,5.562,0.827
		c1.807,0.552,3.385,1.378,4.734,2.484c1.348,1.103,2.437,2.464,3.265,4.089c0.827,1.625,1.24,3.479,1.24,5.562
		c0,1.165-0.136,2.316-0.41,3.449c-0.273,1.132-0.71,2.146-1.317,3.035c-0.605,0.887-1.393,1.605-2.36,2.157
		c-0.971,0.553-2.152,0.829-3.543,0.829c-1.228,0-2.36-0.397-3.401-1.198c-1.043-0.794-1.564-1.867-1.564-3.215
		c0-1.044,0.369-1.962,1.104-2.757c0.735-0.798,1.623-1.194,2.667-1.194c0.184,0,0.382,0.029,0.597,0.091
		c0.213,0.059,0.414,0.121,0.598,0.184c0.367-0.735,0.551-1.44,0.551-2.117c0-1.041-0.263-1.959-0.786-2.759
		c-0.523-0.794-1.168-1.47-1.939-2.021c-0.771-0.551-1.647-0.965-2.634-1.24c-0.985-0.276-1.939-0.414-2.861-0.414
		c-1.788,0-3.388,0.275-4.804,0.827c-1.416,0.551-2.632,1.502-3.649,2.848c-1.017,1.351-1.801,3.143-2.355,5.378
		c-0.555,2.238-0.831,5.011-0.831,8.322v12.32c0,1.656,0.077,2.987,0.229,3.999c0.152,1.011,0.368,1.791,0.645,2.343
		c0.275,0.551,0.581,0.92,0.919,1.103c0.337,0.186,0.719,0.275,1.148,0.275c0.796,0,1.532-0.09,2.207-0.275
		c0.675-0.183,1.348-0.275,2.023-0.275c0.919,0,1.669,0.292,2.253,0.875c0.581,0.585,0.873,1.303,0.873,2.159
		c0,1.044-0.414,1.871-1.241,2.485c-0.828,0.61-1.732,0.918-2.712,0.918c-1.595,0-3.096-0.171-4.506-0.508
		c-1.411-0.334-3.066-0.503-4.965-0.503c-0.981,0-1.854,0.045-2.62,0.135c-0.766,0.093-1.517,0.217-2.253,0.368
		c-0.735,0.154-1.502,0.276-2.297,0.369c-0.798,0.09-1.656,0.139-2.575,0.139c-1.042,0-1.993-0.308-2.85-0.918
		c-0.859-0.614-1.288-1.441-1.288-2.485c0-0.856,0.291-1.574,0.873-2.159c0.582-0.583,1.333-0.875,2.252-0.875
		c0.674,0,1.348,0.093,2.023,0.275c0.675,0.186,1.41,0.275,2.207,0.275c0.489,0,0.903-0.103,1.241-0.317
		c0.337-0.217,0.598-0.6,0.782-1.151c0.184-0.551,0.322-1.334,0.414-2.345c0.092-1.01,0.138-2.313,0.138-3.906V215.349z"/>
	<path fill="#5799D9" d="M367.039,234.746c0,0.735-0.031,1.671-0.092,2.803c-0.062,1.136-0.017,2.238,0.138,3.31
		c0.152,1.073,0.489,1.993,1.011,2.761c0.52,0.767,1.333,1.147,2.437,1.147c0.98,0,1.701-0.32,2.161-0.964
		c0.459-0.645,0.781-1.41,0.964-2.301c0.184-0.886,0.261-1.824,0.23-2.803c-0.031-0.979-0.046-1.807-0.046-2.48
		c0-0.613,0-1.26,0-1.932c0-0.674,0.077-1.273,0.229-1.792c0.153-0.521,0.429-0.952,0.829-1.287
		c0.397-0.338,1.026-0.508,1.884-0.508c1.288,0,2.146,0.367,2.575,1.103c0.428,0.735,0.645,1.627,0.645,2.667
		c0,3.495-0.079,6.159-0.23,7.998c-0.154,1.838-0.722,3.401-1.701,4.691c-0.919,1.286-2.115,2.157-3.585,2.616
		c-1.472,0.463-2.974,0.692-4.505,0.692c-2.268,0-4.276-0.522-6.021-1.562c-1.748-1.044-2.867-2.728-3.356-5.06
		c-1.594,2.573-3.739,4.384-6.437,5.425c-2.697,1.042-5.516,1.564-8.458,1.564c-1.899,0-3.8-0.186-5.7-0.552
		c-1.9-0.368-3.647-1.073-5.241-2.115c-1.9-1.227-3.401-2.771-4.504-4.643c-1.104-1.87-1.655-3.967-1.655-6.296
		c0-2.576,0.505-4.86,1.517-6.853c1.011-1.992,2.588-3.597,4.734-4.824c2.023-1.227,4.014-2.008,5.977-2.346
		c1.961-0.335,4.074-0.66,6.343-0.965c1.348-0.122,2.789-0.262,4.321-0.414s2.911-0.443,4.138-0.875
		c1.226-0.427,2.253-1.103,3.08-2.021c0.827-0.919,1.24-2.238,1.24-3.952c0-1.532-0.29-2.834-0.873-3.908
		c-0.583-1.07-1.349-1.93-2.299-2.573c-0.95-0.646-2.054-1.106-3.309-1.382c-1.257-0.275-2.56-0.414-3.907-0.414
		c-1.227,0-2.453,0.184-3.678,0.552c-1.226,0.368-2.36,0.859-3.401,1.471c-0.368,0.245-0.814,0.583-1.333,1.01
		c-0.521,0.433-0.782,0.892-0.782,1.382c0,0.121,0.107,0.229,0.321,0.321c0.215,0.092,0.461,0.26,0.737,0.506
		c0.276,0.245,0.535,0.597,0.781,1.057c0.244,0.46,0.367,1.089,0.367,1.887c0,1.411-0.505,2.481-1.516,3.217
		c-1.012,0.734-2.161,1.102-3.449,1.102c-1.595,0-2.941-0.564-4.044-1.699c-1.103-1.132-1.656-2.528-1.656-4.184
		c0-1.96,0.553-3.754,1.656-5.379c1.103-1.624,2.45-2.986,4.044-4.089c1.656-1.165,3.586-2.024,5.792-2.576
		c2.207-0.551,4.321-0.827,6.345-0.827c2.144,0,4.335,0.275,6.573,0.827c2.236,0.552,4.243,1.503,6.022,2.852
		c2.268,1.778,3.691,3.86,4.275,6.25c0.581,2.392,0.842,4.967,0.781,7.725L367.039,234.746z M336.239,236.862
		c0,1.409,0.275,2.588,0.827,3.537c0.551,0.951,1.271,1.749,2.161,2.393c0.888,0.643,1.899,1.103,3.034,1.379
		c1.134,0.275,2.312,0.412,3.539,0.412c2.145,0,4.259-0.37,6.344-1.104c2.083-0.734,3.831-1.989,5.24-3.768
		c1.042-1.412,1.685-2.849,1.931-4.321c0.245-1.471,0.368-3.003,0.368-4.598c0-0.978,0.015-1.96,0.046-2.94
		c0.031-0.979,0.077-1.962,0.138-2.943c-0.858,0.858-1.808,1.516-2.85,1.975c-1.042,0.46-2.113,0.816-3.218,1.06
		c-1.103,0.243-2.237,0.427-3.401,0.551c-1.165,0.125-2.298,0.246-3.401,0.367c-1.227,0.126-2.469,0.309-3.724,0.552
		c-1.257,0.246-2.406,0.66-3.447,1.244c-1.043,0.58-1.9,1.361-2.574,2.34C336.576,233.98,336.239,235.268,336.239,236.862z"/>
	<path fill="#5799D9" d="M393.7,215.349c0-3.127-0.2-5.195-0.599-6.206c-0.399-1.013-1.119-1.518-2.159-1.518
		c-0.798,0-1.58,0.091-2.345,0.275c-0.768,0.183-1.762,0.276-2.988,0.276c-0.92,0-1.671-0.29-2.252-0.874
		c-0.583-0.581-0.873-1.3-0.873-2.159c0-1.043,0.427-1.871,1.286-2.484c0.858-0.61,1.807-0.918,2.85-0.918
		c0.858,0,1.685,0.17,2.483,0.505c0.796,0.337,1.747,0.508,2.85,0.508c1.163,0,2.115-0.17,2.85-0.508
		c0.735-0.335,1.531-0.505,2.391-0.505c1.225,0,1.977,0.476,2.252,1.424c0.276,0.952,0.382,2.346,0.322,4.185h0.184
		c1.409-2.331,3.232-4.06,5.471-5.195c2.236-1.132,4.734-1.7,7.493-1.7c1.898,0,3.753,0.275,5.563,0.827
		c1.807,0.552,3.385,1.378,4.733,2.484c1.348,1.103,2.438,2.464,3.265,4.089c0.827,1.625,1.241,3.479,1.241,5.562
		c0,1.165-0.137,2.316-0.41,3.449c-0.272,1.132-0.71,2.146-1.317,3.035c-0.605,0.887-1.394,1.605-2.361,2.157
		c-0.97,0.553-2.15,0.829-3.543,0.829c-1.227,0-2.358-0.397-3.401-1.198c-1.043-0.794-1.563-1.867-1.563-3.215
		c0-1.044,0.369-1.962,1.104-2.757c0.734-0.798,1.623-1.194,2.666-1.194c0.184,0,0.383,0.029,0.598,0.091
		c0.213,0.059,0.413,0.121,0.597,0.184c0.367-0.735,0.552-1.44,0.552-2.117c0-1.041-0.263-1.959-0.785-2.759
		c-0.523-0.794-1.169-1.47-1.939-2.021c-0.77-0.551-1.646-0.965-2.634-1.24c-0.985-0.276-1.938-0.414-2.86-0.414
		c-1.788,0-3.389,0.275-4.805,0.827c-1.416,0.551-2.633,1.502-3.648,2.848c-1.018,1.351-1.801,3.143-2.355,5.378
		c-0.556,2.238-0.831,5.011-0.831,8.322v12.32c0,1.656,0.077,2.987,0.229,3.999c0.152,1.011,0.367,1.791,0.645,2.343
		c0.275,0.551,0.582,0.92,0.92,1.103c0.336,0.186,0.719,0.275,1.148,0.275c0.795,0,1.53-0.09,2.206-0.275
		c0.675-0.183,1.347-0.275,2.023-0.275c0.919,0,1.669,0.292,2.253,0.875c0.58,0.585,0.873,1.303,0.873,2.159
		c0,1.044-0.414,1.871-1.24,2.485c-0.829,0.61-1.733,0.918-2.713,0.918c-1.595,0-3.096-0.171-4.506-0.508
		c-1.41-0.334-3.066-0.503-4.965-0.503c-0.981,0-1.854,0.045-2.62,0.135c-0.767,0.093-1.516,0.217-2.252,0.368
		c-0.736,0.154-1.503,0.276-2.298,0.369c-0.797,0.09-1.655,0.139-2.574,0.139c-1.043,0-1.994-0.308-2.85-0.918
		c-0.859-0.614-1.288-1.441-1.288-2.485c0-0.856,0.291-1.574,0.873-2.159c0.583-0.583,1.334-0.875,2.253-0.875
		c0.674,0,1.347,0.093,2.023,0.275c0.674,0.186,1.409,0.275,2.207,0.275c0.489,0,0.903-0.103,1.241-0.317
		c0.336-0.217,0.597-0.6,0.782-1.151c0.184-0.551,0.321-1.334,0.414-2.345c0.092-1.01,0.138-2.313,0.138-3.906V215.349z"/>
</g>
<g>
	<path fill="#FFFFFF" d="M797.428,249.565c0,11.226-13.998,20.331-31.266,20.331H471.761c-17.263,0-31.262-9.105-31.262-20.331
		v-49.133c0-11.227,13.999-20.33,31.262-20.33h294.401c17.268,0,31.266,9.103,31.266,20.33V249.565z"/>
	<g>
		<path fill="#5799D9" d="M490.877,213.142c-0.97-2.964-3.613-4.471-7.923-4.518v15.572c0.37,0.093,0.948,0.233,1.736,0.417
			c3.619,0.833,6.12,1.598,7.51,2.293c1.391,0.697,2.686,1.832,3.894,3.407c1.436,1.901,2.153,4.148,2.153,6.743
			c0,2.457-0.671,4.739-2.015,6.85c-1.347,2.107-3.129,3.671-5.355,4.691c-2.037,0.971-4.679,1.76-7.923,2.362v5.909
			c0,1.203-0.649,1.807-1.945,1.807c-1.299,0-1.946-0.604-1.946-1.807v-5.909c-3.431-0.231-6.327-0.845-8.691-1.844
			c-2.362-0.994-4.229-2.42-5.595-4.274c-1.367-1.854-2.051-3.893-2.051-6.116c0-1.901,0.462-3.428,1.389-4.587
			c0.927-1.16,2.156-1.74,3.686-1.74c1.02,0,1.878,0.339,2.571,1.01c0.696,0.671,1.044,1.519,1.044,2.538
			c0,1.991-1.206,3.057-3.615,3.196c0.23,2.179,1.355,3.916,3.373,5.212c2.014,1.3,4.645,1.971,7.89,2.018v-17.519l-1.044-0.278
			c-3.752-1.019-6.302-1.83-7.647-2.432c-1.669-0.741-2.965-1.785-3.89-3.129c-1.069-1.53-1.601-3.475-1.601-5.839
			c0-2.41,0.672-4.658,2.015-6.743c1.346-2.084,3.083-3.591,5.214-4.52c1.809-0.785,4.126-1.413,6.953-1.877v-5.559
			c0-1.39,0.647-2.087,1.946-2.087c1.296,0,1.945,0.697,1.945,2.087v5.559c4.172,0.464,7.483,1.623,9.942,3.477
			c2.454,1.854,3.685,4.126,3.685,6.812c0,1.206-0.373,2.213-1.113,3.024c-0.741,0.813-1.67,1.216-2.781,1.216
			c-0.927,0-1.716-0.301-2.362-0.903c-0.651-0.602-0.973-1.32-0.973-2.155C489.352,214.582,489.859,213.793,490.877,213.142z
			 M479.063,223.361v-14.737c-2.597,0.094-4.717,0.835-6.361,2.226c-1.646,1.389-2.47,3.15-2.47,5.282
			c0,1.854,0.559,3.279,1.67,4.275c1.112,0.998,3.081,1.868,5.909,2.607C478.043,223.061,478.459,223.177,479.063,223.361z
			 M482.954,229.688v16.684c2.826-0.047,5.18-0.879,7.057-2.502c1.878-1.623,2.815-3.661,2.815-6.118
			c0-2.271-0.672-4.008-2.016-5.213c-1.345-1.207-3.57-2.087-6.675-2.644C483.95,229.851,483.556,229.782,482.954,229.688z"/>
		<path fill="#5799D9" d="M522.301,234.623l-0.209-20.158c-0.047-2.366-0.289-3.939-0.73-4.728c-0.44-0.789-1.309-1.183-2.605-1.183
			c-0.464,0-1.137,0.059-2.017,0.175c-0.882,0.114-1.554,0.173-2.015,0.173c-1.809,0-2.713-0.81-2.713-2.433
			c0-1.624,0.858-2.435,2.573-2.435c0.557,0,1.425,0.062,2.605,0.175c1.184,0.117,2.098,0.172,2.747,0.172
			c1.482,0,2.712-0.043,3.684-0.137c1.437-0.14,2.317-0.21,2.643-0.21c1.02,0,1.644,0.304,1.876,0.905
			c0.187,0.417,0.278,1.135,0.278,2.154c0,0.14-0.022,0.696-0.07,1.668c-0.229,4.96-0.349,9.454-0.349,13.487v7.857
			c0,1.437,0.026,3.361,0.071,5.77c0.094,2.919,0.141,4.843,0.141,5.769c0.045,3.197,1.113,4.797,3.197,4.797
			c0.508,0,1.275-0.058,2.293-0.174c1.02-0.115,1.782-0.173,2.294-0.173c2.226,0,3.338,0.811,3.338,2.433
			c0,1.623-1.021,2.433-3.061,2.433c-0.789,0-1.526-0.048-2.224-0.138c-3.892-0.512-6.859-0.765-8.898-0.765
			c-2.04,0-4.541,0.191-7.506,0.58c-1.671,0.214-2.849,0.322-3.547,0.322c-1.992,0-2.988-0.822-2.988-2.467
			c0-1.6,1.135-2.398,3.405-2.398c0.694,0,1.414,0.067,2.154,0.206c1.114,0.095,1.808,0.141,2.087,0.141
			c1.621,0,2.616-0.637,2.987-1.912C522.115,243.258,522.301,239.955,522.301,234.623z"/>
		<path fill="#5799D9" d="M547.466,206.955l-0.139,0.765c1.157-1.851,2.198-3.104,3.127-3.752c0.927-0.649,2.18-0.975,3.755-0.975
			c2.27,0,4.936,1.183,7.995,3.546c3.429,2.641,6.071,3.962,7.924,3.962c1.947,0,3.151-0.671,3.615-2.017h-0.555
			c-0.65,0-1.241-0.28-1.774-0.845c-0.533-0.561-0.798-1.193-0.798-1.898c0-0.891,0.334-1.652,1.007-2.285
			c0.672-0.631,1.472-0.949,2.398-0.949c3.059,0,4.589,2.066,4.589,6.204c0,3.066-0.767,5.762-2.294,8.088
			c-0.974,1.441-2.016,2.695-3.128,3.764c-0.511,0.511-1.53,1.441-3.061,2.789c-3.153,2.743-5.308,5.275-6.465,7.598
			c-1.668,3.3-2.503,7.296-2.503,11.991c0-0.096,0.022,0.417,0.068,1.531c0.095,2.232,0.141,3.231,0.141,3.001
			c0,2.926-1.16,4.39-3.476,4.39c-2.41,0-3.614-1.9-3.614-5.701c0-5.978,1.112-11.19,3.335-15.639
			c1.807-3.617,5.655-7.833,11.541-12.654c2.409-1.992,3.775-3.635,4.1-4.935c-1.583,1.346-3.585,2.015-6.009,2.015
			c-2.982,0-5.896-1.065-8.738-3.198l-2.864-2.155c-1.026-0.742-2.17-1.111-3.427-1.111c-2.982,0-4.472,1.9-4.472,5.698
			c0,1.16,0.109,2.205,0.327,3.131c0.385,1.623,0.574,2.826,0.574,3.614s-0.266,1.46-0.798,2.016
			c-0.534,0.557-1.194,0.835-1.98,0.835c-1.854,0-2.782-0.996-2.782-2.991c0-0.785,0.104-1.991,0.315-3.614
			c0.207-1.622,0.311-2.874,0.311-3.753c0-1.299-0.07-2.688-0.21-4.172c-0.138-1.483-0.207-2.78-0.207-3.892
			c0-1.901,0.81-2.851,2.433-2.851c1.344,0,2.018,0.811,2.018,2.433C547.745,205.264,547.651,205.939,547.466,206.955z"/>
		<path fill="#5799D9" d="M595.015,211.962l-0.833,11.121c3.615-2.5,7.6-3.754,11.956-3.754c5.189,0,9.291,1.381,12.305,4.137
			c3.011,2.756,4.519,6.523,4.519,11.295c0,5.193-1.797,9.398-5.39,12.617c-3.589,3.224-8.281,4.833-14.075,4.833
			c-4.774,0-8.818-1.171-12.132-3.512c-3.314-2.341-4.969-5.202-4.969-8.586c0-1.668,0.531-3.067,1.6-4.204
			c1.067-1.135,2.361-1.705,3.892-1.705c1.205,0,2.188,0.349,2.955,1.044c0.765,0.697,1.147,1.621,1.147,2.781
			c0,0.788-0.268,1.47-0.8,2.05c-0.535,0.58-1.171,0.869-1.911,0.869c-0.556,0.048-0.837,0.208-0.837,0.486
			c0,1.529,1.219,2.91,3.651,4.136c2.433,1.23,5.154,1.843,8.168,1.843c3.709,0,6.754-1.146,9.143-3.441
			c2.385-2.294,3.58-5.223,3.58-8.792c0-3.431-1.009-6.128-3.025-8.1c-2.015-1.968-4.786-2.955-8.306-2.955
			c-4.311,0-7.742,1.252-10.293,3.755c-1.018,0.973-1.735,1.611-2.152,1.913c-0.415,0.301-0.949,0.497-1.598,0.591h-0.277
			c-1.807,0-2.713-1.02-2.713-3.062c0-0.091,0.024-0.185,0.07-0.277l0.973-13.417c0.047-0.742,0.092-2.015,0.141-3.823
			c0.043-2.549,0.229-4.113,0.554-4.694c0.324-0.579,1.184-0.868,2.574-0.868c0.556,0,0.97,0,1.251,0h3.405h4.03h8.554
			c1.343,0,2.361-0.024,3.058-0.069c1.389-0.094,2.338-0.141,2.85-0.141c1.854,0,2.781,1.37,2.781,4.102l-0.07,0.487
			c0,1.206,0.185,2.619,0.556,4.24c0.188,0.557,0.281,1.066,0.281,1.531c0,1.482-0.789,2.224-2.367,2.224
			c-1.481,0-2.271-1.089-2.36-3.267c-0.094-2.596-1.229-3.892-3.407-3.892h-14.529C595.803,209.46,595.154,210.292,595.015,211.962z
			"/>
		<path fill="#5799D9" d="M635.821,251.863c-1.205,0-2.225-0.428-3.06-1.286c-0.833-0.856-1.251-1.886-1.251-3.093
			c0-1.205,0.418-2.236,1.251-3.094c0.835-0.856,1.854-1.286,3.06-1.286c1.203,0,2.225,0.43,3.06,1.286
			c0.832,0.857,1.251,1.889,1.251,3.094c0,1.207-0.419,2.236-1.251,3.093C638.046,251.436,637.024,251.863,635.821,251.863z"/>
		<path fill="#5799D9" d="M667.173,252.212c-5.888,0-10.509-2.168-13.871-6.501c-3.358-4.331-5.038-10.3-5.038-17.9
			c0-7.739,1.748-13.845,5.248-18.318c3.499-4.471,8.283-6.708,14.355-6.708c5.794,0,10.368,2.144,13.728,6.431
			c3.362,4.288,5.042,10.093,5.042,17.414c0,7.925-1.739,14.172-5.215,18.736C677.947,249.928,673.195,252.212,667.173,252.212z
			 M667.728,207.93c-8.527,0-12.952,6.372-13.276,19.116v1.043c0,6.074,1.111,10.765,3.337,14.076
			c2.225,3.313,5.374,4.971,9.453,4.971c4.172,0,7.438-1.806,9.803-5.422c2.363-3.613,3.545-8.595,3.545-14.945
			c0-6.07-1.113-10.728-3.337-13.973C675.026,209.552,671.853,207.93,667.728,207.93z"/>
		<path fill="#5799D9" d="M711.453,252.212c-5.887,0-10.508-2.168-13.867-6.501c-3.361-4.331-5.042-10.3-5.042-17.9
			c0-7.739,1.75-13.845,5.251-18.318c3.498-4.471,8.28-6.708,14.354-6.708c5.791,0,10.368,2.144,13.729,6.431
			c3.359,4.288,5.04,10.093,5.04,17.414c0,7.925-1.736,14.172-5.213,18.736C722.228,249.928,717.479,252.212,711.453,252.212z
			 M712.009,207.93c-8.526,0-12.952,6.372-13.277,19.116v1.043c0,6.074,1.112,10.765,3.338,14.076
			c2.227,3.313,5.375,4.971,9.455,4.971c4.17,0,7.438-1.806,9.801-5.422c2.362-3.613,3.545-8.595,3.545-14.945
			c0-6.07-1.113-10.728-3.336-13.973C719.309,209.552,716.134,207.93,712.009,207.93z"/>
		<path fill="#5799D9" d="M755.736,252.212c-5.887,0-10.508-2.168-13.868-6.501c-3.361-4.331-5.041-10.3-5.041-17.9
			c0-7.739,1.749-13.845,5.249-18.318c3.5-4.471,8.282-6.708,14.355-6.708c5.792,0,10.368,2.144,13.728,6.431
			c3.361,4.288,5.041,10.093,5.041,17.414c0,7.925-1.737,14.172-5.214,18.736C766.511,249.928,761.76,252.212,755.736,252.212z
			 M756.291,207.93c-8.527,0-12.952,6.372-13.276,19.116v1.043c0,6.074,1.112,10.765,3.338,14.076
			c2.224,3.313,5.375,4.971,9.454,4.971c4.169,0,7.437-1.806,9.802-5.422c2.362-3.613,3.546-8.595,3.546-14.945
			c0-6.07-1.114-10.728-3.338-13.973C763.591,209.552,760.416,207.93,756.291,207.93z"/>
	</g>
</g>
</svg>
