<?xml version="1.0" encoding="utf-8"?>
<!-- Generator: Adobe Illustrator 16.0.0, SVG Export Plug-In . SVG Version: 6.00 Build 0)  -->
<!DOCTYPE svg PUBLIC "-//W3C//DTD SVG 1.1//EN" "http://www.w3.org/Graphics/SVG/1.1/DTD/svg11.dtd">
<svg version="1.1" id="Capa_1" xmlns="http://www.w3.org/2000/svg" xmlns:xlink="http://www.w3.org/1999/xlink" x="0px" y="0px"
	 width="800px" height="450px" viewBox="0 0 800 450" enable-background="new 0 0 800 450" xml:space="preserve">
<g>
	<path fill="#FFFFFF" d="M771.718,252.76c0,12.686-13.801,22.97-30.823,22.97H450.646c-17.021,0-30.822-10.284-30.822-22.97v-55.52
		c0-12.685,13.801-22.97,30.822-22.97h290.248c17.022,0,30.823,10.285,30.823,22.97V252.76z"/>
	<g>
		<path fill="#5799D9" d="M467.149,212.729c-1.079-3.286-4.006-4.957-8.784-5.01v17.263c0.411,0.103,1.051,0.256,1.926,0.462
			c4.006,0.925,6.78,1.773,8.323,2.543c1.54,0.771,2.978,2.029,4.314,3.775c1.593,2.106,2.388,4.598,2.388,7.475
			c0,2.725-0.745,5.253-2.235,7.591c-1.489,2.338-3.466,4.07-5.932,5.199c-2.261,1.079-5.19,1.954-8.784,2.621v6.55
			c0,1.335-0.721,2.004-2.157,2.004c-1.44,0-2.157-0.669-2.157-2.004v-6.55c-3.803-0.258-7.014-0.938-9.633-2.041
			c-2.621-1.104-4.69-2.685-6.203-4.738c-1.518-2.055-2.275-4.317-2.275-6.783c0-2.104,0.515-3.8,1.543-5.084
			c1.026-1.284,2.388-1.927,4.084-1.927c1.129,0,2.079,0.371,2.852,1.116c0.771,0.745,1.154,1.684,1.154,2.812
			c0,2.21-1.335,3.392-4.006,3.545c0.256,2.415,1.502,4.342,3.737,5.779c2.235,1.439,5.149,2.185,8.747,2.234v-19.417l-1.157-0.309
			c-4.161-1.129-6.988-2.029-8.476-2.696c-1.851-0.823-3.288-1.977-4.316-3.469c-1.182-1.693-1.771-3.854-1.771-6.472
			c0-2.672,0.743-5.162,2.235-7.476c1.487-2.31,3.414-3.98,5.779-5.009c2.002-0.873,4.57-1.565,7.706-2.079v-6.166
			c0-1.54,0.717-2.311,2.157-2.311c1.437,0,2.157,0.771,2.157,2.311v6.166c4.622,0.514,8.295,1.798,11.019,3.853
			c2.722,2.055,4.084,4.572,4.084,7.55c0,1.337-0.411,2.456-1.234,3.354c-0.82,0.897-1.849,1.347-3.08,1.347
			c-1.028,0-1.901-0.334-2.621-1.001s-1.079-1.465-1.079-2.388C465.453,214.322,466.018,213.449,467.149,212.729z M454.051,224.057
			V207.72c-2.88,0.105-5.23,0.926-7.052,2.466c-1.826,1.543-2.736,3.494-2.736,5.857c0,2.057,0.617,3.635,1.849,4.738
			c1.234,1.105,3.416,2.069,6.552,2.89C452.919,223.724,453.381,223.852,454.051,224.057z M458.365,231.07v18.491
			c3.133-0.05,5.741-0.973,7.82-2.773c2.08-1.796,3.121-4.057,3.121-6.78c0-2.517-0.745-4.442-2.235-5.779
			c-1.49-1.335-3.956-2.313-7.397-2.928C459.469,231.251,459.032,231.173,458.365,231.07z"/>
		<path fill="#5799D9" d="M494.503,211.42l-0.926,12.328c4.009-2.774,8.426-4.161,13.254-4.161c5.755,0,10.3,1.53,13.641,4.585
			c3.339,3.058,5.007,7.232,5.007,12.522c0,5.754-1.991,10.417-5.97,13.986c-3.983,3.569-9.184,5.355-15.604,5.355
			c-5.293,0-9.775-1.3-13.447-3.894c-3.673-2.591-5.509-5.764-5.509-9.514c0-1.852,0.59-3.404,1.771-4.663
			c1.181-1.259,2.621-1.889,4.316-1.889c1.335,0,2.426,0.386,3.273,1.156c0.848,0.77,1.271,1.799,1.271,3.083
			c0,0.873-0.296,1.63-0.885,2.272c-0.593,0.645-1.3,0.963-2.12,0.963c-0.617,0.053-0.926,0.23-0.926,0.539
			c0,1.696,1.35,3.227,4.047,4.586c2.696,1.361,5.714,2.042,9.055,2.042c4.108,0,7.485-1.272,10.132-3.813
			c2.646-2.543,3.968-5.792,3.968-9.75c0-3.8-1.116-6.792-3.352-8.975c-2.234-2.185-5.305-3.276-9.208-3.276
			c-4.778,0-8.578,1.388-11.403,4.162c-1.131,1.078-1.926,1.785-2.39,2.119c-0.462,0.334-1.054,0.552-1.771,0.654h-0.309
			c-2.004,0-3.005-1.128-3.005-3.391c0-0.104,0.025-0.206,0.075-0.309l1.079-14.872c0.053-0.82,0.103-2.235,0.155-4.237
			c0.05-2.824,0.256-4.56,0.617-5.202c0.358-0.642,1.31-0.963,2.85-0.963c0.617,0,1.078,0,1.387,0h3.777h4.468h9.479
			c1.489,0,2.618-0.025,3.391-0.078c1.54-0.1,2.592-0.152,3.158-0.152c2.055,0,3.083,1.515,3.083,4.545l-0.078,0.539
			c0,1.337,0.206,2.905,0.617,4.701c0.206,0.616,0.309,1.184,0.309,1.695c0,1.646-0.875,2.466-2.621,2.466
			c-1.643,0-2.516-1.207-2.619-3.622c-0.103-2.875-1.361-4.314-3.774-4.314H496.66C495.376,208.646,494.656,209.571,494.503,211.42z
			"/>
		<path fill="#5799D9" d="M543.589,211.42l-0.926,12.328c4.009-2.774,8.426-4.161,13.255-4.161c5.754,0,10.299,1.53,13.641,4.585
			c3.338,3.058,5.006,7.232,5.006,12.522c0,5.754-1.991,10.417-5.97,13.986c-3.983,3.569-9.183,5.355-15.604,5.355
			c-5.292,0-9.774-1.3-13.447-3.894c-3.672-2.591-5.508-5.764-5.508-9.514c0-1.852,0.589-3.404,1.771-4.663s2.621-1.889,4.317-1.889
			c1.334,0,2.425,0.386,3.272,1.156c0.849,0.77,1.272,1.799,1.272,3.083c0,0.873-0.296,1.63-0.886,2.272
			c-0.592,0.645-1.3,0.963-2.119,0.963c-0.617,0.053-0.926,0.23-0.926,0.539c0,1.696,1.35,3.227,4.046,4.586
			c2.696,1.361,5.714,2.042,9.055,2.042c4.109,0,7.485-1.272,10.132-3.813c2.646-2.543,3.968-5.792,3.968-9.75
			c0-3.8-1.116-6.792-3.351-8.975c-2.235-2.185-5.306-3.276-9.208-3.276c-4.779,0-8.579,1.388-11.403,4.162
			c-1.132,1.078-1.927,1.785-2.391,2.119c-0.462,0.334-1.054,0.552-1.771,0.654h-0.309c-2.005,0-3.006-1.128-3.006-3.391
			c0-0.104,0.025-0.206,0.076-0.309l1.078-14.872c0.053-0.82,0.103-2.235,0.155-4.237c0.051-2.824,0.256-4.56,0.617-5.202
			c0.358-0.642,1.31-0.963,2.85-0.963c0.617,0,1.079,0,1.387,0h3.778h4.467h9.479c1.49,0,2.619-0.025,3.392-0.078
			c1.54-0.1,2.591-0.152,3.158-0.152c2.054,0,3.082,1.515,3.082,4.545l-0.077,0.539c0,1.337,0.205,2.905,0.616,4.701
			c0.206,0.616,0.309,1.184,0.309,1.695c0,1.646-0.875,2.466-2.621,2.466c-1.643,0-2.516-1.207-2.618-3.622
			c-0.104-2.875-1.362-4.314-3.775-4.314h-16.106C544.462,208.646,543.742,209.571,543.589,211.42z"/>
		<path fill="#5799D9" d="M588.82,255.649c-1.337,0-2.466-0.474-3.392-1.425c-0.923-0.95-1.387-2.092-1.387-3.429
			c0-1.334,0.464-2.479,1.387-3.429c0.926-0.951,2.055-1.425,3.392-1.425c1.334,0,2.466,0.474,3.391,1.425
			c0.924,0.95,1.388,2.095,1.388,3.429c0,1.337-0.464,2.479-1.388,3.429C591.286,255.176,590.154,255.649,588.82,255.649z"/>
		<path fill="#5799D9" d="M623.573,256.036c-6.524,0-11.648-2.4-15.374-7.204c-3.725-4.804-5.586-11.418-5.586-19.844
			c0-8.578,1.939-15.346,5.819-20.306c3.878-4.956,9.181-7.435,15.911-7.435c6.421,0,11.493,2.376,15.218,7.129
			c3.726,4.751,5.589,11.185,5.589,19.302c0,8.784-1.927,15.708-5.779,20.767C635.519,253.505,630.251,256.036,623.573,256.036z
			 M624.19,206.95c-9.454,0-14.36,7.063-14.719,21.19v1.156c0,6.729,1.233,11.933,3.699,15.604s5.958,5.509,10.48,5.509
			c4.623,0,8.245-2.002,10.863-6.011c2.622-4.006,3.931-9.529,3.931-16.567c0-6.728-1.231-11.893-3.699-15.486
			C632.28,208.748,628.761,206.95,624.19,206.95z"/>
		<path fill="#5799D9" d="M672.657,256.036c-6.524,0-11.648-2.4-15.374-7.204c-3.725-4.804-5.586-11.418-5.586-19.844
			c0-8.578,1.939-15.346,5.819-20.306c3.878-4.956,9.181-7.435,15.911-7.435c6.421,0,11.493,2.376,15.218,7.129
			c3.725,4.751,5.589,11.185,5.589,19.302c0,8.784-1.927,15.708-5.779,20.767C684.603,253.505,679.335,256.036,672.657,256.036z
			 M673.274,206.95c-9.454,0-14.36,7.063-14.719,21.19v1.156c0,6.729,1.233,11.933,3.699,15.604s5.958,5.509,10.48,5.509
			c4.623,0,8.245-2.002,10.863-6.011c2.621-4.006,3.931-9.529,3.931-16.567c0-6.728-1.231-11.893-3.7-15.486
			C681.364,208.748,677.845,206.95,673.274,206.95z"/>
		<path fill="#5799D9" d="M721.743,256.036c-6.523,0-11.648-2.4-15.373-7.204c-3.726-4.804-5.587-11.418-5.587-19.844
			c0-8.578,1.939-15.346,5.82-20.306c3.877-4.956,9.18-7.435,15.91-7.435c6.422,0,11.493,2.376,15.218,7.129
			c3.726,4.751,5.589,11.185,5.589,19.302c0,8.784-1.926,15.708-5.779,20.767C733.688,253.505,728.421,256.036,721.743,256.036z
			 M722.36,206.95c-9.454,0-14.36,7.063-14.719,21.19v1.156c0,6.729,1.234,11.933,3.7,15.604c2.465,3.672,5.957,5.509,10.479,5.509
			c4.623,0,8.245-2.002,10.864-6.011c2.621-4.006,3.93-9.529,3.93-16.567c0-6.728-1.231-11.893-3.699-15.486
			C730.45,208.748,726.931,206.95,722.36,206.95z"/>
	</g>
	<g>
		<path fill="#5799D9" d="M54.99,241.813c2.389,0,4.748-0.454,7.081-1.367c2.333-0.908,4.238-2.357,5.718-4.35
			c1.136-1.479,1.89-3,2.26-4.564c0.37-1.565,0.555-3.201,0.555-4.907c0-1.139,0.226-2.092,0.683-2.859
			c0.454-0.768,1.335-1.151,2.645-1.151c1.308,0,2.231,0.356,2.773,1.066c0.541,0.712,0.81,1.665,0.81,2.859
			c0,3.241-0.612,6.186-1.833,8.829c-1.224,2.646-2.874,4.882-4.949,6.7c-2.077,1.821-4.522,3.229-7.338,4.222
			c-2.816,0.996-5.817,1.495-9.003,1.495c-4.436,0-8.291-0.825-11.561-2.474c-3.272-1.65-5.987-3.867-8.148-6.657
			c-2.163-2.784-3.769-6-4.821-9.642c-1.054-3.638-1.579-7.423-1.579-11.348c0-3.582,0.455-7.279,1.366-11.093
			c0.909-3.81,2.444-7.254,4.608-10.324c2.388-3.356,5.333-5.915,8.831-7.681c3.498-1.761,7.296-2.644,11.391-2.644
			c3.298,0,6.285,0.554,8.96,1.663c2.673,1.111,4.977,2.944,6.912,5.506l0.171-0.171c-0.058-0.627-0.128-1.281-0.213-1.964
			c-0.086-0.683-0.129-1.337-0.129-1.964c0-0.796,0.242-1.478,0.726-2.047c0.483-0.567,1.151-0.853,2.005-0.853
			c1.023,0,1.777,0.371,2.26,1.109c0.483,0.739,0.727,1.595,0.727,2.559c0,1.708-0.101,3.443-0.299,5.207
			c-0.201,1.764-0.3,3.497-0.3,5.202c0,1.821,0.099,3.444,0.3,4.866c0.198,1.42,0.299,2.787,0.299,4.094
			c0,1.139-0.299,1.977-0.897,2.519c-0.597,0.542-1.379,0.811-2.347,0.811c-1.48,0-2.403-0.369-2.773-1.109
			c-0.37-0.739-0.554-2.134-0.554-4.181c0-1.535-0.114-3.056-0.341-4.565c-0.228-1.505-0.825-3.03-1.792-4.565
			c-1.31-2.102-3.101-3.652-5.375-4.65c-2.275-0.993-4.608-1.492-6.996-1.492c-3.584,0-6.57,0.739-8.959,2.22
			c-2.39,1.479-4.31,3.398-5.759,5.759c-1.451,2.36-2.475,5.021-3.072,7.977c-0.598,2.96-0.896,5.917-0.896,8.875
			c0,2.899,0.312,5.845,0.939,8.829c0.625,2.987,1.663,5.689,3.114,8.107c1.45,2.418,3.384,4.38,5.802,5.89
			C48.404,241.059,51.406,241.813,54.99,241.813z"/>
		<path fill="#5799D9" d="M84.682,224.493c0-3.13,0.413-6.115,1.238-8.96c0.824-2.845,2.076-5.333,3.754-7.467
			c1.677-2.133,3.798-3.841,6.357-5.12s5.546-1.919,8.958-1.919c3.072,0,5.944,0.469,8.618,1.407s5.005,2.634,6.997,5.077
			c1.877,2.333,3.242,4.979,4.096,7.937c0.853,2.957,1.279,5.887,1.279,8.789c0,3.241-0.455,6.301-1.365,9.171
			c-0.91,2.874-2.248,5.375-4.011,7.51c-1.763,2.132-3.955,3.811-6.569,5.032c-2.618,1.224-5.662,1.836-9.13,1.836
			c-3.413,0-6.387-0.627-8.916-1.876c-2.532-1.252-4.638-2.945-6.315-5.077c-1.678-2.135-2.93-4.61-3.754-7.425
			C85.094,230.594,84.682,227.621,84.682,224.493z M91.764,224.237c0,2.103,0.227,4.209,0.682,6.312
			c0.455,2.106,1.195,4.013,2.219,5.719c1.024,1.706,2.374,3.085,4.053,4.139c1.677,1.054,3.768,1.578,6.271,1.578
			c2.616,0,4.821-0.515,6.613-1.538c1.791-1.023,3.227-2.388,4.308-4.094c1.08-1.705,1.849-3.642,2.304-5.804
			c0.455-2.16,0.684-4.38,0.684-6.652c0-1.992-0.229-4.084-0.684-6.273c-0.455-2.19-1.252-4.137-2.389-5.845
			c-1.138-1.818-2.631-3.101-4.479-3.84c-1.85-0.738-3.797-1.109-5.846-1.109c-2.389,0-4.479,0.441-6.271,1.322
			c-1.792,0.883-3.314,2.375-4.565,4.479c-0.968,1.65-1.693,3.529-2.176,5.632C92.005,220.369,91.764,222.358,91.764,224.237z"/>
		<path fill="#5799D9" d="M194.496,223.382c-0.057-3.013-0.142-5.36-0.256-7.038c-0.114-1.679-0.37-3-0.768-3.969
			c-0.798-1.878-2.021-3.268-3.668-4.181c-1.652-0.908-3.472-1.365-5.462-1.365c-1.821,0-3.556,0.457-5.205,1.365
			c-1.65,0.913-2.872,2.217-3.668,3.925c-0.228,0.512-0.441,1.097-0.64,1.749c-0.201,0.657-0.356,1.425-0.469,2.305
			c-0.116,0.881-0.215,1.962-0.3,3.243c-0.085,1.279-0.128,2.83-0.128,4.65v9.811c0,2.616,0.17,4.48,0.513,5.592
			c0.341,1.108,0.995,1.66,1.961,1.66c0.739,0,1.421-0.085,2.048-0.256c0.626-0.171,1.25-0.256,1.877-0.256
			c0.853,0,1.549,0.271,2.091,0.813c0.539,0.542,0.81,1.209,0.81,2.004c0,2.104-1.224,3.158-3.668,3.158
			c-1.423,0-2.745-0.158-3.968-0.472c-1.224-0.311-2.802-0.466-4.736-0.466c-2.048,0-3.698,0.155-4.949,0.466
			c-1.252,0.313-2.645,0.472-4.18,0.472c-2.447,0-3.67-1.054-3.67-3.158c0-0.795,0.27-1.462,0.812-2.004
			c0.539-0.542,1.236-0.813,2.089-0.813c0.626,0,1.25,0.085,1.877,0.256c0.626,0.171,1.308,0.256,2.048,0.256
			c1.08,0,1.762-0.524,2.048-1.575c0.284-1.054,0.426-2.945,0.426-5.677v-12.886c0-2.047-0.03-3.768-0.085-5.162
			c-0.058-1.39-0.229-2.57-0.512-3.539c-0.229-0.683-0.598-1.352-1.11-2.004c-0.512-0.655-1.139-1.239-1.877-1.751
			c-0.74-0.512-1.565-0.923-2.475-1.236c-0.911-0.313-1.876-0.47-2.901-0.47c-1.934,0-3.754,0.412-5.461,1.237
			c-1.706,0.825-3.044,2.089-4.01,3.797c-0.398,0.74-0.74,1.438-1.024,2.09c-0.285,0.657-0.512,1.41-0.682,2.263
			c-0.171,0.853-0.286,1.876-0.341,3.07c-0.058,1.193-0.085,2.704-0.085,4.524v10.066c0,2.616,0.171,4.48,0.512,5.592
			c0.341,1.108,0.995,1.66,1.963,1.66c0.739,0,1.421-0.085,2.048-0.256c0.625-0.171,1.25-0.256,1.876-0.256
			c0.854,0,1.55,0.271,2.091,0.813s0.81,1.209,0.81,2.004c0,2.104-1.223,3.158-3.668,3.158c-1.422,0-2.746-0.158-3.968-0.472
			c-1.223-0.311-2.802-0.466-4.734-0.466c-2.048,0-3.699,0.155-4.949,0.466c-1.251,0.313-2.645,0.472-4.181,0.472
			c-2.447,0-3.668-1.054-3.668-3.158c0-0.795,0.268-1.462,0.81-2.004c0.539-0.542,1.236-0.813,2.091-0.813
			c0.625,0,1.25,0.085,1.877,0.256c0.625,0.171,1.307,0.256,2.047,0.256c1.08,0,1.763-0.524,2.048-1.575
			c0.285-1.054,0.426-2.945,0.426-5.677v-18.94c0-2.96-0.17-4.906-0.512-5.845c-0.341-0.94-0.996-1.409-1.962-1.409
			c-0.74,0-1.422,0.085-2.047,0.256c-0.627,0.17-1.253,0.256-1.877,0.256c-0.854,0-1.552-0.269-2.091-0.811
			c-0.542-0.539-0.81-1.207-0.81-2.004c0-0.798,0.341-1.522,1.023-2.178c0.683-0.652,1.394-0.98,2.134-0.98
			c0.454,0,0.839,0.042,1.151,0.128c0.312,0.085,0.641,0.2,0.982,0.341c0.341,0.144,0.696,0.256,1.066,0.341
			c0.37,0.086,0.839,0.131,1.409,0.131c0.625,0,1.151-0.045,1.578-0.131c0.426-0.085,0.839-0.197,1.238-0.341
			c0.397-0.141,0.795-0.256,1.194-0.341c0.397-0.086,0.854-0.128,1.366-0.128c0.91,0,1.45,0.441,1.621,1.321
			c0.17,0.884,0.256,2.147,0.256,3.798h0.172c1.649-2.162,3.483-3.752,5.503-4.778c2.018-1.023,4.393-1.535,7.124-1.535
			c2.56,0,4.963,0.499,7.21,1.492c2.246,0.996,4.023,2.604,5.333,4.821c1.649-2.272,3.627-3.896,5.931-4.863
			c2.304-0.966,4.849-1.45,7.637-1.45c2.332,0,4.678,0.329,7.039,0.98c2.36,0.655,4.281,1.922,5.761,3.798
			c1.706,2.162,2.7,4.365,2.986,6.612c0.284,2.247,0.427,4.681,0.427,7.294v14.165c0,2.616,0.17,4.48,0.512,5.592
			c0.341,1.108,0.994,1.66,1.962,1.66c0.739,0,1.421-0.085,2.048-0.256c0.625-0.171,1.25-0.256,1.876-0.256
			c0.854,0,1.55,0.271,2.091,0.813s0.811,1.209,0.811,2.004c0,2.104-1.223,3.158-3.668,3.158c-1.422,0-2.746-0.158-3.967-0.472
			c-1.224-0.311-2.803-0.466-4.736-0.466c-2.048,0-3.699,0.155-4.949,0.466c-1.252,0.313-2.645,0.472-4.182,0.472
			c-2.446,0-3.668-1.054-3.668-3.158c0-0.795,0.269-1.462,0.81-2.004c0.541-0.542,1.238-0.813,2.091-0.813
			c0.625,0,1.25,0.085,1.877,0.256c0.625,0.171,1.307,0.256,2.047,0.256c1.08,0,1.764-0.524,2.048-1.575
			c0.285-1.054,0.426-2.945,0.426-5.677V223.382z"/>
		<path fill="#5799D9" d="M222.142,214.852c0-2.562-0.157-4.396-0.469-5.504c-0.313-1.111-0.98-1.665-2.005-1.665
			c-0.74,0-1.422,0.085-2.047,0.256c-0.627,0.17-1.253,0.256-1.877,0.256c-0.854,0-1.551-0.269-2.091-0.811
			c-0.542-0.539-0.81-1.207-0.81-2.004c0-0.969,0.384-1.736,1.151-2.306c0.768-0.566,1.634-0.853,2.603-0.853
			c0.682,0,1.421,0.158,2.219,0.469c0.796,0.313,1.622,0.472,2.474,0.472c0.796,0,1.607-0.158,2.432-0.472
			c0.824-0.311,1.634-0.469,2.432-0.469c0.625,0,1.151,0.2,1.578,0.597c0.428,0.399,0.641,1.081,0.641,2.05v2.814h0.17
			c1.365-2.273,3.242-3.953,5.631-5.035c2.389-1.081,4.864-1.62,7.424-1.62c3.354,0,6.257,0.585,8.703,1.748
			c2.446,1.169,4.48,2.76,6.102,4.779c1.621,2.019,2.815,4.395,3.583,7.126c0.768,2.729,1.151,5.659,1.151,8.787
			c0,2.676-0.341,5.49-1.023,8.448c-0.682,2.957-1.792,5.546-3.327,7.763c-1.821,2.674-4.154,4.696-6.997,6.061
			c-2.845,1.364-5.859,2.047-9.045,2.047c-2.333,0-4.579-0.427-6.74-1.279c-2.162-0.853-3.869-2.189-5.12-4.011h-0.17v6.74
			c0,2.901,0.213,4.791,0.64,5.674c0.426,0.883,1.037,1.324,1.834,1.324c0.739,0,1.421-0.086,2.048-0.256
			c0.625-0.171,1.25-0.256,1.876-0.256c0.854,0,1.55,0.269,2.09,0.808c0.541,0.542,0.811,1.209,0.811,2.007
			c0,0.968-0.384,1.735-1.151,2.303c-0.768,0.569-1.636,0.853-2.603,0.853c-1.593,0-3.129-0.155-4.608-0.467
			c-1.48-0.315-2.958-0.472-4.438-0.472c-1.535,0-3.029,0.156-4.479,0.472c-1.451,0.312-2.831,0.467-4.139,0.467
			c-0.968,0-1.835-0.283-2.603-0.853c-0.768-0.567-1.151-1.335-1.151-2.303c0-0.798,0.269-1.465,0.81-2.007
			c0.54-0.539,1.237-0.808,2.091-0.808c0.625,0,1.25,0.085,1.877,0.256c0.625,0.17,1.307,0.256,2.047,0.256
			c0.967,0,1.622-0.512,1.963-1.535c0.341-1.026,0.512-2.905,0.512-5.634V214.852z M241.511,206.829
			c-1.195,0-2.389,0.144-3.584,0.427c-1.194,0.286-2.304,0.725-3.327,1.324c-1.023,0.597-1.92,1.335-2.688,2.218
			s-1.352,1.919-1.75,3.115c-0.512,1.535-0.882,3.226-1.109,5.077c-0.228,1.846-0.341,4.364-0.341,7.55
			c0,1.992,0.098,3.883,0.298,5.674c0.198,1.791,0.867,3.512,2.005,5.162c1.136,1.65,2.502,2.83,4.095,3.542
			c1.593,0.713,3.356,1.066,5.29,1.066c2.616,0,4.807-0.499,6.57-1.492c1.762-0.996,3.171-2.333,4.224-4.014
			c1.051-1.676,1.791-3.582,2.218-5.714c0.428-2.135,0.641-4.34,0.641-6.612c0-2.05-0.186-4.111-0.556-6.188
			c-0.37-2.074-1.023-3.938-1.961-5.589c-0.939-1.647-2.219-2.987-3.84-4.011C246.076,207.341,244.013,206.829,241.511,206.829z"/>
		<path fill="#5799D9" d="M276.153,214.852c0-2.902-0.186-4.821-0.555-5.76c-0.37-0.94-1.039-1.409-2.004-1.409
			c-0.74,0-1.466,0.085-2.176,0.256c-0.712,0.17-1.635,0.256-2.773,0.256c-0.854,0-1.551-0.269-2.09-0.811
			c-0.542-0.539-0.811-1.207-0.811-2.004c0-0.969,0.396-1.736,1.194-2.306c0.796-0.566,1.677-0.853,2.645-0.853
			c0.796,0,1.564,0.158,2.304,0.469c0.739,0.313,1.622,0.472,2.645,0.472c1.08,0,1.963-0.158,2.645-0.472
			c0.683-0.311,1.421-0.469,2.219-0.469c1.138,0,1.835,0.441,2.091,1.321c0.256,0.884,0.355,2.178,0.298,3.884h0.171
			c1.308-2.163,3-3.768,5.077-4.821c2.076-1.051,4.395-1.578,6.955-1.578c1.762,0,3.483,0.256,5.162,0.768
			c1.677,0.512,3.142,1.279,4.394,2.306c1.25,1.023,2.261,2.287,3.03,3.795c0.767,1.508,1.151,3.229,1.151,5.162
			c0,1.081-0.126,2.149-0.38,3.201c-0.253,1.051-0.66,1.991-1.223,2.816c-0.562,0.823-1.293,1.49-2.191,2.002
			c-0.901,0.514-1.997,0.77-3.289,0.77c-1.139,0-2.19-0.368-3.157-1.111c-0.968-0.737-1.451-1.732-1.451-2.984
			c0-0.969,0.342-1.821,1.024-2.559c0.683-0.74,1.506-1.108,2.475-1.108c0.17,0,0.355,0.027,0.554,0.085
			c0.198,0.055,0.384,0.112,0.555,0.171c0.341-0.683,0.512-1.337,0.512-1.965c0-0.966-0.244-1.818-0.729-2.561
			c-0.485-0.737-1.084-1.364-1.8-1.876c-0.715-0.512-1.529-0.896-2.444-1.151c-0.914-0.256-1.8-0.384-2.655-0.384
			c-1.66,0-3.145,0.256-4.459,0.768c-1.314,0.512-2.443,1.395-3.386,2.644c-0.944,1.254-1.672,2.917-2.186,4.991
			c-0.515,2.077-0.771,4.65-0.771,7.724v11.434c0,1.537,0.071,2.773,0.213,3.712s0.341,1.663,0.598,2.175
			c0.256,0.512,0.54,0.853,0.853,1.023c0.313,0.171,0.667,0.256,1.066,0.256c0.739,0,1.421-0.085,2.048-0.256
			c0.626-0.171,1.25-0.256,1.877-0.256c0.853,0,1.549,0.271,2.091,0.813c0.539,0.542,0.81,1.209,0.81,2.004
			c0,0.969-0.384,1.736-1.151,2.306c-0.769,0.566-1.608,0.853-2.517,0.853c-1.48,0-2.874-0.158-4.182-0.472
			c-1.309-0.311-2.846-0.466-4.608-0.466c-0.91,0-1.721,0.04-2.432,0.125s-1.407,0.201-2.091,0.341
			c-0.682,0.144-1.395,0.256-2.132,0.342c-0.74,0.085-1.537,0.13-2.39,0.13c-0.968,0-1.85-0.286-2.645-0.853
			c-0.797-0.569-1.195-1.337-1.195-2.306c0-0.795,0.27-1.462,0.81-2.004s1.238-0.813,2.091-0.813c0.625,0,1.25,0.085,1.877,0.256
			c0.626,0.171,1.308,0.256,2.048,0.256c0.454,0,0.838-0.096,1.151-0.296c0.313-0.201,0.555-0.557,0.726-1.068
			c0.171-0.512,0.299-1.237,0.384-2.175c0.085-0.938,0.128-2.147,0.128-3.627V214.852z"/>
		<path fill="#5799D9" d="M346.119,232.854c0,0.683-0.029,1.551-0.085,2.602c-0.058,1.054-0.015,2.077,0.128,3.072
			c0.142,0.996,0.454,1.849,0.938,2.562c0.483,0.712,1.238,1.065,2.261,1.065c0.91,0,1.579-0.298,2.006-0.896
			c0.426-0.597,0.725-1.309,0.895-2.134c0.171-0.823,0.242-1.693,0.213-2.602c-0.029-0.91-0.042-1.678-0.042-2.303
			c0-0.569,0-1.169,0-1.793c0-0.625,0.071-1.182,0.213-1.663c0.142-0.484,0.398-0.884,0.769-1.194
			c0.369-0.313,0.952-0.472,1.749-0.472c1.195,0,1.991,0.341,2.389,1.023c0.397,0.683,0.598,1.51,0.598,2.476
			c0,3.243-0.073,5.717-0.213,7.423c-0.143,1.705-0.669,3.157-1.579,4.354c-0.853,1.193-1.963,2.001-3.328,2.428
			c-1.366,0.429-2.76,0.643-4.182,0.643c-2.104,0-3.968-0.484-5.588-1.45c-1.622-0.969-2.66-2.531-3.114-4.695
			c-1.48,2.39-3.47,4.068-5.974,5.036c-2.503,0.966-5.12,1.45-7.85,1.45c-1.763,0-3.527-0.171-5.29-0.512s-3.385-0.996-4.864-1.962
			c-1.763-1.139-3.157-2.573-4.18-4.31c-1.024-1.735-1.536-3.682-1.536-5.844c0-2.391,0.469-4.511,1.408-6.359
			c0.938-1.849,2.402-3.338,4.394-4.478c1.877-1.139,3.725-1.863,5.547-2.177c1.82-0.312,3.781-0.612,5.887-0.896
			c1.25-0.113,2.588-0.243,4.01-0.384c1.422-0.141,2.702-0.411,3.84-0.813c1.138-0.396,2.091-1.023,2.858-1.876
			c0.768-0.854,1.151-2.077,1.151-3.668c0-1.422-0.27-2.631-0.81-3.627c-0.541-0.993-1.252-1.791-2.134-2.388
			c-0.881-0.6-1.906-1.026-3.071-1.282c-1.167-0.256-2.375-0.384-3.626-0.384c-1.139,0-2.276,0.171-3.414,0.512
			c-1.138,0.342-2.19,0.798-3.157,1.365c-0.341,0.228-0.755,0.541-1.237,0.938c-0.484,0.401-0.726,0.828-0.726,1.282
			c0,0.112,0.099,0.213,0.298,0.298c0.2,0.086,0.428,0.241,0.684,0.47c0.256,0.228,0.497,0.554,0.725,0.98
			c0.227,0.427,0.341,1.011,0.341,1.751c0,1.31-0.469,2.303-1.407,2.985c-0.939,0.682-2.005,1.022-3.201,1.022
			c-1.48,0-2.73-0.523-3.753-1.577c-1.023-1.051-1.537-2.346-1.537-3.883c0-1.819,0.513-3.484,1.537-4.992
			c1.023-1.507,2.273-2.771,3.753-3.795c1.537-1.081,3.329-1.879,5.375-2.391c2.048-0.512,4.011-0.768,5.889-0.768
			c1.99,0,4.023,0.256,6.1,0.768c2.076,0.512,3.938,1.395,5.589,2.646c2.104,1.65,3.426,3.582,3.968,5.8
			c0.539,2.22,0.781,4.61,0.725,7.169L346.119,232.854z M317.535,234.817c0,1.31,0.256,2.403,0.768,3.284
			c0.512,0.883,1.18,1.623,2.005,2.22c0.824,0.597,1.762,1.023,2.816,1.279c1.052,0.256,2.146,0.384,3.285,0.384
			c1.99,0,3.953-0.344,5.888-1.026c1.933-0.682,3.555-1.846,4.863-3.496c0.967-1.31,1.564-2.645,1.792-4.011
			c0.227-1.365,0.341-2.787,0.341-4.268c0-0.907,0.014-1.818,0.042-2.729c0.029-0.908,0.072-1.821,0.128-2.731
			c-0.796,0.797-1.678,1.407-2.645,1.833c-0.967,0.427-1.961,0.758-2.986,0.983c-1.023,0.226-2.077,0.396-3.157,0.512
			c-1.081,0.115-2.133,0.229-3.157,0.341c-1.139,0.116-2.292,0.286-3.457,0.512c-1.167,0.229-2.232,0.612-3.199,1.154
			c-0.968,0.539-1.764,1.264-2.389,2.172C317.847,232.144,317.535,233.338,317.535,234.817z"/>
		<path fill="#5799D9" d="M370.863,214.852c0-2.902-0.186-4.821-0.556-5.76c-0.37-0.94-1.039-1.409-2.004-1.409
			c-0.74,0-1.466,0.085-2.176,0.256c-0.712,0.17-1.635,0.256-2.773,0.256c-0.854,0-1.551-0.269-2.091-0.811
			c-0.542-0.539-0.81-1.207-0.81-2.004c0-0.969,0.396-1.736,1.194-2.306c0.796-0.566,1.677-0.853,2.645-0.853
			c0.796,0,1.564,0.158,2.304,0.469c0.739,0.313,1.622,0.472,2.645,0.472c1.08,0,1.963-0.158,2.645-0.472
			c0.682-0.311,1.421-0.469,2.219-0.469c1.137,0,1.835,0.441,2.091,1.321c0.256,0.884,0.354,2.178,0.298,3.884h0.17
			c1.308-2.163,3-3.768,5.077-4.821c2.076-1.051,4.395-1.578,6.955-1.578c1.762,0,3.482,0.256,5.162,0.768
			c1.677,0.512,3.142,1.279,4.393,2.306c1.25,1.023,2.262,2.287,3.03,3.795c0.768,1.508,1.152,3.229,1.152,5.162
			c0,1.081-0.127,2.149-0.381,3.201c-0.253,1.051-0.659,1.991-1.223,2.816c-0.562,0.823-1.293,1.49-2.191,2.002
			c-0.9,0.514-1.997,0.77-3.289,0.77c-1.139,0-2.189-0.368-3.157-1.111c-0.968-0.737-1.451-1.732-1.451-2.984
			c0-0.969,0.343-1.821,1.025-2.559c0.682-0.74,1.506-1.108,2.475-1.108c0.17,0,0.355,0.027,0.554,0.085
			c0.198,0.055,0.384,0.112,0.554,0.171c0.341-0.683,0.512-1.337,0.512-1.965c0-0.966-0.243-1.818-0.729-2.561
			c-0.485-0.737-1.085-1.364-1.8-1.876s-1.529-0.896-2.444-1.151c-0.915-0.256-1.8-0.384-2.655-0.384
			c-1.659,0-3.144,0.256-4.458,0.768s-2.443,1.395-3.386,2.644c-0.944,1.254-1.672,2.917-2.186,4.991
			c-0.516,2.077-0.771,4.65-0.771,7.724v11.434c0,1.537,0.072,2.773,0.213,3.712s0.341,1.663,0.598,2.175
			c0.256,0.512,0.54,0.853,0.853,1.023c0.312,0.171,0.667,0.256,1.066,0.256c0.739,0,1.421-0.085,2.048-0.256
			c0.626-0.171,1.25-0.256,1.878-0.256c0.853,0,1.549,0.271,2.09,0.813c0.54,0.542,0.811,1.209,0.811,2.004
			c0,0.969-0.384,1.736-1.151,2.306c-0.769,0.566-1.608,0.853-2.517,0.853c-1.48,0-2.874-0.158-4.182-0.472
			c-1.31-0.311-2.846-0.466-4.608-0.466c-0.911,0-1.721,0.04-2.432,0.125c-0.711,0.085-1.407,0.201-2.091,0.341
			c-0.683,0.144-1.395,0.256-2.132,0.342c-0.74,0.085-1.536,0.13-2.389,0.13c-0.968,0-1.85-0.286-2.645-0.853
			c-0.798-0.569-1.195-1.337-1.195-2.306c0-0.795,0.27-1.462,0.81-2.004c0.541-0.542,1.238-0.813,2.091-0.813
			c0.626,0,1.25,0.085,1.877,0.256c0.626,0.171,1.308,0.256,2.048,0.256c0.454,0,0.838-0.096,1.151-0.296
			c0.312-0.201,0.554-0.557,0.726-1.068c0.17-0.512,0.298-1.237,0.384-2.175c0.085-0.938,0.128-2.147,0.128-3.627V214.852z"/>
	</g>
</g>
</svg>
