<?xml version="1.0" encoding="utf-8"?>
<!-- Generator: Adobe Illustrator 16.0.0, SVG Export Plug-In . SVG Version: 6.00 Build 0)  -->
<!DOCTYPE svg PUBLIC "-//W3C//DTD SVG 1.1//EN" "http://www.w3.org/Graphics/SVG/1.1/DTD/svg11.dtd">
<svg version="1.1" id="Capa_1" xmlns="http://www.w3.org/2000/svg" xmlns:xlink="http://www.w3.org/1999/xlink" x="0px" y="0px"
	 width="800px" height="450px" viewBox="0 0 800 450" enable-background="new 0 0 800 450" xml:space="preserve">
<g>
	<g>
		<path fill="#5799D9" d="M60.383,234.551c2.389,0,4.748-0.455,7.081-1.367c2.333-0.908,4.238-2.357,5.718-4.35
			c1.136-1.479,1.89-3,2.26-4.564c0.37-1.565,0.555-3.201,0.555-4.907c0-1.139,0.226-2.092,0.683-2.859
			c0.454-0.768,1.335-1.151,2.645-1.151c1.308,0,2.231,0.356,2.773,1.066c0.541,0.712,0.81,1.665,0.81,2.859
			c0,3.241-0.612,6.186-1.833,8.829c-1.224,2.646-2.874,4.882-4.949,6.7c-2.077,1.82-4.522,3.229-7.338,4.221
			c-2.816,0.996-5.817,1.496-9.003,1.496c-4.436,0-8.291-0.826-11.561-2.475c-3.272-1.65-5.987-3.867-8.148-6.656
			c-2.163-2.784-3.769-6-4.821-9.642c-1.054-3.638-1.579-7.423-1.579-11.348c0-3.582,0.455-7.279,1.366-11.093
			c0.909-3.81,2.444-7.254,4.608-10.324c2.388-3.356,5.333-5.915,8.831-7.681c3.498-1.761,7.296-2.644,11.391-2.644
			c3.298,0,6.285,0.554,8.96,1.663c2.673,1.111,4.977,2.944,6.912,5.506l0.171-0.171c-0.058-0.627-0.128-1.281-0.213-1.964
			c-0.086-0.683-0.129-1.337-0.129-1.964c0-0.796,0.242-1.478,0.726-2.047c0.483-0.567,1.151-0.853,2.005-0.853
			c1.023,0,1.777,0.371,2.26,1.109c0.483,0.739,0.727,1.595,0.727,2.559c0,1.708-0.101,3.443-0.299,5.207
			c-0.201,1.764-0.3,3.497-0.3,5.202c0,1.821,0.099,3.444,0.3,4.866c0.198,1.42,0.299,2.787,0.299,4.094
			c0,1.139-0.299,1.977-0.897,2.519c-0.597,0.542-1.379,0.811-2.347,0.811c-1.48,0-2.403-0.369-2.773-1.109
			c-0.37-0.739-0.554-2.134-0.554-4.181c0-1.535-0.114-3.056-0.341-4.565c-0.228-1.505-0.825-3.03-1.792-4.565
			c-1.31-2.102-3.101-3.652-5.375-4.65c-2.275-0.993-4.608-1.492-6.996-1.492c-3.584,0-6.57,0.739-8.959,2.22
			c-2.39,1.479-4.31,3.398-5.759,5.759c-1.451,2.36-2.475,5.021-3.072,7.977c-0.598,2.96-0.896,5.917-0.896,8.875
			c0,2.899,0.312,5.845,0.939,8.829c0.625,2.987,1.663,5.689,3.114,8.107c1.45,2.418,3.384,4.38,5.802,5.89
			C53.797,233.795,56.798,234.551,60.383,234.551z"/>
		<path fill="#5799D9" d="M90.074,217.23c0-3.13,0.413-6.115,1.238-8.96c0.824-2.845,2.076-5.333,3.754-7.467
			c1.677-2.133,3.798-3.841,6.357-5.12s5.546-1.919,8.958-1.919c3.072,0,5.944,0.469,8.618,1.407s5.005,2.634,6.997,5.077
			c1.877,2.333,3.242,4.979,4.096,7.937c0.853,2.957,1.279,5.887,1.279,8.789c0,3.241-0.455,6.301-1.365,9.171
			c-0.91,2.874-2.248,5.374-4.011,7.509c-1.763,2.133-3.955,3.811-6.569,5.033c-2.618,1.223-5.662,1.836-9.13,1.836
			c-3.413,0-6.387-0.627-8.916-1.877c-2.532-1.252-4.638-2.945-6.315-5.076c-1.678-2.135-2.93-4.611-3.754-7.425
			C90.487,223.331,90.074,220.358,90.074,217.23z M97.157,216.975c0,2.103,0.227,4.209,0.682,6.312
			c0.455,2.106,1.195,4.013,2.219,5.718c1.024,1.707,2.374,3.086,4.053,4.139c1.677,1.055,3.768,1.578,6.271,1.578
			c2.616,0,4.821-0.514,6.613-1.537c1.791-1.023,3.227-2.389,4.308-4.094c1.08-1.705,1.849-3.642,2.304-5.804
			c0.455-2.16,0.684-4.38,0.684-6.652c0-1.992-0.229-4.084-0.684-6.273c-0.455-2.19-1.252-4.137-2.389-5.845
			c-1.138-1.818-2.631-3.101-4.479-3.84c-1.85-0.738-3.797-1.109-5.846-1.109c-2.389,0-4.479,0.441-6.271,1.322
			c-1.792,0.883-3.314,2.375-4.565,4.479c-0.968,1.65-1.693,3.529-2.176,5.632C97.397,213.106,97.157,215.096,97.157,216.975z"/>
		<path fill="#5799D9" d="M199.888,216.119c-0.057-3.013-0.142-5.36-0.256-7.038c-0.114-1.679-0.37-3-0.768-3.969
			c-0.798-1.878-2.021-3.268-3.668-4.181c-1.652-0.908-3.472-1.365-5.462-1.365c-1.821,0-3.556,0.457-5.205,1.365
			c-1.65,0.913-2.872,2.217-3.668,3.925c-0.228,0.512-0.441,1.097-0.64,1.749c-0.201,0.657-0.356,1.425-0.469,2.305
			c-0.116,0.881-0.215,1.962-0.3,3.243c-0.085,1.279-0.128,2.83-0.128,4.65v9.811c0,2.616,0.17,4.479,0.513,5.591
			c0.341,1.109,0.995,1.66,1.961,1.66c0.739,0,1.421-0.084,2.048-0.256c0.626-0.17,1.25-0.256,1.877-0.256
			c0.853,0,1.549,0.271,2.091,0.813c0.539,0.543,0.81,1.209,0.81,2.004c0,2.105-1.224,3.158-3.668,3.158
			c-1.423,0-2.745-0.158-3.968-0.471c-1.224-0.311-2.802-0.467-4.736-0.467c-2.048,0-3.698,0.156-4.949,0.467
			c-1.252,0.313-2.645,0.471-4.18,0.471c-2.447,0-3.67-1.053-3.67-3.158c0-0.795,0.27-1.461,0.812-2.004
			c0.539-0.541,1.236-0.813,2.089-0.813c0.626,0,1.25,0.086,1.877,0.256c0.626,0.172,1.308,0.256,2.048,0.256
			c1.08,0,1.762-0.523,2.048-1.574c0.284-1.055,0.426-2.945,0.426-5.677v-12.886c0-2.047-0.03-3.768-0.085-5.162
			c-0.058-1.39-0.229-2.57-0.512-3.539c-0.229-0.683-0.598-1.352-1.11-2.004c-0.512-0.655-1.139-1.239-1.877-1.751
			c-0.74-0.512-1.565-0.923-2.475-1.236c-0.911-0.313-1.876-0.47-2.901-0.47c-1.934,0-3.754,0.412-5.461,1.237
			c-1.706,0.825-3.044,2.089-4.01,3.797c-0.398,0.74-0.74,1.438-1.024,2.09c-0.285,0.657-0.512,1.41-0.682,2.263
			c-0.171,0.853-0.286,1.876-0.341,3.07c-0.058,1.193-0.085,2.704-0.085,4.524v10.066c0,2.616,0.171,4.479,0.512,5.591
			c0.341,1.109,0.995,1.66,1.963,1.66c0.739,0,1.421-0.084,2.048-0.256c0.625-0.17,1.25-0.256,1.876-0.256
			c0.854,0,1.55,0.271,2.091,0.813c0.541,0.543,0.81,1.209,0.81,2.004c0,2.105-1.223,3.158-3.668,3.158
			c-1.422,0-2.746-0.158-3.968-0.471c-1.223-0.311-2.802-0.467-4.734-0.467c-2.048,0-3.699,0.156-4.949,0.467
			c-1.251,0.313-2.645,0.471-4.181,0.471c-2.447,0-3.668-1.053-3.668-3.158c0-0.795,0.268-1.461,0.81-2.004
			c0.539-0.541,1.236-0.813,2.091-0.813c0.625,0,1.25,0.086,1.877,0.256c0.625,0.172,1.307,0.256,2.047,0.256
			c1.08,0,1.763-0.523,2.048-1.574c0.285-1.055,0.426-2.945,0.426-5.677v-18.94c0-2.96-0.17-4.906-0.512-5.845
			c-0.341-0.94-0.996-1.409-1.962-1.409c-0.74,0-1.422,0.085-2.047,0.256c-0.627,0.17-1.253,0.256-1.877,0.256
			c-0.854,0-1.552-0.269-2.091-0.811c-0.542-0.539-0.81-1.207-0.81-2.004c0-0.798,0.341-1.522,1.023-2.178
			c0.683-0.652,1.394-0.98,2.134-0.98c0.454,0,0.839,0.042,1.151,0.128c0.312,0.085,0.641,0.2,0.982,0.341
			c0.341,0.144,0.696,0.256,1.066,0.341c0.37,0.086,0.839,0.131,1.409,0.131c0.625,0,1.151-0.045,1.578-0.131
			c0.426-0.085,0.839-0.197,1.238-0.341c0.397-0.141,0.795-0.256,1.194-0.341c0.397-0.086,0.854-0.128,1.366-0.128
			c0.91,0,1.45,0.441,1.621,1.321c0.17,0.884,0.256,2.147,0.256,3.798h0.172c1.649-2.162,3.483-3.752,5.503-4.778
			c2.018-1.023,4.393-1.535,7.124-1.535c2.56,0,4.963,0.499,7.21,1.492c2.246,0.996,4.023,2.604,5.333,4.821
			c1.649-2.272,3.627-3.896,5.931-4.863c2.304-0.966,4.849-1.45,7.637-1.45c2.332,0,4.678,0.329,7.039,0.98
			c2.36,0.655,4.281,1.922,5.761,3.798c1.706,2.162,2.7,4.365,2.986,6.612c0.284,2.247,0.427,4.681,0.427,7.294v14.165
			c0,2.616,0.17,4.479,0.512,5.591c0.341,1.109,0.994,1.66,1.962,1.66c0.739,0,1.421-0.084,2.048-0.256
			c0.625-0.17,1.25-0.256,1.876-0.256c0.854,0,1.55,0.271,2.091,0.813c0.541,0.543,0.811,1.209,0.811,2.004
			c0,2.105-1.223,3.158-3.668,3.158c-1.422,0-2.746-0.158-3.967-0.471c-1.224-0.311-2.803-0.467-4.736-0.467
			c-2.048,0-3.699,0.156-4.949,0.467c-1.252,0.313-2.645,0.471-4.182,0.471c-2.446,0-3.668-1.053-3.668-3.158
			c0-0.795,0.269-1.461,0.81-2.004c0.541-0.541,1.238-0.813,2.091-0.813c0.625,0,1.25,0.086,1.877,0.256
			c0.625,0.172,1.307,0.256,2.047,0.256c1.08,0,1.764-0.523,2.048-1.574c0.285-1.055,0.426-2.945,0.426-5.677V216.119z"/>
		<path fill="#5799D9" d="M227.534,207.589c0-2.562-0.157-4.396-0.469-5.504c-0.313-1.111-0.98-1.665-2.005-1.665
			c-0.74,0-1.422,0.085-2.047,0.256c-0.627,0.17-1.253,0.256-1.877,0.256c-0.854,0-1.551-0.269-2.091-0.811
			c-0.542-0.539-0.81-1.207-0.81-2.004c0-0.969,0.384-1.736,1.151-2.306c0.768-0.566,1.634-0.853,2.603-0.853
			c0.682,0,1.421,0.158,2.219,0.469c0.796,0.313,1.622,0.472,2.474,0.472c0.796,0,1.607-0.158,2.432-0.472
			c0.824-0.311,1.634-0.469,2.432-0.469c0.625,0,1.151,0.2,1.578,0.597c0.428,0.399,0.641,1.081,0.641,2.05v2.814h0.17
			c1.365-2.273,3.242-3.953,5.631-5.035c2.389-1.081,4.864-1.62,7.424-1.62c3.354,0,6.257,0.585,8.703,1.748
			c2.446,1.169,4.48,2.76,6.102,4.779c1.621,2.019,2.815,4.395,3.583,7.126c0.768,2.729,1.151,5.659,1.151,8.787
			c0,2.676-0.341,5.49-1.023,8.448c-0.682,2.957-1.792,5.546-3.327,7.763c-1.821,2.674-4.154,4.695-6.997,6.061
			c-2.845,1.363-5.859,2.047-9.045,2.047c-2.333,0-4.579-0.428-6.74-1.279c-2.162-0.854-3.869-2.189-5.12-4.012h-0.17v6.74
			c0,2.902,0.213,4.791,0.64,5.674c0.426,0.883,1.037,1.324,1.834,1.324c0.739,0,1.421-0.086,2.048-0.256
			c0.625-0.17,1.25-0.256,1.876-0.256c0.854,0,1.55,0.27,2.09,0.809c0.541,0.541,0.811,1.209,0.811,2.006
			c0,0.969-0.384,1.736-1.151,2.303c-0.768,0.57-1.636,0.854-2.603,0.854c-1.593,0-3.129-0.156-4.608-0.467
			c-1.48-0.316-2.958-0.473-4.438-0.473c-1.535,0-3.029,0.156-4.479,0.473c-1.451,0.311-2.831,0.467-4.139,0.467
			c-0.968,0-1.835-0.283-2.603-0.854c-0.768-0.566-1.151-1.334-1.151-2.303c0-0.797,0.269-1.465,0.81-2.006
			c0.54-0.539,1.237-0.809,2.091-0.809c0.625,0,1.25,0.086,1.877,0.256c0.625,0.17,1.307,0.256,2.047,0.256
			c0.967,0,1.622-0.512,1.963-1.535c0.341-1.025,0.512-2.904,0.512-5.633V207.589z M246.904,199.566
			c-1.195,0-2.389,0.144-3.584,0.427c-1.194,0.286-2.304,0.725-3.327,1.324c-1.023,0.597-1.92,1.335-2.688,2.218
			s-1.352,1.919-1.75,3.115c-0.512,1.535-0.882,3.226-1.109,5.077c-0.228,1.846-0.341,4.364-0.341,7.55
			c0,1.992,0.098,3.883,0.298,5.674c0.198,1.791,0.867,3.512,2.005,5.162c1.136,1.65,2.502,2.83,4.095,3.541
			c1.593,0.713,3.356,1.066,5.29,1.066c2.616,0,4.807-0.498,6.57-1.492c1.762-0.996,3.171-2.332,4.224-4.014
			c1.051-1.675,1.791-3.581,2.218-5.713c0.428-2.135,0.641-4.34,0.641-6.612c0-2.05-0.186-4.111-0.556-6.188
			c-0.37-2.074-1.023-3.938-1.961-5.589c-0.939-1.647-2.219-2.987-3.84-4.011C251.469,200.078,249.406,199.566,246.904,199.566z"/>
		<path fill="#5799D9" d="M281.545,207.589c0-2.902-0.186-4.821-0.555-5.76c-0.37-0.94-1.039-1.409-2.004-1.409
			c-0.74,0-1.466,0.085-2.176,0.256c-0.712,0.17-1.635,0.256-2.773,0.256c-0.854,0-1.551-0.269-2.09-0.811
			c-0.542-0.539-0.811-1.207-0.811-2.004c0-0.969,0.396-1.736,1.194-2.306c0.796-0.566,1.677-0.853,2.645-0.853
			c0.796,0,1.564,0.158,2.304,0.469c0.739,0.313,1.622,0.472,2.645,0.472c1.08,0,1.963-0.158,2.645-0.472
			c0.683-0.311,1.421-0.469,2.219-0.469c1.138,0,1.835,0.441,2.091,1.321c0.256,0.884,0.355,2.178,0.298,3.884h0.171
			c1.308-2.163,3-3.768,5.077-4.821c2.076-1.051,4.395-1.578,6.955-1.578c1.762,0,3.483,0.256,5.162,0.768
			c1.677,0.512,3.142,1.279,4.394,2.306c1.25,1.023,2.261,2.287,3.03,3.795c0.767,1.508,1.151,3.229,1.151,5.162
			c0,1.081-0.126,2.149-0.38,3.201c-0.253,1.051-0.66,1.991-1.223,2.816c-0.562,0.823-1.293,1.49-2.191,2.002
			c-0.901,0.514-1.997,0.77-3.289,0.77c-1.139,0-2.19-0.368-3.157-1.111c-0.968-0.737-1.451-1.732-1.451-2.984
			c0-0.969,0.342-1.821,1.024-2.559c0.683-0.74,1.506-1.108,2.475-1.108c0.17,0,0.355,0.027,0.554,0.085
			c0.198,0.055,0.384,0.112,0.555,0.171c0.341-0.683,0.512-1.337,0.512-1.965c0-0.966-0.244-1.818-0.729-2.561
			c-0.485-0.737-1.084-1.364-1.8-1.876c-0.715-0.512-1.529-0.896-2.444-1.151c-0.914-0.256-1.8-0.384-2.655-0.384
			c-1.66,0-3.145,0.256-4.459,0.768c-1.314,0.512-2.443,1.395-3.386,2.644c-0.944,1.254-1.672,2.917-2.186,4.991
			c-0.515,2.077-0.771,4.65-0.771,7.724V226.7c0,1.537,0.071,2.772,0.213,3.712c0.142,0.938,0.341,1.662,0.598,2.174
			c0.256,0.512,0.54,0.854,0.853,1.023c0.313,0.172,0.667,0.256,1.066,0.256c0.739,0,1.421-0.084,2.048-0.256
			c0.626-0.17,1.25-0.256,1.877-0.256c0.853,0,1.549,0.271,2.091,0.813c0.539,0.543,0.81,1.209,0.81,2.004
			c0,0.969-0.384,1.736-1.151,2.307c-0.769,0.566-1.608,0.852-2.517,0.852c-1.48,0-2.874-0.158-4.182-0.471
			c-1.309-0.311-2.846-0.467-4.608-0.467c-0.91,0-1.721,0.041-2.432,0.125c-0.711,0.086-1.407,0.201-2.091,0.342
			c-0.682,0.143-1.395,0.256-2.132,0.342c-0.74,0.084-1.537,0.129-2.39,0.129c-0.968,0-1.85-0.285-2.645-0.852
			c-0.797-0.57-1.195-1.338-1.195-2.307c0-0.795,0.27-1.461,0.81-2.004c0.541-0.541,1.238-0.813,2.091-0.813
			c0.625,0,1.25,0.086,1.877,0.256c0.626,0.172,1.308,0.256,2.048,0.256c0.454,0,0.838-0.096,1.151-0.295
			c0.313-0.201,0.555-0.557,0.726-1.068c0.171-0.512,0.299-1.238,0.384-2.176c0.085-0.938,0.128-2.146,0.128-3.626V207.589z"/>
		<path fill="#5799D9" d="M351.512,225.591c0,0.683-0.029,1.551-0.085,2.602c-0.058,1.054-0.015,2.077,0.128,3.071
			c0.142,0.996,0.454,1.85,0.938,2.563c0.483,0.711,1.238,1.064,2.261,1.064c0.91,0,1.579-0.297,2.006-0.895
			c0.426-0.598,0.725-1.309,0.895-2.135c0.171-0.822,0.242-1.693,0.213-2.602c-0.029-0.909-0.042-1.677-0.042-2.302
			c0-0.569,0-1.169,0-1.793c0-0.625,0.071-1.182,0.213-1.663c0.142-0.484,0.398-0.884,0.769-1.194
			c0.369-0.313,0.952-0.472,1.749-0.472c1.195,0,1.991,0.341,2.389,1.023c0.397,0.683,0.598,1.51,0.598,2.476
			c0,3.243-0.073,5.716-0.213,7.423c-0.143,1.705-0.669,3.156-1.579,4.354c-0.853,1.193-1.963,2.002-3.328,2.428
			c-1.366,0.43-2.76,0.643-4.182,0.643c-2.104,0-3.968-0.484-5.588-1.449c-1.622-0.969-2.66-2.531-3.114-4.695
			c-1.48,2.389-3.47,4.068-5.974,5.035s-5.12,1.451-7.85,1.451c-1.763,0-3.527-0.172-5.29-0.512
			c-1.763-0.342-3.385-0.996-4.864-1.963c-1.763-1.139-3.157-2.572-4.18-4.309c-1.024-1.736-1.536-3.682-1.536-5.844
			c0-2.391,0.469-4.511,1.408-6.359c0.938-1.849,2.402-3.338,4.394-4.478c1.877-1.139,3.725-1.863,5.547-2.177
			c1.82-0.312,3.781-0.612,5.887-0.896c1.25-0.113,2.588-0.243,4.01-0.384c1.422-0.141,2.702-0.411,3.84-0.813
			c1.138-0.396,2.091-1.023,2.858-1.876c0.768-0.854,1.151-2.077,1.151-3.668c0-1.422-0.27-2.631-0.81-3.627
			c-0.541-0.993-1.252-1.791-2.134-2.388c-0.881-0.6-1.906-1.026-3.071-1.282c-1.167-0.256-2.375-0.384-3.626-0.384
			c-1.139,0-2.276,0.171-3.414,0.512c-1.138,0.342-2.19,0.798-3.157,1.365c-0.341,0.228-0.755,0.541-1.237,0.938
			c-0.484,0.401-0.726,0.828-0.726,1.282c0,0.112,0.099,0.213,0.298,0.298c0.2,0.086,0.428,0.241,0.684,0.47
			c0.256,0.228,0.497,0.554,0.725,0.98c0.227,0.427,0.341,1.011,0.341,1.751c0,1.31-0.469,2.303-1.407,2.985
			c-0.939,0.682-2.005,1.022-3.201,1.022c-1.48,0-2.73-0.523-3.753-1.577c-1.023-1.051-1.537-2.346-1.537-3.883
			c0-1.819,0.513-3.484,1.537-4.992c1.023-1.507,2.273-2.771,3.753-3.795c1.537-1.081,3.329-1.879,5.375-2.391
			c2.048-0.512,4.011-0.768,5.889-0.768c1.99,0,4.023,0.256,6.1,0.768c2.076,0.512,3.938,1.395,5.589,2.646
			c2.104,1.65,3.426,3.582,3.968,5.8c0.539,2.22,0.781,4.61,0.725,7.169L351.512,225.591z M322.927,227.555
			c0,1.309,0.256,2.402,0.768,3.283c0.512,0.883,1.18,1.623,2.005,2.221c0.824,0.596,1.762,1.023,2.816,1.279
			c1.052,0.256,2.146,0.383,3.285,0.383c1.99,0,3.953-0.344,5.888-1.025c1.933-0.682,3.555-1.846,4.863-3.496
			c0.967-1.311,1.564-2.645,1.792-4.011c0.227-1.365,0.341-2.787,0.341-4.268c0-0.907,0.014-1.818,0.042-2.729
			c0.029-0.908,0.072-1.821,0.128-2.731c-0.796,0.797-1.678,1.407-2.645,1.833c-0.967,0.427-1.961,0.758-2.986,0.983
			c-1.023,0.226-2.077,0.396-3.157,0.512c-1.081,0.115-2.133,0.229-3.157,0.341c-1.139,0.116-2.292,0.286-3.457,0.512
			c-1.167,0.229-2.232,0.612-3.199,1.154c-0.968,0.539-1.764,1.264-2.389,2.172C323.24,224.881,322.927,226.075,322.927,227.555z"/>
		<path fill="#5799D9" d="M376.255,207.589c0-2.902-0.186-4.821-0.556-5.76c-0.37-0.94-1.039-1.409-2.004-1.409
			c-0.74,0-1.466,0.085-2.176,0.256c-0.712,0.17-1.635,0.256-2.773,0.256c-0.854,0-1.551-0.269-2.091-0.811
			c-0.542-0.539-0.81-1.207-0.81-2.004c0-0.969,0.396-1.736,1.194-2.306c0.796-0.566,1.677-0.853,2.645-0.853
			c0.796,0,1.564,0.158,2.304,0.469c0.739,0.313,1.622,0.472,2.645,0.472c1.08,0,1.963-0.158,2.645-0.472
			c0.682-0.311,1.421-0.469,2.219-0.469c1.137,0,1.835,0.441,2.091,1.321c0.256,0.884,0.354,2.178,0.298,3.884h0.17
			c1.308-2.163,3-3.768,5.077-4.821c2.076-1.051,4.395-1.578,6.955-1.578c1.762,0,3.482,0.256,5.162,0.768
			c1.677,0.512,3.142,1.279,4.394,2.306c1.25,1.023,2.262,2.287,3.029,3.795s1.152,3.229,1.152,5.162
			c0,1.081-0.127,2.149-0.381,3.201c-0.253,1.051-0.659,1.991-1.223,2.816c-0.562,0.823-1.293,1.49-2.191,2.002
			c-0.9,0.514-1.996,0.77-3.288,0.77c-1.139,0-2.189-0.368-3.157-1.111c-0.968-0.737-1.451-1.732-1.451-2.984
			c0-0.969,0.343-1.821,1.025-2.559c0.682-0.74,1.506-1.108,2.475-1.108c0.17,0,0.355,0.027,0.554,0.085
			c0.198,0.055,0.384,0.112,0.554,0.171c0.341-0.683,0.512-1.337,0.512-1.965c0-0.966-0.243-1.818-0.729-2.561
			c-0.485-0.737-1.085-1.364-1.8-1.876s-1.529-0.896-2.444-1.151c-0.915-0.256-1.8-0.384-2.655-0.384
			c-1.659,0-3.144,0.256-4.458,0.768s-2.443,1.395-3.386,2.644c-0.944,1.254-1.672,2.917-2.186,4.991
			c-0.516,2.077-0.771,4.65-0.771,7.724V226.7c0,1.537,0.072,2.772,0.213,3.712c0.142,0.938,0.341,1.662,0.598,2.174
			c0.256,0.512,0.54,0.854,0.853,1.023c0.312,0.172,0.667,0.256,1.066,0.256c0.739,0,1.421-0.084,2.048-0.256
			c0.626-0.17,1.25-0.256,1.878-0.256c0.853,0,1.549,0.271,2.09,0.813c0.54,0.543,0.811,1.209,0.811,2.004
			c0,0.969-0.384,1.736-1.151,2.307c-0.769,0.566-1.608,0.852-2.517,0.852c-1.48,0-2.874-0.158-4.182-0.471
			c-1.31-0.311-2.846-0.467-4.608-0.467c-0.911,0-1.721,0.041-2.432,0.125c-0.711,0.086-1.407,0.201-2.091,0.342
			c-0.683,0.143-1.395,0.256-2.132,0.342c-0.74,0.084-1.536,0.129-2.389,0.129c-0.968,0-1.85-0.285-2.645-0.852
			c-0.798-0.57-1.195-1.338-1.195-2.307c0-0.795,0.27-1.461,0.81-2.004c0.541-0.541,1.238-0.813,2.091-0.813
			c0.626,0,1.25,0.086,1.877,0.256c0.626,0.172,1.308,0.256,2.048,0.256c0.454,0,0.838-0.096,1.151-0.295
			c0.312-0.201,0.554-0.557,0.726-1.068c0.17-0.512,0.298-1.238,0.384-2.176s0.128-2.146,0.128-3.626V207.589z"/>
	</g>
	<g>
		<path fill="#FFFFFF" d="M766.325,240.375c0,10.889-13.181,19.717-29.439,19.717h-277.22c-16.258,0-29.438-8.828-29.438-19.717
			V192.72c0-10.889,13.181-19.719,29.438-19.719h277.22c16.259,0,29.439,8.831,29.439,19.719V240.375z"/>
		<g>
			<path fill="#5799D9" d="M475.429,202.797c-1.03-3.139-3.827-4.734-8.391-4.785V214.5c0.393,0.098,1.005,0.245,1.841,0.44
				c3.825,0.885,6.476,1.694,7.948,2.43c1.472,0.735,2.845,1.938,4.121,3.605c1.521,2.013,2.28,4.392,2.28,7.139
				c0,2.602-0.711,5.018-2.134,7.25s-3.312,3.889-5.666,4.967c-2.158,1.029-4.958,1.867-8.391,2.504v6.256
				c0,1.273-0.687,1.914-2.061,1.914s-2.06-0.641-2.06-1.914v-6.256c-3.633-0.246-6.698-0.896-9.2-1.951
				c-2.504-1.055-4.479-2.563-5.925-4.525c-1.448-1.963-2.173-4.123-2.173-6.479c0-2.01,0.491-3.629,1.474-4.855
				c0.98-1.228,2.28-1.841,3.899-1.841c1.078,0,1.986,0.354,2.725,1.065c0.735,0.713,1.103,1.608,1.103,2.685
				c0,2.111-1.274,3.24-3.827,3.387c0.245,2.307,1.436,4.146,3.57,5.52c2.135,1.375,4.918,2.088,8.354,2.135v-18.546l-1.104-0.294
				c-3.975-1.079-6.676-1.938-8.096-2.576c-1.768-0.785-3.141-1.887-4.123-3.313c-1.128-1.616-1.691-3.68-1.691-6.181
				c0-2.551,0.709-4.93,2.135-7.139c1.421-2.207,3.261-3.802,5.519-4.784c1.913-0.833,4.366-1.495,7.361-1.986v-5.889
				c0-1.471,0.686-2.206,2.06-2.206s2.061,0.735,2.061,2.206v5.889c4.416,0.492,7.924,1.718,10.525,3.68
				c2.6,1.962,3.9,4.367,3.9,7.211c0,1.277-0.395,2.345-1.18,3.203c-0.783,0.857-1.766,1.286-2.941,1.286
				c-0.983,0-1.816-0.318-2.503-0.956c-0.688-0.637-1.031-1.399-1.031-2.281C473.809,204.318,474.348,203.485,475.429,202.797z
				 M462.918,213.617v-15.604c-2.75,0.101-4.995,0.884-6.734,2.355c-1.744,1.474-2.614,3.337-2.614,5.594
				c0,1.964,0.59,3.472,1.766,4.525c1.179,1.058,3.263,1.977,6.258,2.76C461.837,213.297,462.278,213.42,462.918,213.617z
				 M467.038,220.314v17.662c2.992-0.047,5.483-0.93,7.471-2.648c1.985-1.717,2.979-3.875,2.979-6.477
				c0-2.404-0.712-4.243-2.134-5.52c-1.423-1.275-3.779-2.209-7.065-2.796C468.092,220.488,467.676,220.414,467.038,220.314z"/>
			<path fill="#5799D9" d="M508.914,239.375c4.611,0,8.268-1.826,10.966-5.484c2.696-3.652,4.123-8.669,4.27-15.049
				c-2.748,5.006-7.63,7.508-14.646,7.508c-5.106,0-9.251-1.533-12.438-4.6c-3.191-3.066-4.786-7.053-4.786-11.959
				c0-5.154,1.754-9.433,5.264-12.844c3.508-3.409,7.936-5.115,13.285-5.115c6.083,0,10.867,2.147,14.351,6.44
				c3.484,4.293,5.227,10.194,5.227,17.7c0,8.783-1.939,15.675-5.815,20.681c-3.877,5.004-9.224,7.508-16.045,7.508
				c-4.317,0-7.985-1.029-11.002-3.09c-3.019-2.064-4.527-4.59-4.527-7.584c0-1.42,0.455-2.611,1.363-3.566
				c0.906-0.959,2.024-1.438,3.347-1.438c1.08,0,2.013,0.357,2.799,1.068c0.783,0.711,1.177,1.557,1.177,2.539
				c0,1.424-0.713,2.479-2.135,3.166C501.087,238.004,504.204,239.375,508.914,239.375z M510.975,197.057
				c-3.68,0-6.66,1.153-8.941,3.459c-2.283,2.308-3.423,5.3-3.423,8.98c0,3.581,1.077,6.427,3.239,8.536
				c2.157,2.111,5.053,3.164,8.684,3.164c3.827,0,6.83-1.053,9.017-3.164c2.181-2.109,3.274-4.979,3.274-8.611
				c0-3.728-1.094-6.722-3.274-8.979C517.363,198.185,514.508,197.057,510.975,197.057z"/>
			<path fill="#5799D9" d="M548.438,201.546l-0.884,11.775c3.827-2.649,8.046-3.975,12.659-3.975c5.495,0,9.837,1.462,13.027,4.38
				c3.188,2.92,4.782,6.908,4.782,11.959c0,5.496-1.902,9.949-5.702,13.359c-3.804,3.408-8.771,5.115-14.904,5.115
				c-5.055,0-9.336-1.242-12.843-3.719c-3.508-2.475-5.262-5.504-5.262-9.086c0-1.77,0.563-3.252,1.691-4.455
				c1.128-1.202,2.503-1.804,4.124-1.804c1.274,0,2.315,0.37,3.126,1.105c0.81,0.734,1.215,1.719,1.215,2.945
				c0,0.832-0.283,1.557-0.846,2.17c-0.565,0.615-1.242,0.92-2.025,0.92c-0.589,0.051-0.884,0.221-0.884,0.516
				c0,1.619,1.289,3.08,3.864,4.379c2.575,1.301,5.458,1.951,8.648,1.951c3.925,0,7.15-1.215,9.678-3.643
				c2.526-2.43,3.789-5.531,3.789-9.313c0-3.629-1.065-6.488-3.2-8.572c-2.134-2.086-5.067-3.129-8.795-3.129
				c-4.564,0-8.193,1.325-10.891,3.975c-1.081,1.03-1.841,1.705-2.284,2.025c-0.441,0.317-1.006,0.526-1.691,0.625h-0.294
				c-1.915,0-2.87-1.078-2.87-3.239c0-0.098,0.022-0.196,0.071-0.294l1.03-14.205c0.05-0.783,0.099-2.135,0.149-4.046
				c0.047-2.697,0.244-4.356,0.588-4.969c0.344-0.613,1.252-0.92,2.722-0.92c0.591,0,1.031,0,1.326,0h3.607h4.268h9.053
				c1.424,0,2.502-0.024,3.24-0.075c1.47-0.095,2.475-0.146,3.015-0.146c1.963,0,2.945,1.447,2.945,4.341l-0.074,0.515
				c0,1.277,0.195,2.774,0.59,4.49c0.195,0.589,0.294,1.131,0.294,1.62c0,1.571-0.836,2.355-2.503,2.355
				c-1.57,0-2.403-1.153-2.503-3.46c-0.097-2.746-1.3-4.121-3.604-4.121h-15.384C549.271,198.897,548.582,199.781,548.438,201.546z"
				/>
			<path fill="#5799D9" d="M591.638,243.791c-1.276,0-2.354-0.453-3.238-1.361c-0.882-0.908-1.325-1.998-1.325-3.273
				s0.443-2.369,1.325-3.275c0.884-0.908,1.962-1.361,3.238-1.361c1.274,0,2.355,0.453,3.239,1.361c0.881,0.906,1.325,2,1.325,3.275
				s-0.444,2.365-1.325,3.273C593.993,243.338,592.912,243.791,591.638,243.791z"/>
			<path fill="#5799D9" d="M624.832,244.16c-6.232,0-11.127-2.293-14.686-6.881c-3.556-4.588-5.334-10.906-5.334-18.953
				c0-8.193,1.851-14.657,5.559-19.395c3.703-4.734,8.769-7.101,15.196-7.101c6.133,0,10.977,2.269,14.534,6.809
				c3.559,4.537,5.338,10.682,5.338,18.435c0,8.391-1.84,15.002-5.52,19.834C636.239,241.742,631.209,244.16,624.832,244.16z
				 M625.42,197.277c-9.029,0-13.715,6.747-14.058,20.24v1.104c0,6.429,1.179,11.396,3.534,14.904
				c2.354,3.508,5.689,5.262,10.009,5.262c4.416,0,7.875-1.912,10.376-5.74c2.504-3.826,3.755-9.103,3.755-15.825
				c0-6.426-1.177-11.358-3.534-14.791C633.146,198.995,629.785,197.277,625.42,197.277z"/>
			<path fill="#5799D9" d="M671.711,244.16c-6.23,0-11.125-2.293-14.683-6.881c-3.559-4.588-5.336-10.906-5.336-18.953
				c0-8.193,1.853-14.657,5.559-19.395c3.704-4.734,8.769-7.101,15.195-7.101c6.134,0,10.979,2.269,14.536,6.809
				c3.558,4.537,5.338,10.682,5.338,18.435c0,8.391-1.84,15.002-5.521,19.834C683.12,241.742,678.089,244.16,671.711,244.16z
				 M672.301,197.277c-9.028,0-13.716,6.747-14.059,20.24v1.104c0,6.429,1.18,11.396,3.534,14.904
				c2.355,3.508,5.689,5.262,10.01,5.262c4.415,0,7.875-1.912,10.376-5.74c2.503-3.826,3.754-9.103,3.754-15.825
				c0-6.426-1.177-11.358-3.534-14.791C680.027,198.995,676.667,197.277,672.301,197.277z"/>
			<path fill="#5799D9" d="M718.595,244.16c-6.231,0-11.126-2.293-14.684-6.881s-5.336-10.906-5.336-18.953
				c0-8.193,1.852-14.657,5.56-19.395c3.703-4.734,8.768-7.101,15.195-7.101c6.133,0,10.978,2.269,14.535,6.809
				c3.559,4.537,5.338,10.682,5.338,18.435c0,8.391-1.84,15.002-5.521,19.834C730.004,241.742,724.972,244.16,718.595,244.16z
				 M719.185,197.277c-9.031,0-13.717,6.747-14.06,20.24v1.104c0,6.429,1.179,11.396,3.534,14.904
				c2.354,3.508,5.69,5.262,10.01,5.262c4.416,0,7.875-1.912,10.376-5.74c2.503-3.826,3.754-9.103,3.754-15.825
				c0-6.426-1.176-11.358-3.533-14.791C726.91,198.995,723.548,197.277,719.185,197.277z"/>
		</g>
	</g>
</g>
</svg>
