<?xml version="1.0" encoding="utf-8"?>
<!-- Generator: Adobe Illustrator 16.0.4, SVG Export Plug-In . SVG Version: 6.00 Build 0)  -->
<!DOCTYPE svg PUBLIC "-//W3C//DTD SVG 1.1//EN" "http://www.w3.org/Graphics/SVG/1.1/DTD/svg11.dtd">
<svg version="1.1" id="Capa_1" xmlns="http://www.w3.org/2000/svg" xmlns:xlink="http://www.w3.org/1999/xlink" x="0px" y="0px"
	 width="720px" height="328.286px" viewBox="0 0 720 328.286" enable-background="new 0 0 720 328.286" xml:space="preserve">
<g>
	<path fill="#FFFFFF" d="M42.244,142.663c3.239,0,5.888,1.042,7.938,3.126v-0.696c0-1.289,0.51-1.935,1.536-1.935
		c1.123,0,1.688,0.712,1.688,2.133v0.297c0,0.068-0.05,0.564-0.148,1.489c-0.102,0.928-0.151,2.033-0.151,3.325
		c0,0.162,0.036,0.69,0.101,1.587l0.149,1.983c0.031,0.167,0.05,0.398,0.05,0.695c0,1.587-0.612,2.382-1.836,2.382
		c-1.29,0-1.936-0.664-1.936-1.987v-0.246l0.101-1.34c0.032-0.463,0.049-0.826,0.049-1.091c0-1.983-0.668-3.54-2.009-4.664
		c-1.339-1.125-3.186-1.689-5.53-1.689c-2.151,0-3.861,0.532-5.133,1.59c-1.275,1.059-1.911,2.481-1.911,4.266
		c0,2.083,0.942,3.622,2.826,4.613c1.057,0.53,2.909,1.011,5.556,1.439c3.937,0.628,6.63,1.489,8.088,2.579
		c2.181,1.621,3.271,3.918,3.271,6.895c0,3.109-1.113,5.639-3.34,7.59c-2.228,1.953-5.104,2.928-8.638,2.928
		c-3.762,0-6.878-1.191-9.354-3.572c0,0.129,0,0.277,0,0.439c0,0.164,0,0.264,0,0.293c0.131,0.523,0.199,0.867,0.199,1.029
		c0,1.205-0.609,1.811-1.83,1.811c-1.324,0-1.991-0.695-1.991-2.084c0-0.168,0.051-0.299,0.147-0.396l0.229-2.582
		c0.112-1.287,0.17-2.113,0.17-2.479c0-0.66-0.092-1.652-0.273-2.977c-0.18-1.322-0.273-2.314-0.273-2.977
		c0-1.489,0.63-2.23,1.887-2.23c1.288,0,1.935,0.746,1.935,2.239v0.898c0,0.264,0,0.648,0,1.146c0,2.488,0.794,4.467,2.378,5.926
		c1.58,1.461,3.722,2.193,6.426,2.193c2.509,0,4.502-0.598,5.984-1.789c1.486-1.188,2.229-2.811,2.229-4.861
		c0-3.141-1.984-5.061-5.95-5.752l-2.834-0.497c-2.811-0.497-4.993-1.076-6.545-1.737c-1.421-0.628-2.556-1.614-3.398-2.953
		c-0.845-1.337-1.266-2.851-1.266-4.539c0-2.908,1.06-5.272,3.177-7.094C36.124,143.573,38.869,142.663,42.244,142.663z"/>
	<path fill="#FFFFFF" d="M82.177,162.258c0,1.258-0.083,2.026-0.25,2.307c-0.164,0.282-0.641,0.422-1.438,0.422H64.714
		c-0.428,0-0.709,0.057-0.844,0.172c-0.132,0.117-0.199,0.309-0.199,0.57c0,2.482,0.746,4.551,2.235,6.201
		c1.484,1.654,3.34,2.48,5.555,2.48c1.454,0,2.785-0.396,3.993-1.189c1.207-0.797,1.993-1.803,2.357-3.025l0.446-1.439
		c0.231-0.795,0.775-1.189,1.637-1.189c1.225,0,1.837,0.627,1.837,1.883c0,2.15-1.094,4.062-3.273,5.73
		c-2.185,1.67-4.667,2.508-7.441,2.508c-3.475,0-6.233-1.168-8.285-3.5c-2.052-2.33-3.078-5.465-3.078-9.398
		c0-4.037,1.091-7.312,3.275-9.824c2.18-2.512,5.027-3.77,8.532-3.77c3.104,0,5.674,1.039,7.689,3.125
		C81.166,156.402,82.177,159.052,82.177,162.258z M64.167,160.968c0,0.464,0.365,0.696,1.095,0.696h11.854
		c0.695,0,1.044-0.231,1.044-0.696c0-1.753-0.664-3.274-1.984-4.565c-1.323-1.288-2.878-1.935-4.664-1.935
		c-1.853,0-3.541,0.671-5.062,2.008C64.927,157.818,64.167,159.314,64.167,160.968z"/>
	<path fill="#FFFFFF" d="M93.637,156.133v15.404c0.033,1.684,0.484,2.527,1.352,2.527c0.2,0,0.619-0.084,1.254-0.248
		c0.399-0.068,0.666-0.1,0.8-0.1c1.102,0,1.654,0.561,1.654,1.688c0,1.09-0.678,1.635-2.026,1.635c-0.528,0-1.369-0.066-2.521-0.197
		s-2.046-0.199-2.672-0.199c-0.526,0-1.316,0.068-2.371,0.199s-1.83,0.197-2.323,0.197h-0.246c-1.386,0-2.078-0.596-2.078-1.783
		c0-1.029,0.568-1.539,1.703-1.539c0.065,0,0.184,0,0.351,0c0.202,0.045,0.351,0.07,0.452,0.07c0.833,0.184,1.315,0.277,1.448,0.277
		c0.602,0,0.979-0.256,1.128-0.771c0.151-0.516,0.244-1.852,0.275-4.008l0.052-3.486v-7.716v-8.861
		c-0.033-0.997-0.083-1.66-0.149-1.992c-0.231-0.764-0.695-1.144-1.391-1.144c-0.098,0-0.525,0.066-1.287,0.197
		c-0.365,0.066-0.664,0.1-0.894,0.1c-1.127,0-1.688-0.528-1.688-1.587c0-1.092,0.662-1.639,1.984-1.639
		c0.363,0,0.678,0.019,0.944,0.051l1.19,0.15c0.525,0.066,0.975,0.098,1.34,0.098c0.331,0,0.826-0.05,1.485-0.151
		c0.663-0.097,1.159-0.147,1.488-0.147c0.762,0,1.142,0.48,1.142,1.437c0,0.33-0.018,0.578-0.051,0.743
		C93.75,147.881,93.637,151.479,93.637,156.133z"/>
	<path fill="#FFFFFF" d="M123.697,162.258c0,1.258-0.083,2.026-0.246,2.307c-0.166,0.282-0.646,0.422-1.441,0.422h-15.771
		c-0.434,0-0.713,0.057-0.845,0.172c-0.133,0.117-0.199,0.309-0.199,0.57c0,2.482,0.744,4.551,2.232,6.201
		c1.488,1.654,3.34,2.48,5.556,2.48c1.457,0,2.787-0.396,3.994-1.189c1.209-0.797,1.991-1.803,2.356-3.025l0.445-1.439
		c0.231-0.795,0.778-1.189,1.638-1.189c1.224,0,1.836,0.627,1.836,1.883c0,2.15-1.091,4.062-3.274,5.73
		c-2.182,1.67-4.664,2.508-7.44,2.508c-3.473,0-6.235-1.168-8.286-3.5c-2.051-2.33-3.077-5.465-3.077-9.398
		c0-4.037,1.096-7.312,3.274-9.824c2.185-2.512,5.028-3.77,8.534-3.77c3.108,0,5.67,1.039,7.69,3.125
		C122.689,156.402,123.697,159.052,123.697,162.258z M105.692,160.968c0,0.464,0.362,0.696,1.09,0.696h11.858
		c0.692,0,1.04-0.231,1.04-0.696c0-1.753-0.663-3.274-1.984-4.565c-1.326-1.288-2.88-1.935-4.663-1.935
		c-1.854,0-3.541,0.671-5.059,2.008C106.453,157.818,105.692,159.314,105.692,160.968z"/>
	<path fill="#FFFFFF" d="M141.804,160.47c0-1.321,0.827-2.083,2.482-2.28c-0.166-1.158-0.719-2.068-1.664-2.729
		c-0.942-0.662-2.157-0.994-3.645-0.994c-2.284,0-4.119,0.913-5.509,2.73c-1.388,1.819-2.081,4.234-2.081,7.241
		c0,3.11,0.651,5.549,1.958,7.319c1.308,1.768,3.117,2.652,5.431,2.652c1.456,0,2.723-0.412,3.796-1.238
		c1.075-0.828,1.812-1.969,2.209-3.424c0.327-1.156,0.53-1.818,0.596-1.984c0.362-0.662,0.891-0.994,1.586-0.994
		c0.562,0,1.025,0.184,1.391,0.547c0.362,0.363,0.542,0.828,0.542,1.389c0,0.828-0.263,1.82-0.792,2.977
		c-0.527,1.158-1.158,2.119-1.883,2.877c-1.953,2.084-4.48,3.129-7.59,3.129c-3.375,0-6.096-1.193-8.162-3.572
		c-2.067-2.383-3.098-5.508-3.098-9.377c0-4.102,1.063-7.384,3.196-9.848c2.133-2.46,4.972-3.695,8.509-3.695
		c2.646,0,4.846,0.719,6.597,2.157c1.754,1.44,2.634,3.266,2.634,5.482c0,1.224-0.343,2.233-1.021,3.027
		c-0.677,0.793-1.547,1.188-2.605,1.188c-0.826,0-1.513-0.246-2.059-0.744C142.075,161.81,141.804,161.2,141.804,160.47z"/>
	<path fill="#FFFFFF" d="M167.106,160.47c0-1.321,0.824-2.083,2.48-2.28c-0.168-1.158-0.722-2.068-1.664-2.729
		c-0.944-0.662-2.16-0.994-3.646-0.994c-2.283,0-4.118,0.913-5.508,2.73c-1.389,1.819-2.081,4.234-2.081,7.241
		c0,3.11,0.65,5.549,1.958,7.319c1.308,1.768,3.113,2.652,5.432,2.652c1.455,0,2.718-0.412,3.794-1.238
		c1.075-0.828,1.812-1.969,2.208-3.424c0.329-1.156,0.529-1.818,0.594-1.984c0.365-0.662,0.894-0.994,1.589-0.994
		c0.563,0,1.026,0.184,1.389,0.547c0.365,0.363,0.547,0.828,0.547,1.389c0,0.828-0.269,1.82-0.797,2.977
		c-0.528,1.158-1.154,2.119-1.883,2.877c-1.953,2.084-4.482,3.129-7.59,3.129c-3.375,0-6.095-1.193-8.162-3.572
		c-2.064-2.383-3.098-5.508-3.098-9.377c0-4.102,1.065-7.384,3.198-9.848c2.135-2.46,4.968-3.695,8.507-3.695
		c2.646,0,4.847,0.719,6.6,2.157c1.75,1.44,2.63,3.266,2.63,5.482c0,1.224-0.341,2.233-1.02,3.027
		c-0.676,0.793-1.545,1.188-2.602,1.188c-0.828,0-1.514-0.246-2.06-0.744C167.377,161.81,167.106,161.2,167.106,160.47z"/>
	<path fill="#FFFFFF" d="M186.007,162.456v6.449c0,1.652,0.015,2.629,0.046,2.926c0.168,1.488,0.613,2.234,1.344,2.234
		c0.16,0,0.576-0.084,1.239-0.248c0.163-0.068,0.413-0.1,0.743-0.1c1.254,0,1.884,0.545,1.884,1.635
		c0,0.465-0.208,0.861-0.621,1.193c-0.413,0.328-0.938,0.494-1.569,0.494c-0.528,0-1.334-0.074-2.412-0.221
		c-1.083-0.15-1.884-0.225-2.417-0.225c-0.864,0-1.822,0.066-2.883,0.199c-1.296,0.166-2.161,0.246-2.589,0.246
		c-1.331,0-1.995-0.559-1.995-1.688c0-1.09,0.568-1.635,1.704-1.635c0.267,0,0.656,0.051,1.177,0.148
		c0.516,0.098,0.908,0.148,1.173,0.148c0.804,0,1.289-1.059,1.452-3.176c0-0.131,0-1.566,0-4.314v-4.068c0-2.745,0-4.183,0-4.316
		c-0.163-2.082-0.665-3.125-1.5-3.125c-0.267,0-0.642,0.059-1.125,0.176c-0.485,0.115-0.844,0.172-1.079,0.172
		c-1.197,0-1.802-0.531-1.802-1.588c0-1.123,0.729-1.686,2.185-1.686c0.627,0,1.076,0.016,1.34,0.05
		c1.06,0.134,1.735,0.199,2.033,0.199c0.264,0,0.667-0.042,1.214-0.125c0.547-0.082,0.951-0.124,1.219-0.124
		c0.957,0,1.439,0.644,1.439,1.935c0,0.131-0.017,0.33-0.043,0.595c-0.027,0.264-0.037,0.464-0.037,0.596
		c-0.027,0.263-0.055,1.289-0.08,3.074C186.018,159.646,186.007,161.033,186.007,162.456z M183.428,149.459
		c-0.765,0-1.416-0.275-1.963-0.819c-0.546-0.544-0.816-1.199-0.816-1.959c0-0.762,0.271-1.407,0.816-1.936
		c0.547-0.528,1.198-0.792,1.963-0.792c0.756,0,1.41,0.264,1.957,0.792s0.821,1.173,0.821,1.936c0,0.76-0.274,1.415-0.821,1.959
		C184.838,149.185,184.184,149.459,183.428,149.459z"/>
	<path fill="#FFFFFF" d="M204.759,177.688c-3.477,0-6.253-1.201-8.336-3.598c-2.085-2.398-3.124-5.615-3.124-9.651
		c0-4.034,1.048-7.25,3.148-9.646c2.101-2.4,4.918-3.597,8.457-3.597c3.604,0,6.45,1.175,8.531,3.521
		c2.085,2.348,3.127,5.539,3.127,9.576c0,4.034-1.075,7.276-3.224,9.722C211.188,176.461,208.327,177.688,204.759,177.688z
		 M205.004,154.468c-2.313,0-4.136,0.813-5.457,2.431c-1.322,1.62-2.05,3.919-2.185,6.896v0.644c0,3.11,0.657,5.549,1.962,7.319
		c1.306,1.768,3.132,2.652,5.48,2.652c2.414,0,4.31-0.885,5.679-2.652c1.376-1.77,2.06-4.223,2.06-7.366
		C212.543,157.776,210.029,154.468,205.004,154.468z"/>
	<path fill="#FFFFFF" d="M228.02,153.552v1.413c1.985-2.512,4.631-3.77,7.94-3.77c1.785,0,3.47,0.455,5.06,1.364
		c1.587,0.909,2.659,2.042,3.223,3.398c0.462,1.124,0.694,2.597,0.694,4.415v9.425c0,1.422,0.018,2.264,0.051,2.531
		c0.162,1.123,0.61,1.686,1.34,1.686c0.297,0,0.684-0.041,1.166-0.123c0.48-0.082,0.818-0.123,1.019-0.123
		c0.427,0,0.798,0.146,1.112,0.445c0.315,0.297,0.474,0.662,0.474,1.09c0,0.496-0.2,0.91-0.595,1.242
		c-0.397,0.328-0.879,0.494-1.441,0.494c-0.464,0-1.225-0.066-2.282-0.197c-1.057-0.131-2.05-0.199-2.974-0.199
		c-0.862,0-1.571,0.035-2.133,0.1c-1.651,0.201-2.533,0.297-2.629,0.297c-1.325,0-1.986-0.578-1.986-1.736
		c0-1.025,0.573-1.535,1.721-1.535c0.269,0,0.573,0.033,0.908,0.098c0.64,0.133,1.046,0.199,1.217,0.199
		c0.808,0,1.247-0.91,1.315-2.729v-2.531v-3.027v-3.769c0-1.753-0.086-2.958-0.249-3.623c-0.297-1.254-0.939-2.231-1.928-2.925
		c-1.086-0.761-2.32-1.141-3.706-1.141c-2.637,0-4.528,0.942-5.682,2.827c-0.793,1.288-1.187,3.489-1.187,6.598v6.601
		c0,1.455,0.1,2.445,0.299,2.973c0.196,0.531,0.56,0.797,1.09,0.797c0.265,0,0.63-0.059,1.091-0.176
		c0.463-0.115,0.844-0.172,1.141-0.172c1.026,0,1.539,0.551,1.539,1.662c0,1.074-0.662,1.609-1.984,1.609
		c-0.264,0-1.125-0.096-2.579-0.297c-0.729-0.1-1.539-0.148-2.432-0.148c-0.69,0-1.622,0.066-2.777,0.199
		c-1.456,0.166-2.282,0.246-2.482,0.246c-1.39,0-2.081-0.559-2.081-1.688c0-1.057,0.54-1.584,1.615-1.584
		c0.17,0,0.479,0.049,0.936,0.146c0.456,0.1,0.901,0.15,1.34,0.15c1.013,0,1.531-0.959,1.563-2.879v-5.504v-6.004v-1.735
		c-0.064-1.125-0.207-1.894-0.427-2.307c-0.22-0.414-0.601-0.622-1.137-0.622c-0.236,0-0.581,0.043-1.038,0.125
		c-0.452,0.083-0.799,0.124-1.034,0.124c-1.214,0-1.818-0.528-1.818-1.587c0-1.091,0.743-1.638,2.23-1.638
		c0.2,0,0.367,0.018,0.497,0.05l1.836,0.198c0.528,0,0.992-0.041,1.389-0.124c0.856-0.083,1.307-0.125,1.339-0.125
		C227.542,152.038,228.02,152.544,228.02,153.552z"/>
	<path fill="#FFFFFF" d="M274.55,162.258c0,1.258-0.082,2.026-0.242,2.307c-0.168,0.282-0.648,0.422-1.44,0.422h-15.775
		c-0.431,0-0.712,0.057-0.845,0.172c-0.13,0.117-0.198,0.309-0.198,0.57c0,2.482,0.746,4.551,2.234,6.201
		c1.488,1.654,3.336,2.48,5.554,2.48c1.456,0,2.787-0.396,3.996-1.189c1.207-0.797,1.987-1.803,2.353-3.025l0.445-1.439
		c0.233-0.795,0.78-1.189,1.642-1.189c1.222,0,1.833,0.627,1.833,1.883c0,2.15-1.086,4.062-3.271,5.73
		c-2.185,1.67-4.668,2.508-7.442,2.508c-3.475,0-6.233-1.168-8.284-3.5c-2.051-2.33-3.077-5.465-3.077-9.398
		c0-4.037,1.092-7.312,3.276-9.824c2.184-2.512,5.026-3.77,8.53-3.77c3.11,0,5.673,1.039,7.693,3.125
		C273.544,156.402,274.55,159.052,274.55,162.258z M256.545,160.968c0,0.464,0.362,0.696,1.09,0.696h11.859
		c0.691,0,1.04-0.231,1.04-0.696c0-1.753-0.66-3.274-1.98-4.565c-1.326-1.288-2.881-1.935-4.667-1.935
		c-1.85,0-3.538,0.671-5.057,2.008C257.31,157.818,256.545,159.314,256.545,160.968z"/>
	<path fill="#FFFFFF" d="M298.215,153.477v1.586c1.853-2.579,4.386-3.867,7.591-3.867c3.309,0,5.938,1.141,7.887,3.422
		c1.952,2.281,2.926,5.375,2.926,9.276c0,4.2-1.034,7.55-3.098,10.046c-2.065,2.498-4.834,3.748-8.308,3.748
		c-2.877,0-5.211-1.01-6.998-3.029v4.119c0,1.256,0.035,2.066,0.101,2.43c0.198,1.025,0.678,1.539,1.438,1.539
		c0.232,0,0.578-0.051,1.043-0.148c0.462-0.1,0.808-0.15,1.043-0.15c1.058,0,1.587,0.547,1.587,1.637
		c0,1.092-0.695,1.637-2.078,1.637c-0.495,0-1.234-0.064-2.225-0.199c-0.726-0.096-1.812-0.146-3.263-0.146
		c-0.789,0-1.451,0.033-1.978,0.1c-1.316,0.164-2.194,0.246-2.619,0.246c-0.558,0-1.04-0.17-1.436-0.514
		c-0.392-0.342-0.592-0.742-0.592-1.195c0-1.043,0.556-1.564,1.671-1.564c0.193,0,0.508,0.043,0.934,0.129
		c0.558,0.113,0.968,0.17,1.23,0.17c0.619,0,1.004-0.324,1.152-0.967c0.147-0.646,0.238-2.441,0.271-5.383v-19.151
		c-0.033-1.52-0.459-2.281-1.279-2.281c-0.229,0-0.578,0.058-1.057,0.174c-0.477,0.115-0.842,0.173-1.107,0.173
		c-1.208,0-1.815-0.546-1.815-1.637c0-1.061,0.729-1.587,2.181-1.587c0.364,0,0.763,0.016,1.192,0.05
		c0.826,0.065,1.438,0.096,1.837,0.096c0.296,0,0.725-0.022,1.29-0.071c0.561-0.049,0.975-0.075,1.238-0.075
		C297.802,152.088,298.215,152.551,298.215,153.477z M298.961,159.528c-0.298,1.291-0.464,2.863-0.497,4.714
		c0,0.133-0.017,0.383-0.048,0.745c0,0.297,0,0.529,0,0.695c0,2.215,0.179,3.826,0.545,4.836c0.361,1.01,1.082,1.906,2.156,2.703
		c1.076,0.793,2.406,1.189,3.995,1.189c2.379,0,4.225-0.867,5.53-2.604s1.963-4.209,1.963-7.415c0-6.616-2.354-9.924-7.048-9.924
		c-1.588,0-2.998,0.481-4.24,1.441C300.075,156.867,299.291,158.074,298.961,159.528z"/>
	<path fill="#FFFFFF" d="M342.914,162.258c0,1.258-0.086,2.026-0.251,2.307c-0.164,0.282-0.643,0.422-1.438,0.422h-15.771
		c-0.438,0-0.714,0.057-0.847,0.172c-0.131,0.117-0.196,0.309-0.196,0.57c0,2.482,0.739,4.551,2.235,6.201
		c1.482,1.654,3.335,2.48,5.554,2.48c1.455,0,2.783-0.396,3.987-1.189c1.208-0.797,1.995-1.803,2.359-3.025l0.443-1.439
		c0.235-0.795,0.782-1.189,1.643-1.189c1.223,0,1.835,0.627,1.835,1.883c0,2.15-1.091,4.062-3.274,5.73
		c-2.184,1.67-4.664,2.508-7.439,2.508c-3.471,0-6.234-1.168-8.29-3.5c-2.052-2.33-3.073-5.465-3.073-9.398
		c0-4.037,1.091-7.312,3.274-9.824c2.181-2.512,5.025-3.77,8.535-3.77c3.104,0,5.671,1.039,7.688,3.125
		C341.898,156.402,342.914,159.052,342.914,162.258z M324.907,160.968c0,0.464,0.361,0.696,1.09,0.696h11.859
		c0.689,0,1.038-0.231,1.038-0.696c0-1.753-0.662-3.274-1.986-4.565c-1.324-1.288-2.878-1.935-4.659-1.935
		c-1.855,0-3.543,0.671-5.065,2.008C325.664,157.818,324.907,159.314,324.907,160.968z"/>
	<path fill="#FFFFFF" d="M354.071,153.454v1.363c1.722-2.415,4.023-3.621,6.897-3.621c2.314,0,4.195,0.652,5.629,1.958
		c1.439,1.308,2.163,2.987,2.163,5.036c0,1.455-0.364,2.637-1.091,3.547c-0.731,0.909-1.69,1.363-2.882,1.363
		c-0.76,0-1.404-0.229-1.936-0.694c-0.528-0.463-0.789-1.025-0.789-1.688c0-0.526,0.194-1,0.597-1.414
		c0.395-0.413,0.855-0.62,1.384-0.62c0.103,0,0.315,0.051,0.648,0.15c0.195-0.399,0.297-0.761,0.297-1.092
		c0-0.958-0.422-1.767-1.269-2.43c-0.841-0.66-1.89-0.992-3.149-0.992c-2.577,0-4.296,1.156-5.156,3.471
		c-0.528,1.423-0.797,3.574-0.797,6.451v3.274c0,2.217,0.018,3.457,0.052,3.721c0.161,1.885,0.677,2.828,1.536,2.828
		c0.431,0,0.876-0.057,1.343-0.17c0.361-0.086,0.674-0.127,0.943-0.127c1.054,0,1.582,0.521,1.582,1.561
		c0,1.141-0.674,1.711-2.025,1.711h-0.196c-0.493,0-1.248-0.059-2.249-0.172c-1.009-0.115-1.757-0.176-2.253-0.176
		c-1.319,0-2.353,0.035-3.11,0.102l-2.771,0.246c-1.355,0-2.028-0.578-2.028-1.736c0-1.025,0.632-1.535,1.901-1.535
		c0.334,0,0.585,0.016,0.754,0.049l0.75,0.146c0.33,0.07,0.57,0.102,0.703,0.102c0.833,0,1.281-0.762,1.352-2.283v-2.531
		l-0.154-11.26c-0.094-1.95-0.591-2.927-1.487-2.927c-0.263,0-0.63,0.051-1.088,0.151c-0.466,0.099-0.829,0.148-1.096,0.148
		c-1.089,0-1.635-0.531-1.635-1.588c0-1.159,0.709-1.736,2.136-1.736c0.327,0,0.823,0.042,1.488,0.125
		c0.657,0.083,1.156,0.124,1.487,0.124c0.262,0,0.692-0.041,1.292-0.124c0.261-0.083,0.572-0.125,0.935-0.125
		C353.645,152.038,354.071,152.511,354.071,153.454z"/>
	<path fill="#FFFFFF" d="M386.172,147.524c0-0.464,0.161-0.875,0.494-1.241c-0.562-0.528-1.392-0.792-2.478-0.792
		c-1.428,0-2.537,0.454-3.349,1.362c-0.813,0.909-1.221,2.176-1.221,3.794v0.894c0,0.43,0.219,0.643,0.646,0.643h3.871
		c1.093,0,1.635,0.595,1.635,1.788c0,1.191-0.542,1.785-1.635,1.785h-3.673c-0.561,0-0.845,0.3-0.845,0.893v13.891
		c0,1.225,0.015,1.936,0.051,2.133c0.168,0.895,0.578,1.34,1.24,1.34c0.169,0,0.58-0.082,1.236-0.246c0.471-0.068,0.8-0.1,0.994-0.1
		c1.125,0,1.687,0.545,1.687,1.635c0,1.158-0.673,1.736-2.03,1.736c-0.563,0-1.413-0.066-2.558-0.197
		c-1.137-0.131-1.988-0.199-2.553-0.199c-0.986,0-1.885,0.049-2.683,0.15c-1.285,0.166-2.11,0.246-2.476,0.246
		c-1.424,0-2.132-0.578-2.132-1.736c0-0.428,0.172-0.807,0.518-1.141c0.352-0.33,0.755-0.494,1.218-0.494
		c0.327,0,0.697,0.055,1.115,0.174c0.412,0.115,0.783,0.172,1.118,0.172c0.623,0,1.022-0.396,1.187-1.191
		c0.167-0.791,0.263-2.709,0.299-5.752v-10.42c0-0.593-0.293-0.893-0.888-0.893h-2.452c-1.146,0-1.72-0.61-1.72-1.836
		c0-1.155,0.594-1.736,1.788-1.736h2.828c0.427,0,0.642-0.213,0.642-0.643v-0.894c0-2.612,0.696-4.616,2.081-6.001
		c1.396-1.39,3.36-2.083,5.906-2.083c2.085,0,3.755,0.423,5.009,1.265c1.258,0.843,1.89,1.977,1.89,3.4
		c0,0.725-0.235,1.312-0.698,1.76c-0.458,0.446-1.041,0.668-1.735,0.668c-0.659,0-1.218-0.207-1.661-0.62
		C386.393,148.625,386.172,148.12,386.172,147.524z"/>
	<path fill="#FFFFFF" d="M398.072,162.456v6.449c0,1.652,0.02,2.629,0.049,2.926c0.166,1.488,0.611,2.234,1.345,2.234
		c0.166,0,0.579-0.084,1.235-0.248c0.171-0.068,0.411-0.1,0.746-0.1c1.254,0,1.89,0.545,1.89,1.635c0,0.465-0.212,0.861-0.627,1.193
		c-0.412,0.328-0.936,0.494-1.565,0.494c-0.537,0-1.337-0.074-2.416-0.221c-1.078-0.15-1.884-0.225-2.415-0.225
		c-0.861,0-1.826,0.066-2.887,0.199c-1.294,0.166-2.157,0.246-2.592,0.246c-1.321,0-1.99-0.559-1.99-1.688
		c0-1.09,0.571-1.635,1.704-1.635c0.265,0,0.663,0.051,1.177,0.148c0.52,0.098,0.908,0.148,1.178,0.148
		c0.806,0,1.285-1.059,1.452-3.176c0-0.131,0-1.566,0-4.314v-4.068c0-2.745,0-4.183,0-4.316c-0.167-2.082-0.668-3.125-1.506-3.125
		c-0.267,0-0.645,0.059-1.124,0.176c-0.483,0.115-0.842,0.172-1.075,0.172c-1.201,0-1.806-0.531-1.806-1.588
		c0-1.123,0.729-1.686,2.185-1.686c0.631,0,1.078,0.016,1.344,0.05c1.058,0.134,1.73,0.199,2.031,0.199
		c0.264,0,0.671-0.042,1.221-0.125c0.538-0.082,0.941-0.124,1.213-0.124c0.954,0,1.437,0.644,1.437,1.935
		c0,0.131-0.013,0.33-0.041,0.595c-0.029,0.264-0.036,0.464-0.036,0.596c-0.025,0.263-0.057,1.289-0.084,3.074
		C398.085,159.646,398.072,161.033,398.072,162.456z M395.491,149.459c-0.756,0-1.409-0.275-1.956-0.819
		c-0.547-0.544-0.816-1.199-0.816-1.959c0-0.762,0.27-1.407,0.816-1.936s1.2-0.792,1.956-0.792c0.766,0,1.419,0.264,1.964,0.792
		c0.543,0.528,0.819,1.173,0.819,1.936c0,0.76-0.276,1.415-0.819,1.959C396.91,149.185,396.257,149.459,395.491,149.459z"/>
	<path fill="#FFFFFF" d="M413.206,156.133v15.404c0.029,1.684,0.485,2.527,1.353,2.527c0.195,0,0.618-0.084,1.248-0.248
		c0.407-0.068,0.67-0.1,0.802-0.1c1.107,0,1.656,0.561,1.656,1.688c0,1.09-0.673,1.635-2.025,1.635c-0.53,0-1.371-0.066-2.522-0.197
		c-1.154-0.131-2.043-0.199-2.671-0.199c-0.525,0-1.315,0.068-2.373,0.199c-1.057,0.131-1.825,0.197-2.325,0.197h-0.244
		c-1.383,0-2.074-0.596-2.074-1.783c0-1.029,0.568-1.539,1.703-1.539c0.062,0,0.183,0,0.348,0c0.202,0.045,0.35,0.07,0.452,0.07
		c0.831,0.184,1.319,0.277,1.451,0.277c0.598,0,0.979-0.256,1.128-0.771c0.152-0.516,0.242-1.852,0.275-4.008l0.052-3.486v-7.716
		v-8.861c-0.032-0.997-0.085-1.66-0.151-1.992c-0.233-0.764-0.699-1.144-1.392-1.144c-0.095,0-0.529,0.066-1.289,0.197
		c-0.36,0.066-0.66,0.1-0.896,0.1c-1.12,0-1.682-0.528-1.682-1.587c0-1.092,0.661-1.639,1.981-1.639
		c0.364,0,0.679,0.019,0.943,0.051l1.19,0.15c0.528,0.066,0.979,0.098,1.345,0.098c0.322,0,0.818-0.05,1.486-0.151
		c0.658-0.097,1.154-0.147,1.483-0.147c0.76,0,1.141,0.48,1.141,1.437c0,0.33-0.017,0.578-0.049,0.743
		C413.324,147.881,413.206,151.479,413.206,156.133z"/>
	<path fill="#FFFFFF" d="M444.263,151.196c3.27,0,5.715,1.273,7.338,3.818v-5.011c0-1.321-0.029-2.132-0.104-2.43
		c-0.16-1.025-0.62-1.54-1.386-1.54c-0.268,0-0.634,0.053-1.116,0.152c-0.479,0.099-0.849,0.148-1.111,0.148
		c-1.228,0-1.841-0.528-1.841-1.587c0-1.091,0.829-1.637,2.481-1.637c0.264,0,0.747,0.033,1.44,0.1
		c1.055,0.097,1.606,0.15,1.636,0.15c0.301,0,0.728-0.043,1.292-0.126c0.563-0.082,0.99-0.124,1.287-0.124
		c0.93,0,1.394,0.663,1.394,1.987v0.546c-0.036,0.101-0.074,0.979-0.1,2.635c0,0.196-0.053,1.474-0.154,3.825
		c-0.063,1.656-0.1,2.914-0.1,3.775v4.87v8.297c0.036,2.188,0.138,3.545,0.312,4.076c0.167,0.529,0.562,0.793,1.207,0.793
		c0.438,0,0.776-0.033,1.006-0.098c0.541-0.068,0.912-0.1,1.115-0.1c1.243,0,1.871,0.545,1.871,1.635
		c0,1.129-0.744,1.688-2.235,1.688c-0.329,0-0.838-0.041-1.511-0.125c-0.681-0.078-1.188-0.121-1.511-0.121
		c-0.102,0-0.483,0.031-1.144,0.098c-0.396,0.1-0.748,0.148-1.041,0.148c-0.896,0-1.345-0.596-1.345-1.783v-0.25v-0.844
		c-1.742,2.348-4.281,3.525-7.617,3.525c-3.36,0-6.069-1.227-8.116-3.674c-2.039-2.445-3.065-5.654-3.065-9.622
		c0-4.003,1.01-7.203,3.024-9.599C438.188,152.393,440.888,151.196,444.263,151.196z M451.398,168.706
		c0.139-1.09,0.202-2.496,0.202-4.217c0-2.214-0.079-3.718-0.246-4.513c-0.302-1.653-1.016-2.943-2.153-3.871
		c-1.325-1.091-2.863-1.637-4.591-1.637c-2.337,0-4.155,0.878-5.471,2.631c-1.319,1.753-1.975,4.151-1.975,7.194
		c0,3.14,0.684,5.614,2.049,7.415c1.368,1.805,3.228,2.703,5.595,2.703c1.799,0,3.294-0.52,4.494-1.562
		C450.506,171.807,451.201,170.426,451.398,168.706z"/>
	<path fill="#FFFFFF" d="M485.437,162.258c0,1.258-0.085,2.026-0.252,2.307c-0.164,0.282-0.643,0.422-1.438,0.422h-15.773
		c-0.435,0-0.713,0.057-0.843,0.172c-0.134,0.117-0.197,0.309-0.197,0.57c0,2.482,0.743,4.551,2.228,6.201
		c1.489,1.654,3.343,2.48,5.56,2.48c1.455,0,2.785-0.396,3.988-1.189c1.207-0.797,1.996-1.803,2.356-3.025l0.446-1.439
		c0.235-0.795,0.78-1.189,1.637-1.189c1.23,0,1.842,0.627,1.842,1.883c0,2.15-1.099,4.062-3.277,5.73
		c-2.183,1.67-4.662,2.508-7.441,2.508c-3.471,0-6.23-1.168-8.286-3.5c-2.051-2.33-3.075-5.465-3.075-9.398
		c0-4.037,1.093-7.312,3.275-9.824c2.183-2.512,5.027-3.77,8.535-3.77c3.105,0,5.668,1.039,7.686,3.125
		C484.423,156.402,485.437,159.052,485.437,162.258z M467.43,160.968c0,0.464,0.362,0.696,1.086,0.696h11.855
		c0.693,0,1.048-0.231,1.048-0.696c0-1.753-0.664-3.274-1.992-4.565c-1.319-1.288-2.874-1.935-4.658-1.935
		c-1.855,0-3.542,0.671-5.062,2.008C468.187,157.818,467.43,159.314,467.43,160.968z"/>
	<path fill="#FFFFFF" d="M521.795,175.602v-1.537c-1.754,2.416-4.353,3.623-7.787,3.623c-3.902,0-6.622-1.207-8.137-3.623
		c-0.664-1.059-1.026-2.299-1.091-3.719c-0.036-0.697-0.049-2.152-0.049-4.367v-4.117c0-4.532-0.489-6.799-1.455-6.799
		c-0.199,0-0.52,0.027-0.954,0.076c-0.433,0.051-0.768,0.075-0.999,0.075c-1.171,0-1.753-0.538-1.753-1.614
		c0-1.04,0.711-1.562,2.133-1.562c0.328,0,0.816,0.042,1.465,0.125c0.644,0.083,1.131,0.124,1.464,0.124
		c0.297,0,0.812-0.052,1.536-0.148c0.494-0.066,0.774-0.1,0.845-0.1c1.02,0,1.54,0.628,1.54,1.884v1.043v3.225l-0.153,3.671v3.223
		c0,2.877,0.237,4.945,0.7,6.201c0.757,2.082,2.571,3.125,5.454,3.125c1.419,0,2.673-0.32,3.765-0.965
		c1.093-0.646,1.854-1.498,2.283-2.557c0.529-1.289,0.799-3.734,0.799-7.342v-2.729c0-1.983,0-3.059,0-3.224
		c-0.169-1.586-0.598-2.38-1.294-2.38c-0.36,0-0.661,0-0.891,0h-0.597c-1.155,0-1.736-0.497-1.736-1.493
		c0-1.122,0.645-1.683,1.937-1.683c0.299,0,0.751,0.034,1.361,0.1c0.617,0.065,1.067,0.096,1.366,0.096
		c0.261,0,0.66-0.031,1.19-0.096c0.526-0.066,0.927-0.1,1.19-0.1c0.994,0,1.49,0.531,1.49,1.59c0,0.464-0.033,0.83-0.098,1.094
		c-0.172,1.26-0.256,3.116-0.256,5.569v7.656c0,2.023,0.021,3.15,0.053,3.381c0.165,1.758,0.628,2.635,1.394,2.635
		c0.227,0,0.561-0.039,0.991-0.121c0.428-0.082,0.757-0.125,0.99-0.125c1.124,0,1.684,0.545,1.684,1.635
		c0,1.129-0.69,1.688-2.085,1.688c-0.295,0-0.725-0.033-1.287-0.096c-0.827-0.102-1.335-0.15-1.538-0.15
		c-0.098,0-0.447,0.031-1.039,0.098c-0.396,0.1-0.747,0.148-1.044,0.148C522.258,177.04,521.795,176.561,521.795,175.602z"/>
	<path fill="#FFFFFF" d="M542.649,151.196c2.206,0,4.054,0.58,5.541,1.735v-0.199c0-1.221,0.52-1.834,1.586-1.834
		c1.085,0,1.632,0.529,1.632,1.586c0,0.2-0.023,0.695-0.083,1.489c-0.108,0.663-0.161,1.322-0.161,1.985
		c0,0.396,0.043,0.975,0.123,1.736c0.083,0.761,0.121,1.339,0.121,1.738c0,1.255-0.535,1.883-1.612,1.883
		c-1.042,0-1.574-0.528-1.605-1.587v-1.637c-0.038-0.992-0.606-1.844-1.717-2.555c-1.108-0.71-2.401-1.068-3.895-1.068
		c-1.521,0-2.793,0.392-3.817,1.168c-1.027,0.775-1.539,1.744-1.539,2.901c0,2.119,1.456,3.373,4.366,3.77l2.878,0.398
		c5.622,0.761,8.431,3.093,8.431,6.993c0,2.383-0.908,4.307-2.718,5.779c-1.817,1.473-4.189,2.211-7.127,2.211
		c-2.734,0-5.106-0.779-7.117-2.336c0,0.33,0,0.648,0,0.945c0,1.188-0.568,1.787-1.688,1.787c-1.226,0-1.837-0.682-1.837-2.037
		c0,0.23,0.098-0.629,0.303-2.576c0.064-0.465,0.096-0.928,0.096-1.391c0-0.795-0.069-1.539-0.199-2.232
		c-0.132-0.697-0.199-1.24-0.199-1.637c0-1.158,0.528-1.738,1.587-1.738c0.695,0,1.137,0.166,1.315,0.498
		c0.182,0.33,0.292,1.207,0.32,2.629c0.035,1.422,0.778,2.578,2.235,3.471c1.455,0.893,3.305,1.34,5.556,1.34
		c1.616,0,2.959-0.412,4.021-1.238c1.055-0.828,1.583-1.867,1.583-3.127c0-2.248-1.786-3.553-5.358-3.918
		c-3.407-0.363-6.001-1.035-7.789-2.009c-1.786-0.976-2.678-2.687-2.678-5.135c0-2.314,0.877-4.191,2.618-5.631
		C537.568,151.915,539.852,151.196,542.649,151.196z"/>
	<path fill="#FFFFFF" d="M576.91,175.602v-1.537c-1.757,2.416-4.351,3.623-7.792,3.623c-3.903,0-6.616-1.207-8.133-3.623
		c-0.663-1.059-1.024-2.299-1.093-3.719c-0.033-0.697-0.053-2.152-0.053-4.367v-4.117c0-4.532-0.481-6.799-1.451-6.799
		c-0.203,0-0.513,0.027-0.954,0.076c-0.429,0.051-0.766,0.075-0.999,0.075c-1.169,0-1.752-0.538-1.752-1.614
		c0-1.04,0.713-1.562,2.136-1.562c0.325,0,0.816,0.042,1.462,0.125c0.646,0.083,1.133,0.124,1.464,0.124
		c0.299,0,0.81-0.052,1.533-0.148c0.498-0.066,0.778-0.1,0.843-0.1c1.03,0,1.539,0.628,1.539,1.884v1.043v3.225l-0.146,3.671v3.223
		c0,2.877,0.229,4.945,0.692,6.201c0.766,2.082,2.581,3.125,5.46,3.125c1.424,0,2.681-0.32,3.766-0.965
		c1.094-0.646,1.855-1.498,2.288-2.557c0.524-1.289,0.787-3.734,0.787-7.342v-2.729c0-1.983,0-3.059,0-3.224
		c-0.161-1.586-0.59-2.38-1.285-2.38c-0.369,0-0.662,0-0.896,0h-0.592c-1.162,0-1.733-0.497-1.733-1.493
		c0-1.122,0.642-1.683,1.929-1.683c0.299,0,0.755,0.034,1.366,0.1c0.608,0.065,1.067,0.096,1.364,0.096
		c0.263,0,0.657-0.031,1.191-0.096c0.53-0.066,0.923-0.1,1.192-0.1c0.991,0,1.48,0.531,1.48,1.59c0,0.464-0.025,0.83-0.096,1.094
		c-0.165,1.26-0.248,3.116-0.248,5.569v7.656c0,2.023,0.021,3.15,0.051,3.381c0.166,1.758,0.63,2.635,1.392,2.635
		c0.229,0,0.559-0.039,0.986-0.121c0.436-0.082,0.764-0.125,1-0.125c1.117,0,1.684,0.545,1.684,1.635
		c0,1.129-0.693,1.688-2.087,1.688c-0.299,0-0.724-0.033-1.286-0.096c-0.827-0.102-1.336-0.15-1.54-0.15
		c-0.099,0-0.447,0.031-1.045,0.098c-0.389,0.1-0.743,0.148-1.036,0.148C577.373,177.04,576.91,176.561,576.91,175.602z"/>
	<path fill="#FFFFFF" d="M608.657,177.485c-2.714,0-4.388-1.17-5.011-3.521c-1.69,2.48-4.332,3.725-7.938,3.725
		c-2.68,0-4.822-0.666-6.42-1.986c-1.613-1.322-2.411-3.094-2.411-5.309c0-2.744,1.177-4.764,3.523-6.052
		c0.891-0.496,1.659-0.818,2.306-0.968c0.645-0.147,1.939-0.338,3.895-0.568c2.776-0.298,4.588-0.711,5.433-1.241
		c0.845-0.531,1.263-1.505,1.263-2.927c0-1.354-0.47-2.423-1.413-3.201c-0.938-0.777-2.253-1.165-3.945-1.165
		c-1.485,0-2.87,0.415-4.162,1.24c-0.497,0.33-0.747,0.677-0.747,1.042c0,0.131,0.146,0.296,0.443,0.497
		c0.469,0.33,0.698,0.893,0.698,1.687c0,0.661-0.242,1.207-0.717,1.636c-0.483,0.428-1.089,0.646-1.813,0.646
		c-0.855,0-1.579-0.299-2.158-0.894c-0.576-0.596-0.865-1.322-0.865-2.182c0-1.854,0.916-3.438,2.754-4.763
		c1.832-1.323,4.06-1.983,6.671-1.983c6.016,0,9.028,2.886,9.028,8.662v10.002c0,1.582,0.029,2.52,0.1,2.82
		c0.197,1.152,0.757,1.73,1.687,1.73c1.158,0,1.732-1.051,1.732-3.154v-2.414c0-1.049,0.505-1.574,1.513-1.574
		c1.082,0,1.614,0.793,1.614,2.381v0.25v2.826C613.652,175.901,611.966,177.485,608.657,177.485z M603.152,167.616v-3.522
		c-0.726,0.663-1.489,1.124-2.3,1.387c-0.81,0.266-2.246,0.498-4.323,0.695c-3.755,0.365-5.636,1.754-5.636,4.17
		c0,1.254,0.46,2.244,1.37,2.973c0.906,0.73,2.136,1.092,3.695,1.092c2.213,0,3.958-0.602,5.23-1.811
		C602.465,171.395,603.116,169.733,603.152,167.616z"/>
	<path fill="#FFFFFF" d="M622.799,153.454v1.363c1.713-2.415,4.018-3.621,6.889-3.621c2.32,0,4.193,0.652,5.632,1.958
		c1.438,1.308,2.159,2.987,2.159,5.036c0,1.455-0.36,2.637-1.091,3.547c-0.729,0.909-1.688,1.363-2.882,1.363
		c-0.756,0-1.398-0.229-1.936-0.694c-0.527-0.463-0.787-1.025-0.787-1.688c0-0.526,0.197-1,0.595-1.414
		c0.393-0.413,0.856-0.62,1.387-0.62c0.101,0,0.316,0.051,0.642,0.15c0.201-0.399,0.305-0.761,0.305-1.092
		c0-0.958-0.426-1.767-1.267-2.43c-0.846-0.66-1.892-0.992-3.151-0.992c-2.578,0-4.298,1.156-5.157,3.471
		c-0.53,1.423-0.796,3.574-0.796,6.451v3.274c0,2.217,0.016,3.457,0.054,3.721c0.159,1.885,0.675,2.828,1.535,2.828
		c0.431,0,0.878-0.057,1.341-0.17c0.361-0.086,0.673-0.127,0.939-0.127c1.061,0,1.589,0.521,1.589,1.561
		c0,1.141-0.675,1.711-2.03,1.711h-0.196c-0.497,0-1.239-0.059-2.245-0.172c-1.009-0.115-1.756-0.176-2.254-0.176
		c-1.318,0-2.354,0.035-3.114,0.102l-2.771,0.246c-1.352,0-2.026-0.578-2.026-1.736c0-1.025,0.633-1.535,1.905-1.535
		c0.331,0,0.583,0.016,0.751,0.049l0.745,0.146c0.335,0.07,0.576,0.102,0.703,0.102c0.836,0,1.29-0.762,1.352-2.283v-2.531
		l-0.145-11.26c-0.102-1.95-0.598-2.927-1.491-2.927c-0.267,0-0.63,0.051-1.09,0.151c-0.462,0.099-0.825,0.148-1.093,0.148
		c-1.092,0-1.638-0.531-1.638-1.588c0-1.159,0.715-1.736,2.135-1.736c0.33,0,0.823,0.042,1.493,0.125
		c0.655,0.083,1.151,0.124,1.484,0.124c0.262,0,0.693-0.041,1.283-0.124c0.27-0.083,0.586-0.125,0.949-0.125
		C622.362,152.038,622.799,152.511,622.799,153.454z"/>
	<path fill="#FFFFFF" d="M647.699,162.456v6.449c0,1.652,0.013,2.629,0.049,2.926c0.161,1.488,0.608,2.234,1.34,2.234
		c0.166,0,0.577-0.084,1.239-0.248c0.169-0.068,0.411-0.1,0.747-0.1c1.253,0,1.883,0.545,1.883,1.635
		c0,0.465-0.208,0.861-0.623,1.193c-0.418,0.328-0.939,0.494-1.572,0.494c-0.528,0-1.326-0.074-2.41-0.221
		c-1.073-0.15-1.885-0.225-2.411-0.225c-0.865,0-1.826,0.066-2.89,0.199c-1.292,0.166-2.155,0.246-2.59,0.246
		c-1.324,0-1.989-0.559-1.989-1.688c0-1.09,0.566-1.635,1.701-1.635c0.271,0,0.659,0.051,1.179,0.148
		c0.512,0.098,0.904,0.148,1.178,0.148c0.797,0,1.281-1.059,1.442-3.176c0-0.131,0-1.566,0-4.314v-4.068c0-2.745,0-4.183,0-4.316
		c-0.161-2.082-0.66-3.125-1.495-3.125c-0.266,0-0.644,0.059-1.125,0.176c-0.485,0.115-0.846,0.172-1.077,0.172
		c-1.205,0-1.803-0.531-1.803-1.588c0-1.123,0.728-1.686,2.185-1.686c0.628,0,1.071,0.016,1.336,0.05
		c1.059,0.134,1.737,0.199,2.035,0.199c0.265,0,0.668-0.042,1.215-0.125c0.545-0.082,0.95-0.124,1.213-0.124
		c0.964,0,1.44,0.644,1.44,1.935c0,0.131-0.013,0.33-0.042,0.595c-0.021,0.264-0.034,0.464-0.034,0.596
		c-0.029,0.263-0.057,1.289-0.078,3.074C647.712,159.646,647.699,161.033,647.699,162.456z M645.121,149.459
		c-0.766,0-1.415-0.275-1.96-0.819c-0.547-0.544-0.823-1.199-0.823-1.959c0-0.762,0.276-1.407,0.823-1.936
		c0.545-0.528,1.194-0.792,1.96-0.792c0.76,0,1.409,0.264,1.956,0.792c0.55,0.528,0.818,1.173,0.818,1.936
		c0,0.76-0.269,1.415-0.818,1.959C646.53,149.185,645.881,149.459,645.121,149.459z"/>
	<path fill="#FFFFFF" d="M666.449,177.688c-3.469,0-6.252-1.201-8.335-3.598c-2.083-2.398-3.127-5.615-3.127-9.651
		c0-4.034,1.055-7.25,3.15-9.646c2.102-2.4,4.921-3.597,8.459-3.597c3.61,0,6.449,1.175,8.534,3.521
		c2.083,2.348,3.125,5.539,3.125,9.576c0,4.034-1.078,7.276-3.225,9.722C672.878,176.461,670.022,177.688,666.449,177.688z
		 M666.696,154.468c-2.31,0-4.134,0.813-5.453,2.431c-1.328,1.62-2.054,3.919-2.185,6.896v0.644c0,3.11,0.65,5.549,1.957,7.319
		c1.31,1.768,3.136,2.652,5.479,2.652c2.421,0,4.309-0.885,5.686-2.652c1.368-1.77,2.056-4.223,2.056-7.366
		C674.236,157.776,671.722,154.468,666.696,154.468z"/>
	<path fill="#FFFFFF" d="M686.939,160.918c-0.863,0-1.59-0.304-2.185-0.918c-0.596-0.613-0.895-1.345-0.895-2.208
		c0-0.859,0.299-1.593,0.895-2.208c0.595-0.61,1.321-0.916,2.185-0.916c0.855,0,1.585,0.306,2.182,0.916
		c0.598,0.615,0.891,1.349,0.891,2.208c0,0.863-0.293,1.596-0.891,2.208C688.524,160.614,687.795,160.918,686.939,160.918z
		 M686.939,177.688c-0.863,0-1.59-0.309-2.185-0.92c-0.596-0.611-0.895-1.35-0.895-2.209s0.299-1.594,0.895-2.205
		c0.595-0.615,1.321-0.918,2.185-0.918c0.855,0,1.585,0.303,2.182,0.918c0.598,0.611,0.891,1.346,0.891,2.205
		s-0.293,1.598-0.891,2.209C688.524,177.379,687.795,177.688,686.939,177.688z"/>
</g>
</svg>
