<?xml version="1.0" encoding="utf-8"?>
<!-- Generator: Adobe Illustrator 16.0.0, SVG Export Plug-In . SVG Version: 6.00 Build 0)  -->
<!DOCTYPE svg PUBLIC "-//W3C//DTD SVG 1.1//EN" "http://www.w3.org/Graphics/SVG/1.1/DTD/svg11.dtd">
<svg version="1.1" id="Capa_1" xmlns="http://www.w3.org/2000/svg" xmlns:xlink="http://www.w3.org/1999/xlink" x="0px" y="0px"
	 width="800px" height="450px" viewBox="0 0 800 450" enable-background="new 0 0 800 450" xml:space="preserve">
<g>
	<g>
		<circle fill="#FFFFFF" cx="141.28" cy="221.652" r="125.99"/>
		<g>
			<path fill="#5799D9" d="M151.333,263.142c0,4.985,0.195,9.076,0.584,12.269c0.386,3.196,1.048,5.724,1.987,7.596
				c0.936,1.872,2.222,3.155,3.854,3.854c1.64,0.701,3.7,1.053,6.195,1.053c1.87,0,3.739-0.19,5.609-0.581
				c1.87-0.387,3.739-0.587,5.609-0.587c2.183,0,3.977,0.782,5.375,2.337c1.408,1.559,2.106,3.431,2.106,5.611
				c0,2.806-1.014,4.907-3.038,6.31c-2.029,1.403-4.365,2.107-7.015,2.107c-5.611,0-10.832-0.433-15.656-1.291
				c-4.832-0.855-10.208-1.283-16.13-1.283c-5.924,0-11.379,0.428-16.362,1.283c-4.988,0.858-9.974,1.291-14.959,1.291
				c-2.334,0-4.519-0.704-6.542-2.107c-2.029-1.402-3.041-3.504-3.041-6.31c0-2.181,0.702-4.053,2.104-5.611
				c1.403-1.555,3.191-2.337,5.374-2.337c1.875,0,3.742,0.2,5.614,0.587c1.865,0.391,3.739,0.581,5.606,0.581
				c5.294,0,8.728-1.671,10.287-5.024c1.555-3.349,2.336-9.468,2.336-18.35v-71.521c0-1.87,0-4.128,0-6.781c0-2.648,0-5.296,0-7.945
				c0-2.803-0.081-5.451-0.232-7.946c-0.161-2.493-0.472-4.594-0.934-6.311c-1.403-5.763-5.225-8.648-11.458-8.648
				c-1.867,0-3.742,0.195-5.606,0.582c-1.872,0.391-3.739,0.586-5.614,0.586c-2.183,0-3.971-0.778-5.374-2.337
				c-1.403-1.554-2.104-3.428-2.104-5.609c0-3.117,0.623-5.299,1.872-6.545c1.247-1.245,2.962-1.871,5.14-1.871
				c3.116,0,6.271,0.432,9.471,1.284c3.189,0.86,6.427,1.287,9.692,1.287c3.121,0,6.198-0.427,9.236-1.287
				c3.041-0.853,6.117-1.284,9.231-1.284c2.652,0,4.565,0.549,5.729,1.635c1.171,1.092,1.755,2.962,1.755,5.61
				c0,1.562-0.117,3.08-0.352,4.56c-0.232,1.482-0.349,2.921-0.349,4.323V263.142z"/>
		</g>
	</g>
	<g>
		<path fill="#FFFFFF" d="M298.712,199.517l14.466,43.627l13.74-42.874c1.026-3.282,1.537-5.606,1.537-6.974
			c0-2.598-1.366-3.899-4.101-3.899c-0.481,0-1.229,0.088-2.256,0.259c-1.027,0.17-1.782,0.255-2.256,0.255
			c-2.667,0-4.001-1.195-4.001-3.589c0-2.325,1.298-3.489,3.898-3.489c1.435,0,3.604,0.207,6.513,0.617
			c2.903,0.41,5.108,0.614,6.616,0.614c2.461,0,5.501-0.307,9.128-0.924c1.161-0.204,2.253-0.307,3.282-0.307
			c2.527,0,3.791,1.198,3.791,3.592c0,2.325-1.264,3.486-3.791,3.486c-0.071,0-0.208-0.034-0.41-0.104l-2.361-0.204h-0.511
			c-1.166,0-2.104,0.566-2.82,1.692c-0.719,1.128-1.73,3.574-3.028,7.333l-16.821,49.334c-1.161,3.354-3.314,5.025-6.46,5.025
			c-3.282,0-5.506-1.67-6.667-5.016l-18.361-51.508c-0.887-2.528-1.604-4.129-2.151-4.813c-0.96-1.16-2.461-1.74-4.517-1.74
			c-0.406,0-1.056,0-1.943,0c-0.895,0-1.542,0-1.953,0c-2.667,0-3.999-1.161-3.999-3.489c0-2.392,1.369-3.589,4.104-3.589
			c0.819,0,1.743,0.097,2.767,0.286c3.83,0.699,7.214,1.048,10.152,1.048c1.71,0,4.243-0.222,7.591-0.666
			c3.351-0.443,5.849-0.668,7.488-0.668c2.529,0,3.796,1.127,3.796,3.385c0,2.461-1.298,3.693-3.898,3.693c-0.137,0-0.444,0-0.924,0
			c-0.408,0-0.751,0-1.024,0c-0.41,0-0.994,0-1.742,0c-3.011,0-4.514,0.953-4.514,2.859c0,0.957,0.169,1.977,0.513,3.066
			L298.712,199.517z"/>
		<path fill="#FFFFFF" d="M391.434,221.503c0,2.598-0.173,4.187-0.513,4.767c-0.34,0.584-1.332,0.872-2.973,0.872h-32.617
			c-0.887,0-1.471,0.122-1.744,0.359c-0.274,0.239-0.408,0.634-0.408,1.178c0,5.129,1.537,9.406,4.614,12.822
			c3.074,3.422,6.903,5.128,11.486,5.128c3.009,0,5.761-0.821,8.258-2.461c2.493-1.641,4.118-3.725,4.868-6.257l0.924-2.975
			c0.479-1.642,1.608-2.462,3.386-2.462c2.529,0,3.795,1.302,3.795,3.899c0,4.445-2.258,8.393-6.768,11.844
			c-4.516,3.453-9.644,5.181-15.387,5.181c-7.178,0-12.89-2.409-17.128-7.229c-4.242-4.819-6.356-11.301-6.356-19.438
			c0-8.342,2.256-15.109,6.768-20.309c4.512-5.196,10.392-7.794,17.641-7.794c6.425,0,11.726,2.155,15.897,6.461
			C389.347,209.399,391.434,214.873,391.434,221.503z M354.202,218.834c0,0.96,0.75,1.438,2.259,1.438h24.51
			c1.435,0,2.156-0.478,2.156-1.438c0-3.622-1.371-6.768-4.104-9.435c-2.737-2.667-5.949-4-9.642-4c-3.83,0-7.317,1.383-10.46,4.155
			C355.773,212.322,354.202,215.417,354.202,218.834z"/>
		<path fill="#FFFFFF" d="M414.51,203.298v2.819c3.554-4.989,8.31-7.487,14.258-7.487c4.783,0,8.667,1.353,11.641,4.051
			c2.973,2.702,4.463,6.171,4.463,10.41c0,3.012-0.755,5.455-2.258,7.333c-1.506,1.884-3.485,2.823-5.951,2.823
			c-1.574,0-2.903-0.48-3.998-1.437c-1.093-0.957-1.641-2.118-1.641-3.485c0-1.095,0.411-2.07,1.229-2.924
			c0.821-0.857,1.779-1.282,2.872-1.282c0.207,0,0.649,0.1,1.334,0.307c0.411-0.82,0.616-1.571,0.616-2.258
			c0-1.981-0.875-3.655-2.615-5.022c-1.745-1.368-3.918-2.054-6.514-2.054c-5.335,0-8.891,2.394-10.667,7.18
			c-1.096,2.941-1.643,7.385-1.643,13.334v6.77c0,4.581,0.036,7.146,0.104,7.69c0.34,3.9,1.4,5.849,3.183,5.849
			c0.887,0,1.806-0.12,2.764-0.354c0.753-0.176,1.403-0.265,1.95-0.265c2.19,0,3.282,1.081,3.282,3.236
			c0,2.355-1.397,3.534-4.191,3.534h-0.408c-1.021,0-2.57-0.12-4.653-0.357c-2.077-0.239-3.629-0.359-4.648-0.359
			c-2.727,0-4.875,0.066-6.439,0.203l-5.724,0.514c-2.794,0-4.191-1.193-4.191-3.588c0-2.121,1.313-3.183,3.933-3.183
			c0.688,0,1.209,0.039,1.554,0.104l1.552,0.308c0.689,0.142,1.171,0.208,1.449,0.208c1.724,0,2.659-1.572,2.797-4.72v-5.23
			l-0.309-23.282c-0.208-4.032-1.234-6.05-3.079-6.05c-0.55,0-1.296,0.1-2.256,0.307c-0.958,0.207-1.708,0.307-2.256,0.307
			c-2.256,0-3.385-1.091-3.385-3.282c0-2.392,1.471-3.589,4.411-3.589c0.682,0,1.708,0.085,3.077,0.255
			c1.366,0.173,2.393,0.259,3.074,0.259c0.548,0,1.438-0.085,2.667-0.259c0.547-0.17,1.197-0.255,1.952-0.255
			C413.62,200.374,414.51,201.35,414.51,203.298z"/>
		<path fill="#FFFFFF" d="M490.407,203.45v2.974c2.461-2.938,4.785-4.973,6.973-6.101c2.188-1.127,4.922-1.693,8.21-1.693
			c6.696,0,11.621,2.598,14.766,7.794c2.324-2.87,4.683-4.885,7.078-6.05c2.393-1.161,5.47-1.744,9.229-1.744
			c3.898,0,7.388,0.824,10.463,2.467c3.419,1.852,5.777,4.456,7.077,7.813c0.888,2.261,1.335,5.822,1.335,10.687v9.974v7.705
			c0,2.813,0.031,4.524,0.1,5.143c0.338,2.466,1.218,3.697,2.64,3.697c0.475,0,1.186-0.117,2.134-0.356s1.662-0.361,2.136-0.361
			c2.368,0,3.554,1.028,3.554,3.079c0,2.395-1.368,3.588-4.104,3.588c-1.023,0-2.578-0.12-4.663-0.357
			c-2.09-0.239-3.678-0.359-4.771-0.359c-1.166,0-2.856,0.12-5.078,0.359c-2.222,0.237-3.916,0.357-5.076,0.357
			c-2.872,0-4.309-1.193-4.309-3.588c0-2.051,1.095-3.079,3.282-3.079c0.273,0,0.958,0.073,2.05,0.207
			c0.411,0.137,0.958,0.203,1.643,0.203c1.163,0,1.899-0.579,2.204-1.742c0.309-1.161,0.496-4.067,0.565-8.718v-6.258v-6.768
			c0-4.719-0.357-8.153-1.071-10.308c-0.718-2.154-2.063-3.847-4.034-5.077c-1.976-1.23-4.222-1.848-6.741-1.848
			c-4.839,0-8.207,1.676-10.113,5.026c-1.498,2.667-2.246,7.317-2.246,13.95v7.282c0,6.427,0.154,10.447,0.463,12.05
			c0.308,1.608,1.109,2.41,2.409,2.41c0.411,0,1.01-0.066,1.796-0.203c0.785-0.134,1.384-0.207,1.792-0.207
			c0.958,0,1.76,0.322,2.41,0.963c0.652,0.64,0.978,1.43,0.978,2.37c0,2.227-1.608,3.334-4.82,3.334
			c-1.028,0-2.551-0.137-4.564-0.408c-2.02-0.274-3.539-0.411-4.563-0.411c-1.439,0-3.014,0.137-4.72,0.411
			c-1.708,0.271-3.216,0.408-4.514,0.408c-2.803,0-4.206-1.159-4.206-3.485c0-2.121,1.029-3.182,3.079-3.182
			c0.751,0,1.335,0.098,1.745,0.29c0.953,0.286,1.675,0.428,2.151,0.428c1.64,0,2.497-1.75,2.563-5.254l0.311-4.847
			c0-1.513,0-2.989,0-4.43c0-1.24,0-1.891,0-1.96v-8.558c0-5.977-0.805-10.134-2.412-12.472c-1.608-2.336-4.461-3.506-8.564-3.506
			c-4.511,0-7.967,1.649-10.359,4.946c-1.984,2.684-2.975,7.358-2.975,14.021v13.709c0,2.752,0.034,4.365,0.103,4.845
			c0.273,2.336,1.024,3.504,2.259,3.504c0.339,0,1.058-0.188,2.152-0.571c0.138,0,0.343-0.049,0.616-0.146c0.271,0,0.514,0,0.716,0
			c2.669,0,4.001,1.129,4.001,3.387c0,2.188-1.537,3.28-4.614,3.28c-1.163,0-2.601-0.103-4.309-0.306
			c-2.324-0.273-4.309-0.411-5.948-0.411c-0.821,0-2.327,0.101-4.515,0.309c-2.938,0.271-4.717,0.408-5.332,0.408
			c-2.735,0-4.102-1.159-4.102-3.485c0-2.121,1.32-3.182,3.967-3.182c0.142,0,0.35,0,0.631,0c0.275,0.073,0.486,0.104,0.625,0.104
			l2.61,0.514c0.071,0.065,0.21,0.1,0.42,0.1c1.88,0,2.89-1.674,3.028-5.022v-5.848v-15.691c0-5.813-0.153-9.438-0.462-10.873
			c-0.306-1.437-1.146-2.154-2.512-2.154c-0.274,0-1.232,0.17-2.872,0.513c-0.685,0.137-1.231,0.204-1.64,0.204
			c-2.532,0-3.796-1.091-3.796-3.282c0-2.324,1.4-3.485,4.204-3.485c0.752,0,1.779,0.067,3.076,0.204
			c1.301,0.136,2.428,0.207,3.386,0.207c0.342,0,0.718,0,1.129,0c0.41,0,0.647,0,0.719,0l2.461-0.411h0.306
			C489.586,200.478,490.407,201.469,490.407,203.45z"/>
		<path fill="#FFFFFF" d="M614.308,252.989c-5.607,0-9.063-2.427-10.36-7.283c-3.487,5.13-8.96,7.693-16.414,7.693
			c-5.535,0-9.964-1.368-13.278-4.101c-3.318-2.735-4.976-6.394-4.976-10.977c0-5.672,2.427-9.845,7.283-12.514
			c1.848-1.024,3.437-1.688,4.766-1.999c1.335-0.307,4.018-0.699,8.053-1.179c5.743-0.613,9.487-1.47,11.232-2.565
			c1.745-1.09,2.615-3.107,2.615-6.05c0-2.801-0.975-5.008-2.923-6.615c-1.95-1.608-4.666-2.41-8.155-2.41
			c-3.075,0-5.946,0.853-8.615,2.565c-1.024,0.683-1.537,1.4-1.537,2.15c0,0.274,0.308,0.617,0.924,1.028
			c0.953,0.683,1.435,1.844,1.435,3.485c0,1.37-0.496,2.498-1.486,3.385c-0.994,0.891-2.243,1.334-3.744,1.334
			c-1.781,0-3.268-0.614-4.46-1.848c-1.197-1.23-1.797-2.732-1.797-4.513c0-3.828,1.897-7.11,5.692-9.845
			c3.796-2.735,8.393-4.103,13.796-4.103c12.442,0,18.667,5.971,18.667,17.911v20.675c0,3.274,0.066,5.218,0.203,5.831
			c0.411,2.391,1.574,3.583,3.488,3.583c2.393,0,3.59-2.17,3.59-6.519v-4.993c0-2.17,1.041-3.256,3.128-3.256
			c2.222,0,3.334,1.641,3.334,4.923v0.514v5.846C624.628,249.709,621.143,252.989,614.308,252.989z M602.921,232.579v-7.28
			c-1.498,1.367-3.082,2.324-4.751,2.872c-1.667,0.546-4.648,1.023-8.938,1.433c-7.763,0.754-11.644,3.626-11.644,8.614
			c0,2.603,0.938,4.653,2.82,6.158c1.877,1.504,4.424,2.254,7.64,2.254c4.578,0,8.188-1.246,10.819-3.744
			C601.501,240.393,602.853,236.956,602.921,232.579z"/>
		<path fill="#FFFFFF" d="M649.625,198.63c4.565,0,8.381,1.198,11.45,3.589v-0.411c0-2.528,1.093-3.792,3.282-3.792
			c2.256,0,3.383,1.094,3.383,3.281c0,0.411-0.06,1.435-0.172,3.076c-0.227,1.37-0.339,2.735-0.339,4.102
			c0,0.82,0.085,2.018,0.254,3.591c0.171,1.574,0.257,2.769,0.257,3.589c0,2.598-1.112,3.899-3.331,3.899
			c-2.158,0-3.266-1.095-3.334-3.286v-3.381c-0.068-2.052-1.249-3.812-3.539-5.285c-2.292-1.467-4.976-2.203-8.051-2.203
			c-3.147,0-5.779,0.803-7.898,2.41c-2.119,1.608-3.18,3.607-3.18,5.999c0,4.379,3.009,6.978,9.028,7.797l5.946,0.821
			c11.623,1.57,17.435,6.393,17.435,14.46c0,4.923-1.874,8.906-5.623,11.949s-8.657,4.563-14.726,4.563
			c-5.66,0-10.569-1.608-14.727-4.819c0,0.685,0,1.332,0,1.95c0,2.459-1.164,3.69-3.488,3.69c-2.531,0-3.795-1.402-3.795-4.203
			c0,0.479,0.205-1.301,0.615-5.333c0.138-0.958,0.206-1.916,0.206-2.874c0-1.641-0.138-3.183-0.411-4.614
			c-0.273-1.438-0.41-2.566-0.41-3.388c0-2.391,1.095-3.588,3.282-3.588c1.437,0,2.341,0.344,2.72,1.024
			c0.372,0.685,0.597,2.498,0.665,5.438c0.065,2.94,1.608,5.333,4.614,7.181c3.009,1.843,6.838,2.767,11.486,2.767
			c3.354,0,6.122-0.854,8.31-2.563c2.188-1.709,3.282-3.864,3.282-6.46c0-4.65-3.692-7.353-11.076-8.103
			c-7.046-0.753-12.41-2.137-16.104-4.154c-3.692-2.018-5.54-5.555-5.54-10.618c0-4.786,1.809-8.667,5.418-11.641
			C639.131,200.116,643.83,198.63,649.625,198.63z"/>
	</g>
	<g>
		<path fill="#FFFFFF" d="M784.711,269.19c0,27.98-22.685,50.661-50.664,50.661c-27.976,0-50.661-22.681-50.661-50.661
			c0-27.977,22.686-50.663,50.661-50.663C762.026,218.528,784.711,241.214,784.711,269.19z"/>
		<path fill="#5799D9" d="M765.733,261.191h-23.688v-23.689c0-4.417-3.58-7.998-7.999-7.998c-4.413,0-7.999,3.581-7.999,7.998
			v23.689h-23.685c-4.421,0-8.001,3.58-8.001,7.999c0,4.418,3.58,8.001,8.001,8.001h23.685v23.688c0,4.418,3.586,7.999,7.999,7.999
			c4.419,0,7.999-3.581,7.999-7.999v-23.688h23.688c4.421,0,8.002-3.583,8.002-8.001
			C773.735,264.771,770.154,261.191,765.733,261.191z"/>
	</g>
</g>
</svg>
