<?xml version="1.0" encoding="utf-8"?>
<!-- Generator: Adobe Illustrator 16.0.0, SVG Export Plug-In . SVG Version: 6.00 Build 0)  -->
<!DOCTYPE svg PUBLIC "-//W3C//DTD SVG 1.1//EN" "http://www.w3.org/Graphics/SVG/1.1/DTD/svg11.dtd">
<svg version="1.1" id="Capa_1" xmlns="http://www.w3.org/2000/svg" xmlns:xlink="http://www.w3.org/1999/xlink" x="0px" y="0px"
	 width="800px" height="450px" viewBox="0 0 800 450" enable-background="new 0 0 800 450" xml:space="preserve">
<g>
	<g>
		<path fill="#FFFFFF" d="M302.052,219.825l14.468,43.627l13.738-42.874c1.026-3.282,1.537-5.604,1.537-6.974
			c0-2.6-1.366-3.899-4.101-3.899c-0.481,0-1.229,0.088-2.256,0.259c-1.027,0.172-1.782,0.257-2.258,0.257
			c-2.667,0-4.001-1.195-4.001-3.591c0-2.323,1.3-3.487,3.898-3.487c1.435,0,3.604,0.207,6.513,0.617
			c2.903,0.408,5.108,0.612,6.616,0.612c2.461,0,5.501-0.307,9.128-0.924c1.161-0.204,2.253-0.307,3.282-0.307
			c2.527,0,3.791,1.196,3.791,3.592c0,2.325-1.264,3.486-3.791,3.486c-0.071,0-0.208-0.034-0.41-0.104l-2.361-0.204h-0.511
			c-1.166,0-2.104,0.566-2.82,1.692c-0.719,1.128-1.729,3.574-3.026,7.333l-16.821,49.334c-1.161,3.354-3.313,5.023-6.46,5.023
			c-3.282,0-5.506-1.67-6.667-5.016l-18.361-51.508c-0.887-2.528-1.604-4.129-2.149-4.813c-0.96-1.16-2.461-1.738-4.519-1.738
			c-0.404,0-1.056,0-1.941,0c-0.896,0-1.542,0-1.953,0c-2.667,0-3.999-1.161-3.999-3.489c0-2.394,1.369-3.589,4.104-3.589
			c0.819,0,1.743,0.097,2.769,0.286c3.83,0.697,7.214,1.048,10.151,1.048c1.71,0,4.242-0.224,7.592-0.666
			c3.351-0.443,5.849-0.668,7.486-0.668c2.529,0,3.797,1.127,3.797,3.385c0,2.461-1.299,3.693-3.897,3.693c-0.137,0-0.444,0-0.924,0
			c-0.408,0-0.751,0-1.024,0c-0.41,0-0.994,0-1.742,0c-3.011,0-4.514,0.951-4.514,2.857c0,0.957,0.169,1.979,0.513,3.066
			L302.052,219.825z"/>
		<path fill="#FFFFFF" d="M394.774,241.812c0,2.598-0.173,4.187-0.515,4.767c-0.34,0.584-1.332,0.872-2.973,0.872H358.67
			c-0.887,0-1.471,0.122-1.744,0.359c-0.272,0.237-0.406,0.634-0.406,1.178c0,5.129,1.535,9.406,4.612,12.822
			c3.074,3.422,6.903,5.128,11.486,5.128c3.009,0,5.761-0.821,8.258-2.461c2.493-1.643,4.118-3.727,4.868-6.257l0.924-2.977
			c0.479-1.642,1.608-2.462,3.386-2.462c2.529,0,3.796,1.302,3.796,3.899c0,4.443-2.259,8.393-6.769,11.844
			c-4.516,3.453-9.644,5.181-15.387,5.181c-7.179,0-12.892-2.409-17.128-7.229c-4.242-4.819-6.356-11.301-6.356-19.438
			c0-8.342,2.256-15.107,6.77-20.309c4.512-5.196,10.392-7.794,17.641-7.794c6.425,0,11.726,2.153,15.897,6.461
			C392.688,229.707,394.774,235.182,394.774,241.812z M357.542,239.143c0,0.96,0.75,1.438,2.259,1.438h24.512
			c1.435,0,2.154-0.478,2.154-1.438c0-3.622-1.371-6.77-4.104-9.437c-2.737-2.667-5.949-4-9.644-4c-3.829,0-7.315,1.383-10.46,4.155
			C359.113,232.63,357.542,235.726,357.542,239.143z"/>
		<path fill="#FFFFFF" d="M417.851,223.606v2.819c3.554-4.989,8.31-7.487,14.258-7.487c4.783,0,8.667,1.353,11.641,4.051
			c2.975,2.702,4.463,6.171,4.463,10.41c0,3.012-0.755,5.455-2.258,7.333c-1.506,1.884-3.483,2.823-5.951,2.823
			c-1.572,0-2.901-0.48-3.997-1.438c-1.094-0.957-1.642-2.118-1.642-3.483c0-1.097,0.411-2.07,1.229-2.926
			c0.819-0.855,1.777-1.28,2.872-1.28c0.206,0,0.647,0.1,1.334,0.307c0.409-0.82,0.614-1.571,0.614-2.258
			c0-1.981-0.875-3.655-2.613-5.022c-1.745-1.368-3.918-2.054-6.516-2.054c-5.335,0-8.891,2.394-10.667,7.18
			c-1.096,2.941-1.643,7.387-1.643,13.334v6.771c0,4.581,0.034,7.146,0.104,7.688c0.34,3.9,1.4,5.851,3.184,5.851
			c0.888,0,1.807-0.12,2.765-0.354c0.753-0.176,1.403-0.265,1.95-0.265c2.188,0,3.282,1.081,3.282,3.236
			c0,2.354-1.397,3.532-4.191,3.532h-0.408c-1.021,0-2.57-0.12-4.653-0.355c-2.075-0.239-3.629-0.359-4.646-0.359
			c-2.729,0-4.875,0.066-6.439,0.203l-5.724,0.514c-2.794,0-4.191-1.191-4.191-3.588c0-2.121,1.313-3.183,3.935-3.183
			c0.688,0,1.209,0.039,1.554,0.104l1.552,0.31c0.689,0.142,1.171,0.208,1.449,0.208c1.724,0,2.659-1.572,2.797-4.722v-5.229
			l-0.309-23.282c-0.208-4.032-1.234-6.05-3.079-6.05c-0.55,0-1.296,0.1-2.256,0.307c-0.958,0.207-1.708,0.309-2.256,0.309
			c-2.258,0-3.387-1.091-3.387-3.282c0-2.392,1.473-3.589,4.411-3.589c0.684,0,1.708,0.085,3.077,0.255
			c1.366,0.173,2.393,0.259,3.074,0.259c0.548,0,1.438-0.085,2.667-0.259c0.547-0.17,1.196-0.255,1.952-0.255
			C416.96,220.683,417.851,221.658,417.851,223.606z"/>
		<path fill="#FFFFFF" d="M493.747,223.759v2.974c2.461-2.938,4.785-4.973,6.975-6.103c2.188-1.127,4.922-1.691,8.21-1.691
			c6.694,0,11.621,2.598,14.766,7.794c2.324-2.87,4.683-4.885,7.078-6.05c2.393-1.161,5.47-1.744,9.229-1.744
			c3.898,0,7.39,0.824,10.465,2.467c3.419,1.854,5.775,4.456,7.075,7.813c0.89,2.261,1.336,5.82,1.336,10.687v9.974v7.705
			c0,2.813,0.03,4.524,0.101,5.145c0.338,2.466,1.218,3.697,2.64,3.697c0.477,0,1.188-0.117,2.134-0.356
			c0.948-0.239,1.662-0.361,2.138-0.361c2.366,0,3.554,1.028,3.554,3.079c0,2.396-1.368,3.588-4.104,3.588
			c-1.022,0-2.577-0.12-4.662-0.355c-2.092-0.239-3.68-0.359-4.771-0.359c-1.166,0-2.854,0.12-5.078,0.359
			c-2.222,0.235-3.916,0.355-5.076,0.355c-2.871,0-4.309-1.191-4.309-3.588c0-2.051,1.095-3.079,3.282-3.079
			c0.271,0,0.958,0.073,2.05,0.207c0.411,0.139,0.958,0.203,1.643,0.203c1.163,0,1.899-0.579,2.204-1.742
			c0.311-1.161,0.496-4.065,0.565-8.718V249.4v-6.77c0-4.719-0.357-8.151-1.071-10.308c-0.718-2.154-2.063-3.847-4.034-5.077
			c-1.976-1.229-4.222-1.848-6.74-1.848c-4.84,0-8.206,1.676-10.112,5.026c-1.498,2.667-2.246,7.315-2.246,13.948v7.282
			c0,6.427,0.154,10.447,0.463,12.05c0.308,1.608,1.109,2.41,2.409,2.41c0.411,0,1.01-0.064,1.796-0.203
			c0.785-0.134,1.384-0.207,1.792-0.207c0.958,0,1.76,0.322,2.41,0.963c0.65,0.642,0.978,1.432,0.978,2.37
			c0,2.229-1.606,3.334-4.818,3.334c-1.028,0-2.553-0.137-4.564-0.408c-2.021-0.272-3.539-0.409-4.563-0.409
			c-1.438,0-3.015,0.137-4.721,0.409c-1.708,0.271-3.216,0.408-4.514,0.408c-2.803,0-4.206-1.159-4.206-3.483
			c0-2.121,1.029-3.184,3.079-3.184c0.751,0,1.335,0.1,1.745,0.29c0.953,0.286,1.675,0.428,2.15,0.428
			c1.641,0,2.496-1.75,2.563-5.254l0.311-4.847c0-1.513,0-2.989,0-4.43c0-1.24,0-1.893,0-1.96v-8.56
			c0-5.977-0.805-10.134-2.411-12.472c-1.607-2.336-4.462-3.506-8.563-3.506c-4.511,0-7.967,1.647-10.359,4.946
			c-1.982,2.684-2.975,7.356-2.975,14.021v13.709c0,2.752,0.034,4.365,0.104,4.845c0.272,2.336,1.023,3.504,2.26,3.504
			c0.339,0,1.058-0.188,2.15-0.569c0.14,0,0.344-0.049,0.616-0.146c0.271,0,0.515,0,0.716,0c2.669,0,4.001,1.129,4.001,3.389
			c0,2.188-1.536,3.278-4.613,3.278c-1.162,0-2.602-0.103-4.31-0.306c-2.324-0.273-4.309-0.411-5.948-0.411
			c-0.819,0-2.326,0.101-4.515,0.309c-2.938,0.271-4.717,0.408-5.332,0.408c-2.734,0-4.102-1.159-4.102-3.483
			c0-2.121,1.318-3.184,3.967-3.184c0.142,0,0.35,0,0.631,0c0.275,0.073,0.486,0.104,0.625,0.104l2.61,0.514
			c0.069,0.065,0.21,0.1,0.42,0.1c1.88,0,2.89-1.674,3.026-5.021v-5.848v-15.691c0-5.813-0.151-9.438-0.462-10.873
			c-0.306-1.437-1.146-2.154-2.512-2.154c-0.274,0-1.231,0.17-2.872,0.515c-0.685,0.137-1.23,0.204-1.64,0.204
			c-2.532,0-3.796-1.093-3.796-3.282c0-2.324,1.398-3.485,4.203-3.485c0.753,0,1.778,0.067,3.075,0.204
			c1.302,0.136,2.43,0.207,3.387,0.207c0.343,0,0.719,0,1.13,0c0.409,0,0.646,0,0.719,0l2.461-0.411h0.306
			C492.928,220.786,493.747,221.777,493.747,223.759z"/>
		<path fill="#FFFFFF" d="M617.648,273.297c-5.607,0-9.063-2.427-10.36-7.281c-3.485,5.13-8.96,7.691-16.414,7.691
			c-5.534,0-9.964-1.368-13.276-4.101c-3.318-2.735-4.978-6.396-4.978-10.979c0-5.672,2.427-9.845,7.283-12.514
			c1.848-1.024,3.438-1.688,4.766-1.999c1.335-0.307,4.02-0.699,8.055-1.179c5.742-0.613,9.485-1.47,11.23-2.565
			c1.745-1.09,2.615-3.105,2.615-6.05c0-2.801-0.975-5.008-2.923-6.615c-1.95-1.606-4.666-2.41-8.155-2.41
			c-3.075,0-5.946,0.854-8.615,2.565c-1.022,0.683-1.536,1.4-1.536,2.15c0,0.272,0.309,0.615,0.925,1.026
			c0.953,0.685,1.435,1.846,1.435,3.485c0,1.37-0.496,2.498-1.486,3.385c-0.992,0.893-2.241,1.334-3.742,1.334
			c-1.781,0-3.27-0.614-4.461-1.848c-1.196-1.23-1.797-2.732-1.797-4.515c0-3.826,1.896-7.108,5.691-9.845
			c3.796-2.733,8.394-4.103,13.796-4.103c12.442,0,18.667,5.971,18.667,17.911v20.675c0,3.272,0.066,5.218,0.203,5.831
			c0.411,2.391,1.574,3.583,3.488,3.583c2.393,0,3.59-2.17,3.59-6.521v-4.993c0-2.17,1.041-3.256,3.128-3.256
			c2.222,0,3.334,1.643,3.334,4.923v0.516v5.846C627.97,270.018,624.483,273.297,617.648,273.297z M606.263,252.888v-7.28
			c-1.498,1.367-3.082,2.324-4.751,2.872c-1.667,0.546-4.648,1.021-8.938,1.433c-7.763,0.754-11.644,3.626-11.644,8.614
			c0,2.603,0.938,4.653,2.818,6.158c1.877,1.504,4.426,2.254,7.642,2.254c4.578,0,8.188-1.246,10.817-3.744
			C604.843,260.701,606.193,257.265,606.263,252.888z"/>
		<path fill="#FFFFFF" d="M652.965,218.938c4.565,0,8.383,1.198,11.45,3.589v-0.411c0-2.528,1.095-3.792,3.282-3.792
			c2.256,0,3.383,1.094,3.383,3.281c0,0.411-0.06,1.435-0.172,3.076c-0.227,1.37-0.339,2.733-0.339,4.102
			c0,0.82,0.085,2.02,0.254,3.591c0.171,1.574,0.257,2.771,0.257,3.589c0,2.6-1.11,3.899-3.331,3.899
			c-2.156,0-3.266-1.095-3.334-3.286v-3.381c-0.066-2.052-1.249-3.812-3.539-5.285c-2.292-1.467-4.976-2.203-8.051-2.203
			c-3.146,0-5.778,0.805-7.896,2.41c-2.119,1.608-3.182,3.607-3.182,5.999c0,4.379,3.009,6.979,9.028,7.797l5.946,0.821
			c11.623,1.57,17.435,6.393,17.435,14.46c0,4.923-1.874,8.906-5.623,11.949s-8.657,4.563-14.726,4.563
			c-5.66,0-10.569-1.606-14.729-4.817c0,0.685,0,1.332,0,1.948c0,2.459-1.164,3.69-3.486,3.69c-2.531,0-3.796-1.402-3.796-4.203
			c0,0.479,0.204-1.301,0.614-5.333c0.14-0.958,0.206-1.916,0.206-2.874c0-1.641-0.138-3.183-0.411-4.614
			c-0.271-1.438-0.409-2.564-0.409-3.388c0-2.391,1.096-3.588,3.281-3.588c1.438,0,2.341,0.344,2.722,1.024
			c0.372,0.685,0.597,2.498,0.665,5.438c0.063,2.94,1.606,5.333,4.612,7.181c3.009,1.845,6.838,2.769,11.486,2.769
			c3.354,0,6.122-0.854,8.31-2.563c2.188-1.709,3.282-3.862,3.282-6.46c0-4.648-3.69-7.353-11.076-8.103
			c-7.046-0.753-12.41-2.137-16.104-4.154c-3.692-2.018-5.54-5.555-5.54-10.618c0-4.786,1.809-8.667,5.418-11.641
			C642.473,220.425,647.17,218.938,652.965,218.938z"/>
	</g>
	<g>
		<path fill="#FFFFFF" d="M788.053,289.498c0,27.98-22.687,50.661-50.664,50.661s-50.661-22.681-50.661-50.661
			c0-27.977,22.686-50.663,50.661-50.663C765.366,238.836,788.053,261.522,788.053,289.498z"/>
		<path fill="#5799D9" d="M769.073,281.499h-23.688v-23.688c0-4.417-3.58-7.998-7.999-7.998c-4.413,0-7.999,3.581-7.999,7.998
			v23.688h-23.687c-4.421,0-8.001,3.58-8.001,7.999c0,4.418,3.58,8.001,8.001,8.001h23.687v23.688c0,4.418,3.586,7.999,7.999,7.999
			c4.419,0,7.999-3.581,7.999-7.999v-23.688h23.688c4.421,0,8.002-3.583,8.002-8.001
			C777.075,285.079,773.494,281.499,769.073,281.499z"/>
	</g>
	<g>
		<g>
			<circle fill="#FFFFFF" stroke="#FFFFFF" stroke-miterlimit="10" cx="137.938" cy="225" r="125.99"/>
		</g>
		<g enable-background="new    ">
			<path fill="#5799D9" d="M144.395,210.196c3.856-1.336,7.603-2.817,11.24-4.452c3.634-1.631,6.823-3.562,9.571-5.787
				c2.744-2.226,4.97-4.858,6.678-7.902c1.704-3.039,2.56-6.565,2.56-10.572c0-5.488-1.04-10.201-3.116-14.134
				c-2.08-3.931-4.824-7.123-8.236-9.571c-3.415-2.448-7.345-4.229-11.797-5.343c-4.451-1.112-9.126-1.669-14.022-1.669
				c-4.306,0-8.758,0.483-13.355,1.447c-4.601,0.967-8.757,2.709-12.465,5.23c-1.04,0.744-2.19,1.635-3.45,2.671
				c-1.262,1.04-2.413,2.191-3.449,3.45c-1.04,1.263-1.931,2.598-2.672,4.007c-0.744,1.411-1.112,2.858-1.112,4.34
				c0,1.189,0.629,1.969,1.892,2.337c1.259,0.372,2.633,0.817,4.118,1.336c1.481,0.521,2.855,1.412,4.118,2.671
				c1.259,1.263,1.892,3.45,1.892,6.566c0,3.86-1.523,7.161-4.563,9.905c-3.043,2.747-6.493,4.117-10.35,4.117
				c-5.642,0-9.943-1.892-12.91-5.676c-2.97-3.784-4.452-8.347-4.452-13.688c0-7.123,1.816-13.502,5.454-19.143
				c3.634-5.638,8.271-10.385,13.911-14.245c5.342-3.562,11.498-6.268,18.475-8.125c6.974-1.854,13.65-2.782,20.032-2.782
				c6.379,0,12.834,0.779,19.365,2.337c6.528,1.559,12.465,4.194,17.807,7.902c5.934,4.306,10.496,9.46,13.689,15.47
				c3.189,6.01,4.785,12.726,4.785,20.144c0,5.491-1.189,10.872-3.562,16.138c-2.375,5.269-6.086,9.981-11.129,14.134
				c-4.751,3.86-10.239,6.9-16.472,9.126c-6.231,2.226-12.242,4.306-18.029,6.232c-4.451,1.485-9.536,3.228-15.247,5.23
				c-5.714,2.004-11.205,4.452-16.471,7.346c-5.27,2.894-9.794,6.344-13.578,10.351c-3.784,4.006-5.898,8.757-6.344,14.245
				l0.445,0.445c3.116-3.857,6.824-6.678,11.13-8.458c4.302-1.781,8.903-2.672,13.8-2.672c5.934,0,11.164,1.301,15.692,3.896
				c4.524,2.598,8.792,5.492,12.799,8.681c4.006,3.193,7.937,6.087,11.797,8.681c3.856,2.599,8.159,3.896,12.91,3.896
				c4.598,0,8.124-1.593,10.572-4.785c2.448-3.189,3.673-6.936,3.673-11.241c0-0.89-0.111-1.631-0.334-2.226
				c-0.223-0.591-0.483-1.259-0.779-2.003c-1.78,2.524-4.306,3.784-7.567,3.784c-2.971,0-5.419-0.853-7.346-2.561
				c-1.93-1.704-2.894-4.117-2.894-7.233c0-3.857,1.37-6.862,4.118-9.015c2.744-2.149,5.972-3.228,9.683-3.228
				c6.677,0,11.497,2.264,14.468,6.789c2.967,4.527,4.451,9.904,4.451,16.137c0,4.156-0.744,8.274-2.226,12.354
				c-1.485,4.083-3.562,7.718-6.232,10.907c-2.671,3.192-5.863,5.749-9.571,7.679c-3.711,1.927-7.79,2.894-12.242,2.894
				c-4.156,0-7.939-0.633-11.352-1.892c-3.415-1.263-6.643-2.859-9.683-4.786c-3.043-1.927-5.937-4.041-8.681-6.344
				c-2.747-2.299-5.603-4.413-8.569-6.343c-2.971-1.927-6.087-3.523-9.349-4.786c-3.266-1.259-6.9-1.892-10.907-1.892
				c-1.634,0-3.338,0.149-5.119,0.445c-1.78,0.299-3.415,0.778-4.896,1.446c-1.485,0.668-2.782,1.635-3.896,2.894
				c-1.113,1.263-1.892,2.782-2.337,4.563c0.445,0,0.852-0.035,1.224-0.111c0.369-0.073,0.779-0.111,1.225-0.111
				c1.78,0,3.374,0.557,4.785,1.669c1.409,1.113,2.115,2.709,2.115,4.786c0,3.116-1.078,5.638-3.228,7.567
				c-2.153,1.927-4.713,2.894-7.68,2.894c-3.415,0-6.232-0.744-8.458-2.226c-2.226-1.485-4.007-3.374-5.342-5.676
				c-1.336-2.299-2.303-4.897-2.894-7.791c-0.595-2.894-0.891-5.821-0.891-8.792c0-8.458,1.67-15.838,5.008-22.147
				c3.339-6.305,7.715-11.758,13.133-16.359c5.415-4.598,11.574-8.493,18.475-11.686c6.9-3.189,13.835-5.898,20.812-8.125
				L144.395,210.196z"/>
		</g>
	</g>
</g>
</svg>
